%TF.GenerationSoftware,KiCad,Pcbnew,8.0.5*%
%TF.CreationDate,2024-11-03T20:31:12-06:00*%
%TF.ProjectId,KiCAD_Custom_DRC_Rules_for_PCBWay,4b694341-445f-4437-9573-746f6d5f4452,rev?*%
%TF.SameCoordinates,Original*%
%TF.FileFunction,Copper,L2,Bot*%
%TF.FilePolarity,Positive*%
%FSLAX46Y46*%
G04 Gerber Fmt 4.6, Leading zero omitted, Abs format (unit mm)*
G04 Created by KiCad (PCBNEW 8.0.5) date 2024-11-03 20:31:12*
%MOMM*%
%LPD*%
G01*
G04 APERTURE LIST*
%TA.AperFunction,ComponentPad*%
%ADD10R,2.400000X1.600000*%
%TD*%
%TA.AperFunction,ComponentPad*%
%ADD11O,2.400000X1.600000*%
%TD*%
%TA.AperFunction,ComponentPad*%
%ADD12R,2.200000X2.200000*%
%TD*%
%TA.AperFunction,ComponentPad*%
%ADD13O,2.200000X2.200000*%
%TD*%
%TA.AperFunction,ComponentPad*%
%ADD14R,1.600000X2.400000*%
%TD*%
%TA.AperFunction,ComponentPad*%
%ADD15O,1.600000X2.400000*%
%TD*%
%TA.AperFunction,ComponentPad*%
%ADD16R,3.960000X1.980000*%
%TD*%
%TA.AperFunction,ComponentPad*%
%ADD17O,3.960000X1.980000*%
%TD*%
%TA.AperFunction,ViaPad*%
%ADD18C,0.750000*%
%TD*%
%TA.AperFunction,Conductor*%
%ADD19C,0.500000*%
%TD*%
%TA.AperFunction,Conductor*%
%ADD20C,1.000000*%
%TD*%
G04 APERTURE END LIST*
D10*
%TO.P,J3,1,Pin_1*%
%TO.N,unconnected-(J3-Pin_1-Pad1)*%
X75120000Y-75200000D03*
D11*
%TO.P,J3,2,Pin_2*%
%TO.N,Net-(J3-Pin_12)*%
X75120000Y-72660000D03*
%TO.P,J3,3,Pin_3*%
%TO.N,+VSW*%
X75120000Y-70120000D03*
%TO.P,J3,4,Pin_4*%
%TO.N,Vneg*%
X75120000Y-67580000D03*
%TO.P,J3,5,Pin_5*%
%TO.N,unconnected-(J3-Pin_5-Pad5)*%
X75120000Y-65040000D03*
%TO.P,J3,6,Pin_6*%
%TO.N,unconnected-(J3-Pin_6-Pad6)*%
X75120000Y-62500000D03*
%TO.P,J3,7,Pin_7*%
%TO.N,unconnected-(J3-Pin_7-Pad7)*%
X75120000Y-59960000D03*
%TO.P,J3,8,Pin_8*%
%TO.N,unconnected-(J3-Pin_8-Pad8)*%
X67500000Y-59960000D03*
%TO.P,J3,9,Pin_9*%
%TO.N,unconnected-(J3-Pin_9-Pad9)*%
X67500000Y-62500000D03*
%TO.P,J3,10,Pin_10*%
%TO.N,unconnected-(J3-Pin_10-Pad10)*%
X67500000Y-65040000D03*
%TO.P,J3,11,Pin_11*%
%TO.N,unconnected-(J3-Pin_11-Pad11)*%
X67500000Y-67580000D03*
%TO.P,J3,12,Pin_12*%
%TO.N,Net-(J3-Pin_12)*%
X67500000Y-70120000D03*
%TO.P,J3,13,Pin_13*%
%TO.N,Vpos*%
X67500000Y-72660000D03*
%TO.P,J3,14,Pin_14*%
%TO.N,unconnected-(J3-Pin_14-Pad14)*%
X67500000Y-75200000D03*
%TD*%
D12*
%TO.P,D1,1,K*%
%TO.N,Vpos*%
X67315000Y-124000000D03*
D13*
%TO.P,D1,2,A*%
%TO.N,Net-(D1-A)*%
X67315000Y-113840000D03*
%TD*%
D10*
%TO.P,J4,1,Pin_1*%
%TO.N,Net-(J4-Pin_1)*%
X113880000Y-100260000D03*
D11*
%TO.P,J4,2,Pin_2*%
X113880000Y-102800000D03*
%TO.P,J4,3,Pin_3*%
%TO.N,+VSW*%
X113880000Y-105340000D03*
%TO.P,J4,4,Pin_4*%
%TO.N,Vpos*%
X113880000Y-107880000D03*
%TO.P,J4,5,Pin_5*%
%TO.N,+VSW*%
X113880000Y-110420000D03*
%TO.P,J4,6,Pin_6*%
%TO.N,Net-(J4-Pin_6)*%
X113880000Y-112960000D03*
%TO.P,J4,7,Pin_7*%
X113880000Y-115500000D03*
%TO.P,J4,8,Pin_8*%
%TO.N,Net-(J4-Pin_8)*%
X121500000Y-115500000D03*
%TO.P,J4,9,Pin_9*%
X121500000Y-112960000D03*
%TO.P,J4,10,Pin_10*%
%TO.N,+VSW*%
X121500000Y-110420000D03*
%TO.P,J4,11,Pin_11*%
%TO.N,Vneg*%
X121500000Y-107880000D03*
%TO.P,J4,12,Pin_12*%
%TO.N,+VSW*%
X121500000Y-105340000D03*
%TO.P,J4,13,Pin_13*%
%TO.N,Net-(J4-Pin_13)*%
X121500000Y-102800000D03*
%TO.P,J4,14,Pin_14*%
X121500000Y-100260000D03*
%TD*%
D14*
%TO.P,J2,1,Pin_1*%
%TO.N,Net-(J2-Pin_1)*%
X111800000Y-76000000D03*
D15*
%TO.P,J2,2,Pin_2*%
X114340000Y-76000000D03*
%TO.P,J2,3,Pin_3*%
%TO.N,+VSW*%
X116880000Y-76000000D03*
%TO.P,J2,4,Pin_4*%
%TO.N,Vneg*%
X119420000Y-76000000D03*
%TO.P,J2,5,Pin_5*%
%TO.N,unconnected-(J2-Pin_5-Pad5)*%
X121960000Y-76000000D03*
%TO.P,J2,6,Pin_6*%
%TO.N,unconnected-(J2-Pin_6-Pad6)*%
X124500000Y-76000000D03*
%TO.P,J2,7,Pin_7*%
%TO.N,unconnected-(J2-Pin_7-Pad7)*%
X127040000Y-76000000D03*
%TO.P,J2,8,Pin_8*%
%TO.N,unconnected-(J2-Pin_8-Pad8)*%
X127040000Y-68380000D03*
%TO.P,J2,9,Pin_9*%
%TO.N,unconnected-(J2-Pin_9-Pad9)*%
X124500000Y-68380000D03*
%TO.P,J2,10,Pin_10*%
%TO.N,unconnected-(J2-Pin_10-Pad10)*%
X121960000Y-68380000D03*
%TO.P,J2,11,Pin_11*%
%TO.N,+VSW*%
X119420000Y-68380000D03*
%TO.P,J2,12,Pin_12*%
%TO.N,Net-(J2-Pin_12)*%
X116880000Y-68380000D03*
%TO.P,J2,13,Pin_13*%
X114340000Y-68380000D03*
%TO.P,J2,14,Pin_14*%
%TO.N,Vpos*%
X111800000Y-68380000D03*
%TD*%
D16*
%TO.P,J1,1,Pin_1*%
%TO.N,Net-(D1-A)*%
X57315000Y-113920000D03*
D17*
%TO.P,J1,2,Pin_2*%
%TO.N,Vneg*%
X57315000Y-118920000D03*
%TD*%
D18*
%TO.N,Vneg*%
X81315000Y-117920000D03*
X77815000Y-117920000D03*
%TO.N,Vpos*%
X106500000Y-69500000D03*
X83815000Y-123832500D03*
X83815000Y-109515000D03*
%TO.N,Net-(R2-Pad2)*%
X80815000Y-107920000D03*
X76315000Y-107920000D03*
%TO.N,+VSW*%
X90500000Y-107500000D03*
X90500000Y-93000000D03*
%TD*%
D19*
%TO.N,Vneg*%
X82500000Y-125000000D02*
X82000000Y-124500000D01*
X71290000Y-71410000D02*
X66582233Y-71410000D01*
X119000000Y-115500000D02*
X112500000Y-122000000D01*
X90000000Y-125000000D02*
X82500000Y-125000000D01*
X75120000Y-67580000D02*
X71290000Y-71410000D01*
X63000000Y-74992233D02*
X63000000Y-103105000D01*
X81315000Y-117920000D02*
X77815000Y-117920000D01*
X121500000Y-107880000D02*
X119000000Y-110380000D01*
X63000000Y-103105000D02*
X77815000Y-117920000D01*
X82000000Y-118605000D02*
X81315000Y-117920000D01*
X112500000Y-122000000D02*
X93000000Y-122000000D01*
X119000000Y-110380000D02*
X119000000Y-115500000D01*
X126000000Y-103380000D02*
X121500000Y-107880000D01*
X93000000Y-122000000D02*
X90000000Y-125000000D01*
X119420000Y-76000000D02*
X119420000Y-78420000D01*
X66582233Y-71410000D02*
X63000000Y-74992233D01*
X119420000Y-78420000D02*
X126000000Y-85000000D01*
X126000000Y-85000000D02*
X126000000Y-103380000D01*
X82000000Y-124500000D02*
X82000000Y-118605000D01*
%TO.N,Vpos*%
X83815000Y-109515000D02*
X83815000Y-123832500D01*
X87330000Y-106000000D02*
X83815000Y-109515000D01*
X106500000Y-69500000D02*
X106500000Y-73660000D01*
X87500000Y-92660000D02*
X87500000Y-105830000D01*
X67500000Y-72660000D02*
X87500000Y-92660000D01*
X111380000Y-107880000D02*
X109500000Y-106000000D01*
X109500000Y-106000000D02*
X87330000Y-106000000D01*
X106500000Y-73660000D02*
X87500000Y-92660000D01*
X113880000Y-107880000D02*
X111380000Y-107880000D01*
D20*
%TO.N,Net-(D1-A)*%
X67315000Y-113840000D02*
X57395000Y-113840000D01*
D19*
%TO.N,Net-(R2-Pad2)*%
X76315000Y-107920000D02*
X80815000Y-107920000D01*
%TO.N,+VSW*%
X90500000Y-93000000D02*
X100500000Y-93000000D01*
X100500000Y-93000000D02*
X116880000Y-76620000D01*
X93420000Y-110420000D02*
X113880000Y-110420000D01*
X90500000Y-107500000D02*
X93420000Y-110420000D01*
%TD*%
M02*
