%TF.GenerationSoftware,KiCad,Pcbnew,8.0.5*%
%TF.CreationDate,2024-11-03T20:31:12-06:00*%
%TF.ProjectId,KiCAD_Custom_DRC_Rules_for_PCBWay,4b694341-445f-4437-9573-746f6d5f4452,rev?*%
%TF.SameCoordinates,Original*%
%TF.FileFunction,Copper,L1,Top*%
%TF.FilePolarity,Positive*%
%FSLAX46Y46*%
G04 Gerber Fmt 4.6, Leading zero omitted, Abs format (unit mm)*
G04 Created by KiCad (PCBNEW 8.0.5) date 2024-11-03 20:31:12*
%MOMM*%
%LPD*%
G01*
G04 APERTURE LIST*
G04 Aperture macros list*
%AMRoundRect*
0 Rectangle with rounded corners*
0 $1 Rounding radius*
0 $2 $3 $4 $5 $6 $7 $8 $9 X,Y pos of 4 corners*
0 Add a 4 corners polygon primitive as box body*
4,1,4,$2,$3,$4,$5,$6,$7,$8,$9,$2,$3,0*
0 Add four circle primitives for the rounded corners*
1,1,$1+$1,$2,$3*
1,1,$1+$1,$4,$5*
1,1,$1+$1,$6,$7*
1,1,$1+$1,$8,$9*
0 Add four rect primitives between the rounded corners*
20,1,$1+$1,$2,$3,$4,$5,0*
20,1,$1+$1,$4,$5,$6,$7,0*
20,1,$1+$1,$6,$7,$8,$9,0*
20,1,$1+$1,$8,$9,$2,$3,0*%
G04 Aperture macros list end*
%TA.AperFunction,SMDPad,CuDef*%
%ADD10RoundRect,0.250000X-0.262500X-0.450000X0.262500X-0.450000X0.262500X0.450000X-0.262500X0.450000X0*%
%TD*%
%TA.AperFunction,SMDPad,CuDef*%
%ADD11RoundRect,0.250000X-0.475000X0.250000X-0.475000X-0.250000X0.475000X-0.250000X0.475000X0.250000X0*%
%TD*%
%TA.AperFunction,SMDPad,CuDef*%
%ADD12RoundRect,0.250000X0.475000X-0.250000X0.475000X0.250000X-0.475000X0.250000X-0.475000X-0.250000X0*%
%TD*%
%TA.AperFunction,SMDPad,CuDef*%
%ADD13RoundRect,0.243750X0.456250X-0.243750X0.456250X0.243750X-0.456250X0.243750X-0.456250X-0.243750X0*%
%TD*%
%TA.AperFunction,SMDPad,CuDef*%
%ADD14RoundRect,0.150000X-0.825000X-0.150000X0.825000X-0.150000X0.825000X0.150000X-0.825000X0.150000X0*%
%TD*%
%TA.AperFunction,ComponentPad*%
%ADD15R,2.400000X1.600000*%
%TD*%
%TA.AperFunction,ComponentPad*%
%ADD16O,2.400000X1.600000*%
%TD*%
%TA.AperFunction,SMDPad,CuDef*%
%ADD17RoundRect,0.250000X0.262500X0.450000X-0.262500X0.450000X-0.262500X-0.450000X0.262500X-0.450000X0*%
%TD*%
%TA.AperFunction,SMDPad,CuDef*%
%ADD18RoundRect,0.243750X-0.456250X0.243750X-0.456250X-0.243750X0.456250X-0.243750X0.456250X0.243750X0*%
%TD*%
%TA.AperFunction,SMDPad,CuDef*%
%ADD19RoundRect,0.250000X0.450000X-0.262500X0.450000X0.262500X-0.450000X0.262500X-0.450000X-0.262500X0*%
%TD*%
%TA.AperFunction,SMDPad,CuDef*%
%ADD20RoundRect,0.250000X0.250000X0.475000X-0.250000X0.475000X-0.250000X-0.475000X0.250000X-0.475000X0*%
%TD*%
%TA.AperFunction,SMDPad,CuDef*%
%ADD21RoundRect,0.250000X-0.450000X0.262500X-0.450000X-0.262500X0.450000X-0.262500X0.450000X0.262500X0*%
%TD*%
%TA.AperFunction,SMDPad,CuDef*%
%ADD22RoundRect,0.250000X-0.250000X-0.475000X0.250000X-0.475000X0.250000X0.475000X-0.250000X0.475000X0*%
%TD*%
%TA.AperFunction,SMDPad,CuDef*%
%ADD23RoundRect,0.243750X0.243750X0.456250X-0.243750X0.456250X-0.243750X-0.456250X0.243750X-0.456250X0*%
%TD*%
%TA.AperFunction,ComponentPad*%
%ADD24R,2.200000X2.200000*%
%TD*%
%TA.AperFunction,ComponentPad*%
%ADD25O,2.200000X2.200000*%
%TD*%
%TA.AperFunction,SMDPad,CuDef*%
%ADD26RoundRect,0.243750X-0.243750X-0.456250X0.243750X-0.456250X0.243750X0.456250X-0.243750X0.456250X0*%
%TD*%
%TA.AperFunction,ComponentPad*%
%ADD27R,1.600000X2.400000*%
%TD*%
%TA.AperFunction,ComponentPad*%
%ADD28O,1.600000X2.400000*%
%TD*%
%TA.AperFunction,ComponentPad*%
%ADD29R,3.960000X1.980000*%
%TD*%
%TA.AperFunction,ComponentPad*%
%ADD30O,3.960000X1.980000*%
%TD*%
%TA.AperFunction,ViaPad*%
%ADD31C,0.750000*%
%TD*%
%TA.AperFunction,Conductor*%
%ADD32C,0.500000*%
%TD*%
%TA.AperFunction,Conductor*%
%ADD33C,0.203200*%
%TD*%
%TA.AperFunction,Conductor*%
%ADD34C,0.700000*%
%TD*%
%TA.AperFunction,Conductor*%
%ADD35C,1.000000*%
%TD*%
%TA.AperFunction,Conductor*%
%ADD36C,0.750000*%
%TD*%
%TA.AperFunction,Conductor*%
%ADD37C,0.250000*%
%TD*%
G04 APERTURE END LIST*
D10*
%TO.P,R14,1*%
%TO.N,Net-(J4-Pin_8)*%
X128087500Y-114000000D03*
%TO.P,R14,2*%
%TO.N,Net-(D8-AK)*%
X129912500Y-114000000D03*
%TD*%
D11*
%TO.P,C7,1*%
%TO.N,Vpos*%
X60000000Y-73050000D03*
%TO.P,C7,2*%
%TO.N,Vgnd*%
X60000000Y-74950000D03*
%TD*%
D12*
%TO.P,C2,1*%
%TO.N,Vpos*%
X75815000Y-123870000D03*
%TO.P,C2,2*%
%TO.N,Vneg*%
X75815000Y-121970000D03*
%TD*%
D13*
%TO.P,D2,1,KA*%
%TO.N,Vgnd*%
X111500000Y-88937500D03*
%TO.P,D2,2,AK*%
%TO.N,Net-(D2-AK)*%
X111500000Y-87062500D03*
%TD*%
D14*
%TO.P,U1,1*%
%TO.N,Net-(R2-Pad2)*%
X76340000Y-109515000D03*
%TO.P,U1,2,-*%
%TO.N,Net-(U1A--)*%
X76340000Y-110785000D03*
%TO.P,U1,3,+*%
%TO.N,Net-(U1A-+)*%
X76340000Y-112055000D03*
%TO.P,U1,4,V-*%
%TO.N,Vneg*%
X76340000Y-113325000D03*
%TO.P,U1,5,+*%
%TO.N,Net-(U1B-+)*%
X81290000Y-113325000D03*
%TO.P,U1,6,-*%
%TO.N,Vgnd*%
X81290000Y-112055000D03*
%TO.P,U1,7*%
X81290000Y-110785000D03*
%TO.P,U1,8,V+*%
%TO.N,Vpos*%
X81290000Y-109515000D03*
%TD*%
D15*
%TO.P,J3,1,Pin_1*%
%TO.N,unconnected-(J3-Pin_1-Pad1)*%
X75120000Y-75200000D03*
D16*
%TO.P,J3,2,Pin_2*%
%TO.N,Net-(J3-Pin_12)*%
X75120000Y-72660000D03*
%TO.P,J3,3,Pin_3*%
%TO.N,+VSW*%
X75120000Y-70120000D03*
%TO.P,J3,4,Pin_4*%
%TO.N,Vneg*%
X75120000Y-67580000D03*
%TO.P,J3,5,Pin_5*%
%TO.N,unconnected-(J3-Pin_5-Pad5)*%
X75120000Y-65040000D03*
%TO.P,J3,6,Pin_6*%
%TO.N,unconnected-(J3-Pin_6-Pad6)*%
X75120000Y-62500000D03*
%TO.P,J3,7,Pin_7*%
%TO.N,unconnected-(J3-Pin_7-Pad7)*%
X75120000Y-59960000D03*
%TO.P,J3,8,Pin_8*%
%TO.N,unconnected-(J3-Pin_8-Pad8)*%
X67500000Y-59960000D03*
%TO.P,J3,9,Pin_9*%
%TO.N,unconnected-(J3-Pin_9-Pad9)*%
X67500000Y-62500000D03*
%TO.P,J3,10,Pin_10*%
%TO.N,unconnected-(J3-Pin_10-Pad10)*%
X67500000Y-65040000D03*
%TO.P,J3,11,Pin_11*%
%TO.N,unconnected-(J3-Pin_11-Pad11)*%
X67500000Y-67580000D03*
%TO.P,J3,12,Pin_12*%
%TO.N,Net-(J3-Pin_12)*%
X67500000Y-70120000D03*
%TO.P,J3,13,Pin_13*%
%TO.N,Vpos*%
X67500000Y-72660000D03*
%TO.P,J3,14,Pin_14*%
%TO.N,unconnected-(J3-Pin_14-Pad14)*%
X67500000Y-75200000D03*
%TD*%
D10*
%TO.P,R1,1*%
%TO.N,Net-(U1A-+)*%
X73402500Y-102420000D03*
%TO.P,R1,2*%
%TO.N,Vgnd*%
X75227500Y-102420000D03*
%TD*%
D13*
%TO.P,D4,1,KA*%
%TO.N,Vgnd*%
X53000000Y-72437500D03*
%TO.P,D4,2,AK*%
%TO.N,Net-(D4-AK)*%
X53000000Y-70562500D03*
%TD*%
D17*
%TO.P,R7,1*%
%TO.N,Net-(U1B-+)*%
X79640000Y-120000000D03*
%TO.P,R7,2*%
%TO.N,Vneg*%
X77815000Y-120000000D03*
%TD*%
D18*
%TO.P,D3,1,KA*%
%TO.N,Vgnd*%
X117000000Y-56062500D03*
%TO.P,D3,2,AK*%
%TO.N,Net-(D3-AK)*%
X117000000Y-57937500D03*
%TD*%
D19*
%TO.P,R9,1*%
%TO.N,Net-(J2-Pin_12)*%
X117000000Y-62412500D03*
%TO.P,R9,2*%
%TO.N,Net-(D3-AK)*%
X117000000Y-60587500D03*
%TD*%
D11*
%TO.P,C4,1*%
%TO.N,Vneg*%
X119500000Y-82550000D03*
%TO.P,C4,2*%
%TO.N,Vgnd*%
X119500000Y-84450000D03*
%TD*%
D10*
%TO.P,R11,1*%
%TO.N,Net-(D5-AK)*%
X104675000Y-100000000D03*
%TO.P,R11,2*%
%TO.N,Net-(J4-Pin_1)*%
X106500000Y-100000000D03*
%TD*%
D20*
%TO.P,C10,1*%
%TO.N,Vpos*%
X106450000Y-108000000D03*
%TO.P,C10,2*%
%TO.N,Vgnd*%
X104550000Y-108000000D03*
%TD*%
%TO.P,C3,1*%
%TO.N,Net-(U1B-+)*%
X79715000Y-116420000D03*
%TO.P,C3,2*%
%TO.N,Vneg*%
X77815000Y-116420000D03*
%TD*%
D21*
%TO.P,R8,1*%
%TO.N,Net-(J2-Pin_1)*%
X111500000Y-82587500D03*
%TO.P,R8,2*%
%TO.N,Net-(D2-AK)*%
X111500000Y-84412500D03*
%TD*%
D22*
%TO.P,C11,1*%
%TO.N,Vneg*%
X128050000Y-107500000D03*
%TO.P,C11,2*%
%TO.N,Vgnd*%
X129950000Y-107500000D03*
%TD*%
D23*
%TO.P,D7,1,KA*%
%TO.N,Vgnd*%
X134437500Y-100500000D03*
%TO.P,D7,2,AK*%
%TO.N,Net-(D7-AK)*%
X132562500Y-100500000D03*
%TD*%
D22*
%TO.P,C9,1*%
%TO.N,Vneg*%
X82865000Y-118920000D03*
%TO.P,C9,2*%
%TO.N,Vgnd*%
X84765000Y-118920000D03*
%TD*%
D10*
%TO.P,R12,1*%
%TO.N,Net-(D6-AK)*%
X104587500Y-113087500D03*
%TO.P,R12,2*%
%TO.N,Net-(J4-Pin_6)*%
X106412500Y-113087500D03*
%TD*%
D24*
%TO.P,D1,1,K*%
%TO.N,Vpos*%
X67315000Y-124000000D03*
D25*
%TO.P,D1,2,A*%
%TO.N,Net-(D1-A)*%
X67315000Y-113840000D03*
%TD*%
D22*
%TO.P,C1,1*%
%TO.N,Net-(U1A--)*%
X77865000Y-105920000D03*
%TO.P,C1,2*%
%TO.N,Vgnd*%
X79765000Y-105920000D03*
%TD*%
D26*
%TO.P,D6,1,KA*%
%TO.N,Vgnd*%
X99062500Y-113000000D03*
%TO.P,D6,2,AK*%
%TO.N,Net-(D6-AK)*%
X100937500Y-113000000D03*
%TD*%
D15*
%TO.P,J4,1,Pin_1*%
%TO.N,Net-(J4-Pin_1)*%
X113880000Y-100260000D03*
D16*
%TO.P,J4,2,Pin_2*%
X113880000Y-102800000D03*
%TO.P,J4,3,Pin_3*%
%TO.N,+VSW*%
X113880000Y-105340000D03*
%TO.P,J4,4,Pin_4*%
%TO.N,Vpos*%
X113880000Y-107880000D03*
%TO.P,J4,5,Pin_5*%
%TO.N,+VSW*%
X113880000Y-110420000D03*
%TO.P,J4,6,Pin_6*%
%TO.N,Net-(J4-Pin_6)*%
X113880000Y-112960000D03*
%TO.P,J4,7,Pin_7*%
X113880000Y-115500000D03*
%TO.P,J4,8,Pin_8*%
%TO.N,Net-(J4-Pin_8)*%
X121500000Y-115500000D03*
%TO.P,J4,9,Pin_9*%
X121500000Y-112960000D03*
%TO.P,J4,10,Pin_10*%
%TO.N,+VSW*%
X121500000Y-110420000D03*
%TO.P,J4,11,Pin_11*%
%TO.N,Vneg*%
X121500000Y-107880000D03*
%TO.P,J4,12,Pin_12*%
%TO.N,+VSW*%
X121500000Y-105340000D03*
%TO.P,J4,13,Pin_13*%
%TO.N,Net-(J4-Pin_13)*%
X121500000Y-102800000D03*
%TO.P,J4,14,Pin_14*%
X121500000Y-100260000D03*
%TD*%
D10*
%TO.P,R4,1*%
%TO.N,Net-(R2-Pad2)*%
X83402500Y-107420000D03*
%TO.P,R4,2*%
%TO.N,+VSW*%
X85227500Y-107420000D03*
%TD*%
D23*
%TO.P,D8,1,KA*%
%TO.N,Vgnd*%
X134375000Y-114000000D03*
%TO.P,D8,2,AK*%
%TO.N,Net-(D8-AK)*%
X132500000Y-114000000D03*
%TD*%
D27*
%TO.P,J2,1,Pin_1*%
%TO.N,Net-(J2-Pin_1)*%
X111800000Y-76000000D03*
D28*
%TO.P,J2,2,Pin_2*%
X114340000Y-76000000D03*
%TO.P,J2,3,Pin_3*%
%TO.N,+VSW*%
X116880000Y-76000000D03*
%TO.P,J2,4,Pin_4*%
%TO.N,Vneg*%
X119420000Y-76000000D03*
%TO.P,J2,5,Pin_5*%
%TO.N,unconnected-(J2-Pin_5-Pad5)*%
X121960000Y-76000000D03*
%TO.P,J2,6,Pin_6*%
%TO.N,unconnected-(J2-Pin_6-Pad6)*%
X124500000Y-76000000D03*
%TO.P,J2,7,Pin_7*%
%TO.N,unconnected-(J2-Pin_7-Pad7)*%
X127040000Y-76000000D03*
%TO.P,J2,8,Pin_8*%
%TO.N,unconnected-(J2-Pin_8-Pad8)*%
X127040000Y-68380000D03*
%TO.P,J2,9,Pin_9*%
%TO.N,unconnected-(J2-Pin_9-Pad9)*%
X124500000Y-68380000D03*
%TO.P,J2,10,Pin_10*%
%TO.N,unconnected-(J2-Pin_10-Pad10)*%
X121960000Y-68380000D03*
%TO.P,J2,11,Pin_11*%
%TO.N,+VSW*%
X119420000Y-68380000D03*
%TO.P,J2,12,Pin_12*%
%TO.N,Net-(J2-Pin_12)*%
X116880000Y-68380000D03*
%TO.P,J2,13,Pin_13*%
X114340000Y-68380000D03*
%TO.P,J2,14,Pin_14*%
%TO.N,Vpos*%
X111800000Y-68380000D03*
%TD*%
D26*
%TO.P,D5,1,KA*%
%TO.N,Vgnd*%
X99062500Y-100000000D03*
%TO.P,D5,2,AK*%
%TO.N,Net-(D5-AK)*%
X100937500Y-100000000D03*
%TD*%
D10*
%TO.P,R13,1*%
%TO.N,Net-(J4-Pin_13)*%
X128087500Y-100500000D03*
%TO.P,R13,2*%
%TO.N,Net-(D7-AK)*%
X129912500Y-100500000D03*
%TD*%
D17*
%TO.P,R10,1*%
%TO.N,Net-(J3-Pin_12)*%
X60000000Y-70000000D03*
%TO.P,R10,2*%
%TO.N,Net-(D4-AK)*%
X58175000Y-70000000D03*
%TD*%
D11*
%TO.P,C8,1*%
%TO.N,Vgnd*%
X86315000Y-122020000D03*
%TO.P,C8,2*%
%TO.N,Vpos*%
X86315000Y-123920000D03*
%TD*%
D17*
%TO.P,R2,1*%
%TO.N,Net-(U1A--)*%
X75227500Y-105920000D03*
%TO.P,R2,2*%
%TO.N,Net-(R2-Pad2)*%
X73402500Y-105920000D03*
%TD*%
D11*
%TO.P,C5,1*%
%TO.N,Vneg*%
X83000000Y-68050000D03*
%TO.P,C5,2*%
%TO.N,Vgnd*%
X83000000Y-69950000D03*
%TD*%
D21*
%TO.P,R5,1*%
%TO.N,+VSW*%
X85315000Y-110007500D03*
%TO.P,R5,2*%
%TO.N,Vgnd*%
X85315000Y-111832500D03*
%TD*%
D12*
%TO.P,C6,1*%
%TO.N,Vpos*%
X111500000Y-62500000D03*
%TO.P,C6,2*%
%TO.N,Vgnd*%
X111500000Y-60600000D03*
%TD*%
D29*
%TO.P,J1,1,Pin_1*%
%TO.N,Net-(D1-A)*%
X57315000Y-113920000D03*
D30*
%TO.P,J1,2,Pin_2*%
%TO.N,Vneg*%
X57315000Y-118920000D03*
%TD*%
D19*
%TO.P,R6,1*%
%TO.N,Vpos*%
X81000000Y-124412500D03*
%TO.P,R6,2*%
%TO.N,Net-(U1B-+)*%
X81000000Y-122587500D03*
%TD*%
D21*
%TO.P,R3,1*%
%TO.N,Net-(R2-Pad2)*%
X72315000Y-110095000D03*
%TO.P,R3,2*%
%TO.N,Net-(U1A-+)*%
X72315000Y-111920000D03*
%TD*%
D31*
%TO.N,Vneg*%
X81315000Y-117920000D03*
X77815000Y-117920000D03*
%TO.N,Vpos*%
X106500000Y-69500000D03*
X83815000Y-123832500D03*
X83815000Y-109515000D03*
%TO.N,Net-(R2-Pad2)*%
X80815000Y-107920000D03*
X76315000Y-107920000D03*
%TO.N,+VSW*%
X90500000Y-107500000D03*
X90500000Y-93000000D03*
%TD*%
D32*
%TO.N,Net-(U1A--)*%
X77865000Y-110234999D02*
X77314999Y-110785000D01*
X77865000Y-105920000D02*
X77865000Y-110234999D01*
X75227500Y-105920000D02*
X77865000Y-105920000D01*
D33*
X77314999Y-110785000D02*
X76340000Y-110785000D01*
D32*
%TO.N,Vgnd*%
X85315000Y-111832500D02*
X81512500Y-111832500D01*
X101500000Y-108000000D02*
X104550000Y-108000000D01*
X99000000Y-102500000D02*
X99062500Y-102437500D01*
X99062500Y-96937500D02*
X99062500Y-100000000D01*
X75227500Y-90177500D02*
X75227500Y-102420000D01*
X134500000Y-96000000D02*
X136500000Y-98000000D01*
X60000000Y-74950000D02*
X75227500Y-90177500D01*
X104550000Y-108000000D02*
X99050000Y-102500000D01*
X99062500Y-113000000D02*
X86482500Y-113000000D01*
X84765000Y-120470000D02*
X84765000Y-118920000D01*
X104500000Y-91500000D02*
X117000000Y-91500000D01*
X99062500Y-110437500D02*
X101500000Y-108000000D01*
X111500000Y-60600000D02*
X104500000Y-67600000D01*
X79765000Y-110234999D02*
X80315001Y-110785000D01*
X104500000Y-91450000D02*
X104500000Y-91500000D01*
X99050000Y-102500000D02*
X99000000Y-102500000D01*
X134500000Y-101500000D02*
X134437500Y-101437500D01*
X55512500Y-74950000D02*
X53000000Y-72437500D01*
X104500000Y-91500000D02*
X99062500Y-96937500D01*
X114000000Y-56000000D02*
X114062500Y-56062500D01*
X111500000Y-60600000D02*
X111500000Y-58500000D01*
X109000000Y-96000000D02*
X134500000Y-96000000D01*
X84765000Y-118470000D02*
X85315000Y-117920000D01*
X99062500Y-113000000D02*
X99062500Y-110437500D01*
X99062500Y-102437500D02*
X99062500Y-100000000D01*
X132000000Y-107500000D02*
X129950000Y-107500000D01*
X119500000Y-84450000D02*
X119500000Y-89000000D01*
X111500000Y-58500000D02*
X114000000Y-56000000D01*
X129950000Y-107500000D02*
X129950000Y-106050000D01*
X75227500Y-102420000D02*
X78815000Y-102420000D01*
X60000000Y-74950000D02*
X55512500Y-74950000D01*
X104500000Y-91500000D02*
X109000000Y-96000000D01*
X78815000Y-102420000D02*
X79765000Y-103370000D01*
X85315000Y-117920000D02*
X85315000Y-111832500D01*
X79765000Y-103370000D02*
X79765000Y-105920000D01*
X134375000Y-114000000D02*
X134375000Y-111925000D01*
X79765000Y-105920000D02*
X79765000Y-110234999D01*
X136500000Y-103000000D02*
X132000000Y-107500000D01*
X104500000Y-91500000D02*
X107062500Y-88937500D01*
X86315000Y-122020000D02*
X84765000Y-120470000D01*
D33*
X80315001Y-110785000D02*
X81290000Y-110785000D01*
D32*
X114062500Y-56062500D02*
X117000000Y-56062500D01*
X134375000Y-111925000D02*
X129950000Y-107500000D01*
D33*
X81512500Y-111832500D02*
X81290000Y-112055000D01*
D32*
X136500000Y-98000000D02*
X136500000Y-103000000D01*
X129950000Y-106050000D02*
X134500000Y-101500000D01*
D34*
X81290000Y-112055000D02*
X81290000Y-110785000D01*
D32*
X104500000Y-91500000D02*
X104500000Y-67600000D01*
X83000000Y-69950000D02*
X104500000Y-91450000D01*
X107062500Y-88937500D02*
X111500000Y-88937500D01*
X86482500Y-113000000D02*
X85315000Y-111832500D01*
X134437500Y-101437500D02*
X134437500Y-100500000D01*
X119500000Y-89000000D02*
X117000000Y-91500000D01*
%TO.N,Vneg*%
X82865000Y-118920000D02*
X81865000Y-117920000D01*
D35*
X77815000Y-120000000D02*
X77815000Y-116420000D01*
D32*
X121880000Y-107500000D02*
X121500000Y-107880000D01*
X119500000Y-82550000D02*
X119500000Y-76080000D01*
X119500000Y-76080000D02*
X119420000Y-76000000D01*
D35*
X57315000Y-118920000D02*
X72765000Y-118920000D01*
D32*
X83000000Y-68050000D02*
X75590000Y-68050000D01*
D36*
X77815000Y-114800000D02*
X76340000Y-113325000D01*
D35*
X75845000Y-121970000D02*
X77815000Y-120000000D01*
D32*
X81865000Y-117920000D02*
X81315000Y-117920000D01*
D36*
X77815000Y-116420000D02*
X77815000Y-114800000D01*
D32*
X128050000Y-107500000D02*
X121880000Y-107500000D01*
D35*
X72765000Y-118920000D02*
X75815000Y-121970000D01*
D32*
%TO.N,Vpos*%
X111800000Y-63300000D02*
X111800000Y-68380000D01*
X111500000Y-63000000D02*
X111800000Y-63300000D01*
X60000000Y-73050000D02*
X67110000Y-73050000D01*
X83235000Y-124412500D02*
X83815000Y-123832500D01*
X111500000Y-62500000D02*
X111500000Y-63000000D01*
X106450000Y-108000000D02*
X113760000Y-108000000D01*
D35*
X76357500Y-124412500D02*
X75815000Y-123870000D01*
D32*
X81000000Y-124412500D02*
X83235000Y-124412500D01*
X107620000Y-68380000D02*
X111800000Y-68380000D01*
X83815000Y-123832500D02*
X86227500Y-123832500D01*
X106500000Y-69500000D02*
X107620000Y-68380000D01*
D35*
X67315000Y-124000000D02*
X75685000Y-124000000D01*
D32*
X81290000Y-109515000D02*
X83815000Y-109515000D01*
D35*
X81000000Y-124412500D02*
X76357500Y-124412500D01*
%TO.N,Net-(U1B-+)*%
X79640000Y-120000000D02*
X79640000Y-116495000D01*
X81000000Y-122587500D02*
X81000000Y-121360000D01*
D36*
X79715000Y-116420000D02*
X79715000Y-114900000D01*
X79715000Y-114900000D02*
X81290000Y-113325000D01*
D35*
X81000000Y-121360000D02*
X79640000Y-120000000D01*
D32*
%TO.N,Net-(D3-AK)*%
X117000000Y-60587500D02*
X117000000Y-57937500D01*
%TO.N,Net-(D4-AK)*%
X53562500Y-70000000D02*
X53000000Y-70562500D01*
X58175000Y-70000000D02*
X53562500Y-70000000D01*
%TO.N,Net-(D5-AK)*%
X104675000Y-100000000D02*
X100937500Y-100000000D01*
%TO.N,Net-(D6-AK)*%
X104587500Y-113087500D02*
X101025000Y-113087500D01*
%TO.N,Net-(D7-AK)*%
X132562500Y-100500000D02*
X129912500Y-100500000D01*
%TO.N,Net-(D8-AK)*%
X129912500Y-114000000D02*
X132500000Y-114000000D01*
%TO.N,Net-(J2-Pin_1)*%
X111500000Y-76300000D02*
X111800000Y-76000000D01*
X111500000Y-82587500D02*
X111500000Y-76300000D01*
D35*
X111800000Y-76000000D02*
X114340000Y-76000000D01*
%TO.N,Net-(J2-Pin_12)*%
X114340000Y-68380000D02*
X116880000Y-68380000D01*
D32*
X117000000Y-68260000D02*
X116880000Y-68380000D01*
X117000000Y-62412500D02*
X117000000Y-68260000D01*
D35*
%TO.N,Net-(J3-Pin_12)*%
X75120000Y-72660000D02*
X72660000Y-72660000D01*
X72660000Y-72660000D02*
X70120000Y-70120000D01*
X70120000Y-70120000D02*
X67500000Y-70120000D01*
D32*
X60000000Y-70000000D02*
X67380000Y-70000000D01*
%TO.N,Net-(J4-Pin_13)*%
X128087500Y-100500000D02*
X121740000Y-100500000D01*
D35*
X121500000Y-100260000D02*
X121500000Y-102800000D01*
D32*
X121740000Y-100500000D02*
X121500000Y-100260000D01*
D35*
%TO.N,Net-(J4-Pin_1)*%
X113880000Y-102800000D02*
X113880000Y-100260000D01*
D32*
X106500000Y-100000000D02*
X113620000Y-100000000D01*
D35*
%TO.N,Net-(J4-Pin_6)*%
X113880000Y-112960000D02*
X113880000Y-115500000D01*
D32*
X106412500Y-113087500D02*
X113752500Y-113087500D01*
D35*
%TO.N,Net-(J4-Pin_8)*%
X121500000Y-112960000D02*
X121500000Y-115500000D01*
D32*
X128087500Y-114000000D02*
X122540000Y-114000000D01*
X122540000Y-114000000D02*
X121500000Y-112960000D01*
%TO.N,Net-(U1A-+)*%
X69315000Y-110920000D02*
X70315000Y-111920000D01*
X73402500Y-102420000D02*
X70315000Y-102420000D01*
X69315000Y-103420000D02*
X69315000Y-110920000D01*
X70315000Y-111920000D02*
X72315000Y-111920000D01*
X76340000Y-112055000D02*
X72450000Y-112055000D01*
X70315000Y-102420000D02*
X69315000Y-103420000D01*
%TO.N,Net-(R2-Pad2)*%
X72895000Y-109515000D02*
X72315000Y-110095000D01*
D37*
X73402500Y-105920000D02*
X72815000Y-105920000D01*
D32*
X76340000Y-109515000D02*
X72895000Y-109515000D01*
D37*
X76340000Y-107945000D02*
X76315000Y-107920000D01*
D32*
X72315000Y-106420000D02*
X72315000Y-110095000D01*
X80815000Y-107920000D02*
X81315000Y-107420000D01*
X72815000Y-105920000D02*
X72315000Y-106420000D01*
X76340000Y-109515000D02*
X76340000Y-107945000D01*
X81315000Y-107420000D02*
X83402500Y-107420000D01*
%TO.N,Net-(D2-AK)*%
X111500000Y-87062500D02*
X111500000Y-84412500D01*
%TO.N,+VSW*%
X90420000Y-107420000D02*
X85227500Y-107420000D01*
D36*
X118000000Y-110420000D02*
X118000000Y-105340000D01*
D32*
X85315000Y-110007500D02*
X85315000Y-107507500D01*
D36*
X121500000Y-110420000D02*
X118000000Y-110420000D01*
D32*
X116880000Y-76000000D02*
X116880000Y-73120000D01*
X90500000Y-93000000D02*
X90500000Y-85500000D01*
D36*
X118000000Y-110420000D02*
X113880000Y-110420000D01*
D33*
X119500000Y-70500000D02*
X119420000Y-70420000D01*
D32*
X90500000Y-85500000D02*
X75120000Y-70120000D01*
D36*
X113880000Y-105340000D02*
X118000000Y-105340000D01*
X118000000Y-105340000D02*
X121500000Y-105340000D01*
D32*
X90500000Y-107500000D02*
X90500000Y-93000000D01*
X90500000Y-107500000D02*
X90420000Y-107420000D01*
X116880000Y-73120000D02*
X119500000Y-70500000D01*
X119420000Y-70420000D02*
X119420000Y-68380000D01*
%TD*%
M02*
