%TF.GenerationSoftware,KiCad,Pcbnew,8.0.5*%
%TF.CreationDate,2024-11-04T13:30:40-06:00*%
%TF.ProjectId,KiCAD_Custom_DRC_Rules_for_PCBWay,4b694341-445f-4437-9573-746f6d5f4452,rev?*%
%TF.SameCoordinates,Original*%
%TF.FileFunction,Drillmap*%
%TF.FilePolarity,Positive*%
%FSLAX45Y45*%
G04 Gerber Fmt 4.5, Leading zero omitted, Abs format (unit mm)*
G04 Created by KiCad (PCBNEW 8.0.5) date 2024-11-04 13:30:40*
%MOMM*%
%LPD*%
G01*
G04 APERTURE LIST*
%ADD10C,0.050000*%
%ADD11C,0.200000*%
%ADD12C,0.100000*%
%ADD13C,0.110000*%
%ADD14C,0.132000*%
G04 APERTURE END LIST*
D10*
X4850000Y-4700000D02*
X13850000Y-4700000D01*
X13850000Y-12700000D01*
X4850000Y-12700000D01*
X4850000Y-4700000D01*
D11*
D12*
X7606500Y-10767000D02*
X7656500Y-10817000D01*
X7656500Y-10767000D02*
X7606500Y-10817000D01*
X7756500Y-11767000D02*
X7806500Y-11817000D01*
X7806500Y-11767000D02*
X7756500Y-11817000D01*
X8056500Y-10767000D02*
X8106500Y-10817000D01*
X8106500Y-10767000D02*
X8056500Y-10817000D01*
X8106500Y-11767000D02*
X8156500Y-11817000D01*
X8156500Y-11767000D02*
X8106500Y-11817000D01*
X8356500Y-10926500D02*
X8406500Y-10976500D01*
X8406500Y-10926500D02*
X8356500Y-10976500D01*
X8356500Y-12358250D02*
X8406500Y-12408250D01*
X8406500Y-12358250D02*
X8356500Y-12408250D01*
X9025000Y-9275000D02*
X9075000Y-9325000D01*
X9075000Y-9275000D02*
X9025000Y-9325000D01*
X9025000Y-10725000D02*
X9075000Y-10775000D01*
X9075000Y-10725000D02*
X9025000Y-10775000D01*
X10625000Y-6925000D02*
X10675000Y-6975000D01*
X10675000Y-6925000D02*
X10625000Y-6975000D01*
X6790000Y-5996000D02*
G75*
G02*
X6710000Y-5996000I-40000J0D01*
G01*
X6710000Y-5996000D02*
G75*
G02*
X6790000Y-5996000I40000J0D01*
G01*
X6790000Y-6250000D02*
G75*
G02*
X6710000Y-6250000I-40000J0D01*
G01*
X6710000Y-6250000D02*
G75*
G02*
X6790000Y-6250000I40000J0D01*
G01*
X6790000Y-6504000D02*
G75*
G02*
X6710000Y-6504000I-40000J0D01*
G01*
X6710000Y-6504000D02*
G75*
G02*
X6790000Y-6504000I40000J0D01*
G01*
X6790000Y-6758000D02*
G75*
G02*
X6710000Y-6758000I-40000J0D01*
G01*
X6710000Y-6758000D02*
G75*
G02*
X6790000Y-6758000I40000J0D01*
G01*
X6790000Y-7012000D02*
G75*
G02*
X6710000Y-7012000I-40000J0D01*
G01*
X6710000Y-7012000D02*
G75*
G02*
X6790000Y-7012000I40000J0D01*
G01*
X6790000Y-7266000D02*
G75*
G02*
X6710000Y-7266000I-40000J0D01*
G01*
X6710000Y-7266000D02*
G75*
G02*
X6790000Y-7266000I40000J0D01*
G01*
X6790000Y-7520000D02*
G75*
G02*
X6710000Y-7520000I-40000J0D01*
G01*
X6710000Y-7520000D02*
G75*
G02*
X6790000Y-7520000I40000J0D01*
G01*
X7552000Y-5996000D02*
G75*
G02*
X7472000Y-5996000I-40000J0D01*
G01*
X7472000Y-5996000D02*
G75*
G02*
X7552000Y-5996000I40000J0D01*
G01*
X7552000Y-6250000D02*
G75*
G02*
X7472000Y-6250000I-40000J0D01*
G01*
X7472000Y-6250000D02*
G75*
G02*
X7552000Y-6250000I40000J0D01*
G01*
X7552000Y-6504000D02*
G75*
G02*
X7472000Y-6504000I-40000J0D01*
G01*
X7472000Y-6504000D02*
G75*
G02*
X7552000Y-6504000I40000J0D01*
G01*
X7552000Y-6758000D02*
G75*
G02*
X7472000Y-6758000I-40000J0D01*
G01*
X7472000Y-6758000D02*
G75*
G02*
X7552000Y-6758000I40000J0D01*
G01*
X7552000Y-7012000D02*
G75*
G02*
X7472000Y-7012000I-40000J0D01*
G01*
X7472000Y-7012000D02*
G75*
G02*
X7552000Y-7012000I40000J0D01*
G01*
X7552000Y-7266000D02*
G75*
G02*
X7472000Y-7266000I-40000J0D01*
G01*
X7472000Y-7266000D02*
G75*
G02*
X7552000Y-7266000I40000J0D01*
G01*
X7552000Y-7520000D02*
G75*
G02*
X7472000Y-7520000I-40000J0D01*
G01*
X7472000Y-7520000D02*
G75*
G02*
X7552000Y-7520000I40000J0D01*
G01*
X11220000Y-6838000D02*
G75*
G02*
X11140000Y-6838000I-40000J0D01*
G01*
X11140000Y-6838000D02*
G75*
G02*
X11220000Y-6838000I40000J0D01*
G01*
X11220000Y-7600000D02*
G75*
G02*
X11140000Y-7600000I-40000J0D01*
G01*
X11140000Y-7600000D02*
G75*
G02*
X11220000Y-7600000I40000J0D01*
G01*
X11428000Y-10026000D02*
G75*
G02*
X11348000Y-10026000I-40000J0D01*
G01*
X11348000Y-10026000D02*
G75*
G02*
X11428000Y-10026000I40000J0D01*
G01*
X11428000Y-10280000D02*
G75*
G02*
X11348000Y-10280000I-40000J0D01*
G01*
X11348000Y-10280000D02*
G75*
G02*
X11428000Y-10280000I40000J0D01*
G01*
X11428000Y-10534000D02*
G75*
G02*
X11348000Y-10534000I-40000J0D01*
G01*
X11348000Y-10534000D02*
G75*
G02*
X11428000Y-10534000I40000J0D01*
G01*
X11428000Y-10788000D02*
G75*
G02*
X11348000Y-10788000I-40000J0D01*
G01*
X11348000Y-10788000D02*
G75*
G02*
X11428000Y-10788000I40000J0D01*
G01*
X11428000Y-11042000D02*
G75*
G02*
X11348000Y-11042000I-40000J0D01*
G01*
X11348000Y-11042000D02*
G75*
G02*
X11428000Y-11042000I40000J0D01*
G01*
X11428000Y-11296000D02*
G75*
G02*
X11348000Y-11296000I-40000J0D01*
G01*
X11348000Y-11296000D02*
G75*
G02*
X11428000Y-11296000I40000J0D01*
G01*
X11428000Y-11550000D02*
G75*
G02*
X11348000Y-11550000I-40000J0D01*
G01*
X11348000Y-11550000D02*
G75*
G02*
X11428000Y-11550000I40000J0D01*
G01*
X11474000Y-6838000D02*
G75*
G02*
X11394000Y-6838000I-40000J0D01*
G01*
X11394000Y-6838000D02*
G75*
G02*
X11474000Y-6838000I40000J0D01*
G01*
X11474000Y-7600000D02*
G75*
G02*
X11394000Y-7600000I-40000J0D01*
G01*
X11394000Y-7600000D02*
G75*
G02*
X11474000Y-7600000I40000J0D01*
G01*
X11728000Y-6838000D02*
G75*
G02*
X11648000Y-6838000I-40000J0D01*
G01*
X11648000Y-6838000D02*
G75*
G02*
X11728000Y-6838000I40000J0D01*
G01*
X11728000Y-7600000D02*
G75*
G02*
X11648000Y-7600000I-40000J0D01*
G01*
X11648000Y-7600000D02*
G75*
G02*
X11728000Y-7600000I40000J0D01*
G01*
X11982000Y-6838000D02*
G75*
G02*
X11902000Y-6838000I-40000J0D01*
G01*
X11902000Y-6838000D02*
G75*
G02*
X11982000Y-6838000I40000J0D01*
G01*
X11982000Y-7600000D02*
G75*
G02*
X11902000Y-7600000I-40000J0D01*
G01*
X11902000Y-7600000D02*
G75*
G02*
X11982000Y-7600000I40000J0D01*
G01*
X12190000Y-10026000D02*
G75*
G02*
X12110000Y-10026000I-40000J0D01*
G01*
X12110000Y-10026000D02*
G75*
G02*
X12190000Y-10026000I40000J0D01*
G01*
X12190000Y-10280000D02*
G75*
G02*
X12110000Y-10280000I-40000J0D01*
G01*
X12110000Y-10280000D02*
G75*
G02*
X12190000Y-10280000I40000J0D01*
G01*
X12190000Y-10534000D02*
G75*
G02*
X12110000Y-10534000I-40000J0D01*
G01*
X12110000Y-10534000D02*
G75*
G02*
X12190000Y-10534000I40000J0D01*
G01*
X12190000Y-10788000D02*
G75*
G02*
X12110000Y-10788000I-40000J0D01*
G01*
X12110000Y-10788000D02*
G75*
G02*
X12190000Y-10788000I40000J0D01*
G01*
X12190000Y-11042000D02*
G75*
G02*
X12110000Y-11042000I-40000J0D01*
G01*
X12110000Y-11042000D02*
G75*
G02*
X12190000Y-11042000I40000J0D01*
G01*
X12190000Y-11296000D02*
G75*
G02*
X12110000Y-11296000I-40000J0D01*
G01*
X12110000Y-11296000D02*
G75*
G02*
X12190000Y-11296000I40000J0D01*
G01*
X12190000Y-11550000D02*
G75*
G02*
X12110000Y-11550000I-40000J0D01*
G01*
X12110000Y-11550000D02*
G75*
G02*
X12190000Y-11550000I40000J0D01*
G01*
X12236000Y-6838000D02*
G75*
G02*
X12156000Y-6838000I-40000J0D01*
G01*
X12156000Y-6838000D02*
G75*
G02*
X12236000Y-6838000I40000J0D01*
G01*
X12236000Y-7600000D02*
G75*
G02*
X12156000Y-7600000I-40000J0D01*
G01*
X12156000Y-7600000D02*
G75*
G02*
X12236000Y-7600000I40000J0D01*
G01*
X12490000Y-6838000D02*
G75*
G02*
X12410000Y-6838000I-40000J0D01*
G01*
X12410000Y-6838000D02*
G75*
G02*
X12490000Y-6838000I40000J0D01*
G01*
X12490000Y-7600000D02*
G75*
G02*
X12410000Y-7600000I-40000J0D01*
G01*
X12410000Y-7600000D02*
G75*
G02*
X12490000Y-7600000I40000J0D01*
G01*
X12744000Y-6838000D02*
G75*
G02*
X12664000Y-6838000I-40000J0D01*
G01*
X12664000Y-6838000D02*
G75*
G02*
X12744000Y-6838000I40000J0D01*
G01*
X12744000Y-7600000D02*
G75*
G02*
X12664000Y-7600000I-40000J0D01*
G01*
X12664000Y-7600000D02*
G75*
G02*
X12744000Y-7600000I40000J0D01*
G01*
D13*
X6731500Y-11329000D02*
X6731500Y-11439000D01*
X6676500Y-11384000D02*
X6786500Y-11384000D01*
X6731500Y-12345000D02*
X6731500Y-12455000D01*
X6676500Y-12400000D02*
X6786500Y-12400000D01*
D14*
X5778169Y-11438669D02*
X5778169Y-11345330D01*
X5684830Y-11345330D01*
X5684830Y-11438669D01*
X5778169Y-11438669D01*
X5778169Y-11938669D02*
X5778169Y-11845330D01*
X5684830Y-11845330D01*
X5684830Y-11938669D01*
X5778169Y-11938669D01*
D11*
X5108277Y-13013984D02*
X5108277Y-12813984D01*
X5108277Y-12813984D02*
X5155896Y-12813984D01*
X5155896Y-12813984D02*
X5184467Y-12823508D01*
X5184467Y-12823508D02*
X5203515Y-12842555D01*
X5203515Y-12842555D02*
X5213039Y-12861603D01*
X5213039Y-12861603D02*
X5222563Y-12899698D01*
X5222563Y-12899698D02*
X5222563Y-12928269D01*
X5222563Y-12928269D02*
X5213039Y-12966365D01*
X5213039Y-12966365D02*
X5203515Y-12985412D01*
X5203515Y-12985412D02*
X5184467Y-13004460D01*
X5184467Y-13004460D02*
X5155896Y-13013984D01*
X5155896Y-13013984D02*
X5108277Y-13013984D01*
X5308277Y-13013984D02*
X5308277Y-12880650D01*
X5308277Y-12918746D02*
X5317801Y-12899698D01*
X5317801Y-12899698D02*
X5327324Y-12890174D01*
X5327324Y-12890174D02*
X5346372Y-12880650D01*
X5346372Y-12880650D02*
X5365420Y-12880650D01*
X5432086Y-13013984D02*
X5432086Y-12880650D01*
X5432086Y-12813984D02*
X5422563Y-12823508D01*
X5422563Y-12823508D02*
X5432086Y-12833031D01*
X5432086Y-12833031D02*
X5441610Y-12823508D01*
X5441610Y-12823508D02*
X5432086Y-12813984D01*
X5432086Y-12813984D02*
X5432086Y-12833031D01*
X5555896Y-13013984D02*
X5536848Y-13004460D01*
X5536848Y-13004460D02*
X5527324Y-12985412D01*
X5527324Y-12985412D02*
X5527324Y-12813984D01*
X5660658Y-13013984D02*
X5641610Y-13004460D01*
X5641610Y-13004460D02*
X5632086Y-12985412D01*
X5632086Y-12985412D02*
X5632086Y-12813984D01*
X5889229Y-13013984D02*
X5889229Y-12813984D01*
X5889229Y-12813984D02*
X5955896Y-12956841D01*
X5955896Y-12956841D02*
X6022562Y-12813984D01*
X6022562Y-12813984D02*
X6022562Y-13013984D01*
X6203515Y-13013984D02*
X6203515Y-12909222D01*
X6203515Y-12909222D02*
X6193991Y-12890174D01*
X6193991Y-12890174D02*
X6174943Y-12880650D01*
X6174943Y-12880650D02*
X6136848Y-12880650D01*
X6136848Y-12880650D02*
X6117801Y-12890174D01*
X6203515Y-13004460D02*
X6184467Y-13013984D01*
X6184467Y-13013984D02*
X6136848Y-13013984D01*
X6136848Y-13013984D02*
X6117801Y-13004460D01*
X6117801Y-13004460D02*
X6108277Y-12985412D01*
X6108277Y-12985412D02*
X6108277Y-12966365D01*
X6108277Y-12966365D02*
X6117801Y-12947317D01*
X6117801Y-12947317D02*
X6136848Y-12937793D01*
X6136848Y-12937793D02*
X6184467Y-12937793D01*
X6184467Y-12937793D02*
X6203515Y-12928269D01*
X6298753Y-12880650D02*
X6298753Y-13080650D01*
X6298753Y-12890174D02*
X6317801Y-12880650D01*
X6317801Y-12880650D02*
X6355896Y-12880650D01*
X6355896Y-12880650D02*
X6374943Y-12890174D01*
X6374943Y-12890174D02*
X6384467Y-12899698D01*
X6384467Y-12899698D02*
X6393991Y-12918746D01*
X6393991Y-12918746D02*
X6393991Y-12975888D01*
X6393991Y-12975888D02*
X6384467Y-12994936D01*
X6384467Y-12994936D02*
X6374943Y-13004460D01*
X6374943Y-13004460D02*
X6355896Y-13013984D01*
X6355896Y-13013984D02*
X6317801Y-13013984D01*
X6317801Y-13013984D02*
X6298753Y-13004460D01*
X6479705Y-12994936D02*
X6489229Y-13004460D01*
X6489229Y-13004460D02*
X6479705Y-13013984D01*
X6479705Y-13013984D02*
X6470182Y-13004460D01*
X6470182Y-13004460D02*
X6479705Y-12994936D01*
X6479705Y-12994936D02*
X6479705Y-13013984D01*
X6479705Y-12890174D02*
X6489229Y-12899698D01*
X6489229Y-12899698D02*
X6479705Y-12909222D01*
X6479705Y-12909222D02*
X6470182Y-12899698D01*
X6470182Y-12899698D02*
X6479705Y-12890174D01*
X6479705Y-12890174D02*
X6479705Y-12909222D01*
D12*
X4797500Y-13317500D02*
X4847500Y-13367500D01*
X4847500Y-13317500D02*
X4797500Y-13367500D01*
D11*
X5146372Y-13233984D02*
X5165420Y-13233984D01*
X5165420Y-13233984D02*
X5184467Y-13243508D01*
X5184467Y-13243508D02*
X5193991Y-13253031D01*
X5193991Y-13253031D02*
X5203515Y-13272079D01*
X5203515Y-13272079D02*
X5213039Y-13310174D01*
X5213039Y-13310174D02*
X5213039Y-13357793D01*
X5213039Y-13357793D02*
X5203515Y-13395888D01*
X5203515Y-13395888D02*
X5193991Y-13414936D01*
X5193991Y-13414936D02*
X5184467Y-13424460D01*
X5184467Y-13424460D02*
X5165420Y-13433984D01*
X5165420Y-13433984D02*
X5146372Y-13433984D01*
X5146372Y-13433984D02*
X5127324Y-13424460D01*
X5127324Y-13424460D02*
X5117801Y-13414936D01*
X5117801Y-13414936D02*
X5108277Y-13395888D01*
X5108277Y-13395888D02*
X5098753Y-13357793D01*
X5098753Y-13357793D02*
X5098753Y-13310174D01*
X5098753Y-13310174D02*
X5108277Y-13272079D01*
X5108277Y-13272079D02*
X5117801Y-13253031D01*
X5117801Y-13253031D02*
X5127324Y-13243508D01*
X5127324Y-13243508D02*
X5146372Y-13233984D01*
X5298753Y-13414936D02*
X5308277Y-13424460D01*
X5308277Y-13424460D02*
X5298753Y-13433984D01*
X5298753Y-13433984D02*
X5289229Y-13424460D01*
X5289229Y-13424460D02*
X5298753Y-13414936D01*
X5298753Y-13414936D02*
X5298753Y-13433984D01*
X5489229Y-13233984D02*
X5393991Y-13233984D01*
X5393991Y-13233984D02*
X5384467Y-13329222D01*
X5384467Y-13329222D02*
X5393991Y-13319698D01*
X5393991Y-13319698D02*
X5413039Y-13310174D01*
X5413039Y-13310174D02*
X5460658Y-13310174D01*
X5460658Y-13310174D02*
X5479705Y-13319698D01*
X5479705Y-13319698D02*
X5489229Y-13329222D01*
X5489229Y-13329222D02*
X5498753Y-13348269D01*
X5498753Y-13348269D02*
X5498753Y-13395888D01*
X5498753Y-13395888D02*
X5489229Y-13414936D01*
X5489229Y-13414936D02*
X5479705Y-13424460D01*
X5479705Y-13424460D02*
X5460658Y-13433984D01*
X5460658Y-13433984D02*
X5413039Y-13433984D01*
X5413039Y-13433984D02*
X5393991Y-13424460D01*
X5393991Y-13424460D02*
X5384467Y-13414936D01*
X5622562Y-13233984D02*
X5641610Y-13233984D01*
X5641610Y-13233984D02*
X5660658Y-13243508D01*
X5660658Y-13243508D02*
X5670182Y-13253031D01*
X5670182Y-13253031D02*
X5679705Y-13272079D01*
X5679705Y-13272079D02*
X5689229Y-13310174D01*
X5689229Y-13310174D02*
X5689229Y-13357793D01*
X5689229Y-13357793D02*
X5679705Y-13395888D01*
X5679705Y-13395888D02*
X5670182Y-13414936D01*
X5670182Y-13414936D02*
X5660658Y-13424460D01*
X5660658Y-13424460D02*
X5641610Y-13433984D01*
X5641610Y-13433984D02*
X5622562Y-13433984D01*
X5622562Y-13433984D02*
X5603515Y-13424460D01*
X5603515Y-13424460D02*
X5593991Y-13414936D01*
X5593991Y-13414936D02*
X5584467Y-13395888D01*
X5584467Y-13395888D02*
X5574944Y-13357793D01*
X5574944Y-13357793D02*
X5574944Y-13310174D01*
X5574944Y-13310174D02*
X5584467Y-13272079D01*
X5584467Y-13272079D02*
X5593991Y-13253031D01*
X5593991Y-13253031D02*
X5603515Y-13243508D01*
X5603515Y-13243508D02*
X5622562Y-13233984D01*
X5813039Y-13233984D02*
X5832086Y-13233984D01*
X5832086Y-13233984D02*
X5851134Y-13243508D01*
X5851134Y-13243508D02*
X5860658Y-13253031D01*
X5860658Y-13253031D02*
X5870182Y-13272079D01*
X5870182Y-13272079D02*
X5879705Y-13310174D01*
X5879705Y-13310174D02*
X5879705Y-13357793D01*
X5879705Y-13357793D02*
X5870182Y-13395888D01*
X5870182Y-13395888D02*
X5860658Y-13414936D01*
X5860658Y-13414936D02*
X5851134Y-13424460D01*
X5851134Y-13424460D02*
X5832086Y-13433984D01*
X5832086Y-13433984D02*
X5813039Y-13433984D01*
X5813039Y-13433984D02*
X5793991Y-13424460D01*
X5793991Y-13424460D02*
X5784467Y-13414936D01*
X5784467Y-13414936D02*
X5774943Y-13395888D01*
X5774943Y-13395888D02*
X5765420Y-13357793D01*
X5765420Y-13357793D02*
X5765420Y-13310174D01*
X5765420Y-13310174D02*
X5774943Y-13272079D01*
X5774943Y-13272079D02*
X5784467Y-13253031D01*
X5784467Y-13253031D02*
X5793991Y-13243508D01*
X5793991Y-13243508D02*
X5813039Y-13233984D01*
X5965420Y-13433984D02*
X5965420Y-13300650D01*
X5965420Y-13319698D02*
X5974943Y-13310174D01*
X5974943Y-13310174D02*
X5993991Y-13300650D01*
X5993991Y-13300650D02*
X6022563Y-13300650D01*
X6022563Y-13300650D02*
X6041610Y-13310174D01*
X6041610Y-13310174D02*
X6051134Y-13329222D01*
X6051134Y-13329222D02*
X6051134Y-13433984D01*
X6051134Y-13329222D02*
X6060658Y-13310174D01*
X6060658Y-13310174D02*
X6079705Y-13300650D01*
X6079705Y-13300650D02*
X6108277Y-13300650D01*
X6108277Y-13300650D02*
X6127324Y-13310174D01*
X6127324Y-13310174D02*
X6136848Y-13329222D01*
X6136848Y-13329222D02*
X6136848Y-13433984D01*
X6232086Y-13433984D02*
X6232086Y-13300650D01*
X6232086Y-13319698D02*
X6241610Y-13310174D01*
X6241610Y-13310174D02*
X6260658Y-13300650D01*
X6260658Y-13300650D02*
X6289229Y-13300650D01*
X6289229Y-13300650D02*
X6308277Y-13310174D01*
X6308277Y-13310174D02*
X6317801Y-13329222D01*
X6317801Y-13329222D02*
X6317801Y-13433984D01*
X6317801Y-13329222D02*
X6327324Y-13310174D01*
X6327324Y-13310174D02*
X6346372Y-13300650D01*
X6346372Y-13300650D02*
X6374943Y-13300650D01*
X6374943Y-13300650D02*
X6393991Y-13310174D01*
X6393991Y-13310174D02*
X6403515Y-13329222D01*
X6403515Y-13329222D02*
X6403515Y-13433984D01*
X6793991Y-13224460D02*
X6622563Y-13481603D01*
X7051134Y-13233984D02*
X7070182Y-13233984D01*
X7070182Y-13233984D02*
X7089229Y-13243508D01*
X7089229Y-13243508D02*
X7098753Y-13253031D01*
X7098753Y-13253031D02*
X7108277Y-13272079D01*
X7108277Y-13272079D02*
X7117801Y-13310174D01*
X7117801Y-13310174D02*
X7117801Y-13357793D01*
X7117801Y-13357793D02*
X7108277Y-13395888D01*
X7108277Y-13395888D02*
X7098753Y-13414936D01*
X7098753Y-13414936D02*
X7089229Y-13424460D01*
X7089229Y-13424460D02*
X7070182Y-13433984D01*
X7070182Y-13433984D02*
X7051134Y-13433984D01*
X7051134Y-13433984D02*
X7032086Y-13424460D01*
X7032086Y-13424460D02*
X7022563Y-13414936D01*
X7022563Y-13414936D02*
X7013039Y-13395888D01*
X7013039Y-13395888D02*
X7003515Y-13357793D01*
X7003515Y-13357793D02*
X7003515Y-13310174D01*
X7003515Y-13310174D02*
X7013039Y-13272079D01*
X7013039Y-13272079D02*
X7022563Y-13253031D01*
X7022563Y-13253031D02*
X7032086Y-13243508D01*
X7032086Y-13243508D02*
X7051134Y-13233984D01*
X7203515Y-13414936D02*
X7213039Y-13424460D01*
X7213039Y-13424460D02*
X7203515Y-13433984D01*
X7203515Y-13433984D02*
X7193991Y-13424460D01*
X7193991Y-13424460D02*
X7203515Y-13414936D01*
X7203515Y-13414936D02*
X7203515Y-13433984D01*
X7336848Y-13233984D02*
X7355896Y-13233984D01*
X7355896Y-13233984D02*
X7374944Y-13243508D01*
X7374944Y-13243508D02*
X7384467Y-13253031D01*
X7384467Y-13253031D02*
X7393991Y-13272079D01*
X7393991Y-13272079D02*
X7403515Y-13310174D01*
X7403515Y-13310174D02*
X7403515Y-13357793D01*
X7403515Y-13357793D02*
X7393991Y-13395888D01*
X7393991Y-13395888D02*
X7384467Y-13414936D01*
X7384467Y-13414936D02*
X7374944Y-13424460D01*
X7374944Y-13424460D02*
X7355896Y-13433984D01*
X7355896Y-13433984D02*
X7336848Y-13433984D01*
X7336848Y-13433984D02*
X7317801Y-13424460D01*
X7317801Y-13424460D02*
X7308277Y-13414936D01*
X7308277Y-13414936D02*
X7298753Y-13395888D01*
X7298753Y-13395888D02*
X7289229Y-13357793D01*
X7289229Y-13357793D02*
X7289229Y-13310174D01*
X7289229Y-13310174D02*
X7298753Y-13272079D01*
X7298753Y-13272079D02*
X7308277Y-13253031D01*
X7308277Y-13253031D02*
X7317801Y-13243508D01*
X7317801Y-13243508D02*
X7336848Y-13233984D01*
X7593991Y-13433984D02*
X7479706Y-13433984D01*
X7536848Y-13433984D02*
X7536848Y-13233984D01*
X7536848Y-13233984D02*
X7517801Y-13262555D01*
X7517801Y-13262555D02*
X7498753Y-13281603D01*
X7498753Y-13281603D02*
X7479706Y-13291127D01*
X7689229Y-13433984D02*
X7727325Y-13433984D01*
X7727325Y-13433984D02*
X7746372Y-13424460D01*
X7746372Y-13424460D02*
X7755896Y-13414936D01*
X7755896Y-13414936D02*
X7774944Y-13386365D01*
X7774944Y-13386365D02*
X7784467Y-13348269D01*
X7784467Y-13348269D02*
X7784467Y-13272079D01*
X7784467Y-13272079D02*
X7774944Y-13253031D01*
X7774944Y-13253031D02*
X7765420Y-13243508D01*
X7765420Y-13243508D02*
X7746372Y-13233984D01*
X7746372Y-13233984D02*
X7708277Y-13233984D01*
X7708277Y-13233984D02*
X7689229Y-13243508D01*
X7689229Y-13243508D02*
X7679706Y-13253031D01*
X7679706Y-13253031D02*
X7670182Y-13272079D01*
X7670182Y-13272079D02*
X7670182Y-13319698D01*
X7670182Y-13319698D02*
X7679706Y-13338746D01*
X7679706Y-13338746D02*
X7689229Y-13348269D01*
X7689229Y-13348269D02*
X7708277Y-13357793D01*
X7708277Y-13357793D02*
X7746372Y-13357793D01*
X7746372Y-13357793D02*
X7765420Y-13348269D01*
X7765420Y-13348269D02*
X7774944Y-13338746D01*
X7774944Y-13338746D02*
X7784467Y-13319698D01*
X7851134Y-13233984D02*
X7984467Y-13233984D01*
X7984467Y-13233984D02*
X7898753Y-13433984D01*
X8051134Y-13233984D02*
X8051134Y-13272079D01*
X8127325Y-13233984D02*
X8127325Y-13272079D01*
X8422563Y-13510174D02*
X8413039Y-13500650D01*
X8413039Y-13500650D02*
X8393991Y-13472079D01*
X8393991Y-13472079D02*
X8384468Y-13453031D01*
X8384468Y-13453031D02*
X8374944Y-13424460D01*
X8374944Y-13424460D02*
X8365420Y-13376841D01*
X8365420Y-13376841D02*
X8365420Y-13338746D01*
X8365420Y-13338746D02*
X8374944Y-13291127D01*
X8374944Y-13291127D02*
X8384468Y-13262555D01*
X8384468Y-13262555D02*
X8393991Y-13243508D01*
X8393991Y-13243508D02*
X8413039Y-13214936D01*
X8413039Y-13214936D02*
X8422563Y-13205412D01*
X8508277Y-13433984D02*
X8546372Y-13433984D01*
X8546372Y-13433984D02*
X8565420Y-13424460D01*
X8565420Y-13424460D02*
X8574944Y-13414936D01*
X8574944Y-13414936D02*
X8593991Y-13386365D01*
X8593991Y-13386365D02*
X8603515Y-13348269D01*
X8603515Y-13348269D02*
X8603515Y-13272079D01*
X8603515Y-13272079D02*
X8593991Y-13253031D01*
X8593991Y-13253031D02*
X8584468Y-13243508D01*
X8584468Y-13243508D02*
X8565420Y-13233984D01*
X8565420Y-13233984D02*
X8527325Y-13233984D01*
X8527325Y-13233984D02*
X8508277Y-13243508D01*
X8508277Y-13243508D02*
X8498753Y-13253031D01*
X8498753Y-13253031D02*
X8489230Y-13272079D01*
X8489230Y-13272079D02*
X8489230Y-13319698D01*
X8489230Y-13319698D02*
X8498753Y-13338746D01*
X8498753Y-13338746D02*
X8508277Y-13348269D01*
X8508277Y-13348269D02*
X8527325Y-13357793D01*
X8527325Y-13357793D02*
X8565420Y-13357793D01*
X8565420Y-13357793D02*
X8584468Y-13348269D01*
X8584468Y-13348269D02*
X8593991Y-13338746D01*
X8593991Y-13338746D02*
X8603515Y-13319698D01*
X8841611Y-13433984D02*
X8841611Y-13233984D01*
X8927325Y-13433984D02*
X8927325Y-13329222D01*
X8927325Y-13329222D02*
X8917801Y-13310174D01*
X8917801Y-13310174D02*
X8898753Y-13300650D01*
X8898753Y-13300650D02*
X8870182Y-13300650D01*
X8870182Y-13300650D02*
X8851134Y-13310174D01*
X8851134Y-13310174D02*
X8841611Y-13319698D01*
X9051134Y-13433984D02*
X9032087Y-13424460D01*
X9032087Y-13424460D02*
X9022563Y-13414936D01*
X9022563Y-13414936D02*
X9013039Y-13395888D01*
X9013039Y-13395888D02*
X9013039Y-13338746D01*
X9013039Y-13338746D02*
X9022563Y-13319698D01*
X9022563Y-13319698D02*
X9032087Y-13310174D01*
X9032087Y-13310174D02*
X9051134Y-13300650D01*
X9051134Y-13300650D02*
X9079706Y-13300650D01*
X9079706Y-13300650D02*
X9098753Y-13310174D01*
X9098753Y-13310174D02*
X9108277Y-13319698D01*
X9108277Y-13319698D02*
X9117801Y-13338746D01*
X9117801Y-13338746D02*
X9117801Y-13395888D01*
X9117801Y-13395888D02*
X9108277Y-13414936D01*
X9108277Y-13414936D02*
X9098753Y-13424460D01*
X9098753Y-13424460D02*
X9079706Y-13433984D01*
X9079706Y-13433984D02*
X9051134Y-13433984D01*
X9232087Y-13433984D02*
X9213039Y-13424460D01*
X9213039Y-13424460D02*
X9203515Y-13405412D01*
X9203515Y-13405412D02*
X9203515Y-13233984D01*
X9384468Y-13424460D02*
X9365420Y-13433984D01*
X9365420Y-13433984D02*
X9327325Y-13433984D01*
X9327325Y-13433984D02*
X9308277Y-13424460D01*
X9308277Y-13424460D02*
X9298753Y-13405412D01*
X9298753Y-13405412D02*
X9298753Y-13329222D01*
X9298753Y-13329222D02*
X9308277Y-13310174D01*
X9308277Y-13310174D02*
X9327325Y-13300650D01*
X9327325Y-13300650D02*
X9365420Y-13300650D01*
X9365420Y-13300650D02*
X9384468Y-13310174D01*
X9384468Y-13310174D02*
X9393992Y-13329222D01*
X9393992Y-13329222D02*
X9393992Y-13348269D01*
X9393992Y-13348269D02*
X9298753Y-13367317D01*
X9470182Y-13424460D02*
X9489230Y-13433984D01*
X9489230Y-13433984D02*
X9527325Y-13433984D01*
X9527325Y-13433984D02*
X9546373Y-13424460D01*
X9546373Y-13424460D02*
X9555896Y-13405412D01*
X9555896Y-13405412D02*
X9555896Y-13395888D01*
X9555896Y-13395888D02*
X9546373Y-13376841D01*
X9546373Y-13376841D02*
X9527325Y-13367317D01*
X9527325Y-13367317D02*
X9498753Y-13367317D01*
X9498753Y-13367317D02*
X9479706Y-13357793D01*
X9479706Y-13357793D02*
X9470182Y-13338746D01*
X9470182Y-13338746D02*
X9470182Y-13329222D01*
X9470182Y-13329222D02*
X9479706Y-13310174D01*
X9479706Y-13310174D02*
X9498753Y-13300650D01*
X9498753Y-13300650D02*
X9527325Y-13300650D01*
X9527325Y-13300650D02*
X9546373Y-13310174D01*
X9622563Y-13510174D02*
X9632087Y-13500650D01*
X9632087Y-13500650D02*
X9651134Y-13472079D01*
X9651134Y-13472079D02*
X9660658Y-13453031D01*
X9660658Y-13453031D02*
X9670182Y-13424460D01*
X9670182Y-13424460D02*
X9679706Y-13376841D01*
X9679706Y-13376841D02*
X9679706Y-13338746D01*
X9679706Y-13338746D02*
X9670182Y-13291127D01*
X9670182Y-13291127D02*
X9660658Y-13262555D01*
X9660658Y-13262555D02*
X9651134Y-13243508D01*
X9651134Y-13243508D02*
X9632087Y-13214936D01*
X9632087Y-13214936D02*
X9622563Y-13205412D01*
D12*
X4847500Y-13606500D02*
G75*
G02*
X4767500Y-13606500I-40000J0D01*
G01*
X4767500Y-13606500D02*
G75*
G02*
X4847500Y-13606500I40000J0D01*
G01*
D11*
X5146372Y-13497984D02*
X5165420Y-13497984D01*
X5165420Y-13497984D02*
X5184467Y-13507508D01*
X5184467Y-13507508D02*
X5193991Y-13517031D01*
X5193991Y-13517031D02*
X5203515Y-13536079D01*
X5203515Y-13536079D02*
X5213039Y-13574174D01*
X5213039Y-13574174D02*
X5213039Y-13621793D01*
X5213039Y-13621793D02*
X5203515Y-13659888D01*
X5203515Y-13659888D02*
X5193991Y-13678936D01*
X5193991Y-13678936D02*
X5184467Y-13688460D01*
X5184467Y-13688460D02*
X5165420Y-13697984D01*
X5165420Y-13697984D02*
X5146372Y-13697984D01*
X5146372Y-13697984D02*
X5127324Y-13688460D01*
X5127324Y-13688460D02*
X5117801Y-13678936D01*
X5117801Y-13678936D02*
X5108277Y-13659888D01*
X5108277Y-13659888D02*
X5098753Y-13621793D01*
X5098753Y-13621793D02*
X5098753Y-13574174D01*
X5098753Y-13574174D02*
X5108277Y-13536079D01*
X5108277Y-13536079D02*
X5117801Y-13517031D01*
X5117801Y-13517031D02*
X5127324Y-13507508D01*
X5127324Y-13507508D02*
X5146372Y-13497984D01*
X5298753Y-13678936D02*
X5308277Y-13688460D01*
X5308277Y-13688460D02*
X5298753Y-13697984D01*
X5298753Y-13697984D02*
X5289229Y-13688460D01*
X5289229Y-13688460D02*
X5298753Y-13678936D01*
X5298753Y-13678936D02*
X5298753Y-13697984D01*
X5422563Y-13583698D02*
X5403515Y-13574174D01*
X5403515Y-13574174D02*
X5393991Y-13564650D01*
X5393991Y-13564650D02*
X5384467Y-13545603D01*
X5384467Y-13545603D02*
X5384467Y-13536079D01*
X5384467Y-13536079D02*
X5393991Y-13517031D01*
X5393991Y-13517031D02*
X5403515Y-13507508D01*
X5403515Y-13507508D02*
X5422563Y-13497984D01*
X5422563Y-13497984D02*
X5460658Y-13497984D01*
X5460658Y-13497984D02*
X5479705Y-13507508D01*
X5479705Y-13507508D02*
X5489229Y-13517031D01*
X5489229Y-13517031D02*
X5498753Y-13536079D01*
X5498753Y-13536079D02*
X5498753Y-13545603D01*
X5498753Y-13545603D02*
X5489229Y-13564650D01*
X5489229Y-13564650D02*
X5479705Y-13574174D01*
X5479705Y-13574174D02*
X5460658Y-13583698D01*
X5460658Y-13583698D02*
X5422563Y-13583698D01*
X5422563Y-13583698D02*
X5403515Y-13593222D01*
X5403515Y-13593222D02*
X5393991Y-13602746D01*
X5393991Y-13602746D02*
X5384467Y-13621793D01*
X5384467Y-13621793D02*
X5384467Y-13659888D01*
X5384467Y-13659888D02*
X5393991Y-13678936D01*
X5393991Y-13678936D02*
X5403515Y-13688460D01*
X5403515Y-13688460D02*
X5422563Y-13697984D01*
X5422563Y-13697984D02*
X5460658Y-13697984D01*
X5460658Y-13697984D02*
X5479705Y-13688460D01*
X5479705Y-13688460D02*
X5489229Y-13678936D01*
X5489229Y-13678936D02*
X5498753Y-13659888D01*
X5498753Y-13659888D02*
X5498753Y-13621793D01*
X5498753Y-13621793D02*
X5489229Y-13602746D01*
X5489229Y-13602746D02*
X5479705Y-13593222D01*
X5479705Y-13593222D02*
X5460658Y-13583698D01*
X5622562Y-13497984D02*
X5641610Y-13497984D01*
X5641610Y-13497984D02*
X5660658Y-13507508D01*
X5660658Y-13507508D02*
X5670182Y-13517031D01*
X5670182Y-13517031D02*
X5679705Y-13536079D01*
X5679705Y-13536079D02*
X5689229Y-13574174D01*
X5689229Y-13574174D02*
X5689229Y-13621793D01*
X5689229Y-13621793D02*
X5679705Y-13659888D01*
X5679705Y-13659888D02*
X5670182Y-13678936D01*
X5670182Y-13678936D02*
X5660658Y-13688460D01*
X5660658Y-13688460D02*
X5641610Y-13697984D01*
X5641610Y-13697984D02*
X5622562Y-13697984D01*
X5622562Y-13697984D02*
X5603515Y-13688460D01*
X5603515Y-13688460D02*
X5593991Y-13678936D01*
X5593991Y-13678936D02*
X5584467Y-13659888D01*
X5584467Y-13659888D02*
X5574944Y-13621793D01*
X5574944Y-13621793D02*
X5574944Y-13574174D01*
X5574944Y-13574174D02*
X5584467Y-13536079D01*
X5584467Y-13536079D02*
X5593991Y-13517031D01*
X5593991Y-13517031D02*
X5603515Y-13507508D01*
X5603515Y-13507508D02*
X5622562Y-13497984D01*
X5813039Y-13497984D02*
X5832086Y-13497984D01*
X5832086Y-13497984D02*
X5851134Y-13507508D01*
X5851134Y-13507508D02*
X5860658Y-13517031D01*
X5860658Y-13517031D02*
X5870182Y-13536079D01*
X5870182Y-13536079D02*
X5879705Y-13574174D01*
X5879705Y-13574174D02*
X5879705Y-13621793D01*
X5879705Y-13621793D02*
X5870182Y-13659888D01*
X5870182Y-13659888D02*
X5860658Y-13678936D01*
X5860658Y-13678936D02*
X5851134Y-13688460D01*
X5851134Y-13688460D02*
X5832086Y-13697984D01*
X5832086Y-13697984D02*
X5813039Y-13697984D01*
X5813039Y-13697984D02*
X5793991Y-13688460D01*
X5793991Y-13688460D02*
X5784467Y-13678936D01*
X5784467Y-13678936D02*
X5774943Y-13659888D01*
X5774943Y-13659888D02*
X5765420Y-13621793D01*
X5765420Y-13621793D02*
X5765420Y-13574174D01*
X5765420Y-13574174D02*
X5774943Y-13536079D01*
X5774943Y-13536079D02*
X5784467Y-13517031D01*
X5784467Y-13517031D02*
X5793991Y-13507508D01*
X5793991Y-13507508D02*
X5813039Y-13497984D01*
X5965420Y-13697984D02*
X5965420Y-13564650D01*
X5965420Y-13583698D02*
X5974943Y-13574174D01*
X5974943Y-13574174D02*
X5993991Y-13564650D01*
X5993991Y-13564650D02*
X6022563Y-13564650D01*
X6022563Y-13564650D02*
X6041610Y-13574174D01*
X6041610Y-13574174D02*
X6051134Y-13593222D01*
X6051134Y-13593222D02*
X6051134Y-13697984D01*
X6051134Y-13593222D02*
X6060658Y-13574174D01*
X6060658Y-13574174D02*
X6079705Y-13564650D01*
X6079705Y-13564650D02*
X6108277Y-13564650D01*
X6108277Y-13564650D02*
X6127324Y-13574174D01*
X6127324Y-13574174D02*
X6136848Y-13593222D01*
X6136848Y-13593222D02*
X6136848Y-13697984D01*
X6232086Y-13697984D02*
X6232086Y-13564650D01*
X6232086Y-13583698D02*
X6241610Y-13574174D01*
X6241610Y-13574174D02*
X6260658Y-13564650D01*
X6260658Y-13564650D02*
X6289229Y-13564650D01*
X6289229Y-13564650D02*
X6308277Y-13574174D01*
X6308277Y-13574174D02*
X6317801Y-13593222D01*
X6317801Y-13593222D02*
X6317801Y-13697984D01*
X6317801Y-13593222D02*
X6327324Y-13574174D01*
X6327324Y-13574174D02*
X6346372Y-13564650D01*
X6346372Y-13564650D02*
X6374943Y-13564650D01*
X6374943Y-13564650D02*
X6393991Y-13574174D01*
X6393991Y-13574174D02*
X6403515Y-13593222D01*
X6403515Y-13593222D02*
X6403515Y-13697984D01*
X6793991Y-13488460D02*
X6622563Y-13745603D01*
X7051134Y-13497984D02*
X7070182Y-13497984D01*
X7070182Y-13497984D02*
X7089229Y-13507508D01*
X7089229Y-13507508D02*
X7098753Y-13517031D01*
X7098753Y-13517031D02*
X7108277Y-13536079D01*
X7108277Y-13536079D02*
X7117801Y-13574174D01*
X7117801Y-13574174D02*
X7117801Y-13621793D01*
X7117801Y-13621793D02*
X7108277Y-13659888D01*
X7108277Y-13659888D02*
X7098753Y-13678936D01*
X7098753Y-13678936D02*
X7089229Y-13688460D01*
X7089229Y-13688460D02*
X7070182Y-13697984D01*
X7070182Y-13697984D02*
X7051134Y-13697984D01*
X7051134Y-13697984D02*
X7032086Y-13688460D01*
X7032086Y-13688460D02*
X7022563Y-13678936D01*
X7022563Y-13678936D02*
X7013039Y-13659888D01*
X7013039Y-13659888D02*
X7003515Y-13621793D01*
X7003515Y-13621793D02*
X7003515Y-13574174D01*
X7003515Y-13574174D02*
X7013039Y-13536079D01*
X7013039Y-13536079D02*
X7022563Y-13517031D01*
X7022563Y-13517031D02*
X7032086Y-13507508D01*
X7032086Y-13507508D02*
X7051134Y-13497984D01*
X7203515Y-13678936D02*
X7213039Y-13688460D01*
X7213039Y-13688460D02*
X7203515Y-13697984D01*
X7203515Y-13697984D02*
X7193991Y-13688460D01*
X7193991Y-13688460D02*
X7203515Y-13678936D01*
X7203515Y-13678936D02*
X7203515Y-13697984D01*
X7336848Y-13497984D02*
X7355896Y-13497984D01*
X7355896Y-13497984D02*
X7374944Y-13507508D01*
X7374944Y-13507508D02*
X7384467Y-13517031D01*
X7384467Y-13517031D02*
X7393991Y-13536079D01*
X7393991Y-13536079D02*
X7403515Y-13574174D01*
X7403515Y-13574174D02*
X7403515Y-13621793D01*
X7403515Y-13621793D02*
X7393991Y-13659888D01*
X7393991Y-13659888D02*
X7384467Y-13678936D01*
X7384467Y-13678936D02*
X7374944Y-13688460D01*
X7374944Y-13688460D02*
X7355896Y-13697984D01*
X7355896Y-13697984D02*
X7336848Y-13697984D01*
X7336848Y-13697984D02*
X7317801Y-13688460D01*
X7317801Y-13688460D02*
X7308277Y-13678936D01*
X7308277Y-13678936D02*
X7298753Y-13659888D01*
X7298753Y-13659888D02*
X7289229Y-13621793D01*
X7289229Y-13621793D02*
X7289229Y-13574174D01*
X7289229Y-13574174D02*
X7298753Y-13536079D01*
X7298753Y-13536079D02*
X7308277Y-13517031D01*
X7308277Y-13517031D02*
X7317801Y-13507508D01*
X7317801Y-13507508D02*
X7336848Y-13497984D01*
X7470182Y-13497984D02*
X7593991Y-13497984D01*
X7593991Y-13497984D02*
X7527325Y-13574174D01*
X7527325Y-13574174D02*
X7555896Y-13574174D01*
X7555896Y-13574174D02*
X7574944Y-13583698D01*
X7574944Y-13583698D02*
X7584467Y-13593222D01*
X7584467Y-13593222D02*
X7593991Y-13612269D01*
X7593991Y-13612269D02*
X7593991Y-13659888D01*
X7593991Y-13659888D02*
X7584467Y-13678936D01*
X7584467Y-13678936D02*
X7574944Y-13688460D01*
X7574944Y-13688460D02*
X7555896Y-13697984D01*
X7555896Y-13697984D02*
X7498753Y-13697984D01*
X7498753Y-13697984D02*
X7479706Y-13688460D01*
X7479706Y-13688460D02*
X7470182Y-13678936D01*
X7784467Y-13697984D02*
X7670182Y-13697984D01*
X7727325Y-13697984D02*
X7727325Y-13497984D01*
X7727325Y-13497984D02*
X7708277Y-13526555D01*
X7708277Y-13526555D02*
X7689229Y-13545603D01*
X7689229Y-13545603D02*
X7670182Y-13555127D01*
X7965420Y-13497984D02*
X7870182Y-13497984D01*
X7870182Y-13497984D02*
X7860658Y-13593222D01*
X7860658Y-13593222D02*
X7870182Y-13583698D01*
X7870182Y-13583698D02*
X7889229Y-13574174D01*
X7889229Y-13574174D02*
X7936848Y-13574174D01*
X7936848Y-13574174D02*
X7955896Y-13583698D01*
X7955896Y-13583698D02*
X7965420Y-13593222D01*
X7965420Y-13593222D02*
X7974944Y-13612269D01*
X7974944Y-13612269D02*
X7974944Y-13659888D01*
X7974944Y-13659888D02*
X7965420Y-13678936D01*
X7965420Y-13678936D02*
X7955896Y-13688460D01*
X7955896Y-13688460D02*
X7936848Y-13697984D01*
X7936848Y-13697984D02*
X7889229Y-13697984D01*
X7889229Y-13697984D02*
X7870182Y-13688460D01*
X7870182Y-13688460D02*
X7860658Y-13678936D01*
X8051134Y-13497984D02*
X8051134Y-13536079D01*
X8127325Y-13497984D02*
X8127325Y-13536079D01*
X8422563Y-13774174D02*
X8413039Y-13764650D01*
X8413039Y-13764650D02*
X8393991Y-13736079D01*
X8393991Y-13736079D02*
X8384468Y-13717031D01*
X8384468Y-13717031D02*
X8374944Y-13688460D01*
X8374944Y-13688460D02*
X8365420Y-13640841D01*
X8365420Y-13640841D02*
X8365420Y-13602746D01*
X8365420Y-13602746D02*
X8374944Y-13555127D01*
X8374944Y-13555127D02*
X8384468Y-13526555D01*
X8384468Y-13526555D02*
X8393991Y-13507508D01*
X8393991Y-13507508D02*
X8413039Y-13478936D01*
X8413039Y-13478936D02*
X8422563Y-13469412D01*
X8584468Y-13564650D02*
X8584468Y-13697984D01*
X8536849Y-13488460D02*
X8489230Y-13631317D01*
X8489230Y-13631317D02*
X8613039Y-13631317D01*
X8679706Y-13517031D02*
X8689230Y-13507508D01*
X8689230Y-13507508D02*
X8708277Y-13497984D01*
X8708277Y-13497984D02*
X8755896Y-13497984D01*
X8755896Y-13497984D02*
X8774944Y-13507508D01*
X8774944Y-13507508D02*
X8784468Y-13517031D01*
X8784468Y-13517031D02*
X8793991Y-13536079D01*
X8793991Y-13536079D02*
X8793991Y-13555127D01*
X8793991Y-13555127D02*
X8784468Y-13583698D01*
X8784468Y-13583698D02*
X8670182Y-13697984D01*
X8670182Y-13697984D02*
X8793991Y-13697984D01*
X9032087Y-13697984D02*
X9032087Y-13497984D01*
X9117801Y-13697984D02*
X9117801Y-13593222D01*
X9117801Y-13593222D02*
X9108277Y-13574174D01*
X9108277Y-13574174D02*
X9089230Y-13564650D01*
X9089230Y-13564650D02*
X9060658Y-13564650D01*
X9060658Y-13564650D02*
X9041611Y-13574174D01*
X9041611Y-13574174D02*
X9032087Y-13583698D01*
X9241611Y-13697984D02*
X9222563Y-13688460D01*
X9222563Y-13688460D02*
X9213039Y-13678936D01*
X9213039Y-13678936D02*
X9203515Y-13659888D01*
X9203515Y-13659888D02*
X9203515Y-13602746D01*
X9203515Y-13602746D02*
X9213039Y-13583698D01*
X9213039Y-13583698D02*
X9222563Y-13574174D01*
X9222563Y-13574174D02*
X9241611Y-13564650D01*
X9241611Y-13564650D02*
X9270182Y-13564650D01*
X9270182Y-13564650D02*
X9289230Y-13574174D01*
X9289230Y-13574174D02*
X9298753Y-13583698D01*
X9298753Y-13583698D02*
X9308277Y-13602746D01*
X9308277Y-13602746D02*
X9308277Y-13659888D01*
X9308277Y-13659888D02*
X9298753Y-13678936D01*
X9298753Y-13678936D02*
X9289230Y-13688460D01*
X9289230Y-13688460D02*
X9270182Y-13697984D01*
X9270182Y-13697984D02*
X9241611Y-13697984D01*
X9422563Y-13697984D02*
X9403515Y-13688460D01*
X9403515Y-13688460D02*
X9393992Y-13669412D01*
X9393992Y-13669412D02*
X9393992Y-13497984D01*
X9574944Y-13688460D02*
X9555896Y-13697984D01*
X9555896Y-13697984D02*
X9517801Y-13697984D01*
X9517801Y-13697984D02*
X9498753Y-13688460D01*
X9498753Y-13688460D02*
X9489230Y-13669412D01*
X9489230Y-13669412D02*
X9489230Y-13593222D01*
X9489230Y-13593222D02*
X9498753Y-13574174D01*
X9498753Y-13574174D02*
X9517801Y-13564650D01*
X9517801Y-13564650D02*
X9555896Y-13564650D01*
X9555896Y-13564650D02*
X9574944Y-13574174D01*
X9574944Y-13574174D02*
X9584468Y-13593222D01*
X9584468Y-13593222D02*
X9584468Y-13612269D01*
X9584468Y-13612269D02*
X9489230Y-13631317D01*
X9660658Y-13688460D02*
X9679706Y-13697984D01*
X9679706Y-13697984D02*
X9717801Y-13697984D01*
X9717801Y-13697984D02*
X9736849Y-13688460D01*
X9736849Y-13688460D02*
X9746373Y-13669412D01*
X9746373Y-13669412D02*
X9746373Y-13659888D01*
X9746373Y-13659888D02*
X9736849Y-13640841D01*
X9736849Y-13640841D02*
X9717801Y-13631317D01*
X9717801Y-13631317D02*
X9689230Y-13631317D01*
X9689230Y-13631317D02*
X9670182Y-13621793D01*
X9670182Y-13621793D02*
X9660658Y-13602746D01*
X9660658Y-13602746D02*
X9660658Y-13593222D01*
X9660658Y-13593222D02*
X9670182Y-13574174D01*
X9670182Y-13574174D02*
X9689230Y-13564650D01*
X9689230Y-13564650D02*
X9717801Y-13564650D01*
X9717801Y-13564650D02*
X9736849Y-13574174D01*
X9813039Y-13774174D02*
X9822563Y-13764650D01*
X9822563Y-13764650D02*
X9841611Y-13736079D01*
X9841611Y-13736079D02*
X9851134Y-13717031D01*
X9851134Y-13717031D02*
X9860658Y-13688460D01*
X9860658Y-13688460D02*
X9870182Y-13640841D01*
X9870182Y-13640841D02*
X9870182Y-13602746D01*
X9870182Y-13602746D02*
X9860658Y-13555127D01*
X9860658Y-13555127D02*
X9851134Y-13526555D01*
X9851134Y-13526555D02*
X9841611Y-13507508D01*
X9841611Y-13507508D02*
X9822563Y-13478936D01*
X9822563Y-13478936D02*
X9813039Y-13469412D01*
D13*
X4792500Y-13815500D02*
X4792500Y-13925500D01*
X4737500Y-13870500D02*
X4847500Y-13870500D01*
D11*
X5213039Y-13961984D02*
X5098753Y-13961984D01*
X5155896Y-13961984D02*
X5155896Y-13761984D01*
X5155896Y-13761984D02*
X5136848Y-13790555D01*
X5136848Y-13790555D02*
X5117801Y-13809603D01*
X5117801Y-13809603D02*
X5098753Y-13819127D01*
X5298753Y-13942936D02*
X5308277Y-13952460D01*
X5308277Y-13952460D02*
X5298753Y-13961984D01*
X5298753Y-13961984D02*
X5289229Y-13952460D01*
X5289229Y-13952460D02*
X5298753Y-13942936D01*
X5298753Y-13942936D02*
X5298753Y-13961984D01*
X5498753Y-13961984D02*
X5384467Y-13961984D01*
X5441610Y-13961984D02*
X5441610Y-13761984D01*
X5441610Y-13761984D02*
X5422563Y-13790555D01*
X5422563Y-13790555D02*
X5403515Y-13809603D01*
X5403515Y-13809603D02*
X5384467Y-13819127D01*
X5622562Y-13761984D02*
X5641610Y-13761984D01*
X5641610Y-13761984D02*
X5660658Y-13771508D01*
X5660658Y-13771508D02*
X5670182Y-13781031D01*
X5670182Y-13781031D02*
X5679705Y-13800079D01*
X5679705Y-13800079D02*
X5689229Y-13838174D01*
X5689229Y-13838174D02*
X5689229Y-13885793D01*
X5689229Y-13885793D02*
X5679705Y-13923888D01*
X5679705Y-13923888D02*
X5670182Y-13942936D01*
X5670182Y-13942936D02*
X5660658Y-13952460D01*
X5660658Y-13952460D02*
X5641610Y-13961984D01*
X5641610Y-13961984D02*
X5622562Y-13961984D01*
X5622562Y-13961984D02*
X5603515Y-13952460D01*
X5603515Y-13952460D02*
X5593991Y-13942936D01*
X5593991Y-13942936D02*
X5584467Y-13923888D01*
X5584467Y-13923888D02*
X5574944Y-13885793D01*
X5574944Y-13885793D02*
X5574944Y-13838174D01*
X5574944Y-13838174D02*
X5584467Y-13800079D01*
X5584467Y-13800079D02*
X5593991Y-13781031D01*
X5593991Y-13781031D02*
X5603515Y-13771508D01*
X5603515Y-13771508D02*
X5622562Y-13761984D01*
X5813039Y-13761984D02*
X5832086Y-13761984D01*
X5832086Y-13761984D02*
X5851134Y-13771508D01*
X5851134Y-13771508D02*
X5860658Y-13781031D01*
X5860658Y-13781031D02*
X5870182Y-13800079D01*
X5870182Y-13800079D02*
X5879705Y-13838174D01*
X5879705Y-13838174D02*
X5879705Y-13885793D01*
X5879705Y-13885793D02*
X5870182Y-13923888D01*
X5870182Y-13923888D02*
X5860658Y-13942936D01*
X5860658Y-13942936D02*
X5851134Y-13952460D01*
X5851134Y-13952460D02*
X5832086Y-13961984D01*
X5832086Y-13961984D02*
X5813039Y-13961984D01*
X5813039Y-13961984D02*
X5793991Y-13952460D01*
X5793991Y-13952460D02*
X5784467Y-13942936D01*
X5784467Y-13942936D02*
X5774943Y-13923888D01*
X5774943Y-13923888D02*
X5765420Y-13885793D01*
X5765420Y-13885793D02*
X5765420Y-13838174D01*
X5765420Y-13838174D02*
X5774943Y-13800079D01*
X5774943Y-13800079D02*
X5784467Y-13781031D01*
X5784467Y-13781031D02*
X5793991Y-13771508D01*
X5793991Y-13771508D02*
X5813039Y-13761984D01*
X5965420Y-13961984D02*
X5965420Y-13828650D01*
X5965420Y-13847698D02*
X5974943Y-13838174D01*
X5974943Y-13838174D02*
X5993991Y-13828650D01*
X5993991Y-13828650D02*
X6022563Y-13828650D01*
X6022563Y-13828650D02*
X6041610Y-13838174D01*
X6041610Y-13838174D02*
X6051134Y-13857222D01*
X6051134Y-13857222D02*
X6051134Y-13961984D01*
X6051134Y-13857222D02*
X6060658Y-13838174D01*
X6060658Y-13838174D02*
X6079705Y-13828650D01*
X6079705Y-13828650D02*
X6108277Y-13828650D01*
X6108277Y-13828650D02*
X6127324Y-13838174D01*
X6127324Y-13838174D02*
X6136848Y-13857222D01*
X6136848Y-13857222D02*
X6136848Y-13961984D01*
X6232086Y-13961984D02*
X6232086Y-13828650D01*
X6232086Y-13847698D02*
X6241610Y-13838174D01*
X6241610Y-13838174D02*
X6260658Y-13828650D01*
X6260658Y-13828650D02*
X6289229Y-13828650D01*
X6289229Y-13828650D02*
X6308277Y-13838174D01*
X6308277Y-13838174D02*
X6317801Y-13857222D01*
X6317801Y-13857222D02*
X6317801Y-13961984D01*
X6317801Y-13857222D02*
X6327324Y-13838174D01*
X6327324Y-13838174D02*
X6346372Y-13828650D01*
X6346372Y-13828650D02*
X6374943Y-13828650D01*
X6374943Y-13828650D02*
X6393991Y-13838174D01*
X6393991Y-13838174D02*
X6403515Y-13857222D01*
X6403515Y-13857222D02*
X6403515Y-13961984D01*
X6793991Y-13752460D02*
X6622563Y-14009603D01*
X7051134Y-13761984D02*
X7070182Y-13761984D01*
X7070182Y-13761984D02*
X7089229Y-13771508D01*
X7089229Y-13771508D02*
X7098753Y-13781031D01*
X7098753Y-13781031D02*
X7108277Y-13800079D01*
X7108277Y-13800079D02*
X7117801Y-13838174D01*
X7117801Y-13838174D02*
X7117801Y-13885793D01*
X7117801Y-13885793D02*
X7108277Y-13923888D01*
X7108277Y-13923888D02*
X7098753Y-13942936D01*
X7098753Y-13942936D02*
X7089229Y-13952460D01*
X7089229Y-13952460D02*
X7070182Y-13961984D01*
X7070182Y-13961984D02*
X7051134Y-13961984D01*
X7051134Y-13961984D02*
X7032086Y-13952460D01*
X7032086Y-13952460D02*
X7022563Y-13942936D01*
X7022563Y-13942936D02*
X7013039Y-13923888D01*
X7013039Y-13923888D02*
X7003515Y-13885793D01*
X7003515Y-13885793D02*
X7003515Y-13838174D01*
X7003515Y-13838174D02*
X7013039Y-13800079D01*
X7013039Y-13800079D02*
X7022563Y-13781031D01*
X7022563Y-13781031D02*
X7032086Y-13771508D01*
X7032086Y-13771508D02*
X7051134Y-13761984D01*
X7203515Y-13942936D02*
X7213039Y-13952460D01*
X7213039Y-13952460D02*
X7203515Y-13961984D01*
X7203515Y-13961984D02*
X7193991Y-13952460D01*
X7193991Y-13952460D02*
X7203515Y-13942936D01*
X7203515Y-13942936D02*
X7203515Y-13961984D01*
X7336848Y-13761984D02*
X7355896Y-13761984D01*
X7355896Y-13761984D02*
X7374944Y-13771508D01*
X7374944Y-13771508D02*
X7384467Y-13781031D01*
X7384467Y-13781031D02*
X7393991Y-13800079D01*
X7393991Y-13800079D02*
X7403515Y-13838174D01*
X7403515Y-13838174D02*
X7403515Y-13885793D01*
X7403515Y-13885793D02*
X7393991Y-13923888D01*
X7393991Y-13923888D02*
X7384467Y-13942936D01*
X7384467Y-13942936D02*
X7374944Y-13952460D01*
X7374944Y-13952460D02*
X7355896Y-13961984D01*
X7355896Y-13961984D02*
X7336848Y-13961984D01*
X7336848Y-13961984D02*
X7317801Y-13952460D01*
X7317801Y-13952460D02*
X7308277Y-13942936D01*
X7308277Y-13942936D02*
X7298753Y-13923888D01*
X7298753Y-13923888D02*
X7289229Y-13885793D01*
X7289229Y-13885793D02*
X7289229Y-13838174D01*
X7289229Y-13838174D02*
X7298753Y-13800079D01*
X7298753Y-13800079D02*
X7308277Y-13781031D01*
X7308277Y-13781031D02*
X7317801Y-13771508D01*
X7317801Y-13771508D02*
X7336848Y-13761984D01*
X7574944Y-13828650D02*
X7574944Y-13961984D01*
X7527325Y-13752460D02*
X7479706Y-13895317D01*
X7479706Y-13895317D02*
X7603515Y-13895317D01*
X7660658Y-13761984D02*
X7784467Y-13761984D01*
X7784467Y-13761984D02*
X7717801Y-13838174D01*
X7717801Y-13838174D02*
X7746372Y-13838174D01*
X7746372Y-13838174D02*
X7765420Y-13847698D01*
X7765420Y-13847698D02*
X7774944Y-13857222D01*
X7774944Y-13857222D02*
X7784467Y-13876269D01*
X7784467Y-13876269D02*
X7784467Y-13923888D01*
X7784467Y-13923888D02*
X7774944Y-13942936D01*
X7774944Y-13942936D02*
X7765420Y-13952460D01*
X7765420Y-13952460D02*
X7746372Y-13961984D01*
X7746372Y-13961984D02*
X7689229Y-13961984D01*
X7689229Y-13961984D02*
X7670182Y-13952460D01*
X7670182Y-13952460D02*
X7660658Y-13942936D01*
X7851134Y-13761984D02*
X7974944Y-13761984D01*
X7974944Y-13761984D02*
X7908277Y-13838174D01*
X7908277Y-13838174D02*
X7936848Y-13838174D01*
X7936848Y-13838174D02*
X7955896Y-13847698D01*
X7955896Y-13847698D02*
X7965420Y-13857222D01*
X7965420Y-13857222D02*
X7974944Y-13876269D01*
X7974944Y-13876269D02*
X7974944Y-13923888D01*
X7974944Y-13923888D02*
X7965420Y-13942936D01*
X7965420Y-13942936D02*
X7955896Y-13952460D01*
X7955896Y-13952460D02*
X7936848Y-13961984D01*
X7936848Y-13961984D02*
X7879706Y-13961984D01*
X7879706Y-13961984D02*
X7860658Y-13952460D01*
X7860658Y-13952460D02*
X7851134Y-13942936D01*
X8051134Y-13761984D02*
X8051134Y-13800079D01*
X8127325Y-13761984D02*
X8127325Y-13800079D01*
X8422563Y-14038174D02*
X8413039Y-14028650D01*
X8413039Y-14028650D02*
X8393991Y-14000079D01*
X8393991Y-14000079D02*
X8384468Y-13981031D01*
X8384468Y-13981031D02*
X8374944Y-13952460D01*
X8374944Y-13952460D02*
X8365420Y-13904841D01*
X8365420Y-13904841D02*
X8365420Y-13866746D01*
X8365420Y-13866746D02*
X8374944Y-13819127D01*
X8374944Y-13819127D02*
X8384468Y-13790555D01*
X8384468Y-13790555D02*
X8393991Y-13771508D01*
X8393991Y-13771508D02*
X8413039Y-13742936D01*
X8413039Y-13742936D02*
X8422563Y-13733412D01*
X8489230Y-13781031D02*
X8498753Y-13771508D01*
X8498753Y-13771508D02*
X8517801Y-13761984D01*
X8517801Y-13761984D02*
X8565420Y-13761984D01*
X8565420Y-13761984D02*
X8584468Y-13771508D01*
X8584468Y-13771508D02*
X8593991Y-13781031D01*
X8593991Y-13781031D02*
X8603515Y-13800079D01*
X8603515Y-13800079D02*
X8603515Y-13819127D01*
X8603515Y-13819127D02*
X8593991Y-13847698D01*
X8593991Y-13847698D02*
X8479706Y-13961984D01*
X8479706Y-13961984D02*
X8603515Y-13961984D01*
X8841611Y-13961984D02*
X8841611Y-13761984D01*
X8927325Y-13961984D02*
X8927325Y-13857222D01*
X8927325Y-13857222D02*
X8917801Y-13838174D01*
X8917801Y-13838174D02*
X8898753Y-13828650D01*
X8898753Y-13828650D02*
X8870182Y-13828650D01*
X8870182Y-13828650D02*
X8851134Y-13838174D01*
X8851134Y-13838174D02*
X8841611Y-13847698D01*
X9051134Y-13961984D02*
X9032087Y-13952460D01*
X9032087Y-13952460D02*
X9022563Y-13942936D01*
X9022563Y-13942936D02*
X9013039Y-13923888D01*
X9013039Y-13923888D02*
X9013039Y-13866746D01*
X9013039Y-13866746D02*
X9022563Y-13847698D01*
X9022563Y-13847698D02*
X9032087Y-13838174D01*
X9032087Y-13838174D02*
X9051134Y-13828650D01*
X9051134Y-13828650D02*
X9079706Y-13828650D01*
X9079706Y-13828650D02*
X9098753Y-13838174D01*
X9098753Y-13838174D02*
X9108277Y-13847698D01*
X9108277Y-13847698D02*
X9117801Y-13866746D01*
X9117801Y-13866746D02*
X9117801Y-13923888D01*
X9117801Y-13923888D02*
X9108277Y-13942936D01*
X9108277Y-13942936D02*
X9098753Y-13952460D01*
X9098753Y-13952460D02*
X9079706Y-13961984D01*
X9079706Y-13961984D02*
X9051134Y-13961984D01*
X9232087Y-13961984D02*
X9213039Y-13952460D01*
X9213039Y-13952460D02*
X9203515Y-13933412D01*
X9203515Y-13933412D02*
X9203515Y-13761984D01*
X9384468Y-13952460D02*
X9365420Y-13961984D01*
X9365420Y-13961984D02*
X9327325Y-13961984D01*
X9327325Y-13961984D02*
X9308277Y-13952460D01*
X9308277Y-13952460D02*
X9298753Y-13933412D01*
X9298753Y-13933412D02*
X9298753Y-13857222D01*
X9298753Y-13857222D02*
X9308277Y-13838174D01*
X9308277Y-13838174D02*
X9327325Y-13828650D01*
X9327325Y-13828650D02*
X9365420Y-13828650D01*
X9365420Y-13828650D02*
X9384468Y-13838174D01*
X9384468Y-13838174D02*
X9393992Y-13857222D01*
X9393992Y-13857222D02*
X9393992Y-13876269D01*
X9393992Y-13876269D02*
X9298753Y-13895317D01*
X9470182Y-13952460D02*
X9489230Y-13961984D01*
X9489230Y-13961984D02*
X9527325Y-13961984D01*
X9527325Y-13961984D02*
X9546373Y-13952460D01*
X9546373Y-13952460D02*
X9555896Y-13933412D01*
X9555896Y-13933412D02*
X9555896Y-13923888D01*
X9555896Y-13923888D02*
X9546373Y-13904841D01*
X9546373Y-13904841D02*
X9527325Y-13895317D01*
X9527325Y-13895317D02*
X9498753Y-13895317D01*
X9498753Y-13895317D02*
X9479706Y-13885793D01*
X9479706Y-13885793D02*
X9470182Y-13866746D01*
X9470182Y-13866746D02*
X9470182Y-13857222D01*
X9470182Y-13857222D02*
X9479706Y-13838174D01*
X9479706Y-13838174D02*
X9498753Y-13828650D01*
X9498753Y-13828650D02*
X9527325Y-13828650D01*
X9527325Y-13828650D02*
X9546373Y-13838174D01*
X9622563Y-14038174D02*
X9632087Y-14028650D01*
X9632087Y-14028650D02*
X9651134Y-14000079D01*
X9651134Y-14000079D02*
X9660658Y-13981031D01*
X9660658Y-13981031D02*
X9670182Y-13952460D01*
X9670182Y-13952460D02*
X9679706Y-13904841D01*
X9679706Y-13904841D02*
X9679706Y-13866746D01*
X9679706Y-13866746D02*
X9670182Y-13819127D01*
X9670182Y-13819127D02*
X9660658Y-13790555D01*
X9660658Y-13790555D02*
X9651134Y-13771508D01*
X9651134Y-13771508D02*
X9632087Y-13742936D01*
X9632087Y-13742936D02*
X9622563Y-13733412D01*
D14*
X4828170Y-14181169D02*
X4828170Y-14087830D01*
X4734831Y-14087830D01*
X4734831Y-14181169D01*
X4828170Y-14181169D01*
D11*
X5213039Y-14225984D02*
X5098753Y-14225984D01*
X5155896Y-14225984D02*
X5155896Y-14025984D01*
X5155896Y-14025984D02*
X5136848Y-14054555D01*
X5136848Y-14054555D02*
X5117801Y-14073603D01*
X5117801Y-14073603D02*
X5098753Y-14083127D01*
X5298753Y-14206936D02*
X5308277Y-14216460D01*
X5308277Y-14216460D02*
X5298753Y-14225984D01*
X5298753Y-14225984D02*
X5289229Y-14216460D01*
X5289229Y-14216460D02*
X5298753Y-14206936D01*
X5298753Y-14206936D02*
X5298753Y-14225984D01*
X5374944Y-14025984D02*
X5498753Y-14025984D01*
X5498753Y-14025984D02*
X5432086Y-14102174D01*
X5432086Y-14102174D02*
X5460658Y-14102174D01*
X5460658Y-14102174D02*
X5479705Y-14111698D01*
X5479705Y-14111698D02*
X5489229Y-14121222D01*
X5489229Y-14121222D02*
X5498753Y-14140269D01*
X5498753Y-14140269D02*
X5498753Y-14187888D01*
X5498753Y-14187888D02*
X5489229Y-14206936D01*
X5489229Y-14206936D02*
X5479705Y-14216460D01*
X5479705Y-14216460D02*
X5460658Y-14225984D01*
X5460658Y-14225984D02*
X5403515Y-14225984D01*
X5403515Y-14225984D02*
X5384467Y-14216460D01*
X5384467Y-14216460D02*
X5374944Y-14206936D01*
X5574944Y-14045031D02*
X5584467Y-14035508D01*
X5584467Y-14035508D02*
X5603515Y-14025984D01*
X5603515Y-14025984D02*
X5651134Y-14025984D01*
X5651134Y-14025984D02*
X5670182Y-14035508D01*
X5670182Y-14035508D02*
X5679705Y-14045031D01*
X5679705Y-14045031D02*
X5689229Y-14064079D01*
X5689229Y-14064079D02*
X5689229Y-14083127D01*
X5689229Y-14083127D02*
X5679705Y-14111698D01*
X5679705Y-14111698D02*
X5565420Y-14225984D01*
X5565420Y-14225984D02*
X5689229Y-14225984D01*
X5813039Y-14025984D02*
X5832086Y-14025984D01*
X5832086Y-14025984D02*
X5851134Y-14035508D01*
X5851134Y-14035508D02*
X5860658Y-14045031D01*
X5860658Y-14045031D02*
X5870182Y-14064079D01*
X5870182Y-14064079D02*
X5879705Y-14102174D01*
X5879705Y-14102174D02*
X5879705Y-14149793D01*
X5879705Y-14149793D02*
X5870182Y-14187888D01*
X5870182Y-14187888D02*
X5860658Y-14206936D01*
X5860658Y-14206936D02*
X5851134Y-14216460D01*
X5851134Y-14216460D02*
X5832086Y-14225984D01*
X5832086Y-14225984D02*
X5813039Y-14225984D01*
X5813039Y-14225984D02*
X5793991Y-14216460D01*
X5793991Y-14216460D02*
X5784467Y-14206936D01*
X5784467Y-14206936D02*
X5774943Y-14187888D01*
X5774943Y-14187888D02*
X5765420Y-14149793D01*
X5765420Y-14149793D02*
X5765420Y-14102174D01*
X5765420Y-14102174D02*
X5774943Y-14064079D01*
X5774943Y-14064079D02*
X5784467Y-14045031D01*
X5784467Y-14045031D02*
X5793991Y-14035508D01*
X5793991Y-14035508D02*
X5813039Y-14025984D01*
X5965420Y-14225984D02*
X5965420Y-14092650D01*
X5965420Y-14111698D02*
X5974943Y-14102174D01*
X5974943Y-14102174D02*
X5993991Y-14092650D01*
X5993991Y-14092650D02*
X6022563Y-14092650D01*
X6022563Y-14092650D02*
X6041610Y-14102174D01*
X6041610Y-14102174D02*
X6051134Y-14121222D01*
X6051134Y-14121222D02*
X6051134Y-14225984D01*
X6051134Y-14121222D02*
X6060658Y-14102174D01*
X6060658Y-14102174D02*
X6079705Y-14092650D01*
X6079705Y-14092650D02*
X6108277Y-14092650D01*
X6108277Y-14092650D02*
X6127324Y-14102174D01*
X6127324Y-14102174D02*
X6136848Y-14121222D01*
X6136848Y-14121222D02*
X6136848Y-14225984D01*
X6232086Y-14225984D02*
X6232086Y-14092650D01*
X6232086Y-14111698D02*
X6241610Y-14102174D01*
X6241610Y-14102174D02*
X6260658Y-14092650D01*
X6260658Y-14092650D02*
X6289229Y-14092650D01*
X6289229Y-14092650D02*
X6308277Y-14102174D01*
X6308277Y-14102174D02*
X6317801Y-14121222D01*
X6317801Y-14121222D02*
X6317801Y-14225984D01*
X6317801Y-14121222D02*
X6327324Y-14102174D01*
X6327324Y-14102174D02*
X6346372Y-14092650D01*
X6346372Y-14092650D02*
X6374943Y-14092650D01*
X6374943Y-14092650D02*
X6393991Y-14102174D01*
X6393991Y-14102174D02*
X6403515Y-14121222D01*
X6403515Y-14121222D02*
X6403515Y-14225984D01*
X6793991Y-14016460D02*
X6622563Y-14273603D01*
X7051134Y-14025984D02*
X7070182Y-14025984D01*
X7070182Y-14025984D02*
X7089229Y-14035508D01*
X7089229Y-14035508D02*
X7098753Y-14045031D01*
X7098753Y-14045031D02*
X7108277Y-14064079D01*
X7108277Y-14064079D02*
X7117801Y-14102174D01*
X7117801Y-14102174D02*
X7117801Y-14149793D01*
X7117801Y-14149793D02*
X7108277Y-14187888D01*
X7108277Y-14187888D02*
X7098753Y-14206936D01*
X7098753Y-14206936D02*
X7089229Y-14216460D01*
X7089229Y-14216460D02*
X7070182Y-14225984D01*
X7070182Y-14225984D02*
X7051134Y-14225984D01*
X7051134Y-14225984D02*
X7032086Y-14216460D01*
X7032086Y-14216460D02*
X7022563Y-14206936D01*
X7022563Y-14206936D02*
X7013039Y-14187888D01*
X7013039Y-14187888D02*
X7003515Y-14149793D01*
X7003515Y-14149793D02*
X7003515Y-14102174D01*
X7003515Y-14102174D02*
X7013039Y-14064079D01*
X7013039Y-14064079D02*
X7022563Y-14045031D01*
X7022563Y-14045031D02*
X7032086Y-14035508D01*
X7032086Y-14035508D02*
X7051134Y-14025984D01*
X7203515Y-14206936D02*
X7213039Y-14216460D01*
X7213039Y-14216460D02*
X7203515Y-14225984D01*
X7203515Y-14225984D02*
X7193991Y-14216460D01*
X7193991Y-14216460D02*
X7203515Y-14206936D01*
X7203515Y-14206936D02*
X7203515Y-14225984D01*
X7336848Y-14025984D02*
X7355896Y-14025984D01*
X7355896Y-14025984D02*
X7374944Y-14035508D01*
X7374944Y-14035508D02*
X7384467Y-14045031D01*
X7384467Y-14045031D02*
X7393991Y-14064079D01*
X7393991Y-14064079D02*
X7403515Y-14102174D01*
X7403515Y-14102174D02*
X7403515Y-14149793D01*
X7403515Y-14149793D02*
X7393991Y-14187888D01*
X7393991Y-14187888D02*
X7384467Y-14206936D01*
X7384467Y-14206936D02*
X7374944Y-14216460D01*
X7374944Y-14216460D02*
X7355896Y-14225984D01*
X7355896Y-14225984D02*
X7336848Y-14225984D01*
X7336848Y-14225984D02*
X7317801Y-14216460D01*
X7317801Y-14216460D02*
X7308277Y-14206936D01*
X7308277Y-14206936D02*
X7298753Y-14187888D01*
X7298753Y-14187888D02*
X7289229Y-14149793D01*
X7289229Y-14149793D02*
X7289229Y-14102174D01*
X7289229Y-14102174D02*
X7298753Y-14064079D01*
X7298753Y-14064079D02*
X7308277Y-14045031D01*
X7308277Y-14045031D02*
X7317801Y-14035508D01*
X7317801Y-14035508D02*
X7336848Y-14025984D01*
X7584467Y-14025984D02*
X7489229Y-14025984D01*
X7489229Y-14025984D02*
X7479706Y-14121222D01*
X7479706Y-14121222D02*
X7489229Y-14111698D01*
X7489229Y-14111698D02*
X7508277Y-14102174D01*
X7508277Y-14102174D02*
X7555896Y-14102174D01*
X7555896Y-14102174D02*
X7574944Y-14111698D01*
X7574944Y-14111698D02*
X7584467Y-14121222D01*
X7584467Y-14121222D02*
X7593991Y-14140269D01*
X7593991Y-14140269D02*
X7593991Y-14187888D01*
X7593991Y-14187888D02*
X7584467Y-14206936D01*
X7584467Y-14206936D02*
X7574944Y-14216460D01*
X7574944Y-14216460D02*
X7555896Y-14225984D01*
X7555896Y-14225984D02*
X7508277Y-14225984D01*
X7508277Y-14225984D02*
X7489229Y-14216460D01*
X7489229Y-14216460D02*
X7479706Y-14206936D01*
X7670182Y-14045031D02*
X7679706Y-14035508D01*
X7679706Y-14035508D02*
X7698753Y-14025984D01*
X7698753Y-14025984D02*
X7746372Y-14025984D01*
X7746372Y-14025984D02*
X7765420Y-14035508D01*
X7765420Y-14035508D02*
X7774944Y-14045031D01*
X7774944Y-14045031D02*
X7784467Y-14064079D01*
X7784467Y-14064079D02*
X7784467Y-14083127D01*
X7784467Y-14083127D02*
X7774944Y-14111698D01*
X7774944Y-14111698D02*
X7660658Y-14225984D01*
X7660658Y-14225984D02*
X7784467Y-14225984D01*
X7908277Y-14025984D02*
X7927325Y-14025984D01*
X7927325Y-14025984D02*
X7946372Y-14035508D01*
X7946372Y-14035508D02*
X7955896Y-14045031D01*
X7955896Y-14045031D02*
X7965420Y-14064079D01*
X7965420Y-14064079D02*
X7974944Y-14102174D01*
X7974944Y-14102174D02*
X7974944Y-14149793D01*
X7974944Y-14149793D02*
X7965420Y-14187888D01*
X7965420Y-14187888D02*
X7955896Y-14206936D01*
X7955896Y-14206936D02*
X7946372Y-14216460D01*
X7946372Y-14216460D02*
X7927325Y-14225984D01*
X7927325Y-14225984D02*
X7908277Y-14225984D01*
X7908277Y-14225984D02*
X7889229Y-14216460D01*
X7889229Y-14216460D02*
X7879706Y-14206936D01*
X7879706Y-14206936D02*
X7870182Y-14187888D01*
X7870182Y-14187888D02*
X7860658Y-14149793D01*
X7860658Y-14149793D02*
X7860658Y-14102174D01*
X7860658Y-14102174D02*
X7870182Y-14064079D01*
X7870182Y-14064079D02*
X7879706Y-14045031D01*
X7879706Y-14045031D02*
X7889229Y-14035508D01*
X7889229Y-14035508D02*
X7908277Y-14025984D01*
X8051134Y-14025984D02*
X8051134Y-14064079D01*
X8127325Y-14025984D02*
X8127325Y-14064079D01*
X8422563Y-14302174D02*
X8413039Y-14292650D01*
X8413039Y-14292650D02*
X8393991Y-14264079D01*
X8393991Y-14264079D02*
X8384468Y-14245031D01*
X8384468Y-14245031D02*
X8374944Y-14216460D01*
X8374944Y-14216460D02*
X8365420Y-14168841D01*
X8365420Y-14168841D02*
X8365420Y-14130746D01*
X8365420Y-14130746D02*
X8374944Y-14083127D01*
X8374944Y-14083127D02*
X8384468Y-14054555D01*
X8384468Y-14054555D02*
X8393991Y-14035508D01*
X8393991Y-14035508D02*
X8413039Y-14006936D01*
X8413039Y-14006936D02*
X8422563Y-13997412D01*
X8489230Y-14045031D02*
X8498753Y-14035508D01*
X8498753Y-14035508D02*
X8517801Y-14025984D01*
X8517801Y-14025984D02*
X8565420Y-14025984D01*
X8565420Y-14025984D02*
X8584468Y-14035508D01*
X8584468Y-14035508D02*
X8593991Y-14045031D01*
X8593991Y-14045031D02*
X8603515Y-14064079D01*
X8603515Y-14064079D02*
X8603515Y-14083127D01*
X8603515Y-14083127D02*
X8593991Y-14111698D01*
X8593991Y-14111698D02*
X8479706Y-14225984D01*
X8479706Y-14225984D02*
X8603515Y-14225984D01*
X8841611Y-14225984D02*
X8841611Y-14025984D01*
X8927325Y-14225984D02*
X8927325Y-14121222D01*
X8927325Y-14121222D02*
X8917801Y-14102174D01*
X8917801Y-14102174D02*
X8898753Y-14092650D01*
X8898753Y-14092650D02*
X8870182Y-14092650D01*
X8870182Y-14092650D02*
X8851134Y-14102174D01*
X8851134Y-14102174D02*
X8841611Y-14111698D01*
X9051134Y-14225984D02*
X9032087Y-14216460D01*
X9032087Y-14216460D02*
X9022563Y-14206936D01*
X9022563Y-14206936D02*
X9013039Y-14187888D01*
X9013039Y-14187888D02*
X9013039Y-14130746D01*
X9013039Y-14130746D02*
X9022563Y-14111698D01*
X9022563Y-14111698D02*
X9032087Y-14102174D01*
X9032087Y-14102174D02*
X9051134Y-14092650D01*
X9051134Y-14092650D02*
X9079706Y-14092650D01*
X9079706Y-14092650D02*
X9098753Y-14102174D01*
X9098753Y-14102174D02*
X9108277Y-14111698D01*
X9108277Y-14111698D02*
X9117801Y-14130746D01*
X9117801Y-14130746D02*
X9117801Y-14187888D01*
X9117801Y-14187888D02*
X9108277Y-14206936D01*
X9108277Y-14206936D02*
X9098753Y-14216460D01*
X9098753Y-14216460D02*
X9079706Y-14225984D01*
X9079706Y-14225984D02*
X9051134Y-14225984D01*
X9232087Y-14225984D02*
X9213039Y-14216460D01*
X9213039Y-14216460D02*
X9203515Y-14197412D01*
X9203515Y-14197412D02*
X9203515Y-14025984D01*
X9384468Y-14216460D02*
X9365420Y-14225984D01*
X9365420Y-14225984D02*
X9327325Y-14225984D01*
X9327325Y-14225984D02*
X9308277Y-14216460D01*
X9308277Y-14216460D02*
X9298753Y-14197412D01*
X9298753Y-14197412D02*
X9298753Y-14121222D01*
X9298753Y-14121222D02*
X9308277Y-14102174D01*
X9308277Y-14102174D02*
X9327325Y-14092650D01*
X9327325Y-14092650D02*
X9365420Y-14092650D01*
X9365420Y-14092650D02*
X9384468Y-14102174D01*
X9384468Y-14102174D02*
X9393992Y-14121222D01*
X9393992Y-14121222D02*
X9393992Y-14140269D01*
X9393992Y-14140269D02*
X9298753Y-14159317D01*
X9470182Y-14216460D02*
X9489230Y-14225984D01*
X9489230Y-14225984D02*
X9527325Y-14225984D01*
X9527325Y-14225984D02*
X9546373Y-14216460D01*
X9546373Y-14216460D02*
X9555896Y-14197412D01*
X9555896Y-14197412D02*
X9555896Y-14187888D01*
X9555896Y-14187888D02*
X9546373Y-14168841D01*
X9546373Y-14168841D02*
X9527325Y-14159317D01*
X9527325Y-14159317D02*
X9498753Y-14159317D01*
X9498753Y-14159317D02*
X9479706Y-14149793D01*
X9479706Y-14149793D02*
X9470182Y-14130746D01*
X9470182Y-14130746D02*
X9470182Y-14121222D01*
X9470182Y-14121222D02*
X9479706Y-14102174D01*
X9479706Y-14102174D02*
X9498753Y-14092650D01*
X9498753Y-14092650D02*
X9527325Y-14092650D01*
X9527325Y-14092650D02*
X9546373Y-14102174D01*
X9622563Y-14302174D02*
X9632087Y-14292650D01*
X9632087Y-14292650D02*
X9651134Y-14264079D01*
X9651134Y-14264079D02*
X9660658Y-14245031D01*
X9660658Y-14245031D02*
X9670182Y-14216460D01*
X9670182Y-14216460D02*
X9679706Y-14168841D01*
X9679706Y-14168841D02*
X9679706Y-14130746D01*
X9679706Y-14130746D02*
X9670182Y-14083127D01*
X9670182Y-14083127D02*
X9660658Y-14054555D01*
X9660658Y-14054555D02*
X9651134Y-14035508D01*
X9651134Y-14035508D02*
X9632087Y-14006936D01*
X9632087Y-14006936D02*
X9622563Y-13997412D01*
M02*
