%TF.GenerationSoftware,KiCad,Pcbnew,8.0.5*%
%TF.CreationDate,2024-11-04T13:30:35-06:00*%
%TF.ProjectId,KiCAD_Custom_DRC_Rules_for_PCBWay,4b694341-445f-4437-9573-746f6d5f4452,rev?*%
%TF.SameCoordinates,Original*%
%TF.FileFunction,Soldermask,Bot*%
%TF.FilePolarity,Negative*%
%FSLAX46Y46*%
G04 Gerber Fmt 4.6, Leading zero omitted, Abs format (unit mm)*
G04 Created by KiCad (PCBNEW 8.0.5) date 2024-11-04 13:30:35*
%MOMM*%
%LPD*%
G01*
G04 APERTURE LIST*
G04 APERTURE END LIST*
G36*
X68415000Y-125100000D02*
G01*
X66215000Y-125100000D01*
X66215000Y-122900000D01*
X68415000Y-122900000D01*
X68415000Y-125100000D01*
G37*
G36*
X58402037Y-117934767D02*
G01*
X58592382Y-117972629D01*
X58771683Y-118046898D01*
X58933049Y-118154720D01*
X59070280Y-118291951D01*
X59178102Y-118453317D01*
X59252371Y-118632618D01*
X59290233Y-118822963D01*
X59290233Y-119017037D01*
X59252371Y-119207382D01*
X59178102Y-119386683D01*
X59070280Y-119548049D01*
X58933049Y-119685280D01*
X58771683Y-119793102D01*
X58592382Y-119867371D01*
X58402037Y-119905233D01*
X58305000Y-119910000D01*
X58303749Y-119910000D01*
X56326251Y-119910000D01*
X56325000Y-119910000D01*
X56227963Y-119905233D01*
X56037618Y-119867371D01*
X55858317Y-119793102D01*
X55696951Y-119685280D01*
X55559720Y-119548049D01*
X55451898Y-119386683D01*
X55377629Y-119207382D01*
X55339767Y-119017037D01*
X55339767Y-118822963D01*
X55377629Y-118632618D01*
X55451898Y-118453317D01*
X55559720Y-118291951D01*
X55696951Y-118154720D01*
X55858317Y-118046898D01*
X56037618Y-117972629D01*
X56227963Y-117934767D01*
X56325000Y-117930000D01*
X58305000Y-117930000D01*
X58402037Y-117934767D01*
G37*
G36*
X114358414Y-114703852D02*
G01*
X114512228Y-114734448D01*
X114657117Y-114794463D01*
X114787515Y-114881592D01*
X114898408Y-114992485D01*
X114985537Y-115122883D01*
X115045552Y-115267772D01*
X115076148Y-115421586D01*
X115076148Y-115578414D01*
X115045552Y-115732228D01*
X114985537Y-115877117D01*
X114898408Y-116007515D01*
X114787515Y-116118408D01*
X114657117Y-116205537D01*
X114512228Y-116265552D01*
X114358414Y-116296148D01*
X114280000Y-116300000D01*
X114278749Y-116300000D01*
X113481251Y-116300000D01*
X113480000Y-116300000D01*
X113401586Y-116296148D01*
X113247772Y-116265552D01*
X113102883Y-116205537D01*
X112972485Y-116118408D01*
X112861592Y-116007515D01*
X112774463Y-115877117D01*
X112714448Y-115732228D01*
X112683852Y-115578414D01*
X112683852Y-115421586D01*
X112714448Y-115267772D01*
X112774463Y-115122883D01*
X112861592Y-114992485D01*
X112972485Y-114881592D01*
X113102883Y-114794463D01*
X113247772Y-114734448D01*
X113401586Y-114703852D01*
X113480000Y-114700000D01*
X114280000Y-114700000D01*
X114358414Y-114703852D01*
G37*
G36*
X121978414Y-114703852D02*
G01*
X122132228Y-114734448D01*
X122277117Y-114794463D01*
X122407515Y-114881592D01*
X122518408Y-114992485D01*
X122605537Y-115122883D01*
X122665552Y-115267772D01*
X122696148Y-115421586D01*
X122696148Y-115578414D01*
X122665552Y-115732228D01*
X122605537Y-115877117D01*
X122518408Y-116007515D01*
X122407515Y-116118408D01*
X122277117Y-116205537D01*
X122132228Y-116265552D01*
X121978414Y-116296148D01*
X121900000Y-116300000D01*
X121898749Y-116300000D01*
X121101251Y-116300000D01*
X121100000Y-116300000D01*
X121021586Y-116296148D01*
X120867772Y-116265552D01*
X120722883Y-116205537D01*
X120592485Y-116118408D01*
X120481592Y-116007515D01*
X120394463Y-115877117D01*
X120334448Y-115732228D01*
X120303852Y-115578414D01*
X120303852Y-115421586D01*
X120334448Y-115267772D01*
X120394463Y-115122883D01*
X120481592Y-114992485D01*
X120592485Y-114881592D01*
X120722883Y-114794463D01*
X120867772Y-114734448D01*
X121021586Y-114703852D01*
X121100000Y-114700000D01*
X121900000Y-114700000D01*
X121978414Y-114703852D01*
G37*
G36*
X67616029Y-112781992D02*
G01*
X67805312Y-112855320D01*
X67977898Y-112962181D01*
X68127910Y-113098935D01*
X68250239Y-113260925D01*
X68340719Y-113442634D01*
X68396270Y-113637876D01*
X68415000Y-113840000D01*
X68396270Y-114042124D01*
X68340719Y-114237366D01*
X68250239Y-114419075D01*
X68127910Y-114581065D01*
X67977898Y-114717819D01*
X67805312Y-114824680D01*
X67616029Y-114898008D01*
X67416495Y-114935308D01*
X67213505Y-114935308D01*
X67013971Y-114898008D01*
X66824688Y-114824680D01*
X66652102Y-114717819D01*
X66502090Y-114581065D01*
X66379761Y-114419075D01*
X66289281Y-114237366D01*
X66233730Y-114042124D01*
X66215000Y-113840000D01*
X66233730Y-113637876D01*
X66289281Y-113442634D01*
X66379761Y-113260925D01*
X66502090Y-113098935D01*
X66652102Y-112962181D01*
X66824688Y-112855320D01*
X67013971Y-112781992D01*
X67213505Y-112744692D01*
X67416495Y-112744692D01*
X67616029Y-112781992D01*
G37*
G36*
X59295000Y-114910000D02*
G01*
X55335000Y-114910000D01*
X55335000Y-112930000D01*
X59295000Y-112930000D01*
X59295000Y-114910000D01*
G37*
G36*
X114358414Y-112163852D02*
G01*
X114512228Y-112194448D01*
X114657117Y-112254463D01*
X114787515Y-112341592D01*
X114898408Y-112452485D01*
X114985537Y-112582883D01*
X115045552Y-112727772D01*
X115076148Y-112881586D01*
X115076148Y-113038414D01*
X115045552Y-113192228D01*
X114985537Y-113337117D01*
X114898408Y-113467515D01*
X114787515Y-113578408D01*
X114657117Y-113665537D01*
X114512228Y-113725552D01*
X114358414Y-113756148D01*
X114280000Y-113760000D01*
X114278749Y-113760000D01*
X113481251Y-113760000D01*
X113480000Y-113760000D01*
X113401586Y-113756148D01*
X113247772Y-113725552D01*
X113102883Y-113665537D01*
X112972485Y-113578408D01*
X112861592Y-113467515D01*
X112774463Y-113337117D01*
X112714448Y-113192228D01*
X112683852Y-113038414D01*
X112683852Y-112881586D01*
X112714448Y-112727772D01*
X112774463Y-112582883D01*
X112861592Y-112452485D01*
X112972485Y-112341592D01*
X113102883Y-112254463D01*
X113247772Y-112194448D01*
X113401586Y-112163852D01*
X113480000Y-112160000D01*
X114280000Y-112160000D01*
X114358414Y-112163852D01*
G37*
G36*
X121978414Y-112163852D02*
G01*
X122132228Y-112194448D01*
X122277117Y-112254463D01*
X122407515Y-112341592D01*
X122518408Y-112452485D01*
X122605537Y-112582883D01*
X122665552Y-112727772D01*
X122696148Y-112881586D01*
X122696148Y-113038414D01*
X122665552Y-113192228D01*
X122605537Y-113337117D01*
X122518408Y-113467515D01*
X122407515Y-113578408D01*
X122277117Y-113665537D01*
X122132228Y-113725552D01*
X121978414Y-113756148D01*
X121900000Y-113760000D01*
X121898749Y-113760000D01*
X121101251Y-113760000D01*
X121100000Y-113760000D01*
X121021586Y-113756148D01*
X120867772Y-113725552D01*
X120722883Y-113665537D01*
X120592485Y-113578408D01*
X120481592Y-113467515D01*
X120394463Y-113337117D01*
X120334448Y-113192228D01*
X120303852Y-113038414D01*
X120303852Y-112881586D01*
X120334448Y-112727772D01*
X120394463Y-112582883D01*
X120481592Y-112452485D01*
X120592485Y-112341592D01*
X120722883Y-112254463D01*
X120867772Y-112194448D01*
X121021586Y-112163852D01*
X121100000Y-112160000D01*
X121900000Y-112160000D01*
X121978414Y-112163852D01*
G37*
G36*
X114358414Y-109623852D02*
G01*
X114512228Y-109654448D01*
X114657117Y-109714463D01*
X114787515Y-109801592D01*
X114898408Y-109912485D01*
X114985537Y-110042883D01*
X115045552Y-110187772D01*
X115076148Y-110341586D01*
X115076148Y-110498414D01*
X115045552Y-110652228D01*
X114985537Y-110797117D01*
X114898408Y-110927515D01*
X114787515Y-111038408D01*
X114657117Y-111125537D01*
X114512228Y-111185552D01*
X114358414Y-111216148D01*
X114280000Y-111220000D01*
X114278749Y-111220000D01*
X113481251Y-111220000D01*
X113480000Y-111220000D01*
X113401586Y-111216148D01*
X113247772Y-111185552D01*
X113102883Y-111125537D01*
X112972485Y-111038408D01*
X112861592Y-110927515D01*
X112774463Y-110797117D01*
X112714448Y-110652228D01*
X112683852Y-110498414D01*
X112683852Y-110341586D01*
X112714448Y-110187772D01*
X112774463Y-110042883D01*
X112861592Y-109912485D01*
X112972485Y-109801592D01*
X113102883Y-109714463D01*
X113247772Y-109654448D01*
X113401586Y-109623852D01*
X113480000Y-109620000D01*
X114280000Y-109620000D01*
X114358414Y-109623852D01*
G37*
G36*
X121978414Y-109623852D02*
G01*
X122132228Y-109654448D01*
X122277117Y-109714463D01*
X122407515Y-109801592D01*
X122518408Y-109912485D01*
X122605537Y-110042883D01*
X122665552Y-110187772D01*
X122696148Y-110341586D01*
X122696148Y-110498414D01*
X122665552Y-110652228D01*
X122605537Y-110797117D01*
X122518408Y-110927515D01*
X122407515Y-111038408D01*
X122277117Y-111125537D01*
X122132228Y-111185552D01*
X121978414Y-111216148D01*
X121900000Y-111220000D01*
X121898749Y-111220000D01*
X121101251Y-111220000D01*
X121100000Y-111220000D01*
X121021586Y-111216148D01*
X120867772Y-111185552D01*
X120722883Y-111125537D01*
X120592485Y-111038408D01*
X120481592Y-110927515D01*
X120394463Y-110797117D01*
X120334448Y-110652228D01*
X120303852Y-110498414D01*
X120303852Y-110341586D01*
X120334448Y-110187772D01*
X120394463Y-110042883D01*
X120481592Y-109912485D01*
X120592485Y-109801592D01*
X120722883Y-109714463D01*
X120867772Y-109654448D01*
X121021586Y-109623852D01*
X121100000Y-109620000D01*
X121900000Y-109620000D01*
X121978414Y-109623852D01*
G37*
G36*
X114358414Y-107083852D02*
G01*
X114512228Y-107114448D01*
X114657117Y-107174463D01*
X114787515Y-107261592D01*
X114898408Y-107372485D01*
X114985537Y-107502883D01*
X115045552Y-107647772D01*
X115076148Y-107801586D01*
X115076148Y-107958414D01*
X115045552Y-108112228D01*
X114985537Y-108257117D01*
X114898408Y-108387515D01*
X114787515Y-108498408D01*
X114657117Y-108585537D01*
X114512228Y-108645552D01*
X114358414Y-108676148D01*
X114280000Y-108680000D01*
X114278749Y-108680000D01*
X113481251Y-108680000D01*
X113480000Y-108680000D01*
X113401586Y-108676148D01*
X113247772Y-108645552D01*
X113102883Y-108585537D01*
X112972485Y-108498408D01*
X112861592Y-108387515D01*
X112774463Y-108257117D01*
X112714448Y-108112228D01*
X112683852Y-107958414D01*
X112683852Y-107801586D01*
X112714448Y-107647772D01*
X112774463Y-107502883D01*
X112861592Y-107372485D01*
X112972485Y-107261592D01*
X113102883Y-107174463D01*
X113247772Y-107114448D01*
X113401586Y-107083852D01*
X113480000Y-107080000D01*
X114280000Y-107080000D01*
X114358414Y-107083852D01*
G37*
G36*
X121978414Y-107083852D02*
G01*
X122132228Y-107114448D01*
X122277117Y-107174463D01*
X122407515Y-107261592D01*
X122518408Y-107372485D01*
X122605537Y-107502883D01*
X122665552Y-107647772D01*
X122696148Y-107801586D01*
X122696148Y-107958414D01*
X122665552Y-108112228D01*
X122605537Y-108257117D01*
X122518408Y-108387515D01*
X122407515Y-108498408D01*
X122277117Y-108585537D01*
X122132228Y-108645552D01*
X121978414Y-108676148D01*
X121900000Y-108680000D01*
X121898749Y-108680000D01*
X121101251Y-108680000D01*
X121100000Y-108680000D01*
X121021586Y-108676148D01*
X120867772Y-108645552D01*
X120722883Y-108585537D01*
X120592485Y-108498408D01*
X120481592Y-108387515D01*
X120394463Y-108257117D01*
X120334448Y-108112228D01*
X120303852Y-107958414D01*
X120303852Y-107801586D01*
X120334448Y-107647772D01*
X120394463Y-107502883D01*
X120481592Y-107372485D01*
X120592485Y-107261592D01*
X120722883Y-107174463D01*
X120867772Y-107114448D01*
X121021586Y-107083852D01*
X121100000Y-107080000D01*
X121900000Y-107080000D01*
X121978414Y-107083852D01*
G37*
G36*
X114358414Y-104543852D02*
G01*
X114512228Y-104574448D01*
X114657117Y-104634463D01*
X114787515Y-104721592D01*
X114898408Y-104832485D01*
X114985537Y-104962883D01*
X115045552Y-105107772D01*
X115076148Y-105261586D01*
X115076148Y-105418414D01*
X115045552Y-105572228D01*
X114985537Y-105717117D01*
X114898408Y-105847515D01*
X114787515Y-105958408D01*
X114657117Y-106045537D01*
X114512228Y-106105552D01*
X114358414Y-106136148D01*
X114280000Y-106140000D01*
X114278749Y-106140000D01*
X113481251Y-106140000D01*
X113480000Y-106140000D01*
X113401586Y-106136148D01*
X113247772Y-106105552D01*
X113102883Y-106045537D01*
X112972485Y-105958408D01*
X112861592Y-105847515D01*
X112774463Y-105717117D01*
X112714448Y-105572228D01*
X112683852Y-105418414D01*
X112683852Y-105261586D01*
X112714448Y-105107772D01*
X112774463Y-104962883D01*
X112861592Y-104832485D01*
X112972485Y-104721592D01*
X113102883Y-104634463D01*
X113247772Y-104574448D01*
X113401586Y-104543852D01*
X113480000Y-104540000D01*
X114280000Y-104540000D01*
X114358414Y-104543852D01*
G37*
G36*
X121978414Y-104543852D02*
G01*
X122132228Y-104574448D01*
X122277117Y-104634463D01*
X122407515Y-104721592D01*
X122518408Y-104832485D01*
X122605537Y-104962883D01*
X122665552Y-105107772D01*
X122696148Y-105261586D01*
X122696148Y-105418414D01*
X122665552Y-105572228D01*
X122605537Y-105717117D01*
X122518408Y-105847515D01*
X122407515Y-105958408D01*
X122277117Y-106045537D01*
X122132228Y-106105552D01*
X121978414Y-106136148D01*
X121900000Y-106140000D01*
X121898749Y-106140000D01*
X121101251Y-106140000D01*
X121100000Y-106140000D01*
X121021586Y-106136148D01*
X120867772Y-106105552D01*
X120722883Y-106045537D01*
X120592485Y-105958408D01*
X120481592Y-105847515D01*
X120394463Y-105717117D01*
X120334448Y-105572228D01*
X120303852Y-105418414D01*
X120303852Y-105261586D01*
X120334448Y-105107772D01*
X120394463Y-104962883D01*
X120481592Y-104832485D01*
X120592485Y-104721592D01*
X120722883Y-104634463D01*
X120867772Y-104574448D01*
X121021586Y-104543852D01*
X121100000Y-104540000D01*
X121900000Y-104540000D01*
X121978414Y-104543852D01*
G37*
G36*
X114358414Y-102003852D02*
G01*
X114512228Y-102034448D01*
X114657117Y-102094463D01*
X114787515Y-102181592D01*
X114898408Y-102292485D01*
X114985537Y-102422883D01*
X115045552Y-102567772D01*
X115076148Y-102721586D01*
X115076148Y-102878414D01*
X115045552Y-103032228D01*
X114985537Y-103177117D01*
X114898408Y-103307515D01*
X114787515Y-103418408D01*
X114657117Y-103505537D01*
X114512228Y-103565552D01*
X114358414Y-103596148D01*
X114280000Y-103600000D01*
X114278749Y-103600000D01*
X113481251Y-103600000D01*
X113480000Y-103600000D01*
X113401586Y-103596148D01*
X113247772Y-103565552D01*
X113102883Y-103505537D01*
X112972485Y-103418408D01*
X112861592Y-103307515D01*
X112774463Y-103177117D01*
X112714448Y-103032228D01*
X112683852Y-102878414D01*
X112683852Y-102721586D01*
X112714448Y-102567772D01*
X112774463Y-102422883D01*
X112861592Y-102292485D01*
X112972485Y-102181592D01*
X113102883Y-102094463D01*
X113247772Y-102034448D01*
X113401586Y-102003852D01*
X113480000Y-102000000D01*
X114280000Y-102000000D01*
X114358414Y-102003852D01*
G37*
G36*
X121978414Y-102003852D02*
G01*
X122132228Y-102034448D01*
X122277117Y-102094463D01*
X122407515Y-102181592D01*
X122518408Y-102292485D01*
X122605537Y-102422883D01*
X122665552Y-102567772D01*
X122696148Y-102721586D01*
X122696148Y-102878414D01*
X122665552Y-103032228D01*
X122605537Y-103177117D01*
X122518408Y-103307515D01*
X122407515Y-103418408D01*
X122277117Y-103505537D01*
X122132228Y-103565552D01*
X121978414Y-103596148D01*
X121900000Y-103600000D01*
X121898749Y-103600000D01*
X121101251Y-103600000D01*
X121100000Y-103600000D01*
X121021586Y-103596148D01*
X120867772Y-103565552D01*
X120722883Y-103505537D01*
X120592485Y-103418408D01*
X120481592Y-103307515D01*
X120394463Y-103177117D01*
X120334448Y-103032228D01*
X120303852Y-102878414D01*
X120303852Y-102721586D01*
X120334448Y-102567772D01*
X120394463Y-102422883D01*
X120481592Y-102292485D01*
X120592485Y-102181592D01*
X120722883Y-102094463D01*
X120867772Y-102034448D01*
X121021586Y-102003852D01*
X121100000Y-102000000D01*
X121900000Y-102000000D01*
X121978414Y-102003852D01*
G37*
G36*
X115080000Y-101060000D02*
G01*
X112680000Y-101060000D01*
X112680000Y-99460000D01*
X115080000Y-99460000D01*
X115080000Y-101060000D01*
G37*
G36*
X121978414Y-99463852D02*
G01*
X122132228Y-99494448D01*
X122277117Y-99554463D01*
X122407515Y-99641592D01*
X122518408Y-99752485D01*
X122605537Y-99882883D01*
X122665552Y-100027772D01*
X122696148Y-100181586D01*
X122696148Y-100338414D01*
X122665552Y-100492228D01*
X122605537Y-100637117D01*
X122518408Y-100767515D01*
X122407515Y-100878408D01*
X122277117Y-100965537D01*
X122132228Y-101025552D01*
X121978414Y-101056148D01*
X121900000Y-101060000D01*
X121898749Y-101060000D01*
X121101251Y-101060000D01*
X121100000Y-101060000D01*
X121021586Y-101056148D01*
X120867772Y-101025552D01*
X120722883Y-100965537D01*
X120592485Y-100878408D01*
X120481592Y-100767515D01*
X120394463Y-100637117D01*
X120334448Y-100492228D01*
X120303852Y-100338414D01*
X120303852Y-100181586D01*
X120334448Y-100027772D01*
X120394463Y-99882883D01*
X120481592Y-99752485D01*
X120592485Y-99641592D01*
X120722883Y-99554463D01*
X120867772Y-99494448D01*
X121021586Y-99463852D01*
X121100000Y-99460000D01*
X121900000Y-99460000D01*
X121978414Y-99463852D01*
G37*
G36*
X112600000Y-77200000D02*
G01*
X111000000Y-77200000D01*
X111000000Y-74800000D01*
X112600000Y-74800000D01*
X112600000Y-77200000D01*
G37*
G36*
X114572228Y-74834448D02*
G01*
X114717117Y-74894463D01*
X114847515Y-74981592D01*
X114958408Y-75092485D01*
X115045537Y-75222883D01*
X115105552Y-75367772D01*
X115136148Y-75521586D01*
X115140000Y-75600000D01*
X115140000Y-76400000D01*
X115136148Y-76478414D01*
X115105552Y-76632228D01*
X115045537Y-76777117D01*
X114958408Y-76907515D01*
X114847515Y-77018408D01*
X114717117Y-77105537D01*
X114572228Y-77165552D01*
X114418414Y-77196148D01*
X114261586Y-77196148D01*
X114107772Y-77165552D01*
X113962883Y-77105537D01*
X113832485Y-77018408D01*
X113721592Y-76907515D01*
X113634463Y-76777117D01*
X113574448Y-76632228D01*
X113543852Y-76478414D01*
X113540000Y-76400000D01*
X113540000Y-75600000D01*
X113543852Y-75521586D01*
X113574448Y-75367772D01*
X113634463Y-75222883D01*
X113721592Y-75092485D01*
X113832485Y-74981592D01*
X113962883Y-74894463D01*
X114107772Y-74834448D01*
X114261586Y-74803852D01*
X114418414Y-74803852D01*
X114572228Y-74834448D01*
G37*
G36*
X117112228Y-74834448D02*
G01*
X117257117Y-74894463D01*
X117387515Y-74981592D01*
X117498408Y-75092485D01*
X117585537Y-75222883D01*
X117645552Y-75367772D01*
X117676148Y-75521586D01*
X117680000Y-75600000D01*
X117680000Y-76400000D01*
X117676148Y-76478414D01*
X117645552Y-76632228D01*
X117585537Y-76777117D01*
X117498408Y-76907515D01*
X117387515Y-77018408D01*
X117257117Y-77105537D01*
X117112228Y-77165552D01*
X116958414Y-77196148D01*
X116801586Y-77196148D01*
X116647772Y-77165552D01*
X116502883Y-77105537D01*
X116372485Y-77018408D01*
X116261592Y-76907515D01*
X116174463Y-76777117D01*
X116114448Y-76632228D01*
X116083852Y-76478414D01*
X116080000Y-76400000D01*
X116080000Y-75600000D01*
X116083852Y-75521586D01*
X116114448Y-75367772D01*
X116174463Y-75222883D01*
X116261592Y-75092485D01*
X116372485Y-74981592D01*
X116502883Y-74894463D01*
X116647772Y-74834448D01*
X116801586Y-74803852D01*
X116958414Y-74803852D01*
X117112228Y-74834448D01*
G37*
G36*
X119652228Y-74834448D02*
G01*
X119797117Y-74894463D01*
X119927515Y-74981592D01*
X120038408Y-75092485D01*
X120125537Y-75222883D01*
X120185552Y-75367772D01*
X120216148Y-75521586D01*
X120220000Y-75600000D01*
X120220000Y-76400000D01*
X120216148Y-76478414D01*
X120185552Y-76632228D01*
X120125537Y-76777117D01*
X120038408Y-76907515D01*
X119927515Y-77018408D01*
X119797117Y-77105537D01*
X119652228Y-77165552D01*
X119498414Y-77196148D01*
X119341586Y-77196148D01*
X119187772Y-77165552D01*
X119042883Y-77105537D01*
X118912485Y-77018408D01*
X118801592Y-76907515D01*
X118714463Y-76777117D01*
X118654448Y-76632228D01*
X118623852Y-76478414D01*
X118620000Y-76400000D01*
X118620000Y-75600000D01*
X118623852Y-75521586D01*
X118654448Y-75367772D01*
X118714463Y-75222883D01*
X118801592Y-75092485D01*
X118912485Y-74981592D01*
X119042883Y-74894463D01*
X119187772Y-74834448D01*
X119341586Y-74803852D01*
X119498414Y-74803852D01*
X119652228Y-74834448D01*
G37*
G36*
X122192228Y-74834448D02*
G01*
X122337117Y-74894463D01*
X122467515Y-74981592D01*
X122578408Y-75092485D01*
X122665537Y-75222883D01*
X122725552Y-75367772D01*
X122756148Y-75521586D01*
X122760000Y-75600000D01*
X122760000Y-76400000D01*
X122756148Y-76478414D01*
X122725552Y-76632228D01*
X122665537Y-76777117D01*
X122578408Y-76907515D01*
X122467515Y-77018408D01*
X122337117Y-77105537D01*
X122192228Y-77165552D01*
X122038414Y-77196148D01*
X121881586Y-77196148D01*
X121727772Y-77165552D01*
X121582883Y-77105537D01*
X121452485Y-77018408D01*
X121341592Y-76907515D01*
X121254463Y-76777117D01*
X121194448Y-76632228D01*
X121163852Y-76478414D01*
X121160000Y-76400000D01*
X121160000Y-75600000D01*
X121163852Y-75521586D01*
X121194448Y-75367772D01*
X121254463Y-75222883D01*
X121341592Y-75092485D01*
X121452485Y-74981592D01*
X121582883Y-74894463D01*
X121727772Y-74834448D01*
X121881586Y-74803852D01*
X122038414Y-74803852D01*
X122192228Y-74834448D01*
G37*
G36*
X124732228Y-74834448D02*
G01*
X124877117Y-74894463D01*
X125007515Y-74981592D01*
X125118408Y-75092485D01*
X125205537Y-75222883D01*
X125265552Y-75367772D01*
X125296148Y-75521586D01*
X125300000Y-75600000D01*
X125300000Y-76400000D01*
X125296148Y-76478414D01*
X125265552Y-76632228D01*
X125205537Y-76777117D01*
X125118408Y-76907515D01*
X125007515Y-77018408D01*
X124877117Y-77105537D01*
X124732228Y-77165552D01*
X124578414Y-77196148D01*
X124421586Y-77196148D01*
X124267772Y-77165552D01*
X124122883Y-77105537D01*
X123992485Y-77018408D01*
X123881592Y-76907515D01*
X123794463Y-76777117D01*
X123734448Y-76632228D01*
X123703852Y-76478414D01*
X123700000Y-76400000D01*
X123700000Y-75600000D01*
X123703852Y-75521586D01*
X123734448Y-75367772D01*
X123794463Y-75222883D01*
X123881592Y-75092485D01*
X123992485Y-74981592D01*
X124122883Y-74894463D01*
X124267772Y-74834448D01*
X124421586Y-74803852D01*
X124578414Y-74803852D01*
X124732228Y-74834448D01*
G37*
G36*
X127272228Y-74834448D02*
G01*
X127417117Y-74894463D01*
X127547515Y-74981592D01*
X127658408Y-75092485D01*
X127745537Y-75222883D01*
X127805552Y-75367772D01*
X127836148Y-75521586D01*
X127840000Y-75600000D01*
X127840000Y-76400000D01*
X127836148Y-76478414D01*
X127805552Y-76632228D01*
X127745537Y-76777117D01*
X127658408Y-76907515D01*
X127547515Y-77018408D01*
X127417117Y-77105537D01*
X127272228Y-77165552D01*
X127118414Y-77196148D01*
X126961586Y-77196148D01*
X126807772Y-77165552D01*
X126662883Y-77105537D01*
X126532485Y-77018408D01*
X126421592Y-76907515D01*
X126334463Y-76777117D01*
X126274448Y-76632228D01*
X126243852Y-76478414D01*
X126240000Y-76400000D01*
X126240000Y-75600000D01*
X126243852Y-75521586D01*
X126274448Y-75367772D01*
X126334463Y-75222883D01*
X126421592Y-75092485D01*
X126532485Y-74981592D01*
X126662883Y-74894463D01*
X126807772Y-74834448D01*
X126961586Y-74803852D01*
X127118414Y-74803852D01*
X127272228Y-74834448D01*
G37*
G36*
X67978414Y-74403852D02*
G01*
X68132228Y-74434448D01*
X68277117Y-74494463D01*
X68407515Y-74581592D01*
X68518408Y-74692485D01*
X68605537Y-74822883D01*
X68665552Y-74967772D01*
X68696148Y-75121586D01*
X68696148Y-75278414D01*
X68665552Y-75432228D01*
X68605537Y-75577117D01*
X68518408Y-75707515D01*
X68407515Y-75818408D01*
X68277117Y-75905537D01*
X68132228Y-75965552D01*
X67978414Y-75996148D01*
X67900000Y-76000000D01*
X67898749Y-76000000D01*
X67101251Y-76000000D01*
X67100000Y-76000000D01*
X67021586Y-75996148D01*
X66867772Y-75965552D01*
X66722883Y-75905537D01*
X66592485Y-75818408D01*
X66481592Y-75707515D01*
X66394463Y-75577117D01*
X66334448Y-75432228D01*
X66303852Y-75278414D01*
X66303852Y-75121586D01*
X66334448Y-74967772D01*
X66394463Y-74822883D01*
X66481592Y-74692485D01*
X66592485Y-74581592D01*
X66722883Y-74494463D01*
X66867772Y-74434448D01*
X67021586Y-74403852D01*
X67100000Y-74400000D01*
X67900000Y-74400000D01*
X67978414Y-74403852D01*
G37*
G36*
X76320000Y-76000000D02*
G01*
X73920000Y-76000000D01*
X73920000Y-74400000D01*
X76320000Y-74400000D01*
X76320000Y-76000000D01*
G37*
G36*
X67978414Y-71863852D02*
G01*
X68132228Y-71894448D01*
X68277117Y-71954463D01*
X68407515Y-72041592D01*
X68518408Y-72152485D01*
X68605537Y-72282883D01*
X68665552Y-72427772D01*
X68696148Y-72581586D01*
X68696148Y-72738414D01*
X68665552Y-72892228D01*
X68605537Y-73037117D01*
X68518408Y-73167515D01*
X68407515Y-73278408D01*
X68277117Y-73365537D01*
X68132228Y-73425552D01*
X67978414Y-73456148D01*
X67900000Y-73460000D01*
X67898749Y-73460000D01*
X67101251Y-73460000D01*
X67100000Y-73460000D01*
X67021586Y-73456148D01*
X66867772Y-73425552D01*
X66722883Y-73365537D01*
X66592485Y-73278408D01*
X66481592Y-73167515D01*
X66394463Y-73037117D01*
X66334448Y-72892228D01*
X66303852Y-72738414D01*
X66303852Y-72581586D01*
X66334448Y-72427772D01*
X66394463Y-72282883D01*
X66481592Y-72152485D01*
X66592485Y-72041592D01*
X66722883Y-71954463D01*
X66867772Y-71894448D01*
X67021586Y-71863852D01*
X67100000Y-71860000D01*
X67900000Y-71860000D01*
X67978414Y-71863852D01*
G37*
G36*
X75598414Y-71863852D02*
G01*
X75752228Y-71894448D01*
X75897117Y-71954463D01*
X76027515Y-72041592D01*
X76138408Y-72152485D01*
X76225537Y-72282883D01*
X76285552Y-72427772D01*
X76316148Y-72581586D01*
X76316148Y-72738414D01*
X76285552Y-72892228D01*
X76225537Y-73037117D01*
X76138408Y-73167515D01*
X76027515Y-73278408D01*
X75897117Y-73365537D01*
X75752228Y-73425552D01*
X75598414Y-73456148D01*
X75520000Y-73460000D01*
X75518749Y-73460000D01*
X74721251Y-73460000D01*
X74720000Y-73460000D01*
X74641586Y-73456148D01*
X74487772Y-73425552D01*
X74342883Y-73365537D01*
X74212485Y-73278408D01*
X74101592Y-73167515D01*
X74014463Y-73037117D01*
X73954448Y-72892228D01*
X73923852Y-72738414D01*
X73923852Y-72581586D01*
X73954448Y-72427772D01*
X74014463Y-72282883D01*
X74101592Y-72152485D01*
X74212485Y-72041592D01*
X74342883Y-71954463D01*
X74487772Y-71894448D01*
X74641586Y-71863852D01*
X74720000Y-71860000D01*
X75520000Y-71860000D01*
X75598414Y-71863852D01*
G37*
G36*
X67978414Y-69323852D02*
G01*
X68132228Y-69354448D01*
X68277117Y-69414463D01*
X68407515Y-69501592D01*
X68518408Y-69612485D01*
X68605537Y-69742883D01*
X68665552Y-69887772D01*
X68696148Y-70041586D01*
X68696148Y-70198414D01*
X68665552Y-70352228D01*
X68605537Y-70497117D01*
X68518408Y-70627515D01*
X68407515Y-70738408D01*
X68277117Y-70825537D01*
X68132228Y-70885552D01*
X67978414Y-70916148D01*
X67900000Y-70920000D01*
X67898749Y-70920000D01*
X67101251Y-70920000D01*
X67100000Y-70920000D01*
X67021586Y-70916148D01*
X66867772Y-70885552D01*
X66722883Y-70825537D01*
X66592485Y-70738408D01*
X66481592Y-70627515D01*
X66394463Y-70497117D01*
X66334448Y-70352228D01*
X66303852Y-70198414D01*
X66303852Y-70041586D01*
X66334448Y-69887772D01*
X66394463Y-69742883D01*
X66481592Y-69612485D01*
X66592485Y-69501592D01*
X66722883Y-69414463D01*
X66867772Y-69354448D01*
X67021586Y-69323852D01*
X67100000Y-69320000D01*
X67900000Y-69320000D01*
X67978414Y-69323852D01*
G37*
G36*
X75598414Y-69323852D02*
G01*
X75752228Y-69354448D01*
X75897117Y-69414463D01*
X76027515Y-69501592D01*
X76138408Y-69612485D01*
X76225537Y-69742883D01*
X76285552Y-69887772D01*
X76316148Y-70041586D01*
X76316148Y-70198414D01*
X76285552Y-70352228D01*
X76225537Y-70497117D01*
X76138408Y-70627515D01*
X76027515Y-70738408D01*
X75897117Y-70825537D01*
X75752228Y-70885552D01*
X75598414Y-70916148D01*
X75520000Y-70920000D01*
X75518749Y-70920000D01*
X74721251Y-70920000D01*
X74720000Y-70920000D01*
X74641586Y-70916148D01*
X74487772Y-70885552D01*
X74342883Y-70825537D01*
X74212485Y-70738408D01*
X74101592Y-70627515D01*
X74014463Y-70497117D01*
X73954448Y-70352228D01*
X73923852Y-70198414D01*
X73923852Y-70041586D01*
X73954448Y-69887772D01*
X74014463Y-69742883D01*
X74101592Y-69612485D01*
X74212485Y-69501592D01*
X74342883Y-69414463D01*
X74487772Y-69354448D01*
X74641586Y-69323852D01*
X74720000Y-69320000D01*
X75520000Y-69320000D01*
X75598414Y-69323852D01*
G37*
G36*
X112032228Y-67214448D02*
G01*
X112177117Y-67274463D01*
X112307515Y-67361592D01*
X112418408Y-67472485D01*
X112505537Y-67602883D01*
X112565552Y-67747772D01*
X112596148Y-67901586D01*
X112600000Y-67980000D01*
X112600000Y-68780000D01*
X112596148Y-68858414D01*
X112565552Y-69012228D01*
X112505537Y-69157117D01*
X112418408Y-69287515D01*
X112307515Y-69398408D01*
X112177117Y-69485537D01*
X112032228Y-69545552D01*
X111878414Y-69576148D01*
X111721586Y-69576148D01*
X111567772Y-69545552D01*
X111422883Y-69485537D01*
X111292485Y-69398408D01*
X111181592Y-69287515D01*
X111094463Y-69157117D01*
X111034448Y-69012228D01*
X111003852Y-68858414D01*
X111000000Y-68780000D01*
X111000000Y-67980000D01*
X111003852Y-67901586D01*
X111034448Y-67747772D01*
X111094463Y-67602883D01*
X111181592Y-67472485D01*
X111292485Y-67361592D01*
X111422883Y-67274463D01*
X111567772Y-67214448D01*
X111721586Y-67183852D01*
X111878414Y-67183852D01*
X112032228Y-67214448D01*
G37*
G36*
X114572228Y-67214448D02*
G01*
X114717117Y-67274463D01*
X114847515Y-67361592D01*
X114958408Y-67472485D01*
X115045537Y-67602883D01*
X115105552Y-67747772D01*
X115136148Y-67901586D01*
X115140000Y-67980000D01*
X115140000Y-68780000D01*
X115136148Y-68858414D01*
X115105552Y-69012228D01*
X115045537Y-69157117D01*
X114958408Y-69287515D01*
X114847515Y-69398408D01*
X114717117Y-69485537D01*
X114572228Y-69545552D01*
X114418414Y-69576148D01*
X114261586Y-69576148D01*
X114107772Y-69545552D01*
X113962883Y-69485537D01*
X113832485Y-69398408D01*
X113721592Y-69287515D01*
X113634463Y-69157117D01*
X113574448Y-69012228D01*
X113543852Y-68858414D01*
X113540000Y-68780000D01*
X113540000Y-67980000D01*
X113543852Y-67901586D01*
X113574448Y-67747772D01*
X113634463Y-67602883D01*
X113721592Y-67472485D01*
X113832485Y-67361592D01*
X113962883Y-67274463D01*
X114107772Y-67214448D01*
X114261586Y-67183852D01*
X114418414Y-67183852D01*
X114572228Y-67214448D01*
G37*
G36*
X117112228Y-67214448D02*
G01*
X117257117Y-67274463D01*
X117387515Y-67361592D01*
X117498408Y-67472485D01*
X117585537Y-67602883D01*
X117645552Y-67747772D01*
X117676148Y-67901586D01*
X117680000Y-67980000D01*
X117680000Y-68780000D01*
X117676148Y-68858414D01*
X117645552Y-69012228D01*
X117585537Y-69157117D01*
X117498408Y-69287515D01*
X117387515Y-69398408D01*
X117257117Y-69485537D01*
X117112228Y-69545552D01*
X116958414Y-69576148D01*
X116801586Y-69576148D01*
X116647772Y-69545552D01*
X116502883Y-69485537D01*
X116372485Y-69398408D01*
X116261592Y-69287515D01*
X116174463Y-69157117D01*
X116114448Y-69012228D01*
X116083852Y-68858414D01*
X116080000Y-68780000D01*
X116080000Y-67980000D01*
X116083852Y-67901586D01*
X116114448Y-67747772D01*
X116174463Y-67602883D01*
X116261592Y-67472485D01*
X116372485Y-67361592D01*
X116502883Y-67274463D01*
X116647772Y-67214448D01*
X116801586Y-67183852D01*
X116958414Y-67183852D01*
X117112228Y-67214448D01*
G37*
G36*
X119652228Y-67214448D02*
G01*
X119797117Y-67274463D01*
X119927515Y-67361592D01*
X120038408Y-67472485D01*
X120125537Y-67602883D01*
X120185552Y-67747772D01*
X120216148Y-67901586D01*
X120220000Y-67980000D01*
X120220000Y-68780000D01*
X120216148Y-68858414D01*
X120185552Y-69012228D01*
X120125537Y-69157117D01*
X120038408Y-69287515D01*
X119927515Y-69398408D01*
X119797117Y-69485537D01*
X119652228Y-69545552D01*
X119498414Y-69576148D01*
X119341586Y-69576148D01*
X119187772Y-69545552D01*
X119042883Y-69485537D01*
X118912485Y-69398408D01*
X118801592Y-69287515D01*
X118714463Y-69157117D01*
X118654448Y-69012228D01*
X118623852Y-68858414D01*
X118620000Y-68780000D01*
X118620000Y-67980000D01*
X118623852Y-67901586D01*
X118654448Y-67747772D01*
X118714463Y-67602883D01*
X118801592Y-67472485D01*
X118912485Y-67361592D01*
X119042883Y-67274463D01*
X119187772Y-67214448D01*
X119341586Y-67183852D01*
X119498414Y-67183852D01*
X119652228Y-67214448D01*
G37*
G36*
X122192228Y-67214448D02*
G01*
X122337117Y-67274463D01*
X122467515Y-67361592D01*
X122578408Y-67472485D01*
X122665537Y-67602883D01*
X122725552Y-67747772D01*
X122756148Y-67901586D01*
X122760000Y-67980000D01*
X122760000Y-68780000D01*
X122756148Y-68858414D01*
X122725552Y-69012228D01*
X122665537Y-69157117D01*
X122578408Y-69287515D01*
X122467515Y-69398408D01*
X122337117Y-69485537D01*
X122192228Y-69545552D01*
X122038414Y-69576148D01*
X121881586Y-69576148D01*
X121727772Y-69545552D01*
X121582883Y-69485537D01*
X121452485Y-69398408D01*
X121341592Y-69287515D01*
X121254463Y-69157117D01*
X121194448Y-69012228D01*
X121163852Y-68858414D01*
X121160000Y-68780000D01*
X121160000Y-67980000D01*
X121163852Y-67901586D01*
X121194448Y-67747772D01*
X121254463Y-67602883D01*
X121341592Y-67472485D01*
X121452485Y-67361592D01*
X121582883Y-67274463D01*
X121727772Y-67214448D01*
X121881586Y-67183852D01*
X122038414Y-67183852D01*
X122192228Y-67214448D01*
G37*
G36*
X124732228Y-67214448D02*
G01*
X124877117Y-67274463D01*
X125007515Y-67361592D01*
X125118408Y-67472485D01*
X125205537Y-67602883D01*
X125265552Y-67747772D01*
X125296148Y-67901586D01*
X125300000Y-67980000D01*
X125300000Y-68780000D01*
X125296148Y-68858414D01*
X125265552Y-69012228D01*
X125205537Y-69157117D01*
X125118408Y-69287515D01*
X125007515Y-69398408D01*
X124877117Y-69485537D01*
X124732228Y-69545552D01*
X124578414Y-69576148D01*
X124421586Y-69576148D01*
X124267772Y-69545552D01*
X124122883Y-69485537D01*
X123992485Y-69398408D01*
X123881592Y-69287515D01*
X123794463Y-69157117D01*
X123734448Y-69012228D01*
X123703852Y-68858414D01*
X123700000Y-68780000D01*
X123700000Y-67980000D01*
X123703852Y-67901586D01*
X123734448Y-67747772D01*
X123794463Y-67602883D01*
X123881592Y-67472485D01*
X123992485Y-67361592D01*
X124122883Y-67274463D01*
X124267772Y-67214448D01*
X124421586Y-67183852D01*
X124578414Y-67183852D01*
X124732228Y-67214448D01*
G37*
G36*
X127272228Y-67214448D02*
G01*
X127417117Y-67274463D01*
X127547515Y-67361592D01*
X127658408Y-67472485D01*
X127745537Y-67602883D01*
X127805552Y-67747772D01*
X127836148Y-67901586D01*
X127840000Y-67980000D01*
X127840000Y-68780000D01*
X127836148Y-68858414D01*
X127805552Y-69012228D01*
X127745537Y-69157117D01*
X127658408Y-69287515D01*
X127547515Y-69398408D01*
X127417117Y-69485537D01*
X127272228Y-69545552D01*
X127118414Y-69576148D01*
X126961586Y-69576148D01*
X126807772Y-69545552D01*
X126662883Y-69485537D01*
X126532485Y-69398408D01*
X126421592Y-69287515D01*
X126334463Y-69157117D01*
X126274448Y-69012228D01*
X126243852Y-68858414D01*
X126240000Y-68780000D01*
X126240000Y-67980000D01*
X126243852Y-67901586D01*
X126274448Y-67747772D01*
X126334463Y-67602883D01*
X126421592Y-67472485D01*
X126532485Y-67361592D01*
X126662883Y-67274463D01*
X126807772Y-67214448D01*
X126961586Y-67183852D01*
X127118414Y-67183852D01*
X127272228Y-67214448D01*
G37*
G36*
X67978414Y-66783852D02*
G01*
X68132228Y-66814448D01*
X68277117Y-66874463D01*
X68407515Y-66961592D01*
X68518408Y-67072485D01*
X68605537Y-67202883D01*
X68665552Y-67347772D01*
X68696148Y-67501586D01*
X68696148Y-67658414D01*
X68665552Y-67812228D01*
X68605537Y-67957117D01*
X68518408Y-68087515D01*
X68407515Y-68198408D01*
X68277117Y-68285537D01*
X68132228Y-68345552D01*
X67978414Y-68376148D01*
X67900000Y-68380000D01*
X67898749Y-68380000D01*
X67101251Y-68380000D01*
X67100000Y-68380000D01*
X67021586Y-68376148D01*
X66867772Y-68345552D01*
X66722883Y-68285537D01*
X66592485Y-68198408D01*
X66481592Y-68087515D01*
X66394463Y-67957117D01*
X66334448Y-67812228D01*
X66303852Y-67658414D01*
X66303852Y-67501586D01*
X66334448Y-67347772D01*
X66394463Y-67202883D01*
X66481592Y-67072485D01*
X66592485Y-66961592D01*
X66722883Y-66874463D01*
X66867772Y-66814448D01*
X67021586Y-66783852D01*
X67100000Y-66780000D01*
X67900000Y-66780000D01*
X67978414Y-66783852D01*
G37*
G36*
X75598414Y-66783852D02*
G01*
X75752228Y-66814448D01*
X75897117Y-66874463D01*
X76027515Y-66961592D01*
X76138408Y-67072485D01*
X76225537Y-67202883D01*
X76285552Y-67347772D01*
X76316148Y-67501586D01*
X76316148Y-67658414D01*
X76285552Y-67812228D01*
X76225537Y-67957117D01*
X76138408Y-68087515D01*
X76027515Y-68198408D01*
X75897117Y-68285537D01*
X75752228Y-68345552D01*
X75598414Y-68376148D01*
X75520000Y-68380000D01*
X75518749Y-68380000D01*
X74721251Y-68380000D01*
X74720000Y-68380000D01*
X74641586Y-68376148D01*
X74487772Y-68345552D01*
X74342883Y-68285537D01*
X74212485Y-68198408D01*
X74101592Y-68087515D01*
X74014463Y-67957117D01*
X73954448Y-67812228D01*
X73923852Y-67658414D01*
X73923852Y-67501586D01*
X73954448Y-67347772D01*
X74014463Y-67202883D01*
X74101592Y-67072485D01*
X74212485Y-66961592D01*
X74342883Y-66874463D01*
X74487772Y-66814448D01*
X74641586Y-66783852D01*
X74720000Y-66780000D01*
X75520000Y-66780000D01*
X75598414Y-66783852D01*
G37*
G36*
X67978414Y-64243852D02*
G01*
X68132228Y-64274448D01*
X68277117Y-64334463D01*
X68407515Y-64421592D01*
X68518408Y-64532485D01*
X68605537Y-64662883D01*
X68665552Y-64807772D01*
X68696148Y-64961586D01*
X68696148Y-65118414D01*
X68665552Y-65272228D01*
X68605537Y-65417117D01*
X68518408Y-65547515D01*
X68407515Y-65658408D01*
X68277117Y-65745537D01*
X68132228Y-65805552D01*
X67978414Y-65836148D01*
X67900000Y-65840000D01*
X67898749Y-65840000D01*
X67101251Y-65840000D01*
X67100000Y-65840000D01*
X67021586Y-65836148D01*
X66867772Y-65805552D01*
X66722883Y-65745537D01*
X66592485Y-65658408D01*
X66481592Y-65547515D01*
X66394463Y-65417117D01*
X66334448Y-65272228D01*
X66303852Y-65118414D01*
X66303852Y-64961586D01*
X66334448Y-64807772D01*
X66394463Y-64662883D01*
X66481592Y-64532485D01*
X66592485Y-64421592D01*
X66722883Y-64334463D01*
X66867772Y-64274448D01*
X67021586Y-64243852D01*
X67100000Y-64240000D01*
X67900000Y-64240000D01*
X67978414Y-64243852D01*
G37*
G36*
X75598414Y-64243852D02*
G01*
X75752228Y-64274448D01*
X75897117Y-64334463D01*
X76027515Y-64421592D01*
X76138408Y-64532485D01*
X76225537Y-64662883D01*
X76285552Y-64807772D01*
X76316148Y-64961586D01*
X76316148Y-65118414D01*
X76285552Y-65272228D01*
X76225537Y-65417117D01*
X76138408Y-65547515D01*
X76027515Y-65658408D01*
X75897117Y-65745537D01*
X75752228Y-65805552D01*
X75598414Y-65836148D01*
X75520000Y-65840000D01*
X75518749Y-65840000D01*
X74721251Y-65840000D01*
X74720000Y-65840000D01*
X74641586Y-65836148D01*
X74487772Y-65805552D01*
X74342883Y-65745537D01*
X74212485Y-65658408D01*
X74101592Y-65547515D01*
X74014463Y-65417117D01*
X73954448Y-65272228D01*
X73923852Y-65118414D01*
X73923852Y-64961586D01*
X73954448Y-64807772D01*
X74014463Y-64662883D01*
X74101592Y-64532485D01*
X74212485Y-64421592D01*
X74342883Y-64334463D01*
X74487772Y-64274448D01*
X74641586Y-64243852D01*
X74720000Y-64240000D01*
X75520000Y-64240000D01*
X75598414Y-64243852D01*
G37*
G36*
X67978414Y-61703852D02*
G01*
X68132228Y-61734448D01*
X68277117Y-61794463D01*
X68407515Y-61881592D01*
X68518408Y-61992485D01*
X68605537Y-62122883D01*
X68665552Y-62267772D01*
X68696148Y-62421586D01*
X68696148Y-62578414D01*
X68665552Y-62732228D01*
X68605537Y-62877117D01*
X68518408Y-63007515D01*
X68407515Y-63118408D01*
X68277117Y-63205537D01*
X68132228Y-63265552D01*
X67978414Y-63296148D01*
X67900000Y-63300000D01*
X67898749Y-63300000D01*
X67101251Y-63300000D01*
X67100000Y-63300000D01*
X67021586Y-63296148D01*
X66867772Y-63265552D01*
X66722883Y-63205537D01*
X66592485Y-63118408D01*
X66481592Y-63007515D01*
X66394463Y-62877117D01*
X66334448Y-62732228D01*
X66303852Y-62578414D01*
X66303852Y-62421586D01*
X66334448Y-62267772D01*
X66394463Y-62122883D01*
X66481592Y-61992485D01*
X66592485Y-61881592D01*
X66722883Y-61794463D01*
X66867772Y-61734448D01*
X67021586Y-61703852D01*
X67100000Y-61700000D01*
X67900000Y-61700000D01*
X67978414Y-61703852D01*
G37*
G36*
X75598414Y-61703852D02*
G01*
X75752228Y-61734448D01*
X75897117Y-61794463D01*
X76027515Y-61881592D01*
X76138408Y-61992485D01*
X76225537Y-62122883D01*
X76285552Y-62267772D01*
X76316148Y-62421586D01*
X76316148Y-62578414D01*
X76285552Y-62732228D01*
X76225537Y-62877117D01*
X76138408Y-63007515D01*
X76027515Y-63118408D01*
X75897117Y-63205537D01*
X75752228Y-63265552D01*
X75598414Y-63296148D01*
X75520000Y-63300000D01*
X75518749Y-63300000D01*
X74721251Y-63300000D01*
X74720000Y-63300000D01*
X74641586Y-63296148D01*
X74487772Y-63265552D01*
X74342883Y-63205537D01*
X74212485Y-63118408D01*
X74101592Y-63007515D01*
X74014463Y-62877117D01*
X73954448Y-62732228D01*
X73923852Y-62578414D01*
X73923852Y-62421586D01*
X73954448Y-62267772D01*
X74014463Y-62122883D01*
X74101592Y-61992485D01*
X74212485Y-61881592D01*
X74342883Y-61794463D01*
X74487772Y-61734448D01*
X74641586Y-61703852D01*
X74720000Y-61700000D01*
X75520000Y-61700000D01*
X75598414Y-61703852D01*
G37*
G36*
X67978414Y-59163852D02*
G01*
X68132228Y-59194448D01*
X68277117Y-59254463D01*
X68407515Y-59341592D01*
X68518408Y-59452485D01*
X68605537Y-59582883D01*
X68665552Y-59727772D01*
X68696148Y-59881586D01*
X68696148Y-60038414D01*
X68665552Y-60192228D01*
X68605537Y-60337117D01*
X68518408Y-60467515D01*
X68407515Y-60578408D01*
X68277117Y-60665537D01*
X68132228Y-60725552D01*
X67978414Y-60756148D01*
X67900000Y-60760000D01*
X67898749Y-60760000D01*
X67101251Y-60760000D01*
X67100000Y-60760000D01*
X67021586Y-60756148D01*
X66867772Y-60725552D01*
X66722883Y-60665537D01*
X66592485Y-60578408D01*
X66481592Y-60467515D01*
X66394463Y-60337117D01*
X66334448Y-60192228D01*
X66303852Y-60038414D01*
X66303852Y-59881586D01*
X66334448Y-59727772D01*
X66394463Y-59582883D01*
X66481592Y-59452485D01*
X66592485Y-59341592D01*
X66722883Y-59254463D01*
X66867772Y-59194448D01*
X67021586Y-59163852D01*
X67100000Y-59160000D01*
X67900000Y-59160000D01*
X67978414Y-59163852D01*
G37*
G36*
X75598414Y-59163852D02*
G01*
X75752228Y-59194448D01*
X75897117Y-59254463D01*
X76027515Y-59341592D01*
X76138408Y-59452485D01*
X76225537Y-59582883D01*
X76285552Y-59727772D01*
X76316148Y-59881586D01*
X76316148Y-60038414D01*
X76285552Y-60192228D01*
X76225537Y-60337117D01*
X76138408Y-60467515D01*
X76027515Y-60578408D01*
X75897117Y-60665537D01*
X75752228Y-60725552D01*
X75598414Y-60756148D01*
X75520000Y-60760000D01*
X75518749Y-60760000D01*
X74721251Y-60760000D01*
X74720000Y-60760000D01*
X74641586Y-60756148D01*
X74487772Y-60725552D01*
X74342883Y-60665537D01*
X74212485Y-60578408D01*
X74101592Y-60467515D01*
X74014463Y-60337117D01*
X73954448Y-60192228D01*
X73923852Y-60038414D01*
X73923852Y-59881586D01*
X73954448Y-59727772D01*
X74014463Y-59582883D01*
X74101592Y-59452485D01*
X74212485Y-59341592D01*
X74342883Y-59254463D01*
X74487772Y-59194448D01*
X74641586Y-59163852D01*
X74720000Y-59160000D01*
X75520000Y-59160000D01*
X75598414Y-59163852D01*
G37*
M02*
