%TF.GenerationSoftware,KiCad,Pcbnew,8.0.5*%
%TF.CreationDate,2024-11-04T13:30:35-06:00*%
%TF.ProjectId,KiCAD_Custom_DRC_Rules_for_PCBWay,4b694341-445f-4437-9573-746f6d5f4452,rev?*%
%TF.SameCoordinates,Original*%
%TF.FileFunction,Soldermask,Top*%
%TF.FilePolarity,Negative*%
%FSLAX46Y46*%
G04 Gerber Fmt 4.6, Leading zero omitted, Abs format (unit mm)*
G04 Created by KiCad (PCBNEW 8.0.5) date 2024-11-04 13:30:35*
%MOMM*%
%LPD*%
G01*
G04 APERTURE LIST*
G04 APERTURE END LIST*
G36*
X68415000Y-125100000D02*
G01*
X66215000Y-125100000D01*
X66215000Y-122900000D01*
X68415000Y-122900000D01*
X68415000Y-125100000D01*
G37*
G36*
X81454116Y-123900818D02*
G01*
X81505379Y-123906766D01*
X81522892Y-123914499D01*
X81545671Y-123919030D01*
X81570057Y-123935324D01*
X81590788Y-123944478D01*
X81604946Y-123958636D01*
X81626777Y-123973223D01*
X81641363Y-123995053D01*
X81655521Y-124009211D01*
X81664673Y-124029939D01*
X81680970Y-124054329D01*
X81685501Y-124077109D01*
X81693233Y-124094620D01*
X81699178Y-124145872D01*
X81700000Y-124150000D01*
X81700000Y-124675000D01*
X81699178Y-124679128D01*
X81693233Y-124730379D01*
X81685501Y-124747888D01*
X81680970Y-124770671D01*
X81664672Y-124795062D01*
X81655521Y-124815788D01*
X81641365Y-124829943D01*
X81626777Y-124851777D01*
X81604943Y-124866365D01*
X81590788Y-124880521D01*
X81570062Y-124889672D01*
X81545671Y-124905970D01*
X81522888Y-124910501D01*
X81505379Y-124918233D01*
X81454129Y-124924178D01*
X81450000Y-124925000D01*
X80550000Y-124925000D01*
X80545873Y-124924179D01*
X80494620Y-124918233D01*
X80477109Y-124910501D01*
X80454329Y-124905970D01*
X80429939Y-124889673D01*
X80409211Y-124880521D01*
X80395053Y-124866363D01*
X80373223Y-124851777D01*
X80358636Y-124829946D01*
X80344478Y-124815788D01*
X80335324Y-124795057D01*
X80319030Y-124770671D01*
X80314499Y-124747892D01*
X80306766Y-124730379D01*
X80300818Y-124679117D01*
X80300000Y-124675000D01*
X80300000Y-124150000D01*
X80300818Y-124145885D01*
X80306766Y-124094620D01*
X80314499Y-124077105D01*
X80319030Y-124054329D01*
X80335323Y-124029944D01*
X80344478Y-124009211D01*
X80358638Y-123995050D01*
X80373223Y-123973223D01*
X80395050Y-123958638D01*
X80409211Y-123944478D01*
X80429944Y-123935323D01*
X80454329Y-123919030D01*
X80477105Y-123914499D01*
X80494620Y-123906766D01*
X80545884Y-123900818D01*
X80550000Y-123900000D01*
X81450000Y-123900000D01*
X81454116Y-123900818D01*
G37*
G36*
X86794116Y-123420818D02*
G01*
X86845379Y-123426766D01*
X86862892Y-123434499D01*
X86885671Y-123439030D01*
X86910057Y-123455324D01*
X86930788Y-123464478D01*
X86944946Y-123478636D01*
X86966777Y-123493223D01*
X86981363Y-123515053D01*
X86995521Y-123529211D01*
X87004673Y-123549939D01*
X87020970Y-123574329D01*
X87025501Y-123597109D01*
X87033233Y-123614620D01*
X87039178Y-123665872D01*
X87040000Y-123670000D01*
X87040000Y-124170000D01*
X87039178Y-124174128D01*
X87033233Y-124225379D01*
X87025501Y-124242888D01*
X87020970Y-124265671D01*
X87004672Y-124290062D01*
X86995521Y-124310788D01*
X86981365Y-124324943D01*
X86966777Y-124346777D01*
X86944943Y-124361365D01*
X86930788Y-124375521D01*
X86910062Y-124384672D01*
X86885671Y-124400970D01*
X86862888Y-124405501D01*
X86845379Y-124413233D01*
X86794129Y-124419178D01*
X86790000Y-124420000D01*
X85840000Y-124420000D01*
X85835873Y-124419179D01*
X85784620Y-124413233D01*
X85767109Y-124405501D01*
X85744329Y-124400970D01*
X85719939Y-124384673D01*
X85699211Y-124375521D01*
X85685053Y-124361363D01*
X85663223Y-124346777D01*
X85648636Y-124324946D01*
X85634478Y-124310788D01*
X85625324Y-124290057D01*
X85609030Y-124265671D01*
X85604499Y-124242892D01*
X85596766Y-124225379D01*
X85590818Y-124174117D01*
X85590000Y-124170000D01*
X85590000Y-123670000D01*
X85590818Y-123665885D01*
X85596766Y-123614620D01*
X85604499Y-123597105D01*
X85609030Y-123574329D01*
X85625323Y-123549944D01*
X85634478Y-123529211D01*
X85648638Y-123515050D01*
X85663223Y-123493223D01*
X85685050Y-123478638D01*
X85699211Y-123464478D01*
X85719944Y-123455323D01*
X85744329Y-123439030D01*
X85767105Y-123434499D01*
X85784620Y-123426766D01*
X85835884Y-123420818D01*
X85840000Y-123420000D01*
X86790000Y-123420000D01*
X86794116Y-123420818D01*
G37*
G36*
X76294116Y-123370818D02*
G01*
X76345379Y-123376766D01*
X76362892Y-123384499D01*
X76385671Y-123389030D01*
X76410057Y-123405324D01*
X76430788Y-123414478D01*
X76444946Y-123428636D01*
X76466777Y-123443223D01*
X76481363Y-123465053D01*
X76495521Y-123479211D01*
X76504673Y-123499939D01*
X76520970Y-123524329D01*
X76525501Y-123547109D01*
X76533233Y-123564620D01*
X76539178Y-123615872D01*
X76540000Y-123620000D01*
X76540000Y-124120000D01*
X76539178Y-124124128D01*
X76533233Y-124175379D01*
X76525501Y-124192888D01*
X76520970Y-124215671D01*
X76504672Y-124240062D01*
X76495521Y-124260788D01*
X76481365Y-124274943D01*
X76466777Y-124296777D01*
X76444943Y-124311365D01*
X76430788Y-124325521D01*
X76410062Y-124334672D01*
X76385671Y-124350970D01*
X76362888Y-124355501D01*
X76345379Y-124363233D01*
X76294129Y-124369178D01*
X76290000Y-124370000D01*
X75340000Y-124370000D01*
X75335873Y-124369179D01*
X75284620Y-124363233D01*
X75267109Y-124355501D01*
X75244329Y-124350970D01*
X75219939Y-124334673D01*
X75199211Y-124325521D01*
X75185053Y-124311363D01*
X75163223Y-124296777D01*
X75148636Y-124274946D01*
X75134478Y-124260788D01*
X75125324Y-124240057D01*
X75109030Y-124215671D01*
X75104499Y-124192892D01*
X75096766Y-124175379D01*
X75090818Y-124124117D01*
X75090000Y-124120000D01*
X75090000Y-123620000D01*
X75090818Y-123615885D01*
X75096766Y-123564620D01*
X75104499Y-123547105D01*
X75109030Y-123524329D01*
X75125323Y-123499944D01*
X75134478Y-123479211D01*
X75148638Y-123465050D01*
X75163223Y-123443223D01*
X75185050Y-123428638D01*
X75199211Y-123414478D01*
X75219944Y-123405323D01*
X75244329Y-123389030D01*
X75267105Y-123384499D01*
X75284620Y-123376766D01*
X75335884Y-123370818D01*
X75340000Y-123370000D01*
X76290000Y-123370000D01*
X76294116Y-123370818D01*
G37*
G36*
X81454116Y-122075818D02*
G01*
X81505379Y-122081766D01*
X81522892Y-122089499D01*
X81545671Y-122094030D01*
X81570057Y-122110324D01*
X81590788Y-122119478D01*
X81604946Y-122133636D01*
X81626777Y-122148223D01*
X81641363Y-122170053D01*
X81655521Y-122184211D01*
X81664673Y-122204939D01*
X81680970Y-122229329D01*
X81685501Y-122252109D01*
X81693233Y-122269620D01*
X81699178Y-122320872D01*
X81700000Y-122325000D01*
X81700000Y-122850000D01*
X81699178Y-122854128D01*
X81693233Y-122905379D01*
X81685501Y-122922888D01*
X81680970Y-122945671D01*
X81664672Y-122970062D01*
X81655521Y-122990788D01*
X81641365Y-123004943D01*
X81626777Y-123026777D01*
X81604943Y-123041365D01*
X81590788Y-123055521D01*
X81570062Y-123064672D01*
X81545671Y-123080970D01*
X81522888Y-123085501D01*
X81505379Y-123093233D01*
X81454129Y-123099178D01*
X81450000Y-123100000D01*
X80550000Y-123100000D01*
X80545873Y-123099179D01*
X80494620Y-123093233D01*
X80477109Y-123085501D01*
X80454329Y-123080970D01*
X80429939Y-123064673D01*
X80409211Y-123055521D01*
X80395053Y-123041363D01*
X80373223Y-123026777D01*
X80358636Y-123004946D01*
X80344478Y-122990788D01*
X80335324Y-122970057D01*
X80319030Y-122945671D01*
X80314499Y-122922892D01*
X80306766Y-122905379D01*
X80300818Y-122854117D01*
X80300000Y-122850000D01*
X80300000Y-122325000D01*
X80300818Y-122320885D01*
X80306766Y-122269620D01*
X80314499Y-122252105D01*
X80319030Y-122229329D01*
X80335323Y-122204944D01*
X80344478Y-122184211D01*
X80358638Y-122170050D01*
X80373223Y-122148223D01*
X80395050Y-122133638D01*
X80409211Y-122119478D01*
X80429944Y-122110323D01*
X80454329Y-122094030D01*
X80477105Y-122089499D01*
X80494620Y-122081766D01*
X80545884Y-122075818D01*
X80550000Y-122075000D01*
X81450000Y-122075000D01*
X81454116Y-122075818D01*
G37*
G36*
X86794116Y-121520818D02*
G01*
X86845379Y-121526766D01*
X86862892Y-121534499D01*
X86885671Y-121539030D01*
X86910057Y-121555324D01*
X86930788Y-121564478D01*
X86944946Y-121578636D01*
X86966777Y-121593223D01*
X86981363Y-121615053D01*
X86995521Y-121629211D01*
X87004673Y-121649939D01*
X87020970Y-121674329D01*
X87025501Y-121697109D01*
X87033233Y-121714620D01*
X87039178Y-121765872D01*
X87040000Y-121770000D01*
X87040000Y-122270000D01*
X87039178Y-122274128D01*
X87033233Y-122325379D01*
X87025501Y-122342888D01*
X87020970Y-122365671D01*
X87004672Y-122390062D01*
X86995521Y-122410788D01*
X86981365Y-122424943D01*
X86966777Y-122446777D01*
X86944943Y-122461365D01*
X86930788Y-122475521D01*
X86910062Y-122484672D01*
X86885671Y-122500970D01*
X86862888Y-122505501D01*
X86845379Y-122513233D01*
X86794129Y-122519178D01*
X86790000Y-122520000D01*
X85840000Y-122520000D01*
X85835873Y-122519179D01*
X85784620Y-122513233D01*
X85767109Y-122505501D01*
X85744329Y-122500970D01*
X85719939Y-122484673D01*
X85699211Y-122475521D01*
X85685053Y-122461363D01*
X85663223Y-122446777D01*
X85648636Y-122424946D01*
X85634478Y-122410788D01*
X85625324Y-122390057D01*
X85609030Y-122365671D01*
X85604499Y-122342892D01*
X85596766Y-122325379D01*
X85590818Y-122274117D01*
X85590000Y-122270000D01*
X85590000Y-121770000D01*
X85590818Y-121765885D01*
X85596766Y-121714620D01*
X85604499Y-121697105D01*
X85609030Y-121674329D01*
X85625323Y-121649944D01*
X85634478Y-121629211D01*
X85648638Y-121615050D01*
X85663223Y-121593223D01*
X85685050Y-121578638D01*
X85699211Y-121564478D01*
X85719944Y-121555323D01*
X85744329Y-121539030D01*
X85767105Y-121534499D01*
X85784620Y-121526766D01*
X85835884Y-121520818D01*
X85840000Y-121520000D01*
X86790000Y-121520000D01*
X86794116Y-121520818D01*
G37*
G36*
X76294116Y-121470818D02*
G01*
X76345379Y-121476766D01*
X76362892Y-121484499D01*
X76385671Y-121489030D01*
X76410057Y-121505324D01*
X76430788Y-121514478D01*
X76444946Y-121528636D01*
X76466777Y-121543223D01*
X76481363Y-121565053D01*
X76495521Y-121579211D01*
X76504673Y-121599939D01*
X76520970Y-121624329D01*
X76525501Y-121647109D01*
X76533233Y-121664620D01*
X76539178Y-121715872D01*
X76540000Y-121720000D01*
X76540000Y-122220000D01*
X76539178Y-122224128D01*
X76533233Y-122275379D01*
X76525501Y-122292888D01*
X76520970Y-122315671D01*
X76504672Y-122340062D01*
X76495521Y-122360788D01*
X76481365Y-122374943D01*
X76466777Y-122396777D01*
X76444943Y-122411365D01*
X76430788Y-122425521D01*
X76410062Y-122434672D01*
X76385671Y-122450970D01*
X76362888Y-122455501D01*
X76345379Y-122463233D01*
X76294129Y-122469178D01*
X76290000Y-122470000D01*
X75340000Y-122470000D01*
X75335873Y-122469179D01*
X75284620Y-122463233D01*
X75267109Y-122455501D01*
X75244329Y-122450970D01*
X75219939Y-122434673D01*
X75199211Y-122425521D01*
X75185053Y-122411363D01*
X75163223Y-122396777D01*
X75148636Y-122374946D01*
X75134478Y-122360788D01*
X75125324Y-122340057D01*
X75109030Y-122315671D01*
X75104499Y-122292892D01*
X75096766Y-122275379D01*
X75090818Y-122224117D01*
X75090000Y-122220000D01*
X75090000Y-121720000D01*
X75090818Y-121715885D01*
X75096766Y-121664620D01*
X75104499Y-121647105D01*
X75109030Y-121624329D01*
X75125323Y-121599944D01*
X75134478Y-121579211D01*
X75148638Y-121565050D01*
X75163223Y-121543223D01*
X75185050Y-121528638D01*
X75199211Y-121514478D01*
X75219944Y-121505323D01*
X75244329Y-121489030D01*
X75267105Y-121484499D01*
X75284620Y-121476766D01*
X75335884Y-121470818D01*
X75340000Y-121470000D01*
X76290000Y-121470000D01*
X76294116Y-121470818D01*
G37*
G36*
X78081616Y-119300818D02*
G01*
X78132879Y-119306766D01*
X78150392Y-119314499D01*
X78173171Y-119319030D01*
X78197557Y-119335324D01*
X78218288Y-119344478D01*
X78232446Y-119358636D01*
X78254277Y-119373223D01*
X78268863Y-119395053D01*
X78283021Y-119409211D01*
X78292173Y-119429939D01*
X78308470Y-119454329D01*
X78313001Y-119477109D01*
X78320733Y-119494620D01*
X78326678Y-119545872D01*
X78327500Y-119550000D01*
X78327500Y-120450000D01*
X78326678Y-120454128D01*
X78320733Y-120505379D01*
X78313001Y-120522888D01*
X78308470Y-120545671D01*
X78292172Y-120570062D01*
X78283021Y-120590788D01*
X78268865Y-120604943D01*
X78254277Y-120626777D01*
X78232443Y-120641365D01*
X78218288Y-120655521D01*
X78197562Y-120664672D01*
X78173171Y-120680970D01*
X78150388Y-120685501D01*
X78132879Y-120693233D01*
X78081629Y-120699178D01*
X78077500Y-120700000D01*
X77552500Y-120700000D01*
X77548373Y-120699179D01*
X77497120Y-120693233D01*
X77479609Y-120685501D01*
X77456829Y-120680970D01*
X77432439Y-120664673D01*
X77411711Y-120655521D01*
X77397553Y-120641363D01*
X77375723Y-120626777D01*
X77361136Y-120604946D01*
X77346978Y-120590788D01*
X77337824Y-120570057D01*
X77321530Y-120545671D01*
X77316999Y-120522892D01*
X77309266Y-120505379D01*
X77303318Y-120454117D01*
X77302500Y-120450000D01*
X77302500Y-119550000D01*
X77303318Y-119545885D01*
X77309266Y-119494620D01*
X77316999Y-119477105D01*
X77321530Y-119454329D01*
X77337823Y-119429944D01*
X77346978Y-119409211D01*
X77361138Y-119395050D01*
X77375723Y-119373223D01*
X77397550Y-119358638D01*
X77411711Y-119344478D01*
X77432444Y-119335323D01*
X77456829Y-119319030D01*
X77479605Y-119314499D01*
X77497120Y-119306766D01*
X77548384Y-119300818D01*
X77552500Y-119300000D01*
X78077500Y-119300000D01*
X78081616Y-119300818D01*
G37*
G36*
X79906616Y-119300818D02*
G01*
X79957879Y-119306766D01*
X79975392Y-119314499D01*
X79998171Y-119319030D01*
X80022557Y-119335324D01*
X80043288Y-119344478D01*
X80057446Y-119358636D01*
X80079277Y-119373223D01*
X80093863Y-119395053D01*
X80108021Y-119409211D01*
X80117173Y-119429939D01*
X80133470Y-119454329D01*
X80138001Y-119477109D01*
X80145733Y-119494620D01*
X80151678Y-119545872D01*
X80152500Y-119550000D01*
X80152500Y-120450000D01*
X80151678Y-120454128D01*
X80145733Y-120505379D01*
X80138001Y-120522888D01*
X80133470Y-120545671D01*
X80117172Y-120570062D01*
X80108021Y-120590788D01*
X80093865Y-120604943D01*
X80079277Y-120626777D01*
X80057443Y-120641365D01*
X80043288Y-120655521D01*
X80022562Y-120664672D01*
X79998171Y-120680970D01*
X79975388Y-120685501D01*
X79957879Y-120693233D01*
X79906629Y-120699178D01*
X79902500Y-120700000D01*
X79377500Y-120700000D01*
X79373373Y-120699179D01*
X79322120Y-120693233D01*
X79304609Y-120685501D01*
X79281829Y-120680970D01*
X79257439Y-120664673D01*
X79236711Y-120655521D01*
X79222553Y-120641363D01*
X79200723Y-120626777D01*
X79186136Y-120604946D01*
X79171978Y-120590788D01*
X79162824Y-120570057D01*
X79146530Y-120545671D01*
X79141999Y-120522892D01*
X79134266Y-120505379D01*
X79128318Y-120454117D01*
X79127500Y-120450000D01*
X79127500Y-119550000D01*
X79128318Y-119545885D01*
X79134266Y-119494620D01*
X79141999Y-119477105D01*
X79146530Y-119454329D01*
X79162823Y-119429944D01*
X79171978Y-119409211D01*
X79186138Y-119395050D01*
X79200723Y-119373223D01*
X79222550Y-119358638D01*
X79236711Y-119344478D01*
X79257444Y-119335323D01*
X79281829Y-119319030D01*
X79304605Y-119314499D01*
X79322120Y-119306766D01*
X79373384Y-119300818D01*
X79377500Y-119300000D01*
X79902500Y-119300000D01*
X79906616Y-119300818D01*
G37*
G36*
X58402037Y-117934767D02*
G01*
X58592382Y-117972629D01*
X58771683Y-118046898D01*
X58933049Y-118154720D01*
X59070280Y-118291951D01*
X59178102Y-118453317D01*
X59252371Y-118632618D01*
X59290233Y-118822963D01*
X59290233Y-119017037D01*
X59252371Y-119207382D01*
X59178102Y-119386683D01*
X59070280Y-119548049D01*
X58933049Y-119685280D01*
X58771683Y-119793102D01*
X58592382Y-119867371D01*
X58402037Y-119905233D01*
X58305000Y-119910000D01*
X58303749Y-119910000D01*
X56326251Y-119910000D01*
X56325000Y-119910000D01*
X56227963Y-119905233D01*
X56037618Y-119867371D01*
X55858317Y-119793102D01*
X55696951Y-119685280D01*
X55559720Y-119548049D01*
X55451898Y-119386683D01*
X55377629Y-119207382D01*
X55339767Y-119017037D01*
X55339767Y-118822963D01*
X55377629Y-118632618D01*
X55451898Y-118453317D01*
X55559720Y-118291951D01*
X55696951Y-118154720D01*
X55858317Y-118046898D01*
X56037618Y-117972629D01*
X56227963Y-117934767D01*
X56325000Y-117930000D01*
X58305000Y-117930000D01*
X58402037Y-117934767D01*
G37*
G36*
X83119116Y-118195818D02*
G01*
X83170379Y-118201766D01*
X83187892Y-118209499D01*
X83210671Y-118214030D01*
X83235057Y-118230324D01*
X83255788Y-118239478D01*
X83269946Y-118253636D01*
X83291777Y-118268223D01*
X83306363Y-118290053D01*
X83320521Y-118304211D01*
X83329673Y-118324939D01*
X83345970Y-118349329D01*
X83350501Y-118372109D01*
X83358233Y-118389620D01*
X83364178Y-118440872D01*
X83365000Y-118445000D01*
X83365000Y-119395000D01*
X83364178Y-119399128D01*
X83358233Y-119450379D01*
X83350501Y-119467888D01*
X83345970Y-119490671D01*
X83329672Y-119515062D01*
X83320521Y-119535788D01*
X83306365Y-119549943D01*
X83291777Y-119571777D01*
X83269943Y-119586365D01*
X83255788Y-119600521D01*
X83235062Y-119609672D01*
X83210671Y-119625970D01*
X83187888Y-119630501D01*
X83170379Y-119638233D01*
X83119129Y-119644178D01*
X83115000Y-119645000D01*
X82615000Y-119645000D01*
X82610873Y-119644179D01*
X82559620Y-119638233D01*
X82542109Y-119630501D01*
X82519329Y-119625970D01*
X82494939Y-119609673D01*
X82474211Y-119600521D01*
X82460053Y-119586363D01*
X82438223Y-119571777D01*
X82423636Y-119549946D01*
X82409478Y-119535788D01*
X82400324Y-119515057D01*
X82384030Y-119490671D01*
X82379499Y-119467892D01*
X82371766Y-119450379D01*
X82365818Y-119399117D01*
X82365000Y-119395000D01*
X82365000Y-118445000D01*
X82365818Y-118440885D01*
X82371766Y-118389620D01*
X82379499Y-118372105D01*
X82384030Y-118349329D01*
X82400323Y-118324944D01*
X82409478Y-118304211D01*
X82423638Y-118290050D01*
X82438223Y-118268223D01*
X82460050Y-118253638D01*
X82474211Y-118239478D01*
X82494944Y-118230323D01*
X82519329Y-118214030D01*
X82542105Y-118209499D01*
X82559620Y-118201766D01*
X82610884Y-118195818D01*
X82615000Y-118195000D01*
X83115000Y-118195000D01*
X83119116Y-118195818D01*
G37*
G36*
X85019116Y-118195818D02*
G01*
X85070379Y-118201766D01*
X85087892Y-118209499D01*
X85110671Y-118214030D01*
X85135057Y-118230324D01*
X85155788Y-118239478D01*
X85169946Y-118253636D01*
X85191777Y-118268223D01*
X85206363Y-118290053D01*
X85220521Y-118304211D01*
X85229673Y-118324939D01*
X85245970Y-118349329D01*
X85250501Y-118372109D01*
X85258233Y-118389620D01*
X85264178Y-118440872D01*
X85265000Y-118445000D01*
X85265000Y-119395000D01*
X85264178Y-119399128D01*
X85258233Y-119450379D01*
X85250501Y-119467888D01*
X85245970Y-119490671D01*
X85229672Y-119515062D01*
X85220521Y-119535788D01*
X85206365Y-119549943D01*
X85191777Y-119571777D01*
X85169943Y-119586365D01*
X85155788Y-119600521D01*
X85135062Y-119609672D01*
X85110671Y-119625970D01*
X85087888Y-119630501D01*
X85070379Y-119638233D01*
X85019129Y-119644178D01*
X85015000Y-119645000D01*
X84515000Y-119645000D01*
X84510873Y-119644179D01*
X84459620Y-119638233D01*
X84442109Y-119630501D01*
X84419329Y-119625970D01*
X84394939Y-119609673D01*
X84374211Y-119600521D01*
X84360053Y-119586363D01*
X84338223Y-119571777D01*
X84323636Y-119549946D01*
X84309478Y-119535788D01*
X84300324Y-119515057D01*
X84284030Y-119490671D01*
X84279499Y-119467892D01*
X84271766Y-119450379D01*
X84265818Y-119399117D01*
X84265000Y-119395000D01*
X84265000Y-118445000D01*
X84265818Y-118440885D01*
X84271766Y-118389620D01*
X84279499Y-118372105D01*
X84284030Y-118349329D01*
X84300323Y-118324944D01*
X84309478Y-118304211D01*
X84323638Y-118290050D01*
X84338223Y-118268223D01*
X84360050Y-118253638D01*
X84374211Y-118239478D01*
X84394944Y-118230323D01*
X84419329Y-118214030D01*
X84442105Y-118209499D01*
X84459620Y-118201766D01*
X84510884Y-118195818D01*
X84515000Y-118195000D01*
X85015000Y-118195000D01*
X85019116Y-118195818D01*
G37*
G36*
X78069116Y-115695818D02*
G01*
X78120379Y-115701766D01*
X78137892Y-115709499D01*
X78160671Y-115714030D01*
X78185057Y-115730324D01*
X78205788Y-115739478D01*
X78219946Y-115753636D01*
X78241777Y-115768223D01*
X78256363Y-115790053D01*
X78270521Y-115804211D01*
X78279673Y-115824939D01*
X78295970Y-115849329D01*
X78300501Y-115872109D01*
X78308233Y-115889620D01*
X78314178Y-115940872D01*
X78315000Y-115945000D01*
X78315000Y-116895000D01*
X78314178Y-116899128D01*
X78308233Y-116950379D01*
X78300501Y-116967888D01*
X78295970Y-116990671D01*
X78279672Y-117015062D01*
X78270521Y-117035788D01*
X78256365Y-117049943D01*
X78241777Y-117071777D01*
X78219943Y-117086365D01*
X78205788Y-117100521D01*
X78185062Y-117109672D01*
X78160671Y-117125970D01*
X78137888Y-117130501D01*
X78120379Y-117138233D01*
X78069129Y-117144178D01*
X78065000Y-117145000D01*
X77565000Y-117145000D01*
X77560873Y-117144179D01*
X77509620Y-117138233D01*
X77492109Y-117130501D01*
X77469329Y-117125970D01*
X77444939Y-117109673D01*
X77424211Y-117100521D01*
X77410053Y-117086363D01*
X77388223Y-117071777D01*
X77373636Y-117049946D01*
X77359478Y-117035788D01*
X77350324Y-117015057D01*
X77334030Y-116990671D01*
X77329499Y-116967892D01*
X77321766Y-116950379D01*
X77315818Y-116899117D01*
X77315000Y-116895000D01*
X77315000Y-115945000D01*
X77315818Y-115940885D01*
X77321766Y-115889620D01*
X77329499Y-115872105D01*
X77334030Y-115849329D01*
X77350323Y-115824944D01*
X77359478Y-115804211D01*
X77373638Y-115790050D01*
X77388223Y-115768223D01*
X77410050Y-115753638D01*
X77424211Y-115739478D01*
X77444944Y-115730323D01*
X77469329Y-115714030D01*
X77492105Y-115709499D01*
X77509620Y-115701766D01*
X77560884Y-115695818D01*
X77565000Y-115695000D01*
X78065000Y-115695000D01*
X78069116Y-115695818D01*
G37*
G36*
X79969116Y-115695818D02*
G01*
X80020379Y-115701766D01*
X80037892Y-115709499D01*
X80060671Y-115714030D01*
X80085057Y-115730324D01*
X80105788Y-115739478D01*
X80119946Y-115753636D01*
X80141777Y-115768223D01*
X80156363Y-115790053D01*
X80170521Y-115804211D01*
X80179673Y-115824939D01*
X80195970Y-115849329D01*
X80200501Y-115872109D01*
X80208233Y-115889620D01*
X80214178Y-115940872D01*
X80215000Y-115945000D01*
X80215000Y-116895000D01*
X80214178Y-116899128D01*
X80208233Y-116950379D01*
X80200501Y-116967888D01*
X80195970Y-116990671D01*
X80179672Y-117015062D01*
X80170521Y-117035788D01*
X80156365Y-117049943D01*
X80141777Y-117071777D01*
X80119943Y-117086365D01*
X80105788Y-117100521D01*
X80085062Y-117109672D01*
X80060671Y-117125970D01*
X80037888Y-117130501D01*
X80020379Y-117138233D01*
X79969129Y-117144178D01*
X79965000Y-117145000D01*
X79465000Y-117145000D01*
X79460873Y-117144179D01*
X79409620Y-117138233D01*
X79392109Y-117130501D01*
X79369329Y-117125970D01*
X79344939Y-117109673D01*
X79324211Y-117100521D01*
X79310053Y-117086363D01*
X79288223Y-117071777D01*
X79273636Y-117049946D01*
X79259478Y-117035788D01*
X79250324Y-117015057D01*
X79234030Y-116990671D01*
X79229499Y-116967892D01*
X79221766Y-116950379D01*
X79215818Y-116899117D01*
X79215000Y-116895000D01*
X79215000Y-115945000D01*
X79215818Y-115940885D01*
X79221766Y-115889620D01*
X79229499Y-115872105D01*
X79234030Y-115849329D01*
X79250323Y-115824944D01*
X79259478Y-115804211D01*
X79273638Y-115790050D01*
X79288223Y-115768223D01*
X79310050Y-115753638D01*
X79324211Y-115739478D01*
X79344944Y-115730323D01*
X79369329Y-115714030D01*
X79392105Y-115709499D01*
X79409620Y-115701766D01*
X79460884Y-115695818D01*
X79465000Y-115695000D01*
X79965000Y-115695000D01*
X79969116Y-115695818D01*
G37*
G36*
X114358414Y-114703852D02*
G01*
X114512228Y-114734448D01*
X114657117Y-114794463D01*
X114787515Y-114881592D01*
X114898408Y-114992485D01*
X114985537Y-115122883D01*
X115045552Y-115267772D01*
X115076148Y-115421586D01*
X115076148Y-115578414D01*
X115045552Y-115732228D01*
X114985537Y-115877117D01*
X114898408Y-116007515D01*
X114787515Y-116118408D01*
X114657117Y-116205537D01*
X114512228Y-116265552D01*
X114358414Y-116296148D01*
X114280000Y-116300000D01*
X114278749Y-116300000D01*
X113481251Y-116300000D01*
X113480000Y-116300000D01*
X113401586Y-116296148D01*
X113247772Y-116265552D01*
X113102883Y-116205537D01*
X112972485Y-116118408D01*
X112861592Y-116007515D01*
X112774463Y-115877117D01*
X112714448Y-115732228D01*
X112683852Y-115578414D01*
X112683852Y-115421586D01*
X112714448Y-115267772D01*
X112774463Y-115122883D01*
X112861592Y-114992485D01*
X112972485Y-114881592D01*
X113102883Y-114794463D01*
X113247772Y-114734448D01*
X113401586Y-114703852D01*
X113480000Y-114700000D01*
X114280000Y-114700000D01*
X114358414Y-114703852D01*
G37*
G36*
X121978414Y-114703852D02*
G01*
X122132228Y-114734448D01*
X122277117Y-114794463D01*
X122407515Y-114881592D01*
X122518408Y-114992485D01*
X122605537Y-115122883D01*
X122665552Y-115267772D01*
X122696148Y-115421586D01*
X122696148Y-115578414D01*
X122665552Y-115732228D01*
X122605537Y-115877117D01*
X122518408Y-116007515D01*
X122407515Y-116118408D01*
X122277117Y-116205537D01*
X122132228Y-116265552D01*
X121978414Y-116296148D01*
X121900000Y-116300000D01*
X121898749Y-116300000D01*
X121101251Y-116300000D01*
X121100000Y-116300000D01*
X121021586Y-116296148D01*
X120867772Y-116265552D01*
X120722883Y-116205537D01*
X120592485Y-116118408D01*
X120481592Y-116007515D01*
X120394463Y-115877117D01*
X120334448Y-115732228D01*
X120303852Y-115578414D01*
X120303852Y-115421586D01*
X120334448Y-115267772D01*
X120394463Y-115122883D01*
X120481592Y-114992485D01*
X120592485Y-114881592D01*
X120722883Y-114794463D01*
X120867772Y-114734448D01*
X121021586Y-114703852D01*
X121100000Y-114700000D01*
X121900000Y-114700000D01*
X121978414Y-114703852D01*
G37*
G36*
X67616029Y-112781992D02*
G01*
X67805312Y-112855320D01*
X67977898Y-112962181D01*
X68127910Y-113098935D01*
X68250239Y-113260925D01*
X68340719Y-113442634D01*
X68396270Y-113637876D01*
X68415000Y-113840000D01*
X68396270Y-114042124D01*
X68340719Y-114237366D01*
X68250239Y-114419075D01*
X68127910Y-114581065D01*
X67977898Y-114717819D01*
X67805312Y-114824680D01*
X67616029Y-114898008D01*
X67416495Y-114935308D01*
X67213505Y-114935308D01*
X67013971Y-114898008D01*
X66824688Y-114824680D01*
X66652102Y-114717819D01*
X66502090Y-114581065D01*
X66379761Y-114419075D01*
X66289281Y-114237366D01*
X66233730Y-114042124D01*
X66215000Y-113840000D01*
X66233730Y-113637876D01*
X66289281Y-113442634D01*
X66379761Y-113260925D01*
X66502090Y-113098935D01*
X66652102Y-112962181D01*
X66824688Y-112855320D01*
X67013971Y-112781992D01*
X67213505Y-112744692D01*
X67416495Y-112744692D01*
X67616029Y-112781992D01*
G37*
G36*
X59295000Y-114910000D02*
G01*
X55335000Y-114910000D01*
X55335000Y-112930000D01*
X59295000Y-112930000D01*
X59295000Y-114910000D01*
G37*
G36*
X128354116Y-113300818D02*
G01*
X128405379Y-113306766D01*
X128422892Y-113314499D01*
X128445671Y-113319030D01*
X128470057Y-113335324D01*
X128490788Y-113344478D01*
X128504946Y-113358636D01*
X128526777Y-113373223D01*
X128541363Y-113395053D01*
X128555521Y-113409211D01*
X128564673Y-113429939D01*
X128580970Y-113454329D01*
X128585501Y-113477109D01*
X128593233Y-113494620D01*
X128599178Y-113545872D01*
X128600000Y-113550000D01*
X128600000Y-114450000D01*
X128599178Y-114454128D01*
X128593233Y-114505379D01*
X128585501Y-114522888D01*
X128580970Y-114545671D01*
X128564672Y-114570062D01*
X128555521Y-114590788D01*
X128541365Y-114604943D01*
X128526777Y-114626777D01*
X128504943Y-114641365D01*
X128490788Y-114655521D01*
X128470062Y-114664672D01*
X128445671Y-114680970D01*
X128422888Y-114685501D01*
X128405379Y-114693233D01*
X128354129Y-114699178D01*
X128350000Y-114700000D01*
X127825000Y-114700000D01*
X127820873Y-114699179D01*
X127769620Y-114693233D01*
X127752109Y-114685501D01*
X127729329Y-114680970D01*
X127704939Y-114664673D01*
X127684211Y-114655521D01*
X127670053Y-114641363D01*
X127648223Y-114626777D01*
X127633636Y-114604946D01*
X127619478Y-114590788D01*
X127610324Y-114570057D01*
X127594030Y-114545671D01*
X127589499Y-114522892D01*
X127581766Y-114505379D01*
X127575818Y-114454117D01*
X127575000Y-114450000D01*
X127575000Y-113550000D01*
X127575818Y-113545885D01*
X127581766Y-113494620D01*
X127589499Y-113477105D01*
X127594030Y-113454329D01*
X127610323Y-113429944D01*
X127619478Y-113409211D01*
X127633638Y-113395050D01*
X127648223Y-113373223D01*
X127670050Y-113358638D01*
X127684211Y-113344478D01*
X127704944Y-113335323D01*
X127729329Y-113319030D01*
X127752105Y-113314499D01*
X127769620Y-113306766D01*
X127820884Y-113300818D01*
X127825000Y-113300000D01*
X128350000Y-113300000D01*
X128354116Y-113300818D01*
G37*
G36*
X130179116Y-113300818D02*
G01*
X130230379Y-113306766D01*
X130247892Y-113314499D01*
X130270671Y-113319030D01*
X130295057Y-113335324D01*
X130315788Y-113344478D01*
X130329946Y-113358636D01*
X130351777Y-113373223D01*
X130366363Y-113395053D01*
X130380521Y-113409211D01*
X130389673Y-113429939D01*
X130405970Y-113454329D01*
X130410501Y-113477109D01*
X130418233Y-113494620D01*
X130424178Y-113545872D01*
X130425000Y-113550000D01*
X130425000Y-114450000D01*
X130424178Y-114454128D01*
X130418233Y-114505379D01*
X130410501Y-114522888D01*
X130405970Y-114545671D01*
X130389672Y-114570062D01*
X130380521Y-114590788D01*
X130366365Y-114604943D01*
X130351777Y-114626777D01*
X130329943Y-114641365D01*
X130315788Y-114655521D01*
X130295062Y-114664672D01*
X130270671Y-114680970D01*
X130247888Y-114685501D01*
X130230379Y-114693233D01*
X130179129Y-114699178D01*
X130175000Y-114700000D01*
X129650000Y-114700000D01*
X129645873Y-114699179D01*
X129594620Y-114693233D01*
X129577109Y-114685501D01*
X129554329Y-114680970D01*
X129529939Y-114664673D01*
X129509211Y-114655521D01*
X129495053Y-114641363D01*
X129473223Y-114626777D01*
X129458636Y-114604946D01*
X129444478Y-114590788D01*
X129435324Y-114570057D01*
X129419030Y-114545671D01*
X129414499Y-114522892D01*
X129406766Y-114505379D01*
X129400818Y-114454117D01*
X129400000Y-114450000D01*
X129400000Y-113550000D01*
X129400818Y-113545885D01*
X129406766Y-113494620D01*
X129414499Y-113477105D01*
X129419030Y-113454329D01*
X129435323Y-113429944D01*
X129444478Y-113409211D01*
X129458638Y-113395050D01*
X129473223Y-113373223D01*
X129495050Y-113358638D01*
X129509211Y-113344478D01*
X129529944Y-113335323D01*
X129554329Y-113319030D01*
X129577105Y-113314499D01*
X129594620Y-113306766D01*
X129645884Y-113300818D01*
X129650000Y-113300000D01*
X130175000Y-113300000D01*
X130179116Y-113300818D01*
G37*
G36*
X132747866Y-113300818D02*
G01*
X132797698Y-113306600D01*
X132814722Y-113314117D01*
X132837029Y-113318554D01*
X132860908Y-113334510D01*
X132881006Y-113343384D01*
X132894733Y-113357111D01*
X132916107Y-113371393D01*
X132930388Y-113392766D01*
X132944115Y-113406493D01*
X132952988Y-113426588D01*
X132968946Y-113450471D01*
X132973383Y-113472779D01*
X132980899Y-113489801D01*
X132986678Y-113539621D01*
X132987500Y-113543750D01*
X132987500Y-114456250D01*
X132986678Y-114460378D01*
X132980899Y-114510198D01*
X132973383Y-114527218D01*
X132968946Y-114549529D01*
X132952986Y-114573413D01*
X132944115Y-114593506D01*
X132930390Y-114607230D01*
X132916107Y-114628607D01*
X132894730Y-114642890D01*
X132881006Y-114656615D01*
X132860913Y-114665486D01*
X132837029Y-114681446D01*
X132814718Y-114685883D01*
X132797698Y-114693399D01*
X132747879Y-114699178D01*
X132743750Y-114700000D01*
X132256250Y-114700000D01*
X132252123Y-114699179D01*
X132202301Y-114693399D01*
X132185279Y-114685883D01*
X132162971Y-114681446D01*
X132139088Y-114665488D01*
X132118993Y-114656615D01*
X132105266Y-114642888D01*
X132083893Y-114628607D01*
X132069611Y-114607233D01*
X132055884Y-114593506D01*
X132047010Y-114573408D01*
X132031054Y-114549529D01*
X132026617Y-114527222D01*
X132019100Y-114510198D01*
X132013318Y-114460367D01*
X132012500Y-114456250D01*
X132012500Y-113543750D01*
X132013318Y-113539635D01*
X132019100Y-113489801D01*
X132026617Y-113472775D01*
X132031054Y-113450471D01*
X132047008Y-113426593D01*
X132055884Y-113406493D01*
X132069613Y-113392763D01*
X132083893Y-113371393D01*
X132105263Y-113357113D01*
X132118993Y-113343384D01*
X132139093Y-113334508D01*
X132162971Y-113318554D01*
X132185275Y-113314117D01*
X132202301Y-113306600D01*
X132252134Y-113300818D01*
X132256250Y-113300000D01*
X132743750Y-113300000D01*
X132747866Y-113300818D01*
G37*
G36*
X134622866Y-113300818D02*
G01*
X134672698Y-113306600D01*
X134689722Y-113314117D01*
X134712029Y-113318554D01*
X134735908Y-113334510D01*
X134756006Y-113343384D01*
X134769733Y-113357111D01*
X134791107Y-113371393D01*
X134805388Y-113392766D01*
X134819115Y-113406493D01*
X134827988Y-113426588D01*
X134843946Y-113450471D01*
X134848383Y-113472779D01*
X134855899Y-113489801D01*
X134861678Y-113539621D01*
X134862500Y-113543750D01*
X134862500Y-114456250D01*
X134861678Y-114460378D01*
X134855899Y-114510198D01*
X134848383Y-114527218D01*
X134843946Y-114549529D01*
X134827986Y-114573413D01*
X134819115Y-114593506D01*
X134805390Y-114607230D01*
X134791107Y-114628607D01*
X134769730Y-114642890D01*
X134756006Y-114656615D01*
X134735913Y-114665486D01*
X134712029Y-114681446D01*
X134689718Y-114685883D01*
X134672698Y-114693399D01*
X134622879Y-114699178D01*
X134618750Y-114700000D01*
X134131250Y-114700000D01*
X134127123Y-114699179D01*
X134077301Y-114693399D01*
X134060279Y-114685883D01*
X134037971Y-114681446D01*
X134014088Y-114665488D01*
X133993993Y-114656615D01*
X133980266Y-114642888D01*
X133958893Y-114628607D01*
X133944611Y-114607233D01*
X133930884Y-114593506D01*
X133922010Y-114573408D01*
X133906054Y-114549529D01*
X133901617Y-114527222D01*
X133894100Y-114510198D01*
X133888318Y-114460367D01*
X133887500Y-114456250D01*
X133887500Y-113543750D01*
X133888318Y-113539635D01*
X133894100Y-113489801D01*
X133901617Y-113472775D01*
X133906054Y-113450471D01*
X133922008Y-113426593D01*
X133930884Y-113406493D01*
X133944613Y-113392763D01*
X133958893Y-113371393D01*
X133980263Y-113357113D01*
X133993993Y-113343384D01*
X134014093Y-113334508D01*
X134037971Y-113318554D01*
X134060275Y-113314117D01*
X134077301Y-113306600D01*
X134127134Y-113300818D01*
X134131250Y-113300000D01*
X134618750Y-113300000D01*
X134622866Y-113300818D01*
G37*
G36*
X104854116Y-112388318D02*
G01*
X104905379Y-112394266D01*
X104922892Y-112401999D01*
X104945671Y-112406530D01*
X104970057Y-112422824D01*
X104990788Y-112431978D01*
X105004946Y-112446136D01*
X105026777Y-112460723D01*
X105041363Y-112482553D01*
X105055521Y-112496711D01*
X105064673Y-112517439D01*
X105080970Y-112541829D01*
X105085501Y-112564609D01*
X105093233Y-112582120D01*
X105099178Y-112633372D01*
X105100000Y-112637500D01*
X105100000Y-113537500D01*
X105099178Y-113541628D01*
X105093233Y-113592879D01*
X105085501Y-113610388D01*
X105080970Y-113633171D01*
X105064672Y-113657562D01*
X105055521Y-113678288D01*
X105041365Y-113692443D01*
X105026777Y-113714277D01*
X105004943Y-113728865D01*
X104990788Y-113743021D01*
X104970062Y-113752172D01*
X104945671Y-113768470D01*
X104922888Y-113773001D01*
X104905379Y-113780733D01*
X104854129Y-113786678D01*
X104850000Y-113787500D01*
X104325000Y-113787500D01*
X104320873Y-113786679D01*
X104269620Y-113780733D01*
X104252109Y-113773001D01*
X104229329Y-113768470D01*
X104204939Y-113752173D01*
X104184211Y-113743021D01*
X104170053Y-113728863D01*
X104148223Y-113714277D01*
X104133636Y-113692446D01*
X104119478Y-113678288D01*
X104110324Y-113657557D01*
X104094030Y-113633171D01*
X104089499Y-113610392D01*
X104081766Y-113592879D01*
X104075818Y-113541617D01*
X104075000Y-113537500D01*
X104075000Y-112637500D01*
X104075818Y-112633385D01*
X104081766Y-112582120D01*
X104089499Y-112564605D01*
X104094030Y-112541829D01*
X104110323Y-112517444D01*
X104119478Y-112496711D01*
X104133638Y-112482550D01*
X104148223Y-112460723D01*
X104170050Y-112446138D01*
X104184211Y-112431978D01*
X104204944Y-112422823D01*
X104229329Y-112406530D01*
X104252105Y-112401999D01*
X104269620Y-112394266D01*
X104320884Y-112388318D01*
X104325000Y-112387500D01*
X104850000Y-112387500D01*
X104854116Y-112388318D01*
G37*
G36*
X106679116Y-112388318D02*
G01*
X106730379Y-112394266D01*
X106747892Y-112401999D01*
X106770671Y-112406530D01*
X106795057Y-112422824D01*
X106815788Y-112431978D01*
X106829946Y-112446136D01*
X106851777Y-112460723D01*
X106866363Y-112482553D01*
X106880521Y-112496711D01*
X106889673Y-112517439D01*
X106905970Y-112541829D01*
X106910501Y-112564609D01*
X106918233Y-112582120D01*
X106924178Y-112633372D01*
X106925000Y-112637500D01*
X106925000Y-113537500D01*
X106924178Y-113541628D01*
X106918233Y-113592879D01*
X106910501Y-113610388D01*
X106905970Y-113633171D01*
X106889672Y-113657562D01*
X106880521Y-113678288D01*
X106866365Y-113692443D01*
X106851777Y-113714277D01*
X106829943Y-113728865D01*
X106815788Y-113743021D01*
X106795062Y-113752172D01*
X106770671Y-113768470D01*
X106747888Y-113773001D01*
X106730379Y-113780733D01*
X106679129Y-113786678D01*
X106675000Y-113787500D01*
X106150000Y-113787500D01*
X106145873Y-113786679D01*
X106094620Y-113780733D01*
X106077109Y-113773001D01*
X106054329Y-113768470D01*
X106029939Y-113752173D01*
X106009211Y-113743021D01*
X105995053Y-113728863D01*
X105973223Y-113714277D01*
X105958636Y-113692446D01*
X105944478Y-113678288D01*
X105935324Y-113657557D01*
X105919030Y-113633171D01*
X105914499Y-113610392D01*
X105906766Y-113592879D01*
X105900818Y-113541617D01*
X105900000Y-113537500D01*
X105900000Y-112637500D01*
X105900818Y-112633385D01*
X105906766Y-112582120D01*
X105914499Y-112564605D01*
X105919030Y-112541829D01*
X105935323Y-112517444D01*
X105944478Y-112496711D01*
X105958638Y-112482550D01*
X105973223Y-112460723D01*
X105995050Y-112446138D01*
X106009211Y-112431978D01*
X106029944Y-112422823D01*
X106054329Y-112406530D01*
X106077105Y-112401999D01*
X106094620Y-112394266D01*
X106145884Y-112388318D01*
X106150000Y-112387500D01*
X106675000Y-112387500D01*
X106679116Y-112388318D01*
G37*
G36*
X114358414Y-112163852D02*
G01*
X114512228Y-112194448D01*
X114657117Y-112254463D01*
X114787515Y-112341592D01*
X114898408Y-112452485D01*
X114985537Y-112582883D01*
X115045552Y-112727772D01*
X115076148Y-112881586D01*
X115076148Y-113038414D01*
X115045552Y-113192228D01*
X114985537Y-113337117D01*
X114898408Y-113467515D01*
X114787515Y-113578408D01*
X114657117Y-113665537D01*
X114512228Y-113725552D01*
X114358414Y-113756148D01*
X114280000Y-113760000D01*
X114278749Y-113760000D01*
X113481251Y-113760000D01*
X113480000Y-113760000D01*
X113401586Y-113756148D01*
X113247772Y-113725552D01*
X113102883Y-113665537D01*
X112972485Y-113578408D01*
X112861592Y-113467515D01*
X112774463Y-113337117D01*
X112714448Y-113192228D01*
X112683852Y-113038414D01*
X112683852Y-112881586D01*
X112714448Y-112727772D01*
X112774463Y-112582883D01*
X112861592Y-112452485D01*
X112972485Y-112341592D01*
X113102883Y-112254463D01*
X113247772Y-112194448D01*
X113401586Y-112163852D01*
X113480000Y-112160000D01*
X114280000Y-112160000D01*
X114358414Y-112163852D01*
G37*
G36*
X121978414Y-112163852D02*
G01*
X122132228Y-112194448D01*
X122277117Y-112254463D01*
X122407515Y-112341592D01*
X122518408Y-112452485D01*
X122605537Y-112582883D01*
X122665552Y-112727772D01*
X122696148Y-112881586D01*
X122696148Y-113038414D01*
X122665552Y-113192228D01*
X122605537Y-113337117D01*
X122518408Y-113467515D01*
X122407515Y-113578408D01*
X122277117Y-113665537D01*
X122132228Y-113725552D01*
X121978414Y-113756148D01*
X121900000Y-113760000D01*
X121898749Y-113760000D01*
X121101251Y-113760000D01*
X121100000Y-113760000D01*
X121021586Y-113756148D01*
X120867772Y-113725552D01*
X120722883Y-113665537D01*
X120592485Y-113578408D01*
X120481592Y-113467515D01*
X120394463Y-113337117D01*
X120334448Y-113192228D01*
X120303852Y-113038414D01*
X120303852Y-112881586D01*
X120334448Y-112727772D01*
X120394463Y-112582883D01*
X120481592Y-112452485D01*
X120592485Y-112341592D01*
X120722883Y-112254463D01*
X120867772Y-112194448D01*
X121021586Y-112163852D01*
X121100000Y-112160000D01*
X121900000Y-112160000D01*
X121978414Y-112163852D01*
G37*
G36*
X99310366Y-112300818D02*
G01*
X99360198Y-112306600D01*
X99377222Y-112314117D01*
X99399529Y-112318554D01*
X99423408Y-112334510D01*
X99443506Y-112343384D01*
X99457233Y-112357111D01*
X99478607Y-112371393D01*
X99492888Y-112392766D01*
X99506615Y-112406493D01*
X99515488Y-112426588D01*
X99531446Y-112450471D01*
X99535883Y-112472779D01*
X99543399Y-112489801D01*
X99549178Y-112539621D01*
X99550000Y-112543750D01*
X99550000Y-113456250D01*
X99549178Y-113460378D01*
X99543399Y-113510198D01*
X99535883Y-113527218D01*
X99531446Y-113549529D01*
X99515486Y-113573413D01*
X99506615Y-113593506D01*
X99492890Y-113607230D01*
X99478607Y-113628607D01*
X99457230Y-113642890D01*
X99443506Y-113656615D01*
X99423413Y-113665486D01*
X99399529Y-113681446D01*
X99377218Y-113685883D01*
X99360198Y-113693399D01*
X99310379Y-113699178D01*
X99306250Y-113700000D01*
X98818750Y-113700000D01*
X98814623Y-113699179D01*
X98764801Y-113693399D01*
X98747779Y-113685883D01*
X98725471Y-113681446D01*
X98701588Y-113665488D01*
X98681493Y-113656615D01*
X98667766Y-113642888D01*
X98646393Y-113628607D01*
X98632111Y-113607233D01*
X98618384Y-113593506D01*
X98609510Y-113573408D01*
X98593554Y-113549529D01*
X98589117Y-113527222D01*
X98581600Y-113510198D01*
X98575818Y-113460367D01*
X98575000Y-113456250D01*
X98575000Y-112543750D01*
X98575818Y-112539635D01*
X98581600Y-112489801D01*
X98589117Y-112472775D01*
X98593554Y-112450471D01*
X98609508Y-112426593D01*
X98618384Y-112406493D01*
X98632113Y-112392763D01*
X98646393Y-112371393D01*
X98667763Y-112357113D01*
X98681493Y-112343384D01*
X98701593Y-112334508D01*
X98725471Y-112318554D01*
X98747775Y-112314117D01*
X98764801Y-112306600D01*
X98814634Y-112300818D01*
X98818750Y-112300000D01*
X99306250Y-112300000D01*
X99310366Y-112300818D01*
G37*
G36*
X101185366Y-112300818D02*
G01*
X101235198Y-112306600D01*
X101252222Y-112314117D01*
X101274529Y-112318554D01*
X101298408Y-112334510D01*
X101318506Y-112343384D01*
X101332233Y-112357111D01*
X101353607Y-112371393D01*
X101367888Y-112392766D01*
X101381615Y-112406493D01*
X101390488Y-112426588D01*
X101406446Y-112450471D01*
X101410883Y-112472779D01*
X101418399Y-112489801D01*
X101424178Y-112539621D01*
X101425000Y-112543750D01*
X101425000Y-113456250D01*
X101424178Y-113460378D01*
X101418399Y-113510198D01*
X101410883Y-113527218D01*
X101406446Y-113549529D01*
X101390486Y-113573413D01*
X101381615Y-113593506D01*
X101367890Y-113607230D01*
X101353607Y-113628607D01*
X101332230Y-113642890D01*
X101318506Y-113656615D01*
X101298413Y-113665486D01*
X101274529Y-113681446D01*
X101252218Y-113685883D01*
X101235198Y-113693399D01*
X101185379Y-113699178D01*
X101181250Y-113700000D01*
X100693750Y-113700000D01*
X100689623Y-113699179D01*
X100639801Y-113693399D01*
X100622779Y-113685883D01*
X100600471Y-113681446D01*
X100576588Y-113665488D01*
X100556493Y-113656615D01*
X100542766Y-113642888D01*
X100521393Y-113628607D01*
X100507111Y-113607233D01*
X100493384Y-113593506D01*
X100484510Y-113573408D01*
X100468554Y-113549529D01*
X100464117Y-113527222D01*
X100456600Y-113510198D01*
X100450818Y-113460367D01*
X100450000Y-113456250D01*
X100450000Y-112543750D01*
X100450818Y-112539635D01*
X100456600Y-112489801D01*
X100464117Y-112472775D01*
X100468554Y-112450471D01*
X100484508Y-112426593D01*
X100493384Y-112406493D01*
X100507113Y-112392763D01*
X100521393Y-112371393D01*
X100542763Y-112357113D01*
X100556493Y-112343384D01*
X100576593Y-112334508D01*
X100600471Y-112318554D01*
X100622775Y-112314117D01*
X100639801Y-112306600D01*
X100689634Y-112300818D01*
X100693750Y-112300000D01*
X101181250Y-112300000D01*
X101185366Y-112300818D01*
G37*
G36*
X77222403Y-113036418D02*
G01*
X77271066Y-113068934D01*
X77303582Y-113117597D01*
X77315000Y-113175000D01*
X77315000Y-113475000D01*
X77303582Y-113532403D01*
X77271066Y-113581066D01*
X77222403Y-113613582D01*
X77165000Y-113625000D01*
X75515000Y-113625000D01*
X75457597Y-113613582D01*
X75408934Y-113581066D01*
X75376418Y-113532403D01*
X75365000Y-113475000D01*
X75365000Y-113175000D01*
X75376418Y-113117597D01*
X75408934Y-113068934D01*
X75457597Y-113036418D01*
X75515000Y-113025000D01*
X77165000Y-113025000D01*
X77222403Y-113036418D01*
G37*
G36*
X82172403Y-113036418D02*
G01*
X82221066Y-113068934D01*
X82253582Y-113117597D01*
X82265000Y-113175000D01*
X82265000Y-113475000D01*
X82253582Y-113532403D01*
X82221066Y-113581066D01*
X82172403Y-113613582D01*
X82115000Y-113625000D01*
X80465000Y-113625000D01*
X80407597Y-113613582D01*
X80358934Y-113581066D01*
X80326418Y-113532403D01*
X80315000Y-113475000D01*
X80315000Y-113175000D01*
X80326418Y-113117597D01*
X80358934Y-113068934D01*
X80407597Y-113036418D01*
X80465000Y-113025000D01*
X82115000Y-113025000D01*
X82172403Y-113036418D01*
G37*
G36*
X72769116Y-111408318D02*
G01*
X72820379Y-111414266D01*
X72837892Y-111421999D01*
X72860671Y-111426530D01*
X72885057Y-111442824D01*
X72905788Y-111451978D01*
X72919946Y-111466136D01*
X72941777Y-111480723D01*
X72956363Y-111502553D01*
X72970521Y-111516711D01*
X72979673Y-111537439D01*
X72995970Y-111561829D01*
X73000501Y-111584609D01*
X73008233Y-111602120D01*
X73014178Y-111653372D01*
X73015000Y-111657500D01*
X73015000Y-112182500D01*
X73014178Y-112186628D01*
X73008233Y-112237879D01*
X73000501Y-112255388D01*
X72995970Y-112278171D01*
X72979672Y-112302562D01*
X72970521Y-112323288D01*
X72956365Y-112337443D01*
X72941777Y-112359277D01*
X72919943Y-112373865D01*
X72905788Y-112388021D01*
X72885062Y-112397172D01*
X72860671Y-112413470D01*
X72837888Y-112418001D01*
X72820379Y-112425733D01*
X72769129Y-112431678D01*
X72765000Y-112432500D01*
X71865000Y-112432500D01*
X71860873Y-112431679D01*
X71809620Y-112425733D01*
X71792109Y-112418001D01*
X71769329Y-112413470D01*
X71744939Y-112397173D01*
X71724211Y-112388021D01*
X71710053Y-112373863D01*
X71688223Y-112359277D01*
X71673636Y-112337446D01*
X71659478Y-112323288D01*
X71650324Y-112302557D01*
X71634030Y-112278171D01*
X71629499Y-112255392D01*
X71621766Y-112237879D01*
X71615818Y-112186617D01*
X71615000Y-112182500D01*
X71615000Y-111657500D01*
X71615818Y-111653385D01*
X71621766Y-111602120D01*
X71629499Y-111584605D01*
X71634030Y-111561829D01*
X71650323Y-111537444D01*
X71659478Y-111516711D01*
X71673638Y-111502550D01*
X71688223Y-111480723D01*
X71710050Y-111466138D01*
X71724211Y-111451978D01*
X71744944Y-111442823D01*
X71769329Y-111426530D01*
X71792105Y-111421999D01*
X71809620Y-111414266D01*
X71860884Y-111408318D01*
X71865000Y-111407500D01*
X72765000Y-111407500D01*
X72769116Y-111408318D01*
G37*
G36*
X77222403Y-111766418D02*
G01*
X77271066Y-111798934D01*
X77303582Y-111847597D01*
X77315000Y-111905000D01*
X77315000Y-112205000D01*
X77303582Y-112262403D01*
X77271066Y-112311066D01*
X77222403Y-112343582D01*
X77165000Y-112355000D01*
X75515000Y-112355000D01*
X75457597Y-112343582D01*
X75408934Y-112311066D01*
X75376418Y-112262403D01*
X75365000Y-112205000D01*
X75365000Y-111905000D01*
X75376418Y-111847597D01*
X75408934Y-111798934D01*
X75457597Y-111766418D01*
X75515000Y-111755000D01*
X77165000Y-111755000D01*
X77222403Y-111766418D01*
G37*
G36*
X82172403Y-111766418D02*
G01*
X82221066Y-111798934D01*
X82253582Y-111847597D01*
X82265000Y-111905000D01*
X82265000Y-112205000D01*
X82253582Y-112262403D01*
X82221066Y-112311066D01*
X82172403Y-112343582D01*
X82115000Y-112355000D01*
X80465000Y-112355000D01*
X80407597Y-112343582D01*
X80358934Y-112311066D01*
X80326418Y-112262403D01*
X80315000Y-112205000D01*
X80315000Y-111905000D01*
X80326418Y-111847597D01*
X80358934Y-111798934D01*
X80407597Y-111766418D01*
X80465000Y-111755000D01*
X82115000Y-111755000D01*
X82172403Y-111766418D01*
G37*
G36*
X85769116Y-111320818D02*
G01*
X85820379Y-111326766D01*
X85837892Y-111334499D01*
X85860671Y-111339030D01*
X85885057Y-111355324D01*
X85905788Y-111364478D01*
X85919946Y-111378636D01*
X85941777Y-111393223D01*
X85956363Y-111415053D01*
X85970521Y-111429211D01*
X85979673Y-111449939D01*
X85995970Y-111474329D01*
X86000501Y-111497109D01*
X86008233Y-111514620D01*
X86014178Y-111565872D01*
X86015000Y-111570000D01*
X86015000Y-112095000D01*
X86014178Y-112099128D01*
X86008233Y-112150379D01*
X86000501Y-112167888D01*
X85995970Y-112190671D01*
X85979672Y-112215062D01*
X85970521Y-112235788D01*
X85956365Y-112249943D01*
X85941777Y-112271777D01*
X85919943Y-112286365D01*
X85905788Y-112300521D01*
X85885062Y-112309672D01*
X85860671Y-112325970D01*
X85837888Y-112330501D01*
X85820379Y-112338233D01*
X85769129Y-112344178D01*
X85765000Y-112345000D01*
X84865000Y-112345000D01*
X84860873Y-112344179D01*
X84809620Y-112338233D01*
X84792109Y-112330501D01*
X84769329Y-112325970D01*
X84744939Y-112309673D01*
X84724211Y-112300521D01*
X84710053Y-112286363D01*
X84688223Y-112271777D01*
X84673636Y-112249946D01*
X84659478Y-112235788D01*
X84650324Y-112215057D01*
X84634030Y-112190671D01*
X84629499Y-112167892D01*
X84621766Y-112150379D01*
X84615818Y-112099117D01*
X84615000Y-112095000D01*
X84615000Y-111570000D01*
X84615818Y-111565885D01*
X84621766Y-111514620D01*
X84629499Y-111497105D01*
X84634030Y-111474329D01*
X84650323Y-111449944D01*
X84659478Y-111429211D01*
X84673638Y-111415050D01*
X84688223Y-111393223D01*
X84710050Y-111378638D01*
X84724211Y-111364478D01*
X84744944Y-111355323D01*
X84769329Y-111339030D01*
X84792105Y-111334499D01*
X84809620Y-111326766D01*
X84860884Y-111320818D01*
X84865000Y-111320000D01*
X85765000Y-111320000D01*
X85769116Y-111320818D01*
G37*
G36*
X114358414Y-109623852D02*
G01*
X114512228Y-109654448D01*
X114657117Y-109714463D01*
X114787515Y-109801592D01*
X114898408Y-109912485D01*
X114985537Y-110042883D01*
X115045552Y-110187772D01*
X115076148Y-110341586D01*
X115076148Y-110498414D01*
X115045552Y-110652228D01*
X114985537Y-110797117D01*
X114898408Y-110927515D01*
X114787515Y-111038408D01*
X114657117Y-111125537D01*
X114512228Y-111185552D01*
X114358414Y-111216148D01*
X114280000Y-111220000D01*
X114278749Y-111220000D01*
X113481251Y-111220000D01*
X113480000Y-111220000D01*
X113401586Y-111216148D01*
X113247772Y-111185552D01*
X113102883Y-111125537D01*
X112972485Y-111038408D01*
X112861592Y-110927515D01*
X112774463Y-110797117D01*
X112714448Y-110652228D01*
X112683852Y-110498414D01*
X112683852Y-110341586D01*
X112714448Y-110187772D01*
X112774463Y-110042883D01*
X112861592Y-109912485D01*
X112972485Y-109801592D01*
X113102883Y-109714463D01*
X113247772Y-109654448D01*
X113401586Y-109623852D01*
X113480000Y-109620000D01*
X114280000Y-109620000D01*
X114358414Y-109623852D01*
G37*
G36*
X121978414Y-109623852D02*
G01*
X122132228Y-109654448D01*
X122277117Y-109714463D01*
X122407515Y-109801592D01*
X122518408Y-109912485D01*
X122605537Y-110042883D01*
X122665552Y-110187772D01*
X122696148Y-110341586D01*
X122696148Y-110498414D01*
X122665552Y-110652228D01*
X122605537Y-110797117D01*
X122518408Y-110927515D01*
X122407515Y-111038408D01*
X122277117Y-111125537D01*
X122132228Y-111185552D01*
X121978414Y-111216148D01*
X121900000Y-111220000D01*
X121898749Y-111220000D01*
X121101251Y-111220000D01*
X121100000Y-111220000D01*
X121021586Y-111216148D01*
X120867772Y-111185552D01*
X120722883Y-111125537D01*
X120592485Y-111038408D01*
X120481592Y-110927515D01*
X120394463Y-110797117D01*
X120334448Y-110652228D01*
X120303852Y-110498414D01*
X120303852Y-110341586D01*
X120334448Y-110187772D01*
X120394463Y-110042883D01*
X120481592Y-109912485D01*
X120592485Y-109801592D01*
X120722883Y-109714463D01*
X120867772Y-109654448D01*
X121021586Y-109623852D01*
X121100000Y-109620000D01*
X121900000Y-109620000D01*
X121978414Y-109623852D01*
G37*
G36*
X77222403Y-110496418D02*
G01*
X77271066Y-110528934D01*
X77303582Y-110577597D01*
X77315000Y-110635000D01*
X77315000Y-110935000D01*
X77303582Y-110992403D01*
X77271066Y-111041066D01*
X77222403Y-111073582D01*
X77165000Y-111085000D01*
X75515000Y-111085000D01*
X75457597Y-111073582D01*
X75408934Y-111041066D01*
X75376418Y-110992403D01*
X75365000Y-110935000D01*
X75365000Y-110635000D01*
X75376418Y-110577597D01*
X75408934Y-110528934D01*
X75457597Y-110496418D01*
X75515000Y-110485000D01*
X77165000Y-110485000D01*
X77222403Y-110496418D01*
G37*
G36*
X82172403Y-110496418D02*
G01*
X82221066Y-110528934D01*
X82253582Y-110577597D01*
X82265000Y-110635000D01*
X82265000Y-110935000D01*
X82253582Y-110992403D01*
X82221066Y-111041066D01*
X82172403Y-111073582D01*
X82115000Y-111085000D01*
X80465000Y-111085000D01*
X80407597Y-111073582D01*
X80358934Y-111041066D01*
X80326418Y-110992403D01*
X80315000Y-110935000D01*
X80315000Y-110635000D01*
X80326418Y-110577597D01*
X80358934Y-110528934D01*
X80407597Y-110496418D01*
X80465000Y-110485000D01*
X82115000Y-110485000D01*
X82172403Y-110496418D01*
G37*
G36*
X72769116Y-109583318D02*
G01*
X72820379Y-109589266D01*
X72837892Y-109596999D01*
X72860671Y-109601530D01*
X72885057Y-109617824D01*
X72905788Y-109626978D01*
X72919946Y-109641136D01*
X72941777Y-109655723D01*
X72956363Y-109677553D01*
X72970521Y-109691711D01*
X72979673Y-109712439D01*
X72995970Y-109736829D01*
X73000501Y-109759609D01*
X73008233Y-109777120D01*
X73014178Y-109828372D01*
X73015000Y-109832500D01*
X73015000Y-110357500D01*
X73014178Y-110361628D01*
X73008233Y-110412879D01*
X73000501Y-110430388D01*
X72995970Y-110453171D01*
X72979672Y-110477562D01*
X72970521Y-110498288D01*
X72956365Y-110512443D01*
X72941777Y-110534277D01*
X72919943Y-110548865D01*
X72905788Y-110563021D01*
X72885062Y-110572172D01*
X72860671Y-110588470D01*
X72837888Y-110593001D01*
X72820379Y-110600733D01*
X72769129Y-110606678D01*
X72765000Y-110607500D01*
X71865000Y-110607500D01*
X71860873Y-110606679D01*
X71809620Y-110600733D01*
X71792109Y-110593001D01*
X71769329Y-110588470D01*
X71744939Y-110572173D01*
X71724211Y-110563021D01*
X71710053Y-110548863D01*
X71688223Y-110534277D01*
X71673636Y-110512446D01*
X71659478Y-110498288D01*
X71650324Y-110477557D01*
X71634030Y-110453171D01*
X71629499Y-110430392D01*
X71621766Y-110412879D01*
X71615818Y-110361617D01*
X71615000Y-110357500D01*
X71615000Y-109832500D01*
X71615818Y-109828385D01*
X71621766Y-109777120D01*
X71629499Y-109759605D01*
X71634030Y-109736829D01*
X71650323Y-109712444D01*
X71659478Y-109691711D01*
X71673638Y-109677550D01*
X71688223Y-109655723D01*
X71710050Y-109641138D01*
X71724211Y-109626978D01*
X71744944Y-109617823D01*
X71769329Y-109601530D01*
X71792105Y-109596999D01*
X71809620Y-109589266D01*
X71860884Y-109583318D01*
X71865000Y-109582500D01*
X72765000Y-109582500D01*
X72769116Y-109583318D01*
G37*
G36*
X85769116Y-109495818D02*
G01*
X85820379Y-109501766D01*
X85837892Y-109509499D01*
X85860671Y-109514030D01*
X85885057Y-109530324D01*
X85905788Y-109539478D01*
X85919946Y-109553636D01*
X85941777Y-109568223D01*
X85956363Y-109590053D01*
X85970521Y-109604211D01*
X85979673Y-109624939D01*
X85995970Y-109649329D01*
X86000501Y-109672109D01*
X86008233Y-109689620D01*
X86014178Y-109740872D01*
X86015000Y-109745000D01*
X86015000Y-110270000D01*
X86014178Y-110274128D01*
X86008233Y-110325379D01*
X86000501Y-110342888D01*
X85995970Y-110365671D01*
X85979672Y-110390062D01*
X85970521Y-110410788D01*
X85956365Y-110424943D01*
X85941777Y-110446777D01*
X85919943Y-110461365D01*
X85905788Y-110475521D01*
X85885062Y-110484672D01*
X85860671Y-110500970D01*
X85837888Y-110505501D01*
X85820379Y-110513233D01*
X85769129Y-110519178D01*
X85765000Y-110520000D01*
X84865000Y-110520000D01*
X84860873Y-110519179D01*
X84809620Y-110513233D01*
X84792109Y-110505501D01*
X84769329Y-110500970D01*
X84744939Y-110484673D01*
X84724211Y-110475521D01*
X84710053Y-110461363D01*
X84688223Y-110446777D01*
X84673636Y-110424946D01*
X84659478Y-110410788D01*
X84650324Y-110390057D01*
X84634030Y-110365671D01*
X84629499Y-110342892D01*
X84621766Y-110325379D01*
X84615818Y-110274117D01*
X84615000Y-110270000D01*
X84615000Y-109745000D01*
X84615818Y-109740885D01*
X84621766Y-109689620D01*
X84629499Y-109672105D01*
X84634030Y-109649329D01*
X84650323Y-109624944D01*
X84659478Y-109604211D01*
X84673638Y-109590050D01*
X84688223Y-109568223D01*
X84710050Y-109553638D01*
X84724211Y-109539478D01*
X84744944Y-109530323D01*
X84769329Y-109514030D01*
X84792105Y-109509499D01*
X84809620Y-109501766D01*
X84860884Y-109495818D01*
X84865000Y-109495000D01*
X85765000Y-109495000D01*
X85769116Y-109495818D01*
G37*
G36*
X77222403Y-109226418D02*
G01*
X77271066Y-109258934D01*
X77303582Y-109307597D01*
X77315000Y-109365000D01*
X77315000Y-109665000D01*
X77303582Y-109722403D01*
X77271066Y-109771066D01*
X77222403Y-109803582D01*
X77165000Y-109815000D01*
X75515000Y-109815000D01*
X75457597Y-109803582D01*
X75408934Y-109771066D01*
X75376418Y-109722403D01*
X75365000Y-109665000D01*
X75365000Y-109365000D01*
X75376418Y-109307597D01*
X75408934Y-109258934D01*
X75457597Y-109226418D01*
X75515000Y-109215000D01*
X77165000Y-109215000D01*
X77222403Y-109226418D01*
G37*
G36*
X82172403Y-109226418D02*
G01*
X82221066Y-109258934D01*
X82253582Y-109307597D01*
X82265000Y-109365000D01*
X82265000Y-109665000D01*
X82253582Y-109722403D01*
X82221066Y-109771066D01*
X82172403Y-109803582D01*
X82115000Y-109815000D01*
X80465000Y-109815000D01*
X80407597Y-109803582D01*
X80358934Y-109771066D01*
X80326418Y-109722403D01*
X80315000Y-109665000D01*
X80315000Y-109365000D01*
X80326418Y-109307597D01*
X80358934Y-109258934D01*
X80407597Y-109226418D01*
X80465000Y-109215000D01*
X82115000Y-109215000D01*
X82172403Y-109226418D01*
G37*
G36*
X104804116Y-107275818D02*
G01*
X104855379Y-107281766D01*
X104872892Y-107289499D01*
X104895671Y-107294030D01*
X104920057Y-107310324D01*
X104940788Y-107319478D01*
X104954946Y-107333636D01*
X104976777Y-107348223D01*
X104991363Y-107370053D01*
X105005521Y-107384211D01*
X105014673Y-107404939D01*
X105030970Y-107429329D01*
X105035501Y-107452109D01*
X105043233Y-107469620D01*
X105049178Y-107520872D01*
X105050000Y-107525000D01*
X105050000Y-108475000D01*
X105049178Y-108479128D01*
X105043233Y-108530379D01*
X105035501Y-108547888D01*
X105030970Y-108570671D01*
X105014672Y-108595062D01*
X105005521Y-108615788D01*
X104991365Y-108629943D01*
X104976777Y-108651777D01*
X104954943Y-108666365D01*
X104940788Y-108680521D01*
X104920062Y-108689672D01*
X104895671Y-108705970D01*
X104872888Y-108710501D01*
X104855379Y-108718233D01*
X104804129Y-108724178D01*
X104800000Y-108725000D01*
X104300000Y-108725000D01*
X104295873Y-108724179D01*
X104244620Y-108718233D01*
X104227109Y-108710501D01*
X104204329Y-108705970D01*
X104179939Y-108689673D01*
X104159211Y-108680521D01*
X104145053Y-108666363D01*
X104123223Y-108651777D01*
X104108636Y-108629946D01*
X104094478Y-108615788D01*
X104085324Y-108595057D01*
X104069030Y-108570671D01*
X104064499Y-108547892D01*
X104056766Y-108530379D01*
X104050818Y-108479117D01*
X104050000Y-108475000D01*
X104050000Y-107525000D01*
X104050818Y-107520885D01*
X104056766Y-107469620D01*
X104064499Y-107452105D01*
X104069030Y-107429329D01*
X104085323Y-107404944D01*
X104094478Y-107384211D01*
X104108638Y-107370050D01*
X104123223Y-107348223D01*
X104145050Y-107333638D01*
X104159211Y-107319478D01*
X104179944Y-107310323D01*
X104204329Y-107294030D01*
X104227105Y-107289499D01*
X104244620Y-107281766D01*
X104295884Y-107275818D01*
X104300000Y-107275000D01*
X104800000Y-107275000D01*
X104804116Y-107275818D01*
G37*
G36*
X106704116Y-107275818D02*
G01*
X106755379Y-107281766D01*
X106772892Y-107289499D01*
X106795671Y-107294030D01*
X106820057Y-107310324D01*
X106840788Y-107319478D01*
X106854946Y-107333636D01*
X106876777Y-107348223D01*
X106891363Y-107370053D01*
X106905521Y-107384211D01*
X106914673Y-107404939D01*
X106930970Y-107429329D01*
X106935501Y-107452109D01*
X106943233Y-107469620D01*
X106949178Y-107520872D01*
X106950000Y-107525000D01*
X106950000Y-108475000D01*
X106949178Y-108479128D01*
X106943233Y-108530379D01*
X106935501Y-108547888D01*
X106930970Y-108570671D01*
X106914672Y-108595062D01*
X106905521Y-108615788D01*
X106891365Y-108629943D01*
X106876777Y-108651777D01*
X106854943Y-108666365D01*
X106840788Y-108680521D01*
X106820062Y-108689672D01*
X106795671Y-108705970D01*
X106772888Y-108710501D01*
X106755379Y-108718233D01*
X106704129Y-108724178D01*
X106700000Y-108725000D01*
X106200000Y-108725000D01*
X106195873Y-108724179D01*
X106144620Y-108718233D01*
X106127109Y-108710501D01*
X106104329Y-108705970D01*
X106079939Y-108689673D01*
X106059211Y-108680521D01*
X106045053Y-108666363D01*
X106023223Y-108651777D01*
X106008636Y-108629946D01*
X105994478Y-108615788D01*
X105985324Y-108595057D01*
X105969030Y-108570671D01*
X105964499Y-108547892D01*
X105956766Y-108530379D01*
X105950818Y-108479117D01*
X105950000Y-108475000D01*
X105950000Y-107525000D01*
X105950818Y-107520885D01*
X105956766Y-107469620D01*
X105964499Y-107452105D01*
X105969030Y-107429329D01*
X105985323Y-107404944D01*
X105994478Y-107384211D01*
X106008638Y-107370050D01*
X106023223Y-107348223D01*
X106045050Y-107333638D01*
X106059211Y-107319478D01*
X106079944Y-107310323D01*
X106104329Y-107294030D01*
X106127105Y-107289499D01*
X106144620Y-107281766D01*
X106195884Y-107275818D01*
X106200000Y-107275000D01*
X106700000Y-107275000D01*
X106704116Y-107275818D01*
G37*
G36*
X114358414Y-107083852D02*
G01*
X114512228Y-107114448D01*
X114657117Y-107174463D01*
X114787515Y-107261592D01*
X114898408Y-107372485D01*
X114985537Y-107502883D01*
X115045552Y-107647772D01*
X115076148Y-107801586D01*
X115076148Y-107958414D01*
X115045552Y-108112228D01*
X114985537Y-108257117D01*
X114898408Y-108387515D01*
X114787515Y-108498408D01*
X114657117Y-108585537D01*
X114512228Y-108645552D01*
X114358414Y-108676148D01*
X114280000Y-108680000D01*
X114278749Y-108680000D01*
X113481251Y-108680000D01*
X113480000Y-108680000D01*
X113401586Y-108676148D01*
X113247772Y-108645552D01*
X113102883Y-108585537D01*
X112972485Y-108498408D01*
X112861592Y-108387515D01*
X112774463Y-108257117D01*
X112714448Y-108112228D01*
X112683852Y-107958414D01*
X112683852Y-107801586D01*
X112714448Y-107647772D01*
X112774463Y-107502883D01*
X112861592Y-107372485D01*
X112972485Y-107261592D01*
X113102883Y-107174463D01*
X113247772Y-107114448D01*
X113401586Y-107083852D01*
X113480000Y-107080000D01*
X114280000Y-107080000D01*
X114358414Y-107083852D01*
G37*
G36*
X121978414Y-107083852D02*
G01*
X122132228Y-107114448D01*
X122277117Y-107174463D01*
X122407515Y-107261592D01*
X122518408Y-107372485D01*
X122605537Y-107502883D01*
X122665552Y-107647772D01*
X122696148Y-107801586D01*
X122696148Y-107958414D01*
X122665552Y-108112228D01*
X122605537Y-108257117D01*
X122518408Y-108387515D01*
X122407515Y-108498408D01*
X122277117Y-108585537D01*
X122132228Y-108645552D01*
X121978414Y-108676148D01*
X121900000Y-108680000D01*
X121898749Y-108680000D01*
X121101251Y-108680000D01*
X121100000Y-108680000D01*
X121021586Y-108676148D01*
X120867772Y-108645552D01*
X120722883Y-108585537D01*
X120592485Y-108498408D01*
X120481592Y-108387515D01*
X120394463Y-108257117D01*
X120334448Y-108112228D01*
X120303852Y-107958414D01*
X120303852Y-107801586D01*
X120334448Y-107647772D01*
X120394463Y-107502883D01*
X120481592Y-107372485D01*
X120592485Y-107261592D01*
X120722883Y-107174463D01*
X120867772Y-107114448D01*
X121021586Y-107083852D01*
X121100000Y-107080000D01*
X121900000Y-107080000D01*
X121978414Y-107083852D01*
G37*
G36*
X128304116Y-106775818D02*
G01*
X128355379Y-106781766D01*
X128372892Y-106789499D01*
X128395671Y-106794030D01*
X128420057Y-106810324D01*
X128440788Y-106819478D01*
X128454946Y-106833636D01*
X128476777Y-106848223D01*
X128491363Y-106870053D01*
X128505521Y-106884211D01*
X128514673Y-106904939D01*
X128530970Y-106929329D01*
X128535501Y-106952109D01*
X128543233Y-106969620D01*
X128549178Y-107020872D01*
X128550000Y-107025000D01*
X128550000Y-107975000D01*
X128549178Y-107979128D01*
X128543233Y-108030379D01*
X128535501Y-108047888D01*
X128530970Y-108070671D01*
X128514672Y-108095062D01*
X128505521Y-108115788D01*
X128491365Y-108129943D01*
X128476777Y-108151777D01*
X128454943Y-108166365D01*
X128440788Y-108180521D01*
X128420062Y-108189672D01*
X128395671Y-108205970D01*
X128372888Y-108210501D01*
X128355379Y-108218233D01*
X128304129Y-108224178D01*
X128300000Y-108225000D01*
X127800000Y-108225000D01*
X127795873Y-108224179D01*
X127744620Y-108218233D01*
X127727109Y-108210501D01*
X127704329Y-108205970D01*
X127679939Y-108189673D01*
X127659211Y-108180521D01*
X127645053Y-108166363D01*
X127623223Y-108151777D01*
X127608636Y-108129946D01*
X127594478Y-108115788D01*
X127585324Y-108095057D01*
X127569030Y-108070671D01*
X127564499Y-108047892D01*
X127556766Y-108030379D01*
X127550818Y-107979117D01*
X127550000Y-107975000D01*
X127550000Y-107025000D01*
X127550818Y-107020885D01*
X127556766Y-106969620D01*
X127564499Y-106952105D01*
X127569030Y-106929329D01*
X127585323Y-106904944D01*
X127594478Y-106884211D01*
X127608638Y-106870050D01*
X127623223Y-106848223D01*
X127645050Y-106833638D01*
X127659211Y-106819478D01*
X127679944Y-106810323D01*
X127704329Y-106794030D01*
X127727105Y-106789499D01*
X127744620Y-106781766D01*
X127795884Y-106775818D01*
X127800000Y-106775000D01*
X128300000Y-106775000D01*
X128304116Y-106775818D01*
G37*
G36*
X130204116Y-106775818D02*
G01*
X130255379Y-106781766D01*
X130272892Y-106789499D01*
X130295671Y-106794030D01*
X130320057Y-106810324D01*
X130340788Y-106819478D01*
X130354946Y-106833636D01*
X130376777Y-106848223D01*
X130391363Y-106870053D01*
X130405521Y-106884211D01*
X130414673Y-106904939D01*
X130430970Y-106929329D01*
X130435501Y-106952109D01*
X130443233Y-106969620D01*
X130449178Y-107020872D01*
X130450000Y-107025000D01*
X130450000Y-107975000D01*
X130449178Y-107979128D01*
X130443233Y-108030379D01*
X130435501Y-108047888D01*
X130430970Y-108070671D01*
X130414672Y-108095062D01*
X130405521Y-108115788D01*
X130391365Y-108129943D01*
X130376777Y-108151777D01*
X130354943Y-108166365D01*
X130340788Y-108180521D01*
X130320062Y-108189672D01*
X130295671Y-108205970D01*
X130272888Y-108210501D01*
X130255379Y-108218233D01*
X130204129Y-108224178D01*
X130200000Y-108225000D01*
X129700000Y-108225000D01*
X129695873Y-108224179D01*
X129644620Y-108218233D01*
X129627109Y-108210501D01*
X129604329Y-108205970D01*
X129579939Y-108189673D01*
X129559211Y-108180521D01*
X129545053Y-108166363D01*
X129523223Y-108151777D01*
X129508636Y-108129946D01*
X129494478Y-108115788D01*
X129485324Y-108095057D01*
X129469030Y-108070671D01*
X129464499Y-108047892D01*
X129456766Y-108030379D01*
X129450818Y-107979117D01*
X129450000Y-107975000D01*
X129450000Y-107025000D01*
X129450818Y-107020885D01*
X129456766Y-106969620D01*
X129464499Y-106952105D01*
X129469030Y-106929329D01*
X129485323Y-106904944D01*
X129494478Y-106884211D01*
X129508638Y-106870050D01*
X129523223Y-106848223D01*
X129545050Y-106833638D01*
X129559211Y-106819478D01*
X129579944Y-106810323D01*
X129604329Y-106794030D01*
X129627105Y-106789499D01*
X129644620Y-106781766D01*
X129695884Y-106775818D01*
X129700000Y-106775000D01*
X130200000Y-106775000D01*
X130204116Y-106775818D01*
G37*
G36*
X83669116Y-106720818D02*
G01*
X83720379Y-106726766D01*
X83737892Y-106734499D01*
X83760671Y-106739030D01*
X83785057Y-106755324D01*
X83805788Y-106764478D01*
X83819946Y-106778636D01*
X83841777Y-106793223D01*
X83856363Y-106815053D01*
X83870521Y-106829211D01*
X83879673Y-106849939D01*
X83895970Y-106874329D01*
X83900501Y-106897109D01*
X83908233Y-106914620D01*
X83914178Y-106965872D01*
X83915000Y-106970000D01*
X83915000Y-107870000D01*
X83914178Y-107874128D01*
X83908233Y-107925379D01*
X83900501Y-107942888D01*
X83895970Y-107965671D01*
X83879672Y-107990062D01*
X83870521Y-108010788D01*
X83856365Y-108024943D01*
X83841777Y-108046777D01*
X83819943Y-108061365D01*
X83805788Y-108075521D01*
X83785062Y-108084672D01*
X83760671Y-108100970D01*
X83737888Y-108105501D01*
X83720379Y-108113233D01*
X83669129Y-108119178D01*
X83665000Y-108120000D01*
X83140000Y-108120000D01*
X83135873Y-108119179D01*
X83084620Y-108113233D01*
X83067109Y-108105501D01*
X83044329Y-108100970D01*
X83019939Y-108084673D01*
X82999211Y-108075521D01*
X82985053Y-108061363D01*
X82963223Y-108046777D01*
X82948636Y-108024946D01*
X82934478Y-108010788D01*
X82925324Y-107990057D01*
X82909030Y-107965671D01*
X82904499Y-107942892D01*
X82896766Y-107925379D01*
X82890818Y-107874117D01*
X82890000Y-107870000D01*
X82890000Y-106970000D01*
X82890818Y-106965885D01*
X82896766Y-106914620D01*
X82904499Y-106897105D01*
X82909030Y-106874329D01*
X82925323Y-106849944D01*
X82934478Y-106829211D01*
X82948638Y-106815050D01*
X82963223Y-106793223D01*
X82985050Y-106778638D01*
X82999211Y-106764478D01*
X83019944Y-106755323D01*
X83044329Y-106739030D01*
X83067105Y-106734499D01*
X83084620Y-106726766D01*
X83135884Y-106720818D01*
X83140000Y-106720000D01*
X83665000Y-106720000D01*
X83669116Y-106720818D01*
G37*
G36*
X85494116Y-106720818D02*
G01*
X85545379Y-106726766D01*
X85562892Y-106734499D01*
X85585671Y-106739030D01*
X85610057Y-106755324D01*
X85630788Y-106764478D01*
X85644946Y-106778636D01*
X85666777Y-106793223D01*
X85681363Y-106815053D01*
X85695521Y-106829211D01*
X85704673Y-106849939D01*
X85720970Y-106874329D01*
X85725501Y-106897109D01*
X85733233Y-106914620D01*
X85739178Y-106965872D01*
X85740000Y-106970000D01*
X85740000Y-107870000D01*
X85739178Y-107874128D01*
X85733233Y-107925379D01*
X85725501Y-107942888D01*
X85720970Y-107965671D01*
X85704672Y-107990062D01*
X85695521Y-108010788D01*
X85681365Y-108024943D01*
X85666777Y-108046777D01*
X85644943Y-108061365D01*
X85630788Y-108075521D01*
X85610062Y-108084672D01*
X85585671Y-108100970D01*
X85562888Y-108105501D01*
X85545379Y-108113233D01*
X85494129Y-108119178D01*
X85490000Y-108120000D01*
X84965000Y-108120000D01*
X84960873Y-108119179D01*
X84909620Y-108113233D01*
X84892109Y-108105501D01*
X84869329Y-108100970D01*
X84844939Y-108084673D01*
X84824211Y-108075521D01*
X84810053Y-108061363D01*
X84788223Y-108046777D01*
X84773636Y-108024946D01*
X84759478Y-108010788D01*
X84750324Y-107990057D01*
X84734030Y-107965671D01*
X84729499Y-107942892D01*
X84721766Y-107925379D01*
X84715818Y-107874117D01*
X84715000Y-107870000D01*
X84715000Y-106970000D01*
X84715818Y-106965885D01*
X84721766Y-106914620D01*
X84729499Y-106897105D01*
X84734030Y-106874329D01*
X84750323Y-106849944D01*
X84759478Y-106829211D01*
X84773638Y-106815050D01*
X84788223Y-106793223D01*
X84810050Y-106778638D01*
X84824211Y-106764478D01*
X84844944Y-106755323D01*
X84869329Y-106739030D01*
X84892105Y-106734499D01*
X84909620Y-106726766D01*
X84960884Y-106720818D01*
X84965000Y-106720000D01*
X85490000Y-106720000D01*
X85494116Y-106720818D01*
G37*
G36*
X78119116Y-105195818D02*
G01*
X78170379Y-105201766D01*
X78187892Y-105209499D01*
X78210671Y-105214030D01*
X78235057Y-105230324D01*
X78255788Y-105239478D01*
X78269946Y-105253636D01*
X78291777Y-105268223D01*
X78306363Y-105290053D01*
X78320521Y-105304211D01*
X78329673Y-105324939D01*
X78345970Y-105349329D01*
X78350501Y-105372109D01*
X78358233Y-105389620D01*
X78364178Y-105440872D01*
X78365000Y-105445000D01*
X78365000Y-106395000D01*
X78364178Y-106399128D01*
X78358233Y-106450379D01*
X78350501Y-106467888D01*
X78345970Y-106490671D01*
X78329672Y-106515062D01*
X78320521Y-106535788D01*
X78306365Y-106549943D01*
X78291777Y-106571777D01*
X78269943Y-106586365D01*
X78255788Y-106600521D01*
X78235062Y-106609672D01*
X78210671Y-106625970D01*
X78187888Y-106630501D01*
X78170379Y-106638233D01*
X78119129Y-106644178D01*
X78115000Y-106645000D01*
X77615000Y-106645000D01*
X77610873Y-106644179D01*
X77559620Y-106638233D01*
X77542109Y-106630501D01*
X77519329Y-106625970D01*
X77494939Y-106609673D01*
X77474211Y-106600521D01*
X77460053Y-106586363D01*
X77438223Y-106571777D01*
X77423636Y-106549946D01*
X77409478Y-106535788D01*
X77400324Y-106515057D01*
X77384030Y-106490671D01*
X77379499Y-106467892D01*
X77371766Y-106450379D01*
X77365818Y-106399117D01*
X77365000Y-106395000D01*
X77365000Y-105445000D01*
X77365818Y-105440885D01*
X77371766Y-105389620D01*
X77379499Y-105372105D01*
X77384030Y-105349329D01*
X77400323Y-105324944D01*
X77409478Y-105304211D01*
X77423638Y-105290050D01*
X77438223Y-105268223D01*
X77460050Y-105253638D01*
X77474211Y-105239478D01*
X77494944Y-105230323D01*
X77519329Y-105214030D01*
X77542105Y-105209499D01*
X77559620Y-105201766D01*
X77610884Y-105195818D01*
X77615000Y-105195000D01*
X78115000Y-105195000D01*
X78119116Y-105195818D01*
G37*
G36*
X80019116Y-105195818D02*
G01*
X80070379Y-105201766D01*
X80087892Y-105209499D01*
X80110671Y-105214030D01*
X80135057Y-105230324D01*
X80155788Y-105239478D01*
X80169946Y-105253636D01*
X80191777Y-105268223D01*
X80206363Y-105290053D01*
X80220521Y-105304211D01*
X80229673Y-105324939D01*
X80245970Y-105349329D01*
X80250501Y-105372109D01*
X80258233Y-105389620D01*
X80264178Y-105440872D01*
X80265000Y-105445000D01*
X80265000Y-106395000D01*
X80264178Y-106399128D01*
X80258233Y-106450379D01*
X80250501Y-106467888D01*
X80245970Y-106490671D01*
X80229672Y-106515062D01*
X80220521Y-106535788D01*
X80206365Y-106549943D01*
X80191777Y-106571777D01*
X80169943Y-106586365D01*
X80155788Y-106600521D01*
X80135062Y-106609672D01*
X80110671Y-106625970D01*
X80087888Y-106630501D01*
X80070379Y-106638233D01*
X80019129Y-106644178D01*
X80015000Y-106645000D01*
X79515000Y-106645000D01*
X79510873Y-106644179D01*
X79459620Y-106638233D01*
X79442109Y-106630501D01*
X79419329Y-106625970D01*
X79394939Y-106609673D01*
X79374211Y-106600521D01*
X79360053Y-106586363D01*
X79338223Y-106571777D01*
X79323636Y-106549946D01*
X79309478Y-106535788D01*
X79300324Y-106515057D01*
X79284030Y-106490671D01*
X79279499Y-106467892D01*
X79271766Y-106450379D01*
X79265818Y-106399117D01*
X79265000Y-106395000D01*
X79265000Y-105445000D01*
X79265818Y-105440885D01*
X79271766Y-105389620D01*
X79279499Y-105372105D01*
X79284030Y-105349329D01*
X79300323Y-105324944D01*
X79309478Y-105304211D01*
X79323638Y-105290050D01*
X79338223Y-105268223D01*
X79360050Y-105253638D01*
X79374211Y-105239478D01*
X79394944Y-105230323D01*
X79419329Y-105214030D01*
X79442105Y-105209499D01*
X79459620Y-105201766D01*
X79510884Y-105195818D01*
X79515000Y-105195000D01*
X80015000Y-105195000D01*
X80019116Y-105195818D01*
G37*
G36*
X73669116Y-105220818D02*
G01*
X73720379Y-105226766D01*
X73737892Y-105234499D01*
X73760671Y-105239030D01*
X73785057Y-105255324D01*
X73805788Y-105264478D01*
X73819946Y-105278636D01*
X73841777Y-105293223D01*
X73856363Y-105315053D01*
X73870521Y-105329211D01*
X73879673Y-105349939D01*
X73895970Y-105374329D01*
X73900501Y-105397109D01*
X73908233Y-105414620D01*
X73914178Y-105465872D01*
X73915000Y-105470000D01*
X73915000Y-106370000D01*
X73914178Y-106374128D01*
X73908233Y-106425379D01*
X73900501Y-106442888D01*
X73895970Y-106465671D01*
X73879672Y-106490062D01*
X73870521Y-106510788D01*
X73856365Y-106524943D01*
X73841777Y-106546777D01*
X73819943Y-106561365D01*
X73805788Y-106575521D01*
X73785062Y-106584672D01*
X73760671Y-106600970D01*
X73737888Y-106605501D01*
X73720379Y-106613233D01*
X73669129Y-106619178D01*
X73665000Y-106620000D01*
X73140000Y-106620000D01*
X73135873Y-106619179D01*
X73084620Y-106613233D01*
X73067109Y-106605501D01*
X73044329Y-106600970D01*
X73019939Y-106584673D01*
X72999211Y-106575521D01*
X72985053Y-106561363D01*
X72963223Y-106546777D01*
X72948636Y-106524946D01*
X72934478Y-106510788D01*
X72925324Y-106490057D01*
X72909030Y-106465671D01*
X72904499Y-106442892D01*
X72896766Y-106425379D01*
X72890818Y-106374117D01*
X72890000Y-106370000D01*
X72890000Y-105470000D01*
X72890818Y-105465885D01*
X72896766Y-105414620D01*
X72904499Y-105397105D01*
X72909030Y-105374329D01*
X72925323Y-105349944D01*
X72934478Y-105329211D01*
X72948638Y-105315050D01*
X72963223Y-105293223D01*
X72985050Y-105278638D01*
X72999211Y-105264478D01*
X73019944Y-105255323D01*
X73044329Y-105239030D01*
X73067105Y-105234499D01*
X73084620Y-105226766D01*
X73135884Y-105220818D01*
X73140000Y-105220000D01*
X73665000Y-105220000D01*
X73669116Y-105220818D01*
G37*
G36*
X75494116Y-105220818D02*
G01*
X75545379Y-105226766D01*
X75562892Y-105234499D01*
X75585671Y-105239030D01*
X75610057Y-105255324D01*
X75630788Y-105264478D01*
X75644946Y-105278636D01*
X75666777Y-105293223D01*
X75681363Y-105315053D01*
X75695521Y-105329211D01*
X75704673Y-105349939D01*
X75720970Y-105374329D01*
X75725501Y-105397109D01*
X75733233Y-105414620D01*
X75739178Y-105465872D01*
X75740000Y-105470000D01*
X75740000Y-106370000D01*
X75739178Y-106374128D01*
X75733233Y-106425379D01*
X75725501Y-106442888D01*
X75720970Y-106465671D01*
X75704672Y-106490062D01*
X75695521Y-106510788D01*
X75681365Y-106524943D01*
X75666777Y-106546777D01*
X75644943Y-106561365D01*
X75630788Y-106575521D01*
X75610062Y-106584672D01*
X75585671Y-106600970D01*
X75562888Y-106605501D01*
X75545379Y-106613233D01*
X75494129Y-106619178D01*
X75490000Y-106620000D01*
X74965000Y-106620000D01*
X74960873Y-106619179D01*
X74909620Y-106613233D01*
X74892109Y-106605501D01*
X74869329Y-106600970D01*
X74844939Y-106584673D01*
X74824211Y-106575521D01*
X74810053Y-106561363D01*
X74788223Y-106546777D01*
X74773636Y-106524946D01*
X74759478Y-106510788D01*
X74750324Y-106490057D01*
X74734030Y-106465671D01*
X74729499Y-106442892D01*
X74721766Y-106425379D01*
X74715818Y-106374117D01*
X74715000Y-106370000D01*
X74715000Y-105470000D01*
X74715818Y-105465885D01*
X74721766Y-105414620D01*
X74729499Y-105397105D01*
X74734030Y-105374329D01*
X74750323Y-105349944D01*
X74759478Y-105329211D01*
X74773638Y-105315050D01*
X74788223Y-105293223D01*
X74810050Y-105278638D01*
X74824211Y-105264478D01*
X74844944Y-105255323D01*
X74869329Y-105239030D01*
X74892105Y-105234499D01*
X74909620Y-105226766D01*
X74960884Y-105220818D01*
X74965000Y-105220000D01*
X75490000Y-105220000D01*
X75494116Y-105220818D01*
G37*
G36*
X114358414Y-104543852D02*
G01*
X114512228Y-104574448D01*
X114657117Y-104634463D01*
X114787515Y-104721592D01*
X114898408Y-104832485D01*
X114985537Y-104962883D01*
X115045552Y-105107772D01*
X115076148Y-105261586D01*
X115076148Y-105418414D01*
X115045552Y-105572228D01*
X114985537Y-105717117D01*
X114898408Y-105847515D01*
X114787515Y-105958408D01*
X114657117Y-106045537D01*
X114512228Y-106105552D01*
X114358414Y-106136148D01*
X114280000Y-106140000D01*
X114278749Y-106140000D01*
X113481251Y-106140000D01*
X113480000Y-106140000D01*
X113401586Y-106136148D01*
X113247772Y-106105552D01*
X113102883Y-106045537D01*
X112972485Y-105958408D01*
X112861592Y-105847515D01*
X112774463Y-105717117D01*
X112714448Y-105572228D01*
X112683852Y-105418414D01*
X112683852Y-105261586D01*
X112714448Y-105107772D01*
X112774463Y-104962883D01*
X112861592Y-104832485D01*
X112972485Y-104721592D01*
X113102883Y-104634463D01*
X113247772Y-104574448D01*
X113401586Y-104543852D01*
X113480000Y-104540000D01*
X114280000Y-104540000D01*
X114358414Y-104543852D01*
G37*
G36*
X121978414Y-104543852D02*
G01*
X122132228Y-104574448D01*
X122277117Y-104634463D01*
X122407515Y-104721592D01*
X122518408Y-104832485D01*
X122605537Y-104962883D01*
X122665552Y-105107772D01*
X122696148Y-105261586D01*
X122696148Y-105418414D01*
X122665552Y-105572228D01*
X122605537Y-105717117D01*
X122518408Y-105847515D01*
X122407515Y-105958408D01*
X122277117Y-106045537D01*
X122132228Y-106105552D01*
X121978414Y-106136148D01*
X121900000Y-106140000D01*
X121898749Y-106140000D01*
X121101251Y-106140000D01*
X121100000Y-106140000D01*
X121021586Y-106136148D01*
X120867772Y-106105552D01*
X120722883Y-106045537D01*
X120592485Y-105958408D01*
X120481592Y-105847515D01*
X120394463Y-105717117D01*
X120334448Y-105572228D01*
X120303852Y-105418414D01*
X120303852Y-105261586D01*
X120334448Y-105107772D01*
X120394463Y-104962883D01*
X120481592Y-104832485D01*
X120592485Y-104721592D01*
X120722883Y-104634463D01*
X120867772Y-104574448D01*
X121021586Y-104543852D01*
X121100000Y-104540000D01*
X121900000Y-104540000D01*
X121978414Y-104543852D01*
G37*
G36*
X114358414Y-102003852D02*
G01*
X114512228Y-102034448D01*
X114657117Y-102094463D01*
X114787515Y-102181592D01*
X114898408Y-102292485D01*
X114985537Y-102422883D01*
X115045552Y-102567772D01*
X115076148Y-102721586D01*
X115076148Y-102878414D01*
X115045552Y-103032228D01*
X114985537Y-103177117D01*
X114898408Y-103307515D01*
X114787515Y-103418408D01*
X114657117Y-103505537D01*
X114512228Y-103565552D01*
X114358414Y-103596148D01*
X114280000Y-103600000D01*
X114278749Y-103600000D01*
X113481251Y-103600000D01*
X113480000Y-103600000D01*
X113401586Y-103596148D01*
X113247772Y-103565552D01*
X113102883Y-103505537D01*
X112972485Y-103418408D01*
X112861592Y-103307515D01*
X112774463Y-103177117D01*
X112714448Y-103032228D01*
X112683852Y-102878414D01*
X112683852Y-102721586D01*
X112714448Y-102567772D01*
X112774463Y-102422883D01*
X112861592Y-102292485D01*
X112972485Y-102181592D01*
X113102883Y-102094463D01*
X113247772Y-102034448D01*
X113401586Y-102003852D01*
X113480000Y-102000000D01*
X114280000Y-102000000D01*
X114358414Y-102003852D01*
G37*
G36*
X121978414Y-102003852D02*
G01*
X122132228Y-102034448D01*
X122277117Y-102094463D01*
X122407515Y-102181592D01*
X122518408Y-102292485D01*
X122605537Y-102422883D01*
X122665552Y-102567772D01*
X122696148Y-102721586D01*
X122696148Y-102878414D01*
X122665552Y-103032228D01*
X122605537Y-103177117D01*
X122518408Y-103307515D01*
X122407515Y-103418408D01*
X122277117Y-103505537D01*
X122132228Y-103565552D01*
X121978414Y-103596148D01*
X121900000Y-103600000D01*
X121898749Y-103600000D01*
X121101251Y-103600000D01*
X121100000Y-103600000D01*
X121021586Y-103596148D01*
X120867772Y-103565552D01*
X120722883Y-103505537D01*
X120592485Y-103418408D01*
X120481592Y-103307515D01*
X120394463Y-103177117D01*
X120334448Y-103032228D01*
X120303852Y-102878414D01*
X120303852Y-102721586D01*
X120334448Y-102567772D01*
X120394463Y-102422883D01*
X120481592Y-102292485D01*
X120592485Y-102181592D01*
X120722883Y-102094463D01*
X120867772Y-102034448D01*
X121021586Y-102003852D01*
X121100000Y-102000000D01*
X121900000Y-102000000D01*
X121978414Y-102003852D01*
G37*
G36*
X73669116Y-101720818D02*
G01*
X73720379Y-101726766D01*
X73737892Y-101734499D01*
X73760671Y-101739030D01*
X73785057Y-101755324D01*
X73805788Y-101764478D01*
X73819946Y-101778636D01*
X73841777Y-101793223D01*
X73856363Y-101815053D01*
X73870521Y-101829211D01*
X73879673Y-101849939D01*
X73895970Y-101874329D01*
X73900501Y-101897109D01*
X73908233Y-101914620D01*
X73914178Y-101965872D01*
X73915000Y-101970000D01*
X73915000Y-102870000D01*
X73914178Y-102874128D01*
X73908233Y-102925379D01*
X73900501Y-102942888D01*
X73895970Y-102965671D01*
X73879672Y-102990062D01*
X73870521Y-103010788D01*
X73856365Y-103024943D01*
X73841777Y-103046777D01*
X73819943Y-103061365D01*
X73805788Y-103075521D01*
X73785062Y-103084672D01*
X73760671Y-103100970D01*
X73737888Y-103105501D01*
X73720379Y-103113233D01*
X73669129Y-103119178D01*
X73665000Y-103120000D01*
X73140000Y-103120000D01*
X73135873Y-103119179D01*
X73084620Y-103113233D01*
X73067109Y-103105501D01*
X73044329Y-103100970D01*
X73019939Y-103084673D01*
X72999211Y-103075521D01*
X72985053Y-103061363D01*
X72963223Y-103046777D01*
X72948636Y-103024946D01*
X72934478Y-103010788D01*
X72925324Y-102990057D01*
X72909030Y-102965671D01*
X72904499Y-102942892D01*
X72896766Y-102925379D01*
X72890818Y-102874117D01*
X72890000Y-102870000D01*
X72890000Y-101970000D01*
X72890818Y-101965885D01*
X72896766Y-101914620D01*
X72904499Y-101897105D01*
X72909030Y-101874329D01*
X72925323Y-101849944D01*
X72934478Y-101829211D01*
X72948638Y-101815050D01*
X72963223Y-101793223D01*
X72985050Y-101778638D01*
X72999211Y-101764478D01*
X73019944Y-101755323D01*
X73044329Y-101739030D01*
X73067105Y-101734499D01*
X73084620Y-101726766D01*
X73135884Y-101720818D01*
X73140000Y-101720000D01*
X73665000Y-101720000D01*
X73669116Y-101720818D01*
G37*
G36*
X75494116Y-101720818D02*
G01*
X75545379Y-101726766D01*
X75562892Y-101734499D01*
X75585671Y-101739030D01*
X75610057Y-101755324D01*
X75630788Y-101764478D01*
X75644946Y-101778636D01*
X75666777Y-101793223D01*
X75681363Y-101815053D01*
X75695521Y-101829211D01*
X75704673Y-101849939D01*
X75720970Y-101874329D01*
X75725501Y-101897109D01*
X75733233Y-101914620D01*
X75739178Y-101965872D01*
X75740000Y-101970000D01*
X75740000Y-102870000D01*
X75739178Y-102874128D01*
X75733233Y-102925379D01*
X75725501Y-102942888D01*
X75720970Y-102965671D01*
X75704672Y-102990062D01*
X75695521Y-103010788D01*
X75681365Y-103024943D01*
X75666777Y-103046777D01*
X75644943Y-103061365D01*
X75630788Y-103075521D01*
X75610062Y-103084672D01*
X75585671Y-103100970D01*
X75562888Y-103105501D01*
X75545379Y-103113233D01*
X75494129Y-103119178D01*
X75490000Y-103120000D01*
X74965000Y-103120000D01*
X74960873Y-103119179D01*
X74909620Y-103113233D01*
X74892109Y-103105501D01*
X74869329Y-103100970D01*
X74844939Y-103084673D01*
X74824211Y-103075521D01*
X74810053Y-103061363D01*
X74788223Y-103046777D01*
X74773636Y-103024946D01*
X74759478Y-103010788D01*
X74750324Y-102990057D01*
X74734030Y-102965671D01*
X74729499Y-102942892D01*
X74721766Y-102925379D01*
X74715818Y-102874117D01*
X74715000Y-102870000D01*
X74715000Y-101970000D01*
X74715818Y-101965885D01*
X74721766Y-101914620D01*
X74729499Y-101897105D01*
X74734030Y-101874329D01*
X74750323Y-101849944D01*
X74759478Y-101829211D01*
X74773638Y-101815050D01*
X74788223Y-101793223D01*
X74810050Y-101778638D01*
X74824211Y-101764478D01*
X74844944Y-101755323D01*
X74869329Y-101739030D01*
X74892105Y-101734499D01*
X74909620Y-101726766D01*
X74960884Y-101720818D01*
X74965000Y-101720000D01*
X75490000Y-101720000D01*
X75494116Y-101720818D01*
G37*
G36*
X128354116Y-99800818D02*
G01*
X128405379Y-99806766D01*
X128422892Y-99814499D01*
X128445671Y-99819030D01*
X128470057Y-99835324D01*
X128490788Y-99844478D01*
X128504946Y-99858636D01*
X128526777Y-99873223D01*
X128541363Y-99895053D01*
X128555521Y-99909211D01*
X128564673Y-99929939D01*
X128580970Y-99954329D01*
X128585501Y-99977109D01*
X128593233Y-99994620D01*
X128599178Y-100045872D01*
X128600000Y-100050000D01*
X128600000Y-100950000D01*
X128599178Y-100954128D01*
X128593233Y-101005379D01*
X128585501Y-101022888D01*
X128580970Y-101045671D01*
X128564672Y-101070062D01*
X128555521Y-101090788D01*
X128541365Y-101104943D01*
X128526777Y-101126777D01*
X128504943Y-101141365D01*
X128490788Y-101155521D01*
X128470062Y-101164672D01*
X128445671Y-101180970D01*
X128422888Y-101185501D01*
X128405379Y-101193233D01*
X128354129Y-101199178D01*
X128350000Y-101200000D01*
X127825000Y-101200000D01*
X127820873Y-101199179D01*
X127769620Y-101193233D01*
X127752109Y-101185501D01*
X127729329Y-101180970D01*
X127704939Y-101164673D01*
X127684211Y-101155521D01*
X127670053Y-101141363D01*
X127648223Y-101126777D01*
X127633636Y-101104946D01*
X127619478Y-101090788D01*
X127610324Y-101070057D01*
X127594030Y-101045671D01*
X127589499Y-101022892D01*
X127581766Y-101005379D01*
X127575818Y-100954117D01*
X127575000Y-100950000D01*
X127575000Y-100050000D01*
X127575818Y-100045885D01*
X127581766Y-99994620D01*
X127589499Y-99977105D01*
X127594030Y-99954329D01*
X127610323Y-99929944D01*
X127619478Y-99909211D01*
X127633638Y-99895050D01*
X127648223Y-99873223D01*
X127670050Y-99858638D01*
X127684211Y-99844478D01*
X127704944Y-99835323D01*
X127729329Y-99819030D01*
X127752105Y-99814499D01*
X127769620Y-99806766D01*
X127820884Y-99800818D01*
X127825000Y-99800000D01*
X128350000Y-99800000D01*
X128354116Y-99800818D01*
G37*
G36*
X130179116Y-99800818D02*
G01*
X130230379Y-99806766D01*
X130247892Y-99814499D01*
X130270671Y-99819030D01*
X130295057Y-99835324D01*
X130315788Y-99844478D01*
X130329946Y-99858636D01*
X130351777Y-99873223D01*
X130366363Y-99895053D01*
X130380521Y-99909211D01*
X130389673Y-99929939D01*
X130405970Y-99954329D01*
X130410501Y-99977109D01*
X130418233Y-99994620D01*
X130424178Y-100045872D01*
X130425000Y-100050000D01*
X130425000Y-100950000D01*
X130424178Y-100954128D01*
X130418233Y-101005379D01*
X130410501Y-101022888D01*
X130405970Y-101045671D01*
X130389672Y-101070062D01*
X130380521Y-101090788D01*
X130366365Y-101104943D01*
X130351777Y-101126777D01*
X130329943Y-101141365D01*
X130315788Y-101155521D01*
X130295062Y-101164672D01*
X130270671Y-101180970D01*
X130247888Y-101185501D01*
X130230379Y-101193233D01*
X130179129Y-101199178D01*
X130175000Y-101200000D01*
X129650000Y-101200000D01*
X129645873Y-101199179D01*
X129594620Y-101193233D01*
X129577109Y-101185501D01*
X129554329Y-101180970D01*
X129529939Y-101164673D01*
X129509211Y-101155521D01*
X129495053Y-101141363D01*
X129473223Y-101126777D01*
X129458636Y-101104946D01*
X129444478Y-101090788D01*
X129435324Y-101070057D01*
X129419030Y-101045671D01*
X129414499Y-101022892D01*
X129406766Y-101005379D01*
X129400818Y-100954117D01*
X129400000Y-100950000D01*
X129400000Y-100050000D01*
X129400818Y-100045885D01*
X129406766Y-99994620D01*
X129414499Y-99977105D01*
X129419030Y-99954329D01*
X129435323Y-99929944D01*
X129444478Y-99909211D01*
X129458638Y-99895050D01*
X129473223Y-99873223D01*
X129495050Y-99858638D01*
X129509211Y-99844478D01*
X129529944Y-99835323D01*
X129554329Y-99819030D01*
X129577105Y-99814499D01*
X129594620Y-99806766D01*
X129645884Y-99800818D01*
X129650000Y-99800000D01*
X130175000Y-99800000D01*
X130179116Y-99800818D01*
G37*
G36*
X132810366Y-99800818D02*
G01*
X132860198Y-99806600D01*
X132877222Y-99814117D01*
X132899529Y-99818554D01*
X132923408Y-99834510D01*
X132943506Y-99843384D01*
X132957233Y-99857111D01*
X132978607Y-99871393D01*
X132992888Y-99892766D01*
X133006615Y-99906493D01*
X133015488Y-99926588D01*
X133031446Y-99950471D01*
X133035883Y-99972779D01*
X133043399Y-99989801D01*
X133049178Y-100039621D01*
X133050000Y-100043750D01*
X133050000Y-100956250D01*
X133049178Y-100960378D01*
X133043399Y-101010198D01*
X133035883Y-101027218D01*
X133031446Y-101049529D01*
X133015486Y-101073413D01*
X133006615Y-101093506D01*
X132992890Y-101107230D01*
X132978607Y-101128607D01*
X132957230Y-101142890D01*
X132943506Y-101156615D01*
X132923413Y-101165486D01*
X132899529Y-101181446D01*
X132877218Y-101185883D01*
X132860198Y-101193399D01*
X132810379Y-101199178D01*
X132806250Y-101200000D01*
X132318750Y-101200000D01*
X132314623Y-101199179D01*
X132264801Y-101193399D01*
X132247779Y-101185883D01*
X132225471Y-101181446D01*
X132201588Y-101165488D01*
X132181493Y-101156615D01*
X132167766Y-101142888D01*
X132146393Y-101128607D01*
X132132111Y-101107233D01*
X132118384Y-101093506D01*
X132109510Y-101073408D01*
X132093554Y-101049529D01*
X132089117Y-101027222D01*
X132081600Y-101010198D01*
X132075818Y-100960367D01*
X132075000Y-100956250D01*
X132075000Y-100043750D01*
X132075818Y-100039635D01*
X132081600Y-99989801D01*
X132089117Y-99972775D01*
X132093554Y-99950471D01*
X132109508Y-99926593D01*
X132118384Y-99906493D01*
X132132113Y-99892763D01*
X132146393Y-99871393D01*
X132167763Y-99857113D01*
X132181493Y-99843384D01*
X132201593Y-99834508D01*
X132225471Y-99818554D01*
X132247775Y-99814117D01*
X132264801Y-99806600D01*
X132314634Y-99800818D01*
X132318750Y-99800000D01*
X132806250Y-99800000D01*
X132810366Y-99800818D01*
G37*
G36*
X134685366Y-99800818D02*
G01*
X134735198Y-99806600D01*
X134752222Y-99814117D01*
X134774529Y-99818554D01*
X134798408Y-99834510D01*
X134818506Y-99843384D01*
X134832233Y-99857111D01*
X134853607Y-99871393D01*
X134867888Y-99892766D01*
X134881615Y-99906493D01*
X134890488Y-99926588D01*
X134906446Y-99950471D01*
X134910883Y-99972779D01*
X134918399Y-99989801D01*
X134924178Y-100039621D01*
X134925000Y-100043750D01*
X134925000Y-100956250D01*
X134924178Y-100960378D01*
X134918399Y-101010198D01*
X134910883Y-101027218D01*
X134906446Y-101049529D01*
X134890486Y-101073413D01*
X134881615Y-101093506D01*
X134867890Y-101107230D01*
X134853607Y-101128607D01*
X134832230Y-101142890D01*
X134818506Y-101156615D01*
X134798413Y-101165486D01*
X134774529Y-101181446D01*
X134752218Y-101185883D01*
X134735198Y-101193399D01*
X134685379Y-101199178D01*
X134681250Y-101200000D01*
X134193750Y-101200000D01*
X134189623Y-101199179D01*
X134139801Y-101193399D01*
X134122779Y-101185883D01*
X134100471Y-101181446D01*
X134076588Y-101165488D01*
X134056493Y-101156615D01*
X134042766Y-101142888D01*
X134021393Y-101128607D01*
X134007111Y-101107233D01*
X133993384Y-101093506D01*
X133984510Y-101073408D01*
X133968554Y-101049529D01*
X133964117Y-101027222D01*
X133956600Y-101010198D01*
X133950818Y-100960367D01*
X133950000Y-100956250D01*
X133950000Y-100043750D01*
X133950818Y-100039635D01*
X133956600Y-99989801D01*
X133964117Y-99972775D01*
X133968554Y-99950471D01*
X133984508Y-99926593D01*
X133993384Y-99906493D01*
X134007113Y-99892763D01*
X134021393Y-99871393D01*
X134042763Y-99857113D01*
X134056493Y-99843384D01*
X134076593Y-99834508D01*
X134100471Y-99818554D01*
X134122775Y-99814117D01*
X134139801Y-99806600D01*
X134189634Y-99800818D01*
X134193750Y-99800000D01*
X134681250Y-99800000D01*
X134685366Y-99800818D01*
G37*
G36*
X115080000Y-101060000D02*
G01*
X112680000Y-101060000D01*
X112680000Y-99460000D01*
X115080000Y-99460000D01*
X115080000Y-101060000D01*
G37*
G36*
X121978414Y-99463852D02*
G01*
X122132228Y-99494448D01*
X122277117Y-99554463D01*
X122407515Y-99641592D01*
X122518408Y-99752485D01*
X122605537Y-99882883D01*
X122665552Y-100027772D01*
X122696148Y-100181586D01*
X122696148Y-100338414D01*
X122665552Y-100492228D01*
X122605537Y-100637117D01*
X122518408Y-100767515D01*
X122407515Y-100878408D01*
X122277117Y-100965537D01*
X122132228Y-101025552D01*
X121978414Y-101056148D01*
X121900000Y-101060000D01*
X121898749Y-101060000D01*
X121101251Y-101060000D01*
X121100000Y-101060000D01*
X121021586Y-101056148D01*
X120867772Y-101025552D01*
X120722883Y-100965537D01*
X120592485Y-100878408D01*
X120481592Y-100767515D01*
X120394463Y-100637117D01*
X120334448Y-100492228D01*
X120303852Y-100338414D01*
X120303852Y-100181586D01*
X120334448Y-100027772D01*
X120394463Y-99882883D01*
X120481592Y-99752485D01*
X120592485Y-99641592D01*
X120722883Y-99554463D01*
X120867772Y-99494448D01*
X121021586Y-99463852D01*
X121100000Y-99460000D01*
X121900000Y-99460000D01*
X121978414Y-99463852D01*
G37*
G36*
X99310366Y-99300818D02*
G01*
X99360198Y-99306600D01*
X99377222Y-99314117D01*
X99399529Y-99318554D01*
X99423408Y-99334510D01*
X99443506Y-99343384D01*
X99457233Y-99357111D01*
X99478607Y-99371393D01*
X99492888Y-99392766D01*
X99506615Y-99406493D01*
X99515488Y-99426588D01*
X99531446Y-99450471D01*
X99535883Y-99472779D01*
X99543399Y-99489801D01*
X99549178Y-99539621D01*
X99550000Y-99543750D01*
X99550000Y-100456250D01*
X99549178Y-100460378D01*
X99543399Y-100510198D01*
X99535883Y-100527218D01*
X99531446Y-100549529D01*
X99515486Y-100573413D01*
X99506615Y-100593506D01*
X99492890Y-100607230D01*
X99478607Y-100628607D01*
X99457230Y-100642890D01*
X99443506Y-100656615D01*
X99423413Y-100665486D01*
X99399529Y-100681446D01*
X99377218Y-100685883D01*
X99360198Y-100693399D01*
X99310379Y-100699178D01*
X99306250Y-100700000D01*
X98818750Y-100700000D01*
X98814623Y-100699179D01*
X98764801Y-100693399D01*
X98747779Y-100685883D01*
X98725471Y-100681446D01*
X98701588Y-100665488D01*
X98681493Y-100656615D01*
X98667766Y-100642888D01*
X98646393Y-100628607D01*
X98632111Y-100607233D01*
X98618384Y-100593506D01*
X98609510Y-100573408D01*
X98593554Y-100549529D01*
X98589117Y-100527222D01*
X98581600Y-100510198D01*
X98575818Y-100460367D01*
X98575000Y-100456250D01*
X98575000Y-99543750D01*
X98575818Y-99539635D01*
X98581600Y-99489801D01*
X98589117Y-99472775D01*
X98593554Y-99450471D01*
X98609508Y-99426593D01*
X98618384Y-99406493D01*
X98632113Y-99392763D01*
X98646393Y-99371393D01*
X98667763Y-99357113D01*
X98681493Y-99343384D01*
X98701593Y-99334508D01*
X98725471Y-99318554D01*
X98747775Y-99314117D01*
X98764801Y-99306600D01*
X98814634Y-99300818D01*
X98818750Y-99300000D01*
X99306250Y-99300000D01*
X99310366Y-99300818D01*
G37*
G36*
X101185366Y-99300818D02*
G01*
X101235198Y-99306600D01*
X101252222Y-99314117D01*
X101274529Y-99318554D01*
X101298408Y-99334510D01*
X101318506Y-99343384D01*
X101332233Y-99357111D01*
X101353607Y-99371393D01*
X101367888Y-99392766D01*
X101381615Y-99406493D01*
X101390488Y-99426588D01*
X101406446Y-99450471D01*
X101410883Y-99472779D01*
X101418399Y-99489801D01*
X101424178Y-99539621D01*
X101425000Y-99543750D01*
X101425000Y-100456250D01*
X101424178Y-100460378D01*
X101418399Y-100510198D01*
X101410883Y-100527218D01*
X101406446Y-100549529D01*
X101390486Y-100573413D01*
X101381615Y-100593506D01*
X101367890Y-100607230D01*
X101353607Y-100628607D01*
X101332230Y-100642890D01*
X101318506Y-100656615D01*
X101298413Y-100665486D01*
X101274529Y-100681446D01*
X101252218Y-100685883D01*
X101235198Y-100693399D01*
X101185379Y-100699178D01*
X101181250Y-100700000D01*
X100693750Y-100700000D01*
X100689623Y-100699179D01*
X100639801Y-100693399D01*
X100622779Y-100685883D01*
X100600471Y-100681446D01*
X100576588Y-100665488D01*
X100556493Y-100656615D01*
X100542766Y-100642888D01*
X100521393Y-100628607D01*
X100507111Y-100607233D01*
X100493384Y-100593506D01*
X100484510Y-100573408D01*
X100468554Y-100549529D01*
X100464117Y-100527222D01*
X100456600Y-100510198D01*
X100450818Y-100460367D01*
X100450000Y-100456250D01*
X100450000Y-99543750D01*
X100450818Y-99539635D01*
X100456600Y-99489801D01*
X100464117Y-99472775D01*
X100468554Y-99450471D01*
X100484508Y-99426593D01*
X100493384Y-99406493D01*
X100507113Y-99392763D01*
X100521393Y-99371393D01*
X100542763Y-99357113D01*
X100556493Y-99343384D01*
X100576593Y-99334508D01*
X100600471Y-99318554D01*
X100622775Y-99314117D01*
X100639801Y-99306600D01*
X100689634Y-99300818D01*
X100693750Y-99300000D01*
X101181250Y-99300000D01*
X101185366Y-99300818D01*
G37*
G36*
X104941616Y-99300818D02*
G01*
X104992879Y-99306766D01*
X105010392Y-99314499D01*
X105033171Y-99319030D01*
X105057557Y-99335324D01*
X105078288Y-99344478D01*
X105092446Y-99358636D01*
X105114277Y-99373223D01*
X105128863Y-99395053D01*
X105143021Y-99409211D01*
X105152173Y-99429939D01*
X105168470Y-99454329D01*
X105173001Y-99477109D01*
X105180733Y-99494620D01*
X105186678Y-99545872D01*
X105187500Y-99550000D01*
X105187500Y-100450000D01*
X105186678Y-100454128D01*
X105180733Y-100505379D01*
X105173001Y-100522888D01*
X105168470Y-100545671D01*
X105152172Y-100570062D01*
X105143021Y-100590788D01*
X105128865Y-100604943D01*
X105114277Y-100626777D01*
X105092443Y-100641365D01*
X105078288Y-100655521D01*
X105057562Y-100664672D01*
X105033171Y-100680970D01*
X105010388Y-100685501D01*
X104992879Y-100693233D01*
X104941629Y-100699178D01*
X104937500Y-100700000D01*
X104412500Y-100700000D01*
X104408373Y-100699179D01*
X104357120Y-100693233D01*
X104339609Y-100685501D01*
X104316829Y-100680970D01*
X104292439Y-100664673D01*
X104271711Y-100655521D01*
X104257553Y-100641363D01*
X104235723Y-100626777D01*
X104221136Y-100604946D01*
X104206978Y-100590788D01*
X104197824Y-100570057D01*
X104181530Y-100545671D01*
X104176999Y-100522892D01*
X104169266Y-100505379D01*
X104163318Y-100454117D01*
X104162500Y-100450000D01*
X104162500Y-99550000D01*
X104163318Y-99545885D01*
X104169266Y-99494620D01*
X104176999Y-99477105D01*
X104181530Y-99454329D01*
X104197823Y-99429944D01*
X104206978Y-99409211D01*
X104221138Y-99395050D01*
X104235723Y-99373223D01*
X104257550Y-99358638D01*
X104271711Y-99344478D01*
X104292444Y-99335323D01*
X104316829Y-99319030D01*
X104339605Y-99314499D01*
X104357120Y-99306766D01*
X104408384Y-99300818D01*
X104412500Y-99300000D01*
X104937500Y-99300000D01*
X104941616Y-99300818D01*
G37*
G36*
X106766616Y-99300818D02*
G01*
X106817879Y-99306766D01*
X106835392Y-99314499D01*
X106858171Y-99319030D01*
X106882557Y-99335324D01*
X106903288Y-99344478D01*
X106917446Y-99358636D01*
X106939277Y-99373223D01*
X106953863Y-99395053D01*
X106968021Y-99409211D01*
X106977173Y-99429939D01*
X106993470Y-99454329D01*
X106998001Y-99477109D01*
X107005733Y-99494620D01*
X107011678Y-99545872D01*
X107012500Y-99550000D01*
X107012500Y-100450000D01*
X107011678Y-100454128D01*
X107005733Y-100505379D01*
X106998001Y-100522888D01*
X106993470Y-100545671D01*
X106977172Y-100570062D01*
X106968021Y-100590788D01*
X106953865Y-100604943D01*
X106939277Y-100626777D01*
X106917443Y-100641365D01*
X106903288Y-100655521D01*
X106882562Y-100664672D01*
X106858171Y-100680970D01*
X106835388Y-100685501D01*
X106817879Y-100693233D01*
X106766629Y-100699178D01*
X106762500Y-100700000D01*
X106237500Y-100700000D01*
X106233373Y-100699179D01*
X106182120Y-100693233D01*
X106164609Y-100685501D01*
X106141829Y-100680970D01*
X106117439Y-100664673D01*
X106096711Y-100655521D01*
X106082553Y-100641363D01*
X106060723Y-100626777D01*
X106046136Y-100604946D01*
X106031978Y-100590788D01*
X106022824Y-100570057D01*
X106006530Y-100545671D01*
X106001999Y-100522892D01*
X105994266Y-100505379D01*
X105988318Y-100454117D01*
X105987500Y-100450000D01*
X105987500Y-99550000D01*
X105988318Y-99545885D01*
X105994266Y-99494620D01*
X106001999Y-99477105D01*
X106006530Y-99454329D01*
X106022823Y-99429944D01*
X106031978Y-99409211D01*
X106046138Y-99395050D01*
X106060723Y-99373223D01*
X106082550Y-99358638D01*
X106096711Y-99344478D01*
X106117444Y-99335323D01*
X106141829Y-99319030D01*
X106164605Y-99314499D01*
X106182120Y-99306766D01*
X106233384Y-99300818D01*
X106237500Y-99300000D01*
X106762500Y-99300000D01*
X106766616Y-99300818D01*
G37*
G36*
X111960366Y-88450818D02*
G01*
X112010198Y-88456600D01*
X112027222Y-88464117D01*
X112049529Y-88468554D01*
X112073408Y-88484510D01*
X112093506Y-88493384D01*
X112107233Y-88507111D01*
X112128607Y-88521393D01*
X112142888Y-88542766D01*
X112156615Y-88556493D01*
X112165488Y-88576588D01*
X112181446Y-88600471D01*
X112185883Y-88622779D01*
X112193399Y-88639801D01*
X112199178Y-88689621D01*
X112200000Y-88693750D01*
X112200000Y-89181250D01*
X112199178Y-89185378D01*
X112193399Y-89235198D01*
X112185883Y-89252218D01*
X112181446Y-89274529D01*
X112165486Y-89298413D01*
X112156615Y-89318506D01*
X112142890Y-89332230D01*
X112128607Y-89353607D01*
X112107230Y-89367890D01*
X112093506Y-89381615D01*
X112073413Y-89390486D01*
X112049529Y-89406446D01*
X112027218Y-89410883D01*
X112010198Y-89418399D01*
X111960379Y-89424178D01*
X111956250Y-89425000D01*
X111043750Y-89425000D01*
X111039623Y-89424179D01*
X110989801Y-89418399D01*
X110972779Y-89410883D01*
X110950471Y-89406446D01*
X110926588Y-89390488D01*
X110906493Y-89381615D01*
X110892766Y-89367888D01*
X110871393Y-89353607D01*
X110857111Y-89332233D01*
X110843384Y-89318506D01*
X110834510Y-89298408D01*
X110818554Y-89274529D01*
X110814117Y-89252222D01*
X110806600Y-89235198D01*
X110800818Y-89185367D01*
X110800000Y-89181250D01*
X110800000Y-88693750D01*
X110800818Y-88689635D01*
X110806600Y-88639801D01*
X110814117Y-88622775D01*
X110818554Y-88600471D01*
X110834508Y-88576593D01*
X110843384Y-88556493D01*
X110857113Y-88542763D01*
X110871393Y-88521393D01*
X110892763Y-88507113D01*
X110906493Y-88493384D01*
X110926593Y-88484508D01*
X110950471Y-88468554D01*
X110972775Y-88464117D01*
X110989801Y-88456600D01*
X111039634Y-88450818D01*
X111043750Y-88450000D01*
X111956250Y-88450000D01*
X111960366Y-88450818D01*
G37*
G36*
X111960366Y-86575818D02*
G01*
X112010198Y-86581600D01*
X112027222Y-86589117D01*
X112049529Y-86593554D01*
X112073408Y-86609510D01*
X112093506Y-86618384D01*
X112107233Y-86632111D01*
X112128607Y-86646393D01*
X112142888Y-86667766D01*
X112156615Y-86681493D01*
X112165488Y-86701588D01*
X112181446Y-86725471D01*
X112185883Y-86747779D01*
X112193399Y-86764801D01*
X112199178Y-86814621D01*
X112200000Y-86818750D01*
X112200000Y-87306250D01*
X112199178Y-87310378D01*
X112193399Y-87360198D01*
X112185883Y-87377218D01*
X112181446Y-87399529D01*
X112165486Y-87423413D01*
X112156615Y-87443506D01*
X112142890Y-87457230D01*
X112128607Y-87478607D01*
X112107230Y-87492890D01*
X112093506Y-87506615D01*
X112073413Y-87515486D01*
X112049529Y-87531446D01*
X112027218Y-87535883D01*
X112010198Y-87543399D01*
X111960379Y-87549178D01*
X111956250Y-87550000D01*
X111043750Y-87550000D01*
X111039623Y-87549179D01*
X110989801Y-87543399D01*
X110972779Y-87535883D01*
X110950471Y-87531446D01*
X110926588Y-87515488D01*
X110906493Y-87506615D01*
X110892766Y-87492888D01*
X110871393Y-87478607D01*
X110857111Y-87457233D01*
X110843384Y-87443506D01*
X110834510Y-87423408D01*
X110818554Y-87399529D01*
X110814117Y-87377222D01*
X110806600Y-87360198D01*
X110800818Y-87310367D01*
X110800000Y-87306250D01*
X110800000Y-86818750D01*
X110800818Y-86814635D01*
X110806600Y-86764801D01*
X110814117Y-86747775D01*
X110818554Y-86725471D01*
X110834508Y-86701593D01*
X110843384Y-86681493D01*
X110857113Y-86667763D01*
X110871393Y-86646393D01*
X110892763Y-86632113D01*
X110906493Y-86618384D01*
X110926593Y-86609508D01*
X110950471Y-86593554D01*
X110972775Y-86589117D01*
X110989801Y-86581600D01*
X111039634Y-86575818D01*
X111043750Y-86575000D01*
X111956250Y-86575000D01*
X111960366Y-86575818D01*
G37*
G36*
X119979116Y-83950818D02*
G01*
X120030379Y-83956766D01*
X120047892Y-83964499D01*
X120070671Y-83969030D01*
X120095057Y-83985324D01*
X120115788Y-83994478D01*
X120129946Y-84008636D01*
X120151777Y-84023223D01*
X120166363Y-84045053D01*
X120180521Y-84059211D01*
X120189673Y-84079939D01*
X120205970Y-84104329D01*
X120210501Y-84127109D01*
X120218233Y-84144620D01*
X120224178Y-84195872D01*
X120225000Y-84200000D01*
X120225000Y-84700000D01*
X120224178Y-84704128D01*
X120218233Y-84755379D01*
X120210501Y-84772888D01*
X120205970Y-84795671D01*
X120189672Y-84820062D01*
X120180521Y-84840788D01*
X120166365Y-84854943D01*
X120151777Y-84876777D01*
X120129943Y-84891365D01*
X120115788Y-84905521D01*
X120095062Y-84914672D01*
X120070671Y-84930970D01*
X120047888Y-84935501D01*
X120030379Y-84943233D01*
X119979129Y-84949178D01*
X119975000Y-84950000D01*
X119025000Y-84950000D01*
X119020873Y-84949179D01*
X118969620Y-84943233D01*
X118952109Y-84935501D01*
X118929329Y-84930970D01*
X118904939Y-84914673D01*
X118884211Y-84905521D01*
X118870053Y-84891363D01*
X118848223Y-84876777D01*
X118833636Y-84854946D01*
X118819478Y-84840788D01*
X118810324Y-84820057D01*
X118794030Y-84795671D01*
X118789499Y-84772892D01*
X118781766Y-84755379D01*
X118775818Y-84704117D01*
X118775000Y-84700000D01*
X118775000Y-84200000D01*
X118775818Y-84195885D01*
X118781766Y-84144620D01*
X118789499Y-84127105D01*
X118794030Y-84104329D01*
X118810323Y-84079944D01*
X118819478Y-84059211D01*
X118833638Y-84045050D01*
X118848223Y-84023223D01*
X118870050Y-84008638D01*
X118884211Y-83994478D01*
X118904944Y-83985323D01*
X118929329Y-83969030D01*
X118952105Y-83964499D01*
X118969620Y-83956766D01*
X119020884Y-83950818D01*
X119025000Y-83950000D01*
X119975000Y-83950000D01*
X119979116Y-83950818D01*
G37*
G36*
X111954116Y-83900818D02*
G01*
X112005379Y-83906766D01*
X112022892Y-83914499D01*
X112045671Y-83919030D01*
X112070057Y-83935324D01*
X112090788Y-83944478D01*
X112104946Y-83958636D01*
X112126777Y-83973223D01*
X112141363Y-83995053D01*
X112155521Y-84009211D01*
X112164673Y-84029939D01*
X112180970Y-84054329D01*
X112185501Y-84077109D01*
X112193233Y-84094620D01*
X112199178Y-84145872D01*
X112200000Y-84150000D01*
X112200000Y-84675000D01*
X112199178Y-84679128D01*
X112193233Y-84730379D01*
X112185501Y-84747888D01*
X112180970Y-84770671D01*
X112164672Y-84795062D01*
X112155521Y-84815788D01*
X112141365Y-84829943D01*
X112126777Y-84851777D01*
X112104943Y-84866365D01*
X112090788Y-84880521D01*
X112070062Y-84889672D01*
X112045671Y-84905970D01*
X112022888Y-84910501D01*
X112005379Y-84918233D01*
X111954129Y-84924178D01*
X111950000Y-84925000D01*
X111050000Y-84925000D01*
X111045873Y-84924179D01*
X110994620Y-84918233D01*
X110977109Y-84910501D01*
X110954329Y-84905970D01*
X110929939Y-84889673D01*
X110909211Y-84880521D01*
X110895053Y-84866363D01*
X110873223Y-84851777D01*
X110858636Y-84829946D01*
X110844478Y-84815788D01*
X110835324Y-84795057D01*
X110819030Y-84770671D01*
X110814499Y-84747892D01*
X110806766Y-84730379D01*
X110800818Y-84679117D01*
X110800000Y-84675000D01*
X110800000Y-84150000D01*
X110800818Y-84145885D01*
X110806766Y-84094620D01*
X110814499Y-84077105D01*
X110819030Y-84054329D01*
X110835323Y-84029944D01*
X110844478Y-84009211D01*
X110858638Y-83995050D01*
X110873223Y-83973223D01*
X110895050Y-83958638D01*
X110909211Y-83944478D01*
X110929944Y-83935323D01*
X110954329Y-83919030D01*
X110977105Y-83914499D01*
X110994620Y-83906766D01*
X111045884Y-83900818D01*
X111050000Y-83900000D01*
X111950000Y-83900000D01*
X111954116Y-83900818D01*
G37*
G36*
X111954116Y-82075818D02*
G01*
X112005379Y-82081766D01*
X112022892Y-82089499D01*
X112045671Y-82094030D01*
X112070057Y-82110324D01*
X112090788Y-82119478D01*
X112104946Y-82133636D01*
X112126777Y-82148223D01*
X112141363Y-82170053D01*
X112155521Y-82184211D01*
X112164673Y-82204939D01*
X112180970Y-82229329D01*
X112185501Y-82252109D01*
X112193233Y-82269620D01*
X112199178Y-82320872D01*
X112200000Y-82325000D01*
X112200000Y-82850000D01*
X112199178Y-82854128D01*
X112193233Y-82905379D01*
X112185501Y-82922888D01*
X112180970Y-82945671D01*
X112164672Y-82970062D01*
X112155521Y-82990788D01*
X112141365Y-83004943D01*
X112126777Y-83026777D01*
X112104943Y-83041365D01*
X112090788Y-83055521D01*
X112070062Y-83064672D01*
X112045671Y-83080970D01*
X112022888Y-83085501D01*
X112005379Y-83093233D01*
X111954129Y-83099178D01*
X111950000Y-83100000D01*
X111050000Y-83100000D01*
X111045873Y-83099179D01*
X110994620Y-83093233D01*
X110977109Y-83085501D01*
X110954329Y-83080970D01*
X110929939Y-83064673D01*
X110909211Y-83055521D01*
X110895053Y-83041363D01*
X110873223Y-83026777D01*
X110858636Y-83004946D01*
X110844478Y-82990788D01*
X110835324Y-82970057D01*
X110819030Y-82945671D01*
X110814499Y-82922892D01*
X110806766Y-82905379D01*
X110800818Y-82854117D01*
X110800000Y-82850000D01*
X110800000Y-82325000D01*
X110800818Y-82320885D01*
X110806766Y-82269620D01*
X110814499Y-82252105D01*
X110819030Y-82229329D01*
X110835323Y-82204944D01*
X110844478Y-82184211D01*
X110858638Y-82170050D01*
X110873223Y-82148223D01*
X110895050Y-82133638D01*
X110909211Y-82119478D01*
X110929944Y-82110323D01*
X110954329Y-82094030D01*
X110977105Y-82089499D01*
X110994620Y-82081766D01*
X111045884Y-82075818D01*
X111050000Y-82075000D01*
X111950000Y-82075000D01*
X111954116Y-82075818D01*
G37*
G36*
X119979116Y-82050818D02*
G01*
X120030379Y-82056766D01*
X120047892Y-82064499D01*
X120070671Y-82069030D01*
X120095057Y-82085324D01*
X120115788Y-82094478D01*
X120129946Y-82108636D01*
X120151777Y-82123223D01*
X120166363Y-82145053D01*
X120180521Y-82159211D01*
X120189673Y-82179939D01*
X120205970Y-82204329D01*
X120210501Y-82227109D01*
X120218233Y-82244620D01*
X120224178Y-82295872D01*
X120225000Y-82300000D01*
X120225000Y-82800000D01*
X120224178Y-82804128D01*
X120218233Y-82855379D01*
X120210501Y-82872888D01*
X120205970Y-82895671D01*
X120189672Y-82920062D01*
X120180521Y-82940788D01*
X120166365Y-82954943D01*
X120151777Y-82976777D01*
X120129943Y-82991365D01*
X120115788Y-83005521D01*
X120095062Y-83014672D01*
X120070671Y-83030970D01*
X120047888Y-83035501D01*
X120030379Y-83043233D01*
X119979129Y-83049178D01*
X119975000Y-83050000D01*
X119025000Y-83050000D01*
X119020873Y-83049179D01*
X118969620Y-83043233D01*
X118952109Y-83035501D01*
X118929329Y-83030970D01*
X118904939Y-83014673D01*
X118884211Y-83005521D01*
X118870053Y-82991363D01*
X118848223Y-82976777D01*
X118833636Y-82954946D01*
X118819478Y-82940788D01*
X118810324Y-82920057D01*
X118794030Y-82895671D01*
X118789499Y-82872892D01*
X118781766Y-82855379D01*
X118775818Y-82804117D01*
X118775000Y-82800000D01*
X118775000Y-82300000D01*
X118775818Y-82295885D01*
X118781766Y-82244620D01*
X118789499Y-82227105D01*
X118794030Y-82204329D01*
X118810323Y-82179944D01*
X118819478Y-82159211D01*
X118833638Y-82145050D01*
X118848223Y-82123223D01*
X118870050Y-82108638D01*
X118884211Y-82094478D01*
X118904944Y-82085323D01*
X118929329Y-82069030D01*
X118952105Y-82064499D01*
X118969620Y-82056766D01*
X119020884Y-82050818D01*
X119025000Y-82050000D01*
X119975000Y-82050000D01*
X119979116Y-82050818D01*
G37*
G36*
X112600000Y-77200000D02*
G01*
X111000000Y-77200000D01*
X111000000Y-74800000D01*
X112600000Y-74800000D01*
X112600000Y-77200000D01*
G37*
G36*
X114572228Y-74834448D02*
G01*
X114717117Y-74894463D01*
X114847515Y-74981592D01*
X114958408Y-75092485D01*
X115045537Y-75222883D01*
X115105552Y-75367772D01*
X115136148Y-75521586D01*
X115140000Y-75600000D01*
X115140000Y-76400000D01*
X115136148Y-76478414D01*
X115105552Y-76632228D01*
X115045537Y-76777117D01*
X114958408Y-76907515D01*
X114847515Y-77018408D01*
X114717117Y-77105537D01*
X114572228Y-77165552D01*
X114418414Y-77196148D01*
X114261586Y-77196148D01*
X114107772Y-77165552D01*
X113962883Y-77105537D01*
X113832485Y-77018408D01*
X113721592Y-76907515D01*
X113634463Y-76777117D01*
X113574448Y-76632228D01*
X113543852Y-76478414D01*
X113540000Y-76400000D01*
X113540000Y-75600000D01*
X113543852Y-75521586D01*
X113574448Y-75367772D01*
X113634463Y-75222883D01*
X113721592Y-75092485D01*
X113832485Y-74981592D01*
X113962883Y-74894463D01*
X114107772Y-74834448D01*
X114261586Y-74803852D01*
X114418414Y-74803852D01*
X114572228Y-74834448D01*
G37*
G36*
X117112228Y-74834448D02*
G01*
X117257117Y-74894463D01*
X117387515Y-74981592D01*
X117498408Y-75092485D01*
X117585537Y-75222883D01*
X117645552Y-75367772D01*
X117676148Y-75521586D01*
X117680000Y-75600000D01*
X117680000Y-76400000D01*
X117676148Y-76478414D01*
X117645552Y-76632228D01*
X117585537Y-76777117D01*
X117498408Y-76907515D01*
X117387515Y-77018408D01*
X117257117Y-77105537D01*
X117112228Y-77165552D01*
X116958414Y-77196148D01*
X116801586Y-77196148D01*
X116647772Y-77165552D01*
X116502883Y-77105537D01*
X116372485Y-77018408D01*
X116261592Y-76907515D01*
X116174463Y-76777117D01*
X116114448Y-76632228D01*
X116083852Y-76478414D01*
X116080000Y-76400000D01*
X116080000Y-75600000D01*
X116083852Y-75521586D01*
X116114448Y-75367772D01*
X116174463Y-75222883D01*
X116261592Y-75092485D01*
X116372485Y-74981592D01*
X116502883Y-74894463D01*
X116647772Y-74834448D01*
X116801586Y-74803852D01*
X116958414Y-74803852D01*
X117112228Y-74834448D01*
G37*
G36*
X119652228Y-74834448D02*
G01*
X119797117Y-74894463D01*
X119927515Y-74981592D01*
X120038408Y-75092485D01*
X120125537Y-75222883D01*
X120185552Y-75367772D01*
X120216148Y-75521586D01*
X120220000Y-75600000D01*
X120220000Y-76400000D01*
X120216148Y-76478414D01*
X120185552Y-76632228D01*
X120125537Y-76777117D01*
X120038408Y-76907515D01*
X119927515Y-77018408D01*
X119797117Y-77105537D01*
X119652228Y-77165552D01*
X119498414Y-77196148D01*
X119341586Y-77196148D01*
X119187772Y-77165552D01*
X119042883Y-77105537D01*
X118912485Y-77018408D01*
X118801592Y-76907515D01*
X118714463Y-76777117D01*
X118654448Y-76632228D01*
X118623852Y-76478414D01*
X118620000Y-76400000D01*
X118620000Y-75600000D01*
X118623852Y-75521586D01*
X118654448Y-75367772D01*
X118714463Y-75222883D01*
X118801592Y-75092485D01*
X118912485Y-74981592D01*
X119042883Y-74894463D01*
X119187772Y-74834448D01*
X119341586Y-74803852D01*
X119498414Y-74803852D01*
X119652228Y-74834448D01*
G37*
G36*
X122192228Y-74834448D02*
G01*
X122337117Y-74894463D01*
X122467515Y-74981592D01*
X122578408Y-75092485D01*
X122665537Y-75222883D01*
X122725552Y-75367772D01*
X122756148Y-75521586D01*
X122760000Y-75600000D01*
X122760000Y-76400000D01*
X122756148Y-76478414D01*
X122725552Y-76632228D01*
X122665537Y-76777117D01*
X122578408Y-76907515D01*
X122467515Y-77018408D01*
X122337117Y-77105537D01*
X122192228Y-77165552D01*
X122038414Y-77196148D01*
X121881586Y-77196148D01*
X121727772Y-77165552D01*
X121582883Y-77105537D01*
X121452485Y-77018408D01*
X121341592Y-76907515D01*
X121254463Y-76777117D01*
X121194448Y-76632228D01*
X121163852Y-76478414D01*
X121160000Y-76400000D01*
X121160000Y-75600000D01*
X121163852Y-75521586D01*
X121194448Y-75367772D01*
X121254463Y-75222883D01*
X121341592Y-75092485D01*
X121452485Y-74981592D01*
X121582883Y-74894463D01*
X121727772Y-74834448D01*
X121881586Y-74803852D01*
X122038414Y-74803852D01*
X122192228Y-74834448D01*
G37*
G36*
X124732228Y-74834448D02*
G01*
X124877117Y-74894463D01*
X125007515Y-74981592D01*
X125118408Y-75092485D01*
X125205537Y-75222883D01*
X125265552Y-75367772D01*
X125296148Y-75521586D01*
X125300000Y-75600000D01*
X125300000Y-76400000D01*
X125296148Y-76478414D01*
X125265552Y-76632228D01*
X125205537Y-76777117D01*
X125118408Y-76907515D01*
X125007515Y-77018408D01*
X124877117Y-77105537D01*
X124732228Y-77165552D01*
X124578414Y-77196148D01*
X124421586Y-77196148D01*
X124267772Y-77165552D01*
X124122883Y-77105537D01*
X123992485Y-77018408D01*
X123881592Y-76907515D01*
X123794463Y-76777117D01*
X123734448Y-76632228D01*
X123703852Y-76478414D01*
X123700000Y-76400000D01*
X123700000Y-75600000D01*
X123703852Y-75521586D01*
X123734448Y-75367772D01*
X123794463Y-75222883D01*
X123881592Y-75092485D01*
X123992485Y-74981592D01*
X124122883Y-74894463D01*
X124267772Y-74834448D01*
X124421586Y-74803852D01*
X124578414Y-74803852D01*
X124732228Y-74834448D01*
G37*
G36*
X127272228Y-74834448D02*
G01*
X127417117Y-74894463D01*
X127547515Y-74981592D01*
X127658408Y-75092485D01*
X127745537Y-75222883D01*
X127805552Y-75367772D01*
X127836148Y-75521586D01*
X127840000Y-75600000D01*
X127840000Y-76400000D01*
X127836148Y-76478414D01*
X127805552Y-76632228D01*
X127745537Y-76777117D01*
X127658408Y-76907515D01*
X127547515Y-77018408D01*
X127417117Y-77105537D01*
X127272228Y-77165552D01*
X127118414Y-77196148D01*
X126961586Y-77196148D01*
X126807772Y-77165552D01*
X126662883Y-77105537D01*
X126532485Y-77018408D01*
X126421592Y-76907515D01*
X126334463Y-76777117D01*
X126274448Y-76632228D01*
X126243852Y-76478414D01*
X126240000Y-76400000D01*
X126240000Y-75600000D01*
X126243852Y-75521586D01*
X126274448Y-75367772D01*
X126334463Y-75222883D01*
X126421592Y-75092485D01*
X126532485Y-74981592D01*
X126662883Y-74894463D01*
X126807772Y-74834448D01*
X126961586Y-74803852D01*
X127118414Y-74803852D01*
X127272228Y-74834448D01*
G37*
G36*
X67978414Y-74403852D02*
G01*
X68132228Y-74434448D01*
X68277117Y-74494463D01*
X68407515Y-74581592D01*
X68518408Y-74692485D01*
X68605537Y-74822883D01*
X68665552Y-74967772D01*
X68696148Y-75121586D01*
X68696148Y-75278414D01*
X68665552Y-75432228D01*
X68605537Y-75577117D01*
X68518408Y-75707515D01*
X68407515Y-75818408D01*
X68277117Y-75905537D01*
X68132228Y-75965552D01*
X67978414Y-75996148D01*
X67900000Y-76000000D01*
X67898749Y-76000000D01*
X67101251Y-76000000D01*
X67100000Y-76000000D01*
X67021586Y-75996148D01*
X66867772Y-75965552D01*
X66722883Y-75905537D01*
X66592485Y-75818408D01*
X66481592Y-75707515D01*
X66394463Y-75577117D01*
X66334448Y-75432228D01*
X66303852Y-75278414D01*
X66303852Y-75121586D01*
X66334448Y-74967772D01*
X66394463Y-74822883D01*
X66481592Y-74692485D01*
X66592485Y-74581592D01*
X66722883Y-74494463D01*
X66867772Y-74434448D01*
X67021586Y-74403852D01*
X67100000Y-74400000D01*
X67900000Y-74400000D01*
X67978414Y-74403852D01*
G37*
G36*
X76320000Y-76000000D02*
G01*
X73920000Y-76000000D01*
X73920000Y-74400000D01*
X76320000Y-74400000D01*
X76320000Y-76000000D01*
G37*
G36*
X60479116Y-74450818D02*
G01*
X60530379Y-74456766D01*
X60547892Y-74464499D01*
X60570671Y-74469030D01*
X60595057Y-74485324D01*
X60615788Y-74494478D01*
X60629946Y-74508636D01*
X60651777Y-74523223D01*
X60666363Y-74545053D01*
X60680521Y-74559211D01*
X60689673Y-74579939D01*
X60705970Y-74604329D01*
X60710501Y-74627109D01*
X60718233Y-74644620D01*
X60724178Y-74695872D01*
X60725000Y-74700000D01*
X60725000Y-75200000D01*
X60724178Y-75204128D01*
X60718233Y-75255379D01*
X60710501Y-75272888D01*
X60705970Y-75295671D01*
X60689672Y-75320062D01*
X60680521Y-75340788D01*
X60666365Y-75354943D01*
X60651777Y-75376777D01*
X60629943Y-75391365D01*
X60615788Y-75405521D01*
X60595062Y-75414672D01*
X60570671Y-75430970D01*
X60547888Y-75435501D01*
X60530379Y-75443233D01*
X60479129Y-75449178D01*
X60475000Y-75450000D01*
X59525000Y-75450000D01*
X59520873Y-75449179D01*
X59469620Y-75443233D01*
X59452109Y-75435501D01*
X59429329Y-75430970D01*
X59404939Y-75414673D01*
X59384211Y-75405521D01*
X59370053Y-75391363D01*
X59348223Y-75376777D01*
X59333636Y-75354946D01*
X59319478Y-75340788D01*
X59310324Y-75320057D01*
X59294030Y-75295671D01*
X59289499Y-75272892D01*
X59281766Y-75255379D01*
X59275818Y-75204117D01*
X59275000Y-75200000D01*
X59275000Y-74700000D01*
X59275818Y-74695885D01*
X59281766Y-74644620D01*
X59289499Y-74627105D01*
X59294030Y-74604329D01*
X59310323Y-74579944D01*
X59319478Y-74559211D01*
X59333638Y-74545050D01*
X59348223Y-74523223D01*
X59370050Y-74508638D01*
X59384211Y-74494478D01*
X59404944Y-74485323D01*
X59429329Y-74469030D01*
X59452105Y-74464499D01*
X59469620Y-74456766D01*
X59520884Y-74450818D01*
X59525000Y-74450000D01*
X60475000Y-74450000D01*
X60479116Y-74450818D01*
G37*
G36*
X60479116Y-72550818D02*
G01*
X60530379Y-72556766D01*
X60547892Y-72564499D01*
X60570671Y-72569030D01*
X60595057Y-72585324D01*
X60615788Y-72594478D01*
X60629946Y-72608636D01*
X60651777Y-72623223D01*
X60666363Y-72645053D01*
X60680521Y-72659211D01*
X60689673Y-72679939D01*
X60705970Y-72704329D01*
X60710501Y-72727109D01*
X60718233Y-72744620D01*
X60724178Y-72795872D01*
X60725000Y-72800000D01*
X60725000Y-73300000D01*
X60724178Y-73304128D01*
X60718233Y-73355379D01*
X60710501Y-73372888D01*
X60705970Y-73395671D01*
X60689672Y-73420062D01*
X60680521Y-73440788D01*
X60666365Y-73454943D01*
X60651777Y-73476777D01*
X60629943Y-73491365D01*
X60615788Y-73505521D01*
X60595062Y-73514672D01*
X60570671Y-73530970D01*
X60547888Y-73535501D01*
X60530379Y-73543233D01*
X60479129Y-73549178D01*
X60475000Y-73550000D01*
X59525000Y-73550000D01*
X59520873Y-73549179D01*
X59469620Y-73543233D01*
X59452109Y-73535501D01*
X59429329Y-73530970D01*
X59404939Y-73514673D01*
X59384211Y-73505521D01*
X59370053Y-73491363D01*
X59348223Y-73476777D01*
X59333636Y-73454946D01*
X59319478Y-73440788D01*
X59310324Y-73420057D01*
X59294030Y-73395671D01*
X59289499Y-73372892D01*
X59281766Y-73355379D01*
X59275818Y-73304117D01*
X59275000Y-73300000D01*
X59275000Y-72800000D01*
X59275818Y-72795885D01*
X59281766Y-72744620D01*
X59289499Y-72727105D01*
X59294030Y-72704329D01*
X59310323Y-72679944D01*
X59319478Y-72659211D01*
X59333638Y-72645050D01*
X59348223Y-72623223D01*
X59370050Y-72608638D01*
X59384211Y-72594478D01*
X59404944Y-72585323D01*
X59429329Y-72569030D01*
X59452105Y-72564499D01*
X59469620Y-72556766D01*
X59520884Y-72550818D01*
X59525000Y-72550000D01*
X60475000Y-72550000D01*
X60479116Y-72550818D01*
G37*
G36*
X67978414Y-71863852D02*
G01*
X68132228Y-71894448D01*
X68277117Y-71954463D01*
X68407515Y-72041592D01*
X68518408Y-72152485D01*
X68605537Y-72282883D01*
X68665552Y-72427772D01*
X68696148Y-72581586D01*
X68696148Y-72738414D01*
X68665552Y-72892228D01*
X68605537Y-73037117D01*
X68518408Y-73167515D01*
X68407515Y-73278408D01*
X68277117Y-73365537D01*
X68132228Y-73425552D01*
X67978414Y-73456148D01*
X67900000Y-73460000D01*
X67898749Y-73460000D01*
X67101251Y-73460000D01*
X67100000Y-73460000D01*
X67021586Y-73456148D01*
X66867772Y-73425552D01*
X66722883Y-73365537D01*
X66592485Y-73278408D01*
X66481592Y-73167515D01*
X66394463Y-73037117D01*
X66334448Y-72892228D01*
X66303852Y-72738414D01*
X66303852Y-72581586D01*
X66334448Y-72427772D01*
X66394463Y-72282883D01*
X66481592Y-72152485D01*
X66592485Y-72041592D01*
X66722883Y-71954463D01*
X66867772Y-71894448D01*
X67021586Y-71863852D01*
X67100000Y-71860000D01*
X67900000Y-71860000D01*
X67978414Y-71863852D01*
G37*
G36*
X75598414Y-71863852D02*
G01*
X75752228Y-71894448D01*
X75897117Y-71954463D01*
X76027515Y-72041592D01*
X76138408Y-72152485D01*
X76225537Y-72282883D01*
X76285552Y-72427772D01*
X76316148Y-72581586D01*
X76316148Y-72738414D01*
X76285552Y-72892228D01*
X76225537Y-73037117D01*
X76138408Y-73167515D01*
X76027515Y-73278408D01*
X75897117Y-73365537D01*
X75752228Y-73425552D01*
X75598414Y-73456148D01*
X75520000Y-73460000D01*
X75518749Y-73460000D01*
X74721251Y-73460000D01*
X74720000Y-73460000D01*
X74641586Y-73456148D01*
X74487772Y-73425552D01*
X74342883Y-73365537D01*
X74212485Y-73278408D01*
X74101592Y-73167515D01*
X74014463Y-73037117D01*
X73954448Y-72892228D01*
X73923852Y-72738414D01*
X73923852Y-72581586D01*
X73954448Y-72427772D01*
X74014463Y-72282883D01*
X74101592Y-72152485D01*
X74212485Y-72041592D01*
X74342883Y-71954463D01*
X74487772Y-71894448D01*
X74641586Y-71863852D01*
X74720000Y-71860000D01*
X75520000Y-71860000D01*
X75598414Y-71863852D01*
G37*
G36*
X53460366Y-71950818D02*
G01*
X53510198Y-71956600D01*
X53527222Y-71964117D01*
X53549529Y-71968554D01*
X53573408Y-71984510D01*
X53593506Y-71993384D01*
X53607233Y-72007111D01*
X53628607Y-72021393D01*
X53642888Y-72042766D01*
X53656615Y-72056493D01*
X53665488Y-72076588D01*
X53681446Y-72100471D01*
X53685883Y-72122779D01*
X53693399Y-72139801D01*
X53699178Y-72189621D01*
X53700000Y-72193750D01*
X53700000Y-72681250D01*
X53699178Y-72685378D01*
X53693399Y-72735198D01*
X53685883Y-72752218D01*
X53681446Y-72774529D01*
X53665486Y-72798413D01*
X53656615Y-72818506D01*
X53642890Y-72832230D01*
X53628607Y-72853607D01*
X53607230Y-72867890D01*
X53593506Y-72881615D01*
X53573413Y-72890486D01*
X53549529Y-72906446D01*
X53527218Y-72910883D01*
X53510198Y-72918399D01*
X53460379Y-72924178D01*
X53456250Y-72925000D01*
X52543750Y-72925000D01*
X52539623Y-72924179D01*
X52489801Y-72918399D01*
X52472779Y-72910883D01*
X52450471Y-72906446D01*
X52426588Y-72890488D01*
X52406493Y-72881615D01*
X52392766Y-72867888D01*
X52371393Y-72853607D01*
X52357111Y-72832233D01*
X52343384Y-72818506D01*
X52334510Y-72798408D01*
X52318554Y-72774529D01*
X52314117Y-72752222D01*
X52306600Y-72735198D01*
X52300818Y-72685367D01*
X52300000Y-72681250D01*
X52300000Y-72193750D01*
X52300818Y-72189635D01*
X52306600Y-72139801D01*
X52314117Y-72122775D01*
X52318554Y-72100471D01*
X52334508Y-72076593D01*
X52343384Y-72056493D01*
X52357113Y-72042763D01*
X52371393Y-72021393D01*
X52392763Y-72007113D01*
X52406493Y-71993384D01*
X52426593Y-71984508D01*
X52450471Y-71968554D01*
X52472775Y-71964117D01*
X52489801Y-71956600D01*
X52539634Y-71950818D01*
X52543750Y-71950000D01*
X53456250Y-71950000D01*
X53460366Y-71950818D01*
G37*
G36*
X53460366Y-70075818D02*
G01*
X53510198Y-70081600D01*
X53527222Y-70089117D01*
X53549529Y-70093554D01*
X53573408Y-70109510D01*
X53593506Y-70118384D01*
X53607233Y-70132111D01*
X53628607Y-70146393D01*
X53642888Y-70167766D01*
X53656615Y-70181493D01*
X53665488Y-70201588D01*
X53681446Y-70225471D01*
X53685883Y-70247779D01*
X53693399Y-70264801D01*
X53699178Y-70314621D01*
X53700000Y-70318750D01*
X53700000Y-70806250D01*
X53699178Y-70810378D01*
X53693399Y-70860198D01*
X53685883Y-70877218D01*
X53681446Y-70899529D01*
X53665486Y-70923413D01*
X53656615Y-70943506D01*
X53642890Y-70957230D01*
X53628607Y-70978607D01*
X53607230Y-70992890D01*
X53593506Y-71006615D01*
X53573413Y-71015486D01*
X53549529Y-71031446D01*
X53527218Y-71035883D01*
X53510198Y-71043399D01*
X53460379Y-71049178D01*
X53456250Y-71050000D01*
X52543750Y-71050000D01*
X52539623Y-71049179D01*
X52489801Y-71043399D01*
X52472779Y-71035883D01*
X52450471Y-71031446D01*
X52426588Y-71015488D01*
X52406493Y-71006615D01*
X52392766Y-70992888D01*
X52371393Y-70978607D01*
X52357111Y-70957233D01*
X52343384Y-70943506D01*
X52334510Y-70923408D01*
X52318554Y-70899529D01*
X52314117Y-70877222D01*
X52306600Y-70860198D01*
X52300818Y-70810367D01*
X52300000Y-70806250D01*
X52300000Y-70318750D01*
X52300818Y-70314635D01*
X52306600Y-70264801D01*
X52314117Y-70247775D01*
X52318554Y-70225471D01*
X52334508Y-70201593D01*
X52343384Y-70181493D01*
X52357113Y-70167763D01*
X52371393Y-70146393D01*
X52392763Y-70132113D01*
X52406493Y-70118384D01*
X52426593Y-70109508D01*
X52450471Y-70093554D01*
X52472775Y-70089117D01*
X52489801Y-70081600D01*
X52539634Y-70075818D01*
X52543750Y-70075000D01*
X53456250Y-70075000D01*
X53460366Y-70075818D01*
G37*
G36*
X67978414Y-69323852D02*
G01*
X68132228Y-69354448D01*
X68277117Y-69414463D01*
X68407515Y-69501592D01*
X68518408Y-69612485D01*
X68605537Y-69742883D01*
X68665552Y-69887772D01*
X68696148Y-70041586D01*
X68696148Y-70198414D01*
X68665552Y-70352228D01*
X68605537Y-70497117D01*
X68518408Y-70627515D01*
X68407515Y-70738408D01*
X68277117Y-70825537D01*
X68132228Y-70885552D01*
X67978414Y-70916148D01*
X67900000Y-70920000D01*
X67898749Y-70920000D01*
X67101251Y-70920000D01*
X67100000Y-70920000D01*
X67021586Y-70916148D01*
X66867772Y-70885552D01*
X66722883Y-70825537D01*
X66592485Y-70738408D01*
X66481592Y-70627515D01*
X66394463Y-70497117D01*
X66334448Y-70352228D01*
X66303852Y-70198414D01*
X66303852Y-70041586D01*
X66334448Y-69887772D01*
X66394463Y-69742883D01*
X66481592Y-69612485D01*
X66592485Y-69501592D01*
X66722883Y-69414463D01*
X66867772Y-69354448D01*
X67021586Y-69323852D01*
X67100000Y-69320000D01*
X67900000Y-69320000D01*
X67978414Y-69323852D01*
G37*
G36*
X75598414Y-69323852D02*
G01*
X75752228Y-69354448D01*
X75897117Y-69414463D01*
X76027515Y-69501592D01*
X76138408Y-69612485D01*
X76225537Y-69742883D01*
X76285552Y-69887772D01*
X76316148Y-70041586D01*
X76316148Y-70198414D01*
X76285552Y-70352228D01*
X76225537Y-70497117D01*
X76138408Y-70627515D01*
X76027515Y-70738408D01*
X75897117Y-70825537D01*
X75752228Y-70885552D01*
X75598414Y-70916148D01*
X75520000Y-70920000D01*
X75518749Y-70920000D01*
X74721251Y-70920000D01*
X74720000Y-70920000D01*
X74641586Y-70916148D01*
X74487772Y-70885552D01*
X74342883Y-70825537D01*
X74212485Y-70738408D01*
X74101592Y-70627515D01*
X74014463Y-70497117D01*
X73954448Y-70352228D01*
X73923852Y-70198414D01*
X73923852Y-70041586D01*
X73954448Y-69887772D01*
X74014463Y-69742883D01*
X74101592Y-69612485D01*
X74212485Y-69501592D01*
X74342883Y-69414463D01*
X74487772Y-69354448D01*
X74641586Y-69323852D01*
X74720000Y-69320000D01*
X75520000Y-69320000D01*
X75598414Y-69323852D01*
G37*
G36*
X58441616Y-69300818D02*
G01*
X58492879Y-69306766D01*
X58510392Y-69314499D01*
X58533171Y-69319030D01*
X58557557Y-69335324D01*
X58578288Y-69344478D01*
X58592446Y-69358636D01*
X58614277Y-69373223D01*
X58628863Y-69395053D01*
X58643021Y-69409211D01*
X58652173Y-69429939D01*
X58668470Y-69454329D01*
X58673001Y-69477109D01*
X58680733Y-69494620D01*
X58686678Y-69545872D01*
X58687500Y-69550000D01*
X58687500Y-70450000D01*
X58686678Y-70454128D01*
X58680733Y-70505379D01*
X58673001Y-70522888D01*
X58668470Y-70545671D01*
X58652172Y-70570062D01*
X58643021Y-70590788D01*
X58628865Y-70604943D01*
X58614277Y-70626777D01*
X58592443Y-70641365D01*
X58578288Y-70655521D01*
X58557562Y-70664672D01*
X58533171Y-70680970D01*
X58510388Y-70685501D01*
X58492879Y-70693233D01*
X58441629Y-70699178D01*
X58437500Y-70700000D01*
X57912500Y-70700000D01*
X57908373Y-70699179D01*
X57857120Y-70693233D01*
X57839609Y-70685501D01*
X57816829Y-70680970D01*
X57792439Y-70664673D01*
X57771711Y-70655521D01*
X57757553Y-70641363D01*
X57735723Y-70626777D01*
X57721136Y-70604946D01*
X57706978Y-70590788D01*
X57697824Y-70570057D01*
X57681530Y-70545671D01*
X57676999Y-70522892D01*
X57669266Y-70505379D01*
X57663318Y-70454117D01*
X57662500Y-70450000D01*
X57662500Y-69550000D01*
X57663318Y-69545885D01*
X57669266Y-69494620D01*
X57676999Y-69477105D01*
X57681530Y-69454329D01*
X57697823Y-69429944D01*
X57706978Y-69409211D01*
X57721138Y-69395050D01*
X57735723Y-69373223D01*
X57757550Y-69358638D01*
X57771711Y-69344478D01*
X57792444Y-69335323D01*
X57816829Y-69319030D01*
X57839605Y-69314499D01*
X57857120Y-69306766D01*
X57908384Y-69300818D01*
X57912500Y-69300000D01*
X58437500Y-69300000D01*
X58441616Y-69300818D01*
G37*
G36*
X60266616Y-69300818D02*
G01*
X60317879Y-69306766D01*
X60335392Y-69314499D01*
X60358171Y-69319030D01*
X60382557Y-69335324D01*
X60403288Y-69344478D01*
X60417446Y-69358636D01*
X60439277Y-69373223D01*
X60453863Y-69395053D01*
X60468021Y-69409211D01*
X60477173Y-69429939D01*
X60493470Y-69454329D01*
X60498001Y-69477109D01*
X60505733Y-69494620D01*
X60511678Y-69545872D01*
X60512500Y-69550000D01*
X60512500Y-70450000D01*
X60511678Y-70454128D01*
X60505733Y-70505379D01*
X60498001Y-70522888D01*
X60493470Y-70545671D01*
X60477172Y-70570062D01*
X60468021Y-70590788D01*
X60453865Y-70604943D01*
X60439277Y-70626777D01*
X60417443Y-70641365D01*
X60403288Y-70655521D01*
X60382562Y-70664672D01*
X60358171Y-70680970D01*
X60335388Y-70685501D01*
X60317879Y-70693233D01*
X60266629Y-70699178D01*
X60262500Y-70700000D01*
X59737500Y-70700000D01*
X59733373Y-70699179D01*
X59682120Y-70693233D01*
X59664609Y-70685501D01*
X59641829Y-70680970D01*
X59617439Y-70664673D01*
X59596711Y-70655521D01*
X59582553Y-70641363D01*
X59560723Y-70626777D01*
X59546136Y-70604946D01*
X59531978Y-70590788D01*
X59522824Y-70570057D01*
X59506530Y-70545671D01*
X59501999Y-70522892D01*
X59494266Y-70505379D01*
X59488318Y-70454117D01*
X59487500Y-70450000D01*
X59487500Y-69550000D01*
X59488318Y-69545885D01*
X59494266Y-69494620D01*
X59501999Y-69477105D01*
X59506530Y-69454329D01*
X59522823Y-69429944D01*
X59531978Y-69409211D01*
X59546138Y-69395050D01*
X59560723Y-69373223D01*
X59582550Y-69358638D01*
X59596711Y-69344478D01*
X59617444Y-69335323D01*
X59641829Y-69319030D01*
X59664605Y-69314499D01*
X59682120Y-69306766D01*
X59733384Y-69300818D01*
X59737500Y-69300000D01*
X60262500Y-69300000D01*
X60266616Y-69300818D01*
G37*
G36*
X83479116Y-69450818D02*
G01*
X83530379Y-69456766D01*
X83547892Y-69464499D01*
X83570671Y-69469030D01*
X83595057Y-69485324D01*
X83615788Y-69494478D01*
X83629946Y-69508636D01*
X83651777Y-69523223D01*
X83666363Y-69545053D01*
X83680521Y-69559211D01*
X83689673Y-69579939D01*
X83705970Y-69604329D01*
X83710501Y-69627109D01*
X83718233Y-69644620D01*
X83724178Y-69695872D01*
X83725000Y-69700000D01*
X83725000Y-70200000D01*
X83724178Y-70204128D01*
X83718233Y-70255379D01*
X83710501Y-70272888D01*
X83705970Y-70295671D01*
X83689672Y-70320062D01*
X83680521Y-70340788D01*
X83666365Y-70354943D01*
X83651777Y-70376777D01*
X83629943Y-70391365D01*
X83615788Y-70405521D01*
X83595062Y-70414672D01*
X83570671Y-70430970D01*
X83547888Y-70435501D01*
X83530379Y-70443233D01*
X83479129Y-70449178D01*
X83475000Y-70450000D01*
X82525000Y-70450000D01*
X82520873Y-70449179D01*
X82469620Y-70443233D01*
X82452109Y-70435501D01*
X82429329Y-70430970D01*
X82404939Y-70414673D01*
X82384211Y-70405521D01*
X82370053Y-70391363D01*
X82348223Y-70376777D01*
X82333636Y-70354946D01*
X82319478Y-70340788D01*
X82310324Y-70320057D01*
X82294030Y-70295671D01*
X82289499Y-70272892D01*
X82281766Y-70255379D01*
X82275818Y-70204117D01*
X82275000Y-70200000D01*
X82275000Y-69700000D01*
X82275818Y-69695885D01*
X82281766Y-69644620D01*
X82289499Y-69627105D01*
X82294030Y-69604329D01*
X82310323Y-69579944D01*
X82319478Y-69559211D01*
X82333638Y-69545050D01*
X82348223Y-69523223D01*
X82370050Y-69508638D01*
X82384211Y-69494478D01*
X82404944Y-69485323D01*
X82429329Y-69469030D01*
X82452105Y-69464499D01*
X82469620Y-69456766D01*
X82520884Y-69450818D01*
X82525000Y-69450000D01*
X83475000Y-69450000D01*
X83479116Y-69450818D01*
G37*
G36*
X112032228Y-67214448D02*
G01*
X112177117Y-67274463D01*
X112307515Y-67361592D01*
X112418408Y-67472485D01*
X112505537Y-67602883D01*
X112565552Y-67747772D01*
X112596148Y-67901586D01*
X112600000Y-67980000D01*
X112600000Y-68780000D01*
X112596148Y-68858414D01*
X112565552Y-69012228D01*
X112505537Y-69157117D01*
X112418408Y-69287515D01*
X112307515Y-69398408D01*
X112177117Y-69485537D01*
X112032228Y-69545552D01*
X111878414Y-69576148D01*
X111721586Y-69576148D01*
X111567772Y-69545552D01*
X111422883Y-69485537D01*
X111292485Y-69398408D01*
X111181592Y-69287515D01*
X111094463Y-69157117D01*
X111034448Y-69012228D01*
X111003852Y-68858414D01*
X111000000Y-68780000D01*
X111000000Y-67980000D01*
X111003852Y-67901586D01*
X111034448Y-67747772D01*
X111094463Y-67602883D01*
X111181592Y-67472485D01*
X111292485Y-67361592D01*
X111422883Y-67274463D01*
X111567772Y-67214448D01*
X111721586Y-67183852D01*
X111878414Y-67183852D01*
X112032228Y-67214448D01*
G37*
G36*
X114572228Y-67214448D02*
G01*
X114717117Y-67274463D01*
X114847515Y-67361592D01*
X114958408Y-67472485D01*
X115045537Y-67602883D01*
X115105552Y-67747772D01*
X115136148Y-67901586D01*
X115140000Y-67980000D01*
X115140000Y-68780000D01*
X115136148Y-68858414D01*
X115105552Y-69012228D01*
X115045537Y-69157117D01*
X114958408Y-69287515D01*
X114847515Y-69398408D01*
X114717117Y-69485537D01*
X114572228Y-69545552D01*
X114418414Y-69576148D01*
X114261586Y-69576148D01*
X114107772Y-69545552D01*
X113962883Y-69485537D01*
X113832485Y-69398408D01*
X113721592Y-69287515D01*
X113634463Y-69157117D01*
X113574448Y-69012228D01*
X113543852Y-68858414D01*
X113540000Y-68780000D01*
X113540000Y-67980000D01*
X113543852Y-67901586D01*
X113574448Y-67747772D01*
X113634463Y-67602883D01*
X113721592Y-67472485D01*
X113832485Y-67361592D01*
X113962883Y-67274463D01*
X114107772Y-67214448D01*
X114261586Y-67183852D01*
X114418414Y-67183852D01*
X114572228Y-67214448D01*
G37*
G36*
X117112228Y-67214448D02*
G01*
X117257117Y-67274463D01*
X117387515Y-67361592D01*
X117498408Y-67472485D01*
X117585537Y-67602883D01*
X117645552Y-67747772D01*
X117676148Y-67901586D01*
X117680000Y-67980000D01*
X117680000Y-68780000D01*
X117676148Y-68858414D01*
X117645552Y-69012228D01*
X117585537Y-69157117D01*
X117498408Y-69287515D01*
X117387515Y-69398408D01*
X117257117Y-69485537D01*
X117112228Y-69545552D01*
X116958414Y-69576148D01*
X116801586Y-69576148D01*
X116647772Y-69545552D01*
X116502883Y-69485537D01*
X116372485Y-69398408D01*
X116261592Y-69287515D01*
X116174463Y-69157117D01*
X116114448Y-69012228D01*
X116083852Y-68858414D01*
X116080000Y-68780000D01*
X116080000Y-67980000D01*
X116083852Y-67901586D01*
X116114448Y-67747772D01*
X116174463Y-67602883D01*
X116261592Y-67472485D01*
X116372485Y-67361592D01*
X116502883Y-67274463D01*
X116647772Y-67214448D01*
X116801586Y-67183852D01*
X116958414Y-67183852D01*
X117112228Y-67214448D01*
G37*
G36*
X119652228Y-67214448D02*
G01*
X119797117Y-67274463D01*
X119927515Y-67361592D01*
X120038408Y-67472485D01*
X120125537Y-67602883D01*
X120185552Y-67747772D01*
X120216148Y-67901586D01*
X120220000Y-67980000D01*
X120220000Y-68780000D01*
X120216148Y-68858414D01*
X120185552Y-69012228D01*
X120125537Y-69157117D01*
X120038408Y-69287515D01*
X119927515Y-69398408D01*
X119797117Y-69485537D01*
X119652228Y-69545552D01*
X119498414Y-69576148D01*
X119341586Y-69576148D01*
X119187772Y-69545552D01*
X119042883Y-69485537D01*
X118912485Y-69398408D01*
X118801592Y-69287515D01*
X118714463Y-69157117D01*
X118654448Y-69012228D01*
X118623852Y-68858414D01*
X118620000Y-68780000D01*
X118620000Y-67980000D01*
X118623852Y-67901586D01*
X118654448Y-67747772D01*
X118714463Y-67602883D01*
X118801592Y-67472485D01*
X118912485Y-67361592D01*
X119042883Y-67274463D01*
X119187772Y-67214448D01*
X119341586Y-67183852D01*
X119498414Y-67183852D01*
X119652228Y-67214448D01*
G37*
G36*
X122192228Y-67214448D02*
G01*
X122337117Y-67274463D01*
X122467515Y-67361592D01*
X122578408Y-67472485D01*
X122665537Y-67602883D01*
X122725552Y-67747772D01*
X122756148Y-67901586D01*
X122760000Y-67980000D01*
X122760000Y-68780000D01*
X122756148Y-68858414D01*
X122725552Y-69012228D01*
X122665537Y-69157117D01*
X122578408Y-69287515D01*
X122467515Y-69398408D01*
X122337117Y-69485537D01*
X122192228Y-69545552D01*
X122038414Y-69576148D01*
X121881586Y-69576148D01*
X121727772Y-69545552D01*
X121582883Y-69485537D01*
X121452485Y-69398408D01*
X121341592Y-69287515D01*
X121254463Y-69157117D01*
X121194448Y-69012228D01*
X121163852Y-68858414D01*
X121160000Y-68780000D01*
X121160000Y-67980000D01*
X121163852Y-67901586D01*
X121194448Y-67747772D01*
X121254463Y-67602883D01*
X121341592Y-67472485D01*
X121452485Y-67361592D01*
X121582883Y-67274463D01*
X121727772Y-67214448D01*
X121881586Y-67183852D01*
X122038414Y-67183852D01*
X122192228Y-67214448D01*
G37*
G36*
X124732228Y-67214448D02*
G01*
X124877117Y-67274463D01*
X125007515Y-67361592D01*
X125118408Y-67472485D01*
X125205537Y-67602883D01*
X125265552Y-67747772D01*
X125296148Y-67901586D01*
X125300000Y-67980000D01*
X125300000Y-68780000D01*
X125296148Y-68858414D01*
X125265552Y-69012228D01*
X125205537Y-69157117D01*
X125118408Y-69287515D01*
X125007515Y-69398408D01*
X124877117Y-69485537D01*
X124732228Y-69545552D01*
X124578414Y-69576148D01*
X124421586Y-69576148D01*
X124267772Y-69545552D01*
X124122883Y-69485537D01*
X123992485Y-69398408D01*
X123881592Y-69287515D01*
X123794463Y-69157117D01*
X123734448Y-69012228D01*
X123703852Y-68858414D01*
X123700000Y-68780000D01*
X123700000Y-67980000D01*
X123703852Y-67901586D01*
X123734448Y-67747772D01*
X123794463Y-67602883D01*
X123881592Y-67472485D01*
X123992485Y-67361592D01*
X124122883Y-67274463D01*
X124267772Y-67214448D01*
X124421586Y-67183852D01*
X124578414Y-67183852D01*
X124732228Y-67214448D01*
G37*
G36*
X127272228Y-67214448D02*
G01*
X127417117Y-67274463D01*
X127547515Y-67361592D01*
X127658408Y-67472485D01*
X127745537Y-67602883D01*
X127805552Y-67747772D01*
X127836148Y-67901586D01*
X127840000Y-67980000D01*
X127840000Y-68780000D01*
X127836148Y-68858414D01*
X127805552Y-69012228D01*
X127745537Y-69157117D01*
X127658408Y-69287515D01*
X127547515Y-69398408D01*
X127417117Y-69485537D01*
X127272228Y-69545552D01*
X127118414Y-69576148D01*
X126961586Y-69576148D01*
X126807772Y-69545552D01*
X126662883Y-69485537D01*
X126532485Y-69398408D01*
X126421592Y-69287515D01*
X126334463Y-69157117D01*
X126274448Y-69012228D01*
X126243852Y-68858414D01*
X126240000Y-68780000D01*
X126240000Y-67980000D01*
X126243852Y-67901586D01*
X126274448Y-67747772D01*
X126334463Y-67602883D01*
X126421592Y-67472485D01*
X126532485Y-67361592D01*
X126662883Y-67274463D01*
X126807772Y-67214448D01*
X126961586Y-67183852D01*
X127118414Y-67183852D01*
X127272228Y-67214448D01*
G37*
G36*
X83479116Y-67550818D02*
G01*
X83530379Y-67556766D01*
X83547892Y-67564499D01*
X83570671Y-67569030D01*
X83595057Y-67585324D01*
X83615788Y-67594478D01*
X83629946Y-67608636D01*
X83651777Y-67623223D01*
X83666363Y-67645053D01*
X83680521Y-67659211D01*
X83689673Y-67679939D01*
X83705970Y-67704329D01*
X83710501Y-67727109D01*
X83718233Y-67744620D01*
X83724178Y-67795872D01*
X83725000Y-67800000D01*
X83725000Y-68300000D01*
X83724178Y-68304128D01*
X83718233Y-68355379D01*
X83710501Y-68372888D01*
X83705970Y-68395671D01*
X83689672Y-68420062D01*
X83680521Y-68440788D01*
X83666365Y-68454943D01*
X83651777Y-68476777D01*
X83629943Y-68491365D01*
X83615788Y-68505521D01*
X83595062Y-68514672D01*
X83570671Y-68530970D01*
X83547888Y-68535501D01*
X83530379Y-68543233D01*
X83479129Y-68549178D01*
X83475000Y-68550000D01*
X82525000Y-68550000D01*
X82520873Y-68549179D01*
X82469620Y-68543233D01*
X82452109Y-68535501D01*
X82429329Y-68530970D01*
X82404939Y-68514673D01*
X82384211Y-68505521D01*
X82370053Y-68491363D01*
X82348223Y-68476777D01*
X82333636Y-68454946D01*
X82319478Y-68440788D01*
X82310324Y-68420057D01*
X82294030Y-68395671D01*
X82289499Y-68372892D01*
X82281766Y-68355379D01*
X82275818Y-68304117D01*
X82275000Y-68300000D01*
X82275000Y-67800000D01*
X82275818Y-67795885D01*
X82281766Y-67744620D01*
X82289499Y-67727105D01*
X82294030Y-67704329D01*
X82310323Y-67679944D01*
X82319478Y-67659211D01*
X82333638Y-67645050D01*
X82348223Y-67623223D01*
X82370050Y-67608638D01*
X82384211Y-67594478D01*
X82404944Y-67585323D01*
X82429329Y-67569030D01*
X82452105Y-67564499D01*
X82469620Y-67556766D01*
X82520884Y-67550818D01*
X82525000Y-67550000D01*
X83475000Y-67550000D01*
X83479116Y-67550818D01*
G37*
G36*
X67978414Y-66783852D02*
G01*
X68132228Y-66814448D01*
X68277117Y-66874463D01*
X68407515Y-66961592D01*
X68518408Y-67072485D01*
X68605537Y-67202883D01*
X68665552Y-67347772D01*
X68696148Y-67501586D01*
X68696148Y-67658414D01*
X68665552Y-67812228D01*
X68605537Y-67957117D01*
X68518408Y-68087515D01*
X68407515Y-68198408D01*
X68277117Y-68285537D01*
X68132228Y-68345552D01*
X67978414Y-68376148D01*
X67900000Y-68380000D01*
X67898749Y-68380000D01*
X67101251Y-68380000D01*
X67100000Y-68380000D01*
X67021586Y-68376148D01*
X66867772Y-68345552D01*
X66722883Y-68285537D01*
X66592485Y-68198408D01*
X66481592Y-68087515D01*
X66394463Y-67957117D01*
X66334448Y-67812228D01*
X66303852Y-67658414D01*
X66303852Y-67501586D01*
X66334448Y-67347772D01*
X66394463Y-67202883D01*
X66481592Y-67072485D01*
X66592485Y-66961592D01*
X66722883Y-66874463D01*
X66867772Y-66814448D01*
X67021586Y-66783852D01*
X67100000Y-66780000D01*
X67900000Y-66780000D01*
X67978414Y-66783852D01*
G37*
G36*
X75598414Y-66783852D02*
G01*
X75752228Y-66814448D01*
X75897117Y-66874463D01*
X76027515Y-66961592D01*
X76138408Y-67072485D01*
X76225537Y-67202883D01*
X76285552Y-67347772D01*
X76316148Y-67501586D01*
X76316148Y-67658414D01*
X76285552Y-67812228D01*
X76225537Y-67957117D01*
X76138408Y-68087515D01*
X76027515Y-68198408D01*
X75897117Y-68285537D01*
X75752228Y-68345552D01*
X75598414Y-68376148D01*
X75520000Y-68380000D01*
X75518749Y-68380000D01*
X74721251Y-68380000D01*
X74720000Y-68380000D01*
X74641586Y-68376148D01*
X74487772Y-68345552D01*
X74342883Y-68285537D01*
X74212485Y-68198408D01*
X74101592Y-68087515D01*
X74014463Y-67957117D01*
X73954448Y-67812228D01*
X73923852Y-67658414D01*
X73923852Y-67501586D01*
X73954448Y-67347772D01*
X74014463Y-67202883D01*
X74101592Y-67072485D01*
X74212485Y-66961592D01*
X74342883Y-66874463D01*
X74487772Y-66814448D01*
X74641586Y-66783852D01*
X74720000Y-66780000D01*
X75520000Y-66780000D01*
X75598414Y-66783852D01*
G37*
G36*
X67978414Y-64243852D02*
G01*
X68132228Y-64274448D01*
X68277117Y-64334463D01*
X68407515Y-64421592D01*
X68518408Y-64532485D01*
X68605537Y-64662883D01*
X68665552Y-64807772D01*
X68696148Y-64961586D01*
X68696148Y-65118414D01*
X68665552Y-65272228D01*
X68605537Y-65417117D01*
X68518408Y-65547515D01*
X68407515Y-65658408D01*
X68277117Y-65745537D01*
X68132228Y-65805552D01*
X67978414Y-65836148D01*
X67900000Y-65840000D01*
X67898749Y-65840000D01*
X67101251Y-65840000D01*
X67100000Y-65840000D01*
X67021586Y-65836148D01*
X66867772Y-65805552D01*
X66722883Y-65745537D01*
X66592485Y-65658408D01*
X66481592Y-65547515D01*
X66394463Y-65417117D01*
X66334448Y-65272228D01*
X66303852Y-65118414D01*
X66303852Y-64961586D01*
X66334448Y-64807772D01*
X66394463Y-64662883D01*
X66481592Y-64532485D01*
X66592485Y-64421592D01*
X66722883Y-64334463D01*
X66867772Y-64274448D01*
X67021586Y-64243852D01*
X67100000Y-64240000D01*
X67900000Y-64240000D01*
X67978414Y-64243852D01*
G37*
G36*
X75598414Y-64243852D02*
G01*
X75752228Y-64274448D01*
X75897117Y-64334463D01*
X76027515Y-64421592D01*
X76138408Y-64532485D01*
X76225537Y-64662883D01*
X76285552Y-64807772D01*
X76316148Y-64961586D01*
X76316148Y-65118414D01*
X76285552Y-65272228D01*
X76225537Y-65417117D01*
X76138408Y-65547515D01*
X76027515Y-65658408D01*
X75897117Y-65745537D01*
X75752228Y-65805552D01*
X75598414Y-65836148D01*
X75520000Y-65840000D01*
X75518749Y-65840000D01*
X74721251Y-65840000D01*
X74720000Y-65840000D01*
X74641586Y-65836148D01*
X74487772Y-65805552D01*
X74342883Y-65745537D01*
X74212485Y-65658408D01*
X74101592Y-65547515D01*
X74014463Y-65417117D01*
X73954448Y-65272228D01*
X73923852Y-65118414D01*
X73923852Y-64961586D01*
X73954448Y-64807772D01*
X74014463Y-64662883D01*
X74101592Y-64532485D01*
X74212485Y-64421592D01*
X74342883Y-64334463D01*
X74487772Y-64274448D01*
X74641586Y-64243852D01*
X74720000Y-64240000D01*
X75520000Y-64240000D01*
X75598414Y-64243852D01*
G37*
G36*
X67978414Y-61703852D02*
G01*
X68132228Y-61734448D01*
X68277117Y-61794463D01*
X68407515Y-61881592D01*
X68518408Y-61992485D01*
X68605537Y-62122883D01*
X68665552Y-62267772D01*
X68696148Y-62421586D01*
X68696148Y-62578414D01*
X68665552Y-62732228D01*
X68605537Y-62877117D01*
X68518408Y-63007515D01*
X68407515Y-63118408D01*
X68277117Y-63205537D01*
X68132228Y-63265552D01*
X67978414Y-63296148D01*
X67900000Y-63300000D01*
X67898749Y-63300000D01*
X67101251Y-63300000D01*
X67100000Y-63300000D01*
X67021586Y-63296148D01*
X66867772Y-63265552D01*
X66722883Y-63205537D01*
X66592485Y-63118408D01*
X66481592Y-63007515D01*
X66394463Y-62877117D01*
X66334448Y-62732228D01*
X66303852Y-62578414D01*
X66303852Y-62421586D01*
X66334448Y-62267772D01*
X66394463Y-62122883D01*
X66481592Y-61992485D01*
X66592485Y-61881592D01*
X66722883Y-61794463D01*
X66867772Y-61734448D01*
X67021586Y-61703852D01*
X67100000Y-61700000D01*
X67900000Y-61700000D01*
X67978414Y-61703852D01*
G37*
G36*
X75598414Y-61703852D02*
G01*
X75752228Y-61734448D01*
X75897117Y-61794463D01*
X76027515Y-61881592D01*
X76138408Y-61992485D01*
X76225537Y-62122883D01*
X76285552Y-62267772D01*
X76316148Y-62421586D01*
X76316148Y-62578414D01*
X76285552Y-62732228D01*
X76225537Y-62877117D01*
X76138408Y-63007515D01*
X76027515Y-63118408D01*
X75897117Y-63205537D01*
X75752228Y-63265552D01*
X75598414Y-63296148D01*
X75520000Y-63300000D01*
X75518749Y-63300000D01*
X74721251Y-63300000D01*
X74720000Y-63300000D01*
X74641586Y-63296148D01*
X74487772Y-63265552D01*
X74342883Y-63205537D01*
X74212485Y-63118408D01*
X74101592Y-63007515D01*
X74014463Y-62877117D01*
X73954448Y-62732228D01*
X73923852Y-62578414D01*
X73923852Y-62421586D01*
X73954448Y-62267772D01*
X74014463Y-62122883D01*
X74101592Y-61992485D01*
X74212485Y-61881592D01*
X74342883Y-61794463D01*
X74487772Y-61734448D01*
X74641586Y-61703852D01*
X74720000Y-61700000D01*
X75520000Y-61700000D01*
X75598414Y-61703852D01*
G37*
G36*
X111979116Y-62000818D02*
G01*
X112030379Y-62006766D01*
X112047892Y-62014499D01*
X112070671Y-62019030D01*
X112095057Y-62035324D01*
X112115788Y-62044478D01*
X112129946Y-62058636D01*
X112151777Y-62073223D01*
X112166363Y-62095053D01*
X112180521Y-62109211D01*
X112189673Y-62129939D01*
X112205970Y-62154329D01*
X112210501Y-62177109D01*
X112218233Y-62194620D01*
X112224178Y-62245872D01*
X112225000Y-62250000D01*
X112225000Y-62750000D01*
X112224178Y-62754128D01*
X112218233Y-62805379D01*
X112210501Y-62822888D01*
X112205970Y-62845671D01*
X112189672Y-62870062D01*
X112180521Y-62890788D01*
X112166365Y-62904943D01*
X112151777Y-62926777D01*
X112129943Y-62941365D01*
X112115788Y-62955521D01*
X112095062Y-62964672D01*
X112070671Y-62980970D01*
X112047888Y-62985501D01*
X112030379Y-62993233D01*
X111979129Y-62999178D01*
X111975000Y-63000000D01*
X111025000Y-63000000D01*
X111020873Y-62999179D01*
X110969620Y-62993233D01*
X110952109Y-62985501D01*
X110929329Y-62980970D01*
X110904939Y-62964673D01*
X110884211Y-62955521D01*
X110870053Y-62941363D01*
X110848223Y-62926777D01*
X110833636Y-62904946D01*
X110819478Y-62890788D01*
X110810324Y-62870057D01*
X110794030Y-62845671D01*
X110789499Y-62822892D01*
X110781766Y-62805379D01*
X110775818Y-62754117D01*
X110775000Y-62750000D01*
X110775000Y-62250000D01*
X110775818Y-62245885D01*
X110781766Y-62194620D01*
X110789499Y-62177105D01*
X110794030Y-62154329D01*
X110810323Y-62129944D01*
X110819478Y-62109211D01*
X110833638Y-62095050D01*
X110848223Y-62073223D01*
X110870050Y-62058638D01*
X110884211Y-62044478D01*
X110904944Y-62035323D01*
X110929329Y-62019030D01*
X110952105Y-62014499D01*
X110969620Y-62006766D01*
X111020884Y-62000818D01*
X111025000Y-62000000D01*
X111975000Y-62000000D01*
X111979116Y-62000818D01*
G37*
G36*
X117454116Y-61900818D02*
G01*
X117505379Y-61906766D01*
X117522892Y-61914499D01*
X117545671Y-61919030D01*
X117570057Y-61935324D01*
X117590788Y-61944478D01*
X117604946Y-61958636D01*
X117626777Y-61973223D01*
X117641363Y-61995053D01*
X117655521Y-62009211D01*
X117664673Y-62029939D01*
X117680970Y-62054329D01*
X117685501Y-62077109D01*
X117693233Y-62094620D01*
X117699178Y-62145872D01*
X117700000Y-62150000D01*
X117700000Y-62675000D01*
X117699178Y-62679128D01*
X117693233Y-62730379D01*
X117685501Y-62747888D01*
X117680970Y-62770671D01*
X117664672Y-62795062D01*
X117655521Y-62815788D01*
X117641365Y-62829943D01*
X117626777Y-62851777D01*
X117604943Y-62866365D01*
X117590788Y-62880521D01*
X117570062Y-62889672D01*
X117545671Y-62905970D01*
X117522888Y-62910501D01*
X117505379Y-62918233D01*
X117454129Y-62924178D01*
X117450000Y-62925000D01*
X116550000Y-62925000D01*
X116545873Y-62924179D01*
X116494620Y-62918233D01*
X116477109Y-62910501D01*
X116454329Y-62905970D01*
X116429939Y-62889673D01*
X116409211Y-62880521D01*
X116395053Y-62866363D01*
X116373223Y-62851777D01*
X116358636Y-62829946D01*
X116344478Y-62815788D01*
X116335324Y-62795057D01*
X116319030Y-62770671D01*
X116314499Y-62747892D01*
X116306766Y-62730379D01*
X116300818Y-62679117D01*
X116300000Y-62675000D01*
X116300000Y-62150000D01*
X116300818Y-62145885D01*
X116306766Y-62094620D01*
X116314499Y-62077105D01*
X116319030Y-62054329D01*
X116335323Y-62029944D01*
X116344478Y-62009211D01*
X116358638Y-61995050D01*
X116373223Y-61973223D01*
X116395050Y-61958638D01*
X116409211Y-61944478D01*
X116429944Y-61935323D01*
X116454329Y-61919030D01*
X116477105Y-61914499D01*
X116494620Y-61906766D01*
X116545884Y-61900818D01*
X116550000Y-61900000D01*
X117450000Y-61900000D01*
X117454116Y-61900818D01*
G37*
G36*
X111979116Y-60100818D02*
G01*
X112030379Y-60106766D01*
X112047892Y-60114499D01*
X112070671Y-60119030D01*
X112095057Y-60135324D01*
X112115788Y-60144478D01*
X112129946Y-60158636D01*
X112151777Y-60173223D01*
X112166363Y-60195053D01*
X112180521Y-60209211D01*
X112189673Y-60229939D01*
X112205970Y-60254329D01*
X112210501Y-60277109D01*
X112218233Y-60294620D01*
X112224178Y-60345872D01*
X112225000Y-60350000D01*
X112225000Y-60850000D01*
X112224178Y-60854128D01*
X112218233Y-60905379D01*
X112210501Y-60922888D01*
X112205970Y-60945671D01*
X112189672Y-60970062D01*
X112180521Y-60990788D01*
X112166365Y-61004943D01*
X112151777Y-61026777D01*
X112129943Y-61041365D01*
X112115788Y-61055521D01*
X112095062Y-61064672D01*
X112070671Y-61080970D01*
X112047888Y-61085501D01*
X112030379Y-61093233D01*
X111979129Y-61099178D01*
X111975000Y-61100000D01*
X111025000Y-61100000D01*
X111020873Y-61099179D01*
X110969620Y-61093233D01*
X110952109Y-61085501D01*
X110929329Y-61080970D01*
X110904939Y-61064673D01*
X110884211Y-61055521D01*
X110870053Y-61041363D01*
X110848223Y-61026777D01*
X110833636Y-61004946D01*
X110819478Y-60990788D01*
X110810324Y-60970057D01*
X110794030Y-60945671D01*
X110789499Y-60922892D01*
X110781766Y-60905379D01*
X110775818Y-60854117D01*
X110775000Y-60850000D01*
X110775000Y-60350000D01*
X110775818Y-60345885D01*
X110781766Y-60294620D01*
X110789499Y-60277105D01*
X110794030Y-60254329D01*
X110810323Y-60229944D01*
X110819478Y-60209211D01*
X110833638Y-60195050D01*
X110848223Y-60173223D01*
X110870050Y-60158638D01*
X110884211Y-60144478D01*
X110904944Y-60135323D01*
X110929329Y-60119030D01*
X110952105Y-60114499D01*
X110969620Y-60106766D01*
X111020884Y-60100818D01*
X111025000Y-60100000D01*
X111975000Y-60100000D01*
X111979116Y-60100818D01*
G37*
G36*
X117454116Y-60075818D02*
G01*
X117505379Y-60081766D01*
X117522892Y-60089499D01*
X117545671Y-60094030D01*
X117570057Y-60110324D01*
X117590788Y-60119478D01*
X117604946Y-60133636D01*
X117626777Y-60148223D01*
X117641363Y-60170053D01*
X117655521Y-60184211D01*
X117664673Y-60204939D01*
X117680970Y-60229329D01*
X117685501Y-60252109D01*
X117693233Y-60269620D01*
X117699178Y-60320872D01*
X117700000Y-60325000D01*
X117700000Y-60850000D01*
X117699178Y-60854128D01*
X117693233Y-60905379D01*
X117685501Y-60922888D01*
X117680970Y-60945671D01*
X117664672Y-60970062D01*
X117655521Y-60990788D01*
X117641365Y-61004943D01*
X117626777Y-61026777D01*
X117604943Y-61041365D01*
X117590788Y-61055521D01*
X117570062Y-61064672D01*
X117545671Y-61080970D01*
X117522888Y-61085501D01*
X117505379Y-61093233D01*
X117454129Y-61099178D01*
X117450000Y-61100000D01*
X116550000Y-61100000D01*
X116545873Y-61099179D01*
X116494620Y-61093233D01*
X116477109Y-61085501D01*
X116454329Y-61080970D01*
X116429939Y-61064673D01*
X116409211Y-61055521D01*
X116395053Y-61041363D01*
X116373223Y-61026777D01*
X116358636Y-61004946D01*
X116344478Y-60990788D01*
X116335324Y-60970057D01*
X116319030Y-60945671D01*
X116314499Y-60922892D01*
X116306766Y-60905379D01*
X116300818Y-60854117D01*
X116300000Y-60850000D01*
X116300000Y-60325000D01*
X116300818Y-60320885D01*
X116306766Y-60269620D01*
X116314499Y-60252105D01*
X116319030Y-60229329D01*
X116335323Y-60204944D01*
X116344478Y-60184211D01*
X116358638Y-60170050D01*
X116373223Y-60148223D01*
X116395050Y-60133638D01*
X116409211Y-60119478D01*
X116429944Y-60110323D01*
X116454329Y-60094030D01*
X116477105Y-60089499D01*
X116494620Y-60081766D01*
X116545884Y-60075818D01*
X116550000Y-60075000D01*
X117450000Y-60075000D01*
X117454116Y-60075818D01*
G37*
G36*
X67978414Y-59163852D02*
G01*
X68132228Y-59194448D01*
X68277117Y-59254463D01*
X68407515Y-59341592D01*
X68518408Y-59452485D01*
X68605537Y-59582883D01*
X68665552Y-59727772D01*
X68696148Y-59881586D01*
X68696148Y-60038414D01*
X68665552Y-60192228D01*
X68605537Y-60337117D01*
X68518408Y-60467515D01*
X68407515Y-60578408D01*
X68277117Y-60665537D01*
X68132228Y-60725552D01*
X67978414Y-60756148D01*
X67900000Y-60760000D01*
X67898749Y-60760000D01*
X67101251Y-60760000D01*
X67100000Y-60760000D01*
X67021586Y-60756148D01*
X66867772Y-60725552D01*
X66722883Y-60665537D01*
X66592485Y-60578408D01*
X66481592Y-60467515D01*
X66394463Y-60337117D01*
X66334448Y-60192228D01*
X66303852Y-60038414D01*
X66303852Y-59881586D01*
X66334448Y-59727772D01*
X66394463Y-59582883D01*
X66481592Y-59452485D01*
X66592485Y-59341592D01*
X66722883Y-59254463D01*
X66867772Y-59194448D01*
X67021586Y-59163852D01*
X67100000Y-59160000D01*
X67900000Y-59160000D01*
X67978414Y-59163852D01*
G37*
G36*
X75598414Y-59163852D02*
G01*
X75752228Y-59194448D01*
X75897117Y-59254463D01*
X76027515Y-59341592D01*
X76138408Y-59452485D01*
X76225537Y-59582883D01*
X76285552Y-59727772D01*
X76316148Y-59881586D01*
X76316148Y-60038414D01*
X76285552Y-60192228D01*
X76225537Y-60337117D01*
X76138408Y-60467515D01*
X76027515Y-60578408D01*
X75897117Y-60665537D01*
X75752228Y-60725552D01*
X75598414Y-60756148D01*
X75520000Y-60760000D01*
X75518749Y-60760000D01*
X74721251Y-60760000D01*
X74720000Y-60760000D01*
X74641586Y-60756148D01*
X74487772Y-60725552D01*
X74342883Y-60665537D01*
X74212485Y-60578408D01*
X74101592Y-60467515D01*
X74014463Y-60337117D01*
X73954448Y-60192228D01*
X73923852Y-60038414D01*
X73923852Y-59881586D01*
X73954448Y-59727772D01*
X74014463Y-59582883D01*
X74101592Y-59452485D01*
X74212485Y-59341592D01*
X74342883Y-59254463D01*
X74487772Y-59194448D01*
X74641586Y-59163852D01*
X74720000Y-59160000D01*
X75520000Y-59160000D01*
X75598414Y-59163852D01*
G37*
G36*
X117460366Y-57450818D02*
G01*
X117510198Y-57456600D01*
X117527222Y-57464117D01*
X117549529Y-57468554D01*
X117573408Y-57484510D01*
X117593506Y-57493384D01*
X117607233Y-57507111D01*
X117628607Y-57521393D01*
X117642888Y-57542766D01*
X117656615Y-57556493D01*
X117665488Y-57576588D01*
X117681446Y-57600471D01*
X117685883Y-57622779D01*
X117693399Y-57639801D01*
X117699178Y-57689621D01*
X117700000Y-57693750D01*
X117700000Y-58181250D01*
X117699178Y-58185378D01*
X117693399Y-58235198D01*
X117685883Y-58252218D01*
X117681446Y-58274529D01*
X117665486Y-58298413D01*
X117656615Y-58318506D01*
X117642890Y-58332230D01*
X117628607Y-58353607D01*
X117607230Y-58367890D01*
X117593506Y-58381615D01*
X117573413Y-58390486D01*
X117549529Y-58406446D01*
X117527218Y-58410883D01*
X117510198Y-58418399D01*
X117460379Y-58424178D01*
X117456250Y-58425000D01*
X116543750Y-58425000D01*
X116539623Y-58424179D01*
X116489801Y-58418399D01*
X116472779Y-58410883D01*
X116450471Y-58406446D01*
X116426588Y-58390488D01*
X116406493Y-58381615D01*
X116392766Y-58367888D01*
X116371393Y-58353607D01*
X116357111Y-58332233D01*
X116343384Y-58318506D01*
X116334510Y-58298408D01*
X116318554Y-58274529D01*
X116314117Y-58252222D01*
X116306600Y-58235198D01*
X116300818Y-58185367D01*
X116300000Y-58181250D01*
X116300000Y-57693750D01*
X116300818Y-57689635D01*
X116306600Y-57639801D01*
X116314117Y-57622775D01*
X116318554Y-57600471D01*
X116334508Y-57576593D01*
X116343384Y-57556493D01*
X116357113Y-57542763D01*
X116371393Y-57521393D01*
X116392763Y-57507113D01*
X116406493Y-57493384D01*
X116426593Y-57484508D01*
X116450471Y-57468554D01*
X116472775Y-57464117D01*
X116489801Y-57456600D01*
X116539634Y-57450818D01*
X116543750Y-57450000D01*
X117456250Y-57450000D01*
X117460366Y-57450818D01*
G37*
G36*
X117460366Y-55575818D02*
G01*
X117510198Y-55581600D01*
X117527222Y-55589117D01*
X117549529Y-55593554D01*
X117573408Y-55609510D01*
X117593506Y-55618384D01*
X117607233Y-55632111D01*
X117628607Y-55646393D01*
X117642888Y-55667766D01*
X117656615Y-55681493D01*
X117665488Y-55701588D01*
X117681446Y-55725471D01*
X117685883Y-55747779D01*
X117693399Y-55764801D01*
X117699178Y-55814621D01*
X117700000Y-55818750D01*
X117700000Y-56306250D01*
X117699178Y-56310378D01*
X117693399Y-56360198D01*
X117685883Y-56377218D01*
X117681446Y-56399529D01*
X117665486Y-56423413D01*
X117656615Y-56443506D01*
X117642890Y-56457230D01*
X117628607Y-56478607D01*
X117607230Y-56492890D01*
X117593506Y-56506615D01*
X117573413Y-56515486D01*
X117549529Y-56531446D01*
X117527218Y-56535883D01*
X117510198Y-56543399D01*
X117460379Y-56549178D01*
X117456250Y-56550000D01*
X116543750Y-56550000D01*
X116539623Y-56549179D01*
X116489801Y-56543399D01*
X116472779Y-56535883D01*
X116450471Y-56531446D01*
X116426588Y-56515488D01*
X116406493Y-56506615D01*
X116392766Y-56492888D01*
X116371393Y-56478607D01*
X116357111Y-56457233D01*
X116343384Y-56443506D01*
X116334510Y-56423408D01*
X116318554Y-56399529D01*
X116314117Y-56377222D01*
X116306600Y-56360198D01*
X116300818Y-56310367D01*
X116300000Y-56306250D01*
X116300000Y-55818750D01*
X116300818Y-55814635D01*
X116306600Y-55764801D01*
X116314117Y-55747775D01*
X116318554Y-55725471D01*
X116334508Y-55701593D01*
X116343384Y-55681493D01*
X116357113Y-55667763D01*
X116371393Y-55646393D01*
X116392763Y-55632113D01*
X116406493Y-55618384D01*
X116426593Y-55609508D01*
X116450471Y-55593554D01*
X116472775Y-55589117D01*
X116489801Y-55581600D01*
X116539634Y-55575818D01*
X116543750Y-55575000D01*
X117456250Y-55575000D01*
X117460366Y-55575818D01*
G37*
M02*
