M48
; DRILL file {KiCad 8.0.5} date 2024-11-04T13:30:39-0600
; FORMAT={-:-/ absolute / metric / decimal}
; #@! TF.CreationDate,2024-11-04T13:30:39-06:00
; #@! TF.GenerationSoftware,Kicad,Pcbnew,8.0.5
; #@! TF.FileFunction,Plated,1,2,PTH
FMAT,2
METRIC
; #@! TA.AperFunction,Plated,PTH,ViaDrill
T1C0.500
; #@! TA.AperFunction,Plated,PTH,ComponentDrill
T2C0.800
; #@! TA.AperFunction,Plated,PTH,ComponentDrill
T3C1.100
; #@! TA.AperFunction,Plated,PTH,ComponentDrill
T4C1.320
%
G90
G05
T1
X76.315Y-107.92
X77.815Y-117.92
X80.815Y-107.92
X81.315Y-117.92
X83.815Y-109.515
X83.815Y-123.832
X90.5Y-93.0
X90.5Y-107.5
X106.5Y-69.5
T2
X67.5Y-59.96
X67.5Y-62.5
X67.5Y-65.04
X67.5Y-67.58
X67.5Y-70.12
X67.5Y-72.66
X67.5Y-75.2
X75.12Y-59.96
X75.12Y-62.5
X75.12Y-65.04
X75.12Y-67.58
X75.12Y-70.12
X75.12Y-72.66
X75.12Y-75.2
X111.8Y-68.38
X111.8Y-76.0
X113.88Y-100.26
X113.88Y-102.8
X113.88Y-105.34
X113.88Y-107.88
X113.88Y-110.42
X113.88Y-112.96
X113.88Y-115.5
X114.34Y-68.38
X114.34Y-76.0
X116.88Y-68.38
X116.88Y-76.0
X119.42Y-68.38
X119.42Y-76.0
X121.5Y-100.26
X121.5Y-102.8
X121.5Y-105.34
X121.5Y-107.88
X121.5Y-110.42
X121.5Y-112.96
X121.5Y-115.5
X121.96Y-68.38
X121.96Y-76.0
X124.5Y-68.38
X124.5Y-76.0
X127.04Y-68.38
X127.04Y-76.0
T3
X67.315Y-113.84
X67.315Y-124.0
T4
X57.315Y-113.92
X57.315Y-118.92
M30
