%TF.GenerationSoftware,KiCad,Pcbnew,8.0.5*%
%TF.CreationDate,2024-11-04T13:30:35-06:00*%
%TF.ProjectId,KiCAD_Custom_DRC_Rules_for_PCBWay,4b694341-445f-4437-9573-746f6d5f4452,rev?*%
%TF.SameCoordinates,Original*%
%TF.FileFunction,Paste,Top*%
%TF.FilePolarity,Positive*%
%FSLAX46Y46*%
G04 Gerber Fmt 4.6, Leading zero omitted, Abs format (unit mm)*
G04 Created by KiCad (PCBNEW 8.0.5) date 2024-11-04 13:30:35*
%MOMM*%
%LPD*%
G01*
G04 APERTURE LIST*
G04 Aperture macros list*
%AMRoundRect*
0 Rectangle with rounded corners*
0 $1 Rounding radius*
0 $2 $3 $4 $5 $6 $7 $8 $9 X,Y pos of 4 corners*
0 Add a 4 corners polygon primitive as box body*
4,1,4,$2,$3,$4,$5,$6,$7,$8,$9,$2,$3,0*
0 Add four circle primitives for the rounded corners*
1,1,$1+$1,$2,$3*
1,1,$1+$1,$4,$5*
1,1,$1+$1,$6,$7*
1,1,$1+$1,$8,$9*
0 Add four rect primitives between the rounded corners*
20,1,$1+$1,$2,$3,$4,$5,0*
20,1,$1+$1,$4,$5,$6,$7,0*
20,1,$1+$1,$6,$7,$8,$9,0*
20,1,$1+$1,$8,$9,$2,$3,0*%
G04 Aperture macros list end*
%ADD10RoundRect,0.250000X-0.262500X-0.450000X0.262500X-0.450000X0.262500X0.450000X-0.262500X0.450000X0*%
%ADD11RoundRect,0.250000X-0.475000X0.250000X-0.475000X-0.250000X0.475000X-0.250000X0.475000X0.250000X0*%
%ADD12RoundRect,0.250000X0.475000X-0.250000X0.475000X0.250000X-0.475000X0.250000X-0.475000X-0.250000X0*%
%ADD13RoundRect,0.243750X0.456250X-0.243750X0.456250X0.243750X-0.456250X0.243750X-0.456250X-0.243750X0*%
%ADD14RoundRect,0.150000X-0.825000X-0.150000X0.825000X-0.150000X0.825000X0.150000X-0.825000X0.150000X0*%
%ADD15RoundRect,0.250000X0.262500X0.450000X-0.262500X0.450000X-0.262500X-0.450000X0.262500X-0.450000X0*%
%ADD16RoundRect,0.243750X-0.456250X0.243750X-0.456250X-0.243750X0.456250X-0.243750X0.456250X0.243750X0*%
%ADD17RoundRect,0.250000X0.450000X-0.262500X0.450000X0.262500X-0.450000X0.262500X-0.450000X-0.262500X0*%
%ADD18RoundRect,0.250000X0.250000X0.475000X-0.250000X0.475000X-0.250000X-0.475000X0.250000X-0.475000X0*%
%ADD19RoundRect,0.250000X-0.450000X0.262500X-0.450000X-0.262500X0.450000X-0.262500X0.450000X0.262500X0*%
%ADD20RoundRect,0.250000X-0.250000X-0.475000X0.250000X-0.475000X0.250000X0.475000X-0.250000X0.475000X0*%
%ADD21RoundRect,0.243750X0.243750X0.456250X-0.243750X0.456250X-0.243750X-0.456250X0.243750X-0.456250X0*%
%ADD22RoundRect,0.243750X-0.243750X-0.456250X0.243750X-0.456250X0.243750X0.456250X-0.243750X0.456250X0*%
G04 APERTURE END LIST*
D10*
%TO.C,R14*%
X128087500Y-114000000D03*
X129912500Y-114000000D03*
%TD*%
D11*
%TO.C,C7*%
X60000000Y-73050000D03*
X60000000Y-74950000D03*
%TD*%
D12*
%TO.C,C2*%
X75815000Y-123870000D03*
X75815000Y-121970000D03*
%TD*%
D13*
%TO.C,D2*%
X111500000Y-88937500D03*
X111500000Y-87062500D03*
%TD*%
D14*
%TO.C,U1*%
X76340000Y-109515000D03*
X76340000Y-110785000D03*
X76340000Y-112055000D03*
X76340000Y-113325000D03*
X81290000Y-113325000D03*
X81290000Y-112055000D03*
X81290000Y-110785000D03*
X81290000Y-109515000D03*
%TD*%
D10*
%TO.C,R1*%
X73402500Y-102420000D03*
X75227500Y-102420000D03*
%TD*%
D13*
%TO.C,D4*%
X53000000Y-72437500D03*
X53000000Y-70562500D03*
%TD*%
D15*
%TO.C,R7*%
X79640000Y-120000000D03*
X77815000Y-120000000D03*
%TD*%
D16*
%TO.C,D3*%
X117000000Y-56062500D03*
X117000000Y-57937500D03*
%TD*%
D17*
%TO.C,R9*%
X117000000Y-62412500D03*
X117000000Y-60587500D03*
%TD*%
D11*
%TO.C,C4*%
X119500000Y-82550000D03*
X119500000Y-84450000D03*
%TD*%
D10*
%TO.C,R11*%
X104675000Y-100000000D03*
X106500000Y-100000000D03*
%TD*%
D18*
%TO.C,C10*%
X106450000Y-108000000D03*
X104550000Y-108000000D03*
%TD*%
%TO.C,C3*%
X79715000Y-116420000D03*
X77815000Y-116420000D03*
%TD*%
D19*
%TO.C,R8*%
X111500000Y-82587500D03*
X111500000Y-84412500D03*
%TD*%
D20*
%TO.C,C11*%
X128050000Y-107500000D03*
X129950000Y-107500000D03*
%TD*%
D21*
%TO.C,D7*%
X134437500Y-100500000D03*
X132562500Y-100500000D03*
%TD*%
D20*
%TO.C,C9*%
X82865000Y-118920000D03*
X84765000Y-118920000D03*
%TD*%
D10*
%TO.C,R12*%
X104587500Y-113087500D03*
X106412500Y-113087500D03*
%TD*%
D20*
%TO.C,C1*%
X77865000Y-105920000D03*
X79765000Y-105920000D03*
%TD*%
D22*
%TO.C,D6*%
X99062500Y-113000000D03*
X100937500Y-113000000D03*
%TD*%
D10*
%TO.C,R4*%
X83402500Y-107420000D03*
X85227500Y-107420000D03*
%TD*%
D21*
%TO.C,D8*%
X134375000Y-114000000D03*
X132500000Y-114000000D03*
%TD*%
D22*
%TO.C,D5*%
X99062500Y-100000000D03*
X100937500Y-100000000D03*
%TD*%
D10*
%TO.C,R13*%
X128087500Y-100500000D03*
X129912500Y-100500000D03*
%TD*%
D15*
%TO.C,R10*%
X60000000Y-70000000D03*
X58175000Y-70000000D03*
%TD*%
D11*
%TO.C,C8*%
X86315000Y-122020000D03*
X86315000Y-123920000D03*
%TD*%
D15*
%TO.C,R2*%
X75227500Y-105920000D03*
X73402500Y-105920000D03*
%TD*%
D11*
%TO.C,C5*%
X83000000Y-68050000D03*
X83000000Y-69950000D03*
%TD*%
D19*
%TO.C,R5*%
X85315000Y-110007500D03*
X85315000Y-111832500D03*
%TD*%
D12*
%TO.C,C6*%
X111500000Y-62500000D03*
X111500000Y-60600000D03*
%TD*%
D17*
%TO.C,R6*%
X81000000Y-124412500D03*
X81000000Y-122587500D03*
%TD*%
D19*
%TO.C,R3*%
X72315000Y-110095000D03*
X72315000Y-111920000D03*
%TD*%
M02*
